<svg width="29" height="79" viewBox="0 0 29 79" fill="none" xmlns="http://www.w3.org/2000/svg">
<path d="M0.902441 11.1796L0.712012 68.7013C0.693728 74.2241 5.15604 78.716 10.6789 78.7343L18.3872 78.7598C23.91 78.7781 28.402 74.3158 28.4203 68.793L28.6107 11.2714C28.629 5.74855 24.1667 1.2566 18.6438 1.23832L10.9355 1.2128C5.41267 1.19451 0.920725 5.65681 0.902441 11.1796Z" fill="#D8C72B"/>
<path d="M0.943457 10.8867L0.759606 66.421C0.741323 71.9439 5.20362 76.4358 10.7264 76.4541L18.6544 76.4803C24.1772 76.4986 28.6691 72.0363 28.6874 66.5135L28.8713 10.9791C28.8895 5.45631 24.4272 0.964358 18.9044 0.946074L10.9765 0.919828C5.45369 0.901545 0.961741 5.36385 0.943457 10.8867Z" fill="#F8E436"/>
<rect x="13.6855" y="53.1797" width="3" height="20" rx="1.5" fill="#A4DDD4"/>
</svg>
