<svg width="29" height="79" viewBox="0 0 29 79" fill="none" xmlns="http://www.w3.org/2000/svg">
<path d="M0.697363 10.5839L0.506934 68.1056C0.48865 73.6284 4.95096 78.1203 10.4738 78.1386L18.1821 78.1641C23.7049 78.1824 28.1969 73.7201 28.2152 68.1973L28.4056 10.6757C28.4239 5.15285 23.9616 0.660897 18.4388 0.642613L10.7304 0.617094C5.2076 0.59881 0.715647 5.06111 0.697363 10.5839Z" fill="#DD7BAC"/>
<path d="M0.738379 10.291L0.554528 65.8253C0.536245 71.3482 4.99854 75.8401 10.5214 75.8584L18.4493 75.8846C23.9721 75.9029 28.464 71.4406 28.4823 65.9178L28.6662 10.3834C28.6845 4.86061 24.2222 0.368655 18.6993 0.350371L10.7714 0.324125C5.24861 0.305841 0.756663 4.76815 0.738379 10.291Z" fill="#F28EC0"/>
<rect x="13.4805" y="52.584" width="3" height="20" rx="1.5" fill="#A4DDD4"/>
</svg>
