<svg width="354" height="129" viewBox="0 0 354 129" fill="none" xmlns="http://www.w3.org/2000/svg">
<path fill-rule="evenodd" clip-rule="evenodd" d="M332.136 0.458984C320.437 0.458984 310.953 9.94279 310.953 21.6417V106.487C310.953 118.186 320.437 127.67 332.136 127.67V127.67C343.835 127.67 353.318 118.186 353.318 106.487V21.6417C353.318 9.94281 343.835 0.458984 332.136 0.458984V0.458984ZM332.136 113.548C328.236 113.548 325.075 110.386 325.075 106.487V21.6417C325.075 17.742 328.236 14.5808 332.136 14.5808V14.5808C336.035 14.5808 339.197 17.742 339.197 21.6416V106.487C339.197 110.386 336.035 113.548 332.136 113.548V113.548Z" fill="black"/>
<path fill-rule="evenodd" clip-rule="evenodd" d="M120.933 0.458984C109.234 0.458984 99.75 9.94279 99.75 21.6417V106.487C99.75 118.186 109.234 127.67 120.933 127.67V127.67C132.632 127.67 142.115 118.186 142.115 106.487V21.6417C142.115 9.94281 132.632 0.458984 120.933 0.458984V0.458984ZM120.933 113.548C117.033 113.548 113.872 110.386 113.872 106.487V21.6417C113.872 17.742 117.033 14.5808 120.933 14.5808V14.5808C124.832 14.5808 127.994 17.742 127.994 21.6416V106.487C127.994 110.386 124.832 113.548 120.933 113.548V113.548Z" fill="black"/>
<path fill-rule="evenodd" clip-rule="evenodd" d="M0.898438 121.198C0.898438 125.097 4.05971 128.259 7.95933 128.259V128.259C11.8589 128.259 15.0202 125.097 15.0202 121.198V114.137H71.5073V121.198C71.5073 125.097 74.6686 128.259 78.5682 128.259V128.259C82.4678 128.259 85.6291 125.097 85.6291 121.198V114.137C85.6291 106.338 79.3066 100.015 71.5073 100.015V100.015V13.918C71.5073 6.73827 65.687 0.917969 58.5073 0.917969H28.0202C20.8405 0.917969 15.0202 6.73827 15.0202 13.918V100.015V100.015C7.22098 100.015 0.898438 106.338 0.898438 114.137V121.198ZM57.3856 100.015H29.142V15.0397H57.3856V100.015Z" fill="black"/>
<path fill-rule="evenodd" clip-rule="evenodd" d="M156.242 115.261C156.242 122.44 162.062 128.261 169.242 128.261H213.851C221.031 128.261 226.851 122.44 226.851 115.261V55.8243C226.851 48.6446 221.031 42.8243 213.851 42.8243H170.364V14.5808H219.79C223.69 14.5808 226.851 11.4195 226.851 7.51987V7.51987C226.851 3.62025 223.69 0.458984 219.79 0.458984H169.242C162.062 0.458984 156.242 6.27928 156.242 13.459V115.261ZM170.364 114.139V56.9461H212.729V114.139H170.364Z" fill="black"/>
<path fill-rule="evenodd" clip-rule="evenodd" d="M240.658 120.892C240.658 124.792 243.819 127.953 247.719 127.953V127.953C251.619 127.953 254.78 124.792 254.78 120.892V56.9461H284.145C291.325 56.9461 297.145 51.1258 297.145 43.9461V13.459C297.145 6.2793 291.325 0.458984 284.145 0.458984H253.658C246.479 0.458984 240.658 6.27928 240.658 13.459V120.892ZM254.78 42.8243V14.5808H283.024V42.8243H254.78Z" fill="black"/>
</svg>
