<svg width="183" height="431" viewBox="0 0 183 431" fill="none" xmlns="http://www.w3.org/2000/svg">
<path d="M182.41 200.872V43.6105C182.41 19.8272 163.13 0.547028 139.346 0.547028C115.563 0.547028 96.2829 19.8272 96.2829 43.6105V144.092H0.446289V172.801H94.9919C111.56 172.801 124.992 159.369 124.992 142.801V39.256C124.992 33.7332 129.469 29.256 134.992 29.256H143.701C149.224 29.256 153.701 33.7332 153.701 39.256V202.163H97.5739C81.0054 202.163 67.5739 215.595 67.5739 232.163V343.045C67.5739 359.614 81.0054 373.045 97.5739 373.045H114.992C120.515 373.045 124.992 377.522 124.992 383.045V391.754C124.992 397.277 120.515 401.754 114.992 401.754H0.446289V430.463H110.637C134.421 430.463 153.701 411.183 153.701 387.4C153.701 363.617 134.421 344.336 110.637 344.336H96.2829V230.872H152.41C168.978 230.872 182.41 217.441 182.41 200.872Z" fill="#F28EC0"/>
</svg>
