<svg width="26400" height="1120" viewBox="0 0 26400 1120" fill="none" xmlns="http://www.w3.org/2000/svg">
<path d="M519.946 200V0H559.944V200C559.944 222.091 542.036 240 519.944 240H119.996V481.48H539.716C572.806 481.48 599.631 508.305 599.631 541.394C599.631 574.551 572.702 601.403 539.546 601.309L79.9981 600V740C79.9981 751.046 88.9522 760 99.9978 760C111.043 760 119.997 751.046 119.997 740V699.997C119.997 666.862 146.859 640 179.995 640C213.13 640 239.992 666.862 239.992 699.997V800H319.988V720C319.988 697.909 337.896 680 359.988 680H479.858C501.95 680 519.858 697.909 519.858 720V961.634H719.936V819.997C719.936 786.862 746.797 760 779.933 760C813.068 760 839.93 786.862 839.93 819.997V1078.52L1280 1080V1120L839.809 1118.64C817.765 1118.58 799.932 1100.69 799.932 1078.64V819.999C799.932 808.954 790.978 800 779.933 800C768.888 800 759.934 808.954 759.934 819.999V961.634C759.934 983.726 742.025 1001.63 719.934 1001.63H519.86C497.769 1001.63 479.86 983.726 479.86 961.634V718.52H359.986V801.444C359.986 823.536 342.077 841.444 319.986 841.444H239.994C217.902 841.444 199.994 823.536 199.994 801.444V699.999C199.994 688.954 191.04 680 179.995 680C168.949 680 159.996 688.954 159.996 699.999V740.002C159.996 773.138 133.134 800 99.9978 800C66.8619 800 40 773.138 40 740.002V600.114C40 577.978 57.9781 560.051 80.1139 560.114L539.604 561.423C550.657 561.454 559.633 552.504 559.633 541.451C559.633 530.421 550.691 521.48 539.661 521.48H119.998C97.9067 521.48 79.9981 503.571 79.9981 481.48V240C79.9981 217.909 97.9067 200 119.998 200H519.946Z" fill="#F28EC0"/>
<path d="M1839.95 200V0H1879.94V200C1879.94 222.091 1862.04 240 1839.94 240H1450.23V481.48H1850.34C1883.43 481.48 1910.25 508.304 1910.25 541.393C1910.25 574.55 1883.32 601.402 1850.16 601.306L1400 600V749.887C1400 760.932 1408.95 769.886 1420 769.886C1431.04 769.886 1440 760.932 1440 749.887V699.997C1440 666.862 1466.86 640 1499.99 640C1533.13 640 1559.99 666.862 1559.99 699.997V800H1639.99V720C1639.99 697.909 1657.9 680 1679.99 680H1805.84C1827.93 680 1845.84 697.909 1845.84 720V961.634H2039.94V819.997C2039.94 786.862 2066.8 760 2099.93 760C2133.07 760 2159.93 786.862 2159.93 819.997V1078.52L2600 1080V1120L2159.81 1118.64C2137.77 1118.58 2119.93 1100.69 2119.93 1078.64V819.999C2119.93 808.954 2110.98 800 2099.93 800C2088.89 800 2079.93 808.954 2079.93 819.999V961.634C2079.93 983.726 2062.03 1001.63 2039.93 1001.63H1845.84C1823.75 1001.63 1805.84 983.726 1805.84 961.634V718.52H1679.99V801.444C1679.99 823.536 1662.08 841.444 1639.99 841.444H1559.99C1537.9 841.444 1519.99 823.536 1519.99 801.444V699.999C1519.99 688.954 1511.04 680 1499.99 680C1488.95 680 1480 688.954 1480 699.999V749.889C1480 783.024 1453.13 809.886 1420 809.886C1386.86 809.886 1360 783.024 1360 749.888V600.116C1360 577.979 1377.98 560.052 1400.12 560.116L1850.22 561.422C1861.28 561.454 1870.25 552.503 1870.25 541.451C1870.25 530.421 1861.31 521.48 1850.28 521.48H1450.23C1428.14 521.48 1410.23 503.571 1410.23 481.48V240C1410.23 217.909 1428.14 200 1450.23 200H1839.95Z" fill="#F28EC0"/>
<path d="M3159.95 200V0H3199.94V200C3199.94 222.091 3182.04 240 3159.94 240H2780.71V481.48H3160.38C3193.47 481.48 3220.29 508.303 3220.29 541.391C3220.29 574.548 3193.36 601.4 3160.21 601.302L2720 600V759.868C2720 770.914 2728.95 779.868 2740 779.868C2751.04 779.868 2760 770.914 2760 759.868V699.997C2760 666.862 2786.86 640 2819.99 640C2853.13 640 2879.99 666.862 2879.99 699.997V800H2959.99V720C2959.99 697.909 2977.9 680 2999.99 680H3130.03C3152.12 680 3170.03 697.909 3170.03 720V961.634H3359.94V819.997C3359.94 786.862 3386.8 760 3419.93 760C3453.07 760 3479.93 786.862 3479.93 819.997V1078.52L3920 1080V1120L3479.81 1118.64C3457.77 1118.58 3439.93 1100.69 3439.93 1078.64V819.999C3439.93 808.954 3430.98 800 3419.93 800C3408.89 800 3399.93 808.954 3399.93 819.999V961.634C3399.93 983.726 3382.03 1001.63 3359.93 1001.63H3170.03C3147.94 1001.63 3130.03 983.726 3130.03 961.634V718.52H2999.99V801.444C2999.99 823.536 2982.08 841.444 2959.99 841.444H2879.99C2857.9 841.444 2839.99 823.536 2839.99 801.444V699.999C2839.99 688.954 2831.04 680 2819.99 680C2808.95 680 2800 688.954 2800 699.999V759.87C2800 793.006 2773.13 819.868 2740 819.868C2706.86 819.868 2680 793.006 2680 759.87V600.118C2680 577.981 2697.98 560.053 2720.12 560.119L3160.27 561.421C3171.32 561.453 3180.3 552.503 3180.3 541.45C3180.3 530.421 3171.36 521.48 3160.33 521.48H2780.72C2758.62 521.48 2740.72 503.571 2740.72 481.48V240C2740.72 217.909 2758.62 200 2780.72 200H3159.95Z" fill="#F28EC0"/>
<path d="M4479.95 200V0H4519.94V200C4519.94 222.091 4502.04 240 4479.94 240H4110.13V481.48H4469.72C4502.81 481.48 4529.63 508.302 4529.63 541.389C4529.63 574.547 4502.7 601.398 4469.54 601.298L4040 600L4040 769.805C4040 780.85 4048.95 789.804 4060 789.804C4071.04 789.804 4080 780.85 4080 769.805L4080 699.997C4080 666.862 4106.86 640 4139.99 640C4173.13 640 4199.99 666.862 4199.99 699.997V800H4279.99V720C4279.99 697.909 4297.9 680 4319.99 680H4455.03C4477.12 680 4495.03 697.909 4495.03 720V961.634H4679.94V819.997C4679.94 786.862 4706.8 760 4739.93 760C4773.07 760 4799.93 786.862 4799.93 819.997V1078.52L5240 1080V1120L4799.81 1118.64C4777.77 1118.58 4759.93 1100.69 4759.93 1078.64V819.999C4759.93 808.954 4750.98 800 4739.93 800C4728.89 800 4719.93 808.954 4719.93 819.999V961.634C4719.93 983.726 4702.03 1001.63 4679.93 1001.63H4495.03C4472.94 1001.63 4455.03 983.726 4455.03 961.634V718.52H4319.99V801.444C4319.99 823.536 4302.08 841.444 4279.99 841.444H4199.99C4177.9 841.444 4159.99 823.536 4159.99 801.444V699.999C4159.99 688.954 4151.04 680 4139.99 680C4128.95 680 4120 688.954 4120 699.999L4120 769.807C4120 802.943 4093.13 829.804 4060 829.804C4026.86 829.804 4000 802.942 4000 769.806L4000 600.121C4000 577.982 4017.98 560.054 4040.12 560.121L4469.6 561.419C4480.66 561.453 4489.63 552.502 4489.63 541.45C4489.63 530.421 4480.69 521.48 4469.66 521.48H4110.13C4088.04 521.48 4070.13 503.571 4070.13 481.48V240C4070.13 217.909 4088.04 200 4110.13 200H4479.95Z" fill="#F28EC0"/>
<path d="M5799.95 200V0H5839.95V200C5839.95 222.091 5822.04 240 5799.95 240H5439.96V481.48H5780.52C5813.6 481.48 5840.42 508.301 5840.42 541.387C5840.42 574.546 5813.49 601.397 5780.33 601.295L5360 600L5360 781.444C5360 792.49 5368.95 801.444 5380 801.444C5391.04 801.444 5400 792.49 5400 781.445L5400 699.997C5400 666.861 5426.86 640 5460 640C5493.13 640 5519.99 666.862 5519.99 699.997V800H5599.99V720C5599.99 697.909 5617.9 680 5639.99 680H5780.03C5802.12 680 5820.03 697.909 5820.03 720V961.634H5999.94V819.997C5999.94 786.862 6026.8 760 6059.93 760C6093.07 760 6119.93 786.862 6119.93 819.997V1078.52L6560 1080V1120L6119.81 1118.64C6097.77 1118.58 6079.93 1100.69 6079.93 1078.64V819.999C6079.93 808.954 6070.98 800 6059.93 800C6048.89 800 6039.93 808.954 6039.93 819.999V961.634C6039.93 983.726 6022.03 1001.63 5999.93 1001.63H5820.04C5797.94 1001.63 5780.04 983.726 5780.04 961.634V718.52H5639.99V801.444C5639.99 823.536 5622.08 841.444 5599.99 841.444H5519.99C5497.9 841.444 5479.99 823.536 5479.99 801.444V699.999C5479.99 688.954 5471.04 680 5460 680C5448.95 680 5440 688.954 5440 699.999L5440 781.447C5440 814.582 5413.13 841.444 5380 841.444C5346.86 841.444 5320 814.582 5320 781.446L5320 600.123C5320 577.984 5337.98 560.055 5360.12 560.124L5780.4 561.418C5791.45 561.452 5800.43 552.502 5800.43 541.449C5800.43 530.42 5791.49 521.48 5780.46 521.48H5439.96C5417.87 521.48 5399.96 503.571 5399.96 481.48V240C5399.96 217.909 5417.87 200 5439.96 200H5799.95Z" fill="#F28EC0"/>
<path d="M7119.95 200V0H7159.95V200C7159.95 222.091 7142.04 240 7119.95 240H6770.2V481.48H7090.87C7123.95 481.48 7150.77 508.301 7150.77 541.386C7150.77 574.544 7123.84 601.395 7090.68 601.291L6680 600L6680 790.162C6680 801.207 6688.95 810.161 6700 810.161C6711.04 810.161 6720 801.207 6720 790.162L6720 699.997C6720 666.862 6746.86 640 6780 640C6813.13 640 6839.99 666.862 6839.99 699.997V800H6919.99V720C6919.99 697.909 6937.9 680 6959.99 680H7105.03C7127.13 680 7145.03 697.909 7145.03 720V961.634H7319.94V819.997C7319.94 786.862 7346.8 760 7379.93 760C7413.07 760 7439.93 786.862 7439.93 819.997V1078.52L7880 1080V1120L7439.81 1118.64C7417.77 1118.58 7399.93 1100.69 7399.93 1078.64V819.999C7399.93 808.954 7390.98 800 7379.93 800C7368.89 800 7359.94 808.954 7359.94 819.999V961.634C7359.94 983.726 7342.03 1001.63 7319.94 1001.63H7145.04C7122.95 1001.63 7105.04 983.726 7105.04 961.634V718.52H6959.99V801.444C6959.99 823.536 6942.08 841.444 6919.99 841.444H6840C6817.9 841.444 6800 823.536 6800 801.444V699.999C6800 688.954 6791.04 680 6780 680C6768.95 680 6760 688.954 6760 699.999L6760 790.164C6760 823.3 6733.13 850.161 6700 850.161C6666.86 850.161 6640 823.299 6640 790.163L6640 600.126C6640 577.985 6657.99 560.057 6680.13 560.126L7090.74 561.417C7101.8 561.452 7110.78 552.501 7110.78 541.448C7110.78 530.42 7101.84 521.48 7090.81 521.48H6770.2C6748.11 521.48 6730.2 503.571 6730.2 481.48V240C6730.2 217.909 6748.11 200 6770.2 200H7119.95Z" fill="#F28EC0"/>
<path d="M8439.95 200V0H8479.95V200C8479.95 222.091 8462.04 240 8439.95 240H8099.86V481.48H8399.65C8432.73 481.48 8459.55 508.3 8459.55 541.383C8459.55 574.542 8432.61 601.393 8399.45 601.286L8000 600L8000 799.848C8000 810.894 8008.95 819.848 8020 819.848C8031.04 819.848 8040 810.894 8040 799.849L8040 699.997C8040 666.861 8066.86 640 8100 640C8133.13 640 8159.99 666.862 8159.99 699.997V800H8239.99V720C8239.99 697.909 8257.9 680 8279.99 680H8430.27C8452.36 680 8470.27 697.909 8470.27 720V961.634H8639.94V819.997C8639.94 786.862 8666.8 760 8699.93 760C8733.07 760 8759.93 786.862 8759.93 819.997V1078.52L9200 1080V1120L8759.81 1118.64C8737.77 1118.58 8719.93 1100.69 8719.93 1078.64V819.999C8719.93 808.954 8710.98 800 8699.93 800C8688.89 800 8679.94 808.954 8679.94 819.999V961.634C8679.94 983.726 8662.03 1001.63 8639.94 1001.63H8470.27C8448.18 1001.63 8430.27 983.726 8430.27 961.634V718.52H8279.99V801.444C8279.99 823.536 8262.08 841.444 8239.99 841.444H8160C8137.9 841.444 8120 823.536 8120 801.444V699.999C8120 688.954 8111.04 680 8100 680C8088.95 680 8080 688.954 8080 699.999L8080 799.851C8080 832.986 8053.13 859.848 8020 859.848C7986.86 859.848 7960 832.986 7960 799.85L7960 600.129C7960 577.987 7977.99 560.058 8000.13 560.129L8399.52 561.415C8410.57 561.451 8419.55 552.501 8419.55 541.448C8419.55 530.42 8410.61 521.48 8399.58 521.48H8099.86C8077.77 521.48 8059.86 503.571 8059.86 481.48V240C8059.86 217.909 8077.77 200 8099.86 200H8439.95Z" fill="#F28EC0"/>
<path d="M9759.95 200V0H9799.95V200C9799.95 222.091 9782.04 240 9759.95 240H9430.42V481.48H9710.48C9743.56 481.48 9770.38 508.299 9770.38 541.381C9770.38 574.541 9743.44 601.391 9710.28 601.282L9320 600L9320 810.35C9320 821.395 9328.95 830.35 9340 830.35C9351.04 830.35 9360 821.396 9360 810.35L9360 699.997C9360 666.861 9386.86 640 9420 640C9453.13 640 9479.99 666.862 9479.99 699.997V800H9559.99V720C9559.99 697.909 9577.9 680 9599.99 680H9755.34C9777.43 680 9795.34 697.909 9795.34 720V961.634H9959.94V819.997C9959.94 786.862 9986.8 760 10019.9 760C10053.1 760 10079.9 786.862 10079.9 819.997V1078.52L10520 1080V1120L10079.8 1118.64C10057.8 1118.58 10039.9 1100.69 10039.9 1078.64V819.999C10039.9 808.954 10031 800 10019.9 800C10008.9 800 9999.94 808.954 9999.94 819.999V961.634C9999.94 983.726 9982.03 1001.63 9959.94 1001.63H9795.34C9773.25 1001.63 9755.34 983.726 9755.34 961.634V718.52H9599.99V801.444C9599.99 823.536 9582.08 841.444 9559.99 841.444H9480C9457.9 841.444 9440 823.536 9440 801.444V699.999C9440 688.954 9431.04 680 9420 680C9408.95 680 9400 688.954 9400 699.999L9400 810.352C9400 843.488 9373.13 870.35 9340 870.35C9306.86 870.35 9280 843.487 9280 810.351L9280 600.131C9280 577.989 9297.99 560.059 9320.13 560.132L9710.35 561.414C9721.4 561.45 9730.38 552.5 9730.38 541.447C9730.38 530.419 9721.44 521.48 9710.41 521.48H9430.43C9408.33 521.48 9390.43 503.571 9390.43 481.48V240C9390.43 217.909 9408.33 200 9430.43 200H9759.95Z" fill="#F28EC0"/>
<path d="M11079.9 200V0H11119.9V200C11119.9 222.091 11102 240 11079.9 240H10760V481.48H11020C11053.1 481.48 11079.9 508.298 11079.9 541.379C11079.9 574.539 11053 601.389 11019.8 601.278L10640 600L10640 820.248C10640 831.293 10649 840.247 10660 840.247C10671 840.247 10680 831.293 10680 820.248L10680 699.997C10680 666.861 10706.9 640 10740 640C10773.1 640 10800 666.862 10800 699.997V800H10880V720C10880 697.909 10897.9 680 10920 680H11080.3C11102.4 680 11120.3 697.909 11120.3 720V961.634H11279.9V819.997C11279.9 786.862 11306.8 760 11339.9 760C11373.1 760 11399.9 786.862 11399.9 819.997V1078.52L11840 1080V1120L11399.8 1118.64C11377.8 1118.58 11359.9 1100.69 11359.9 1078.64V819.999C11359.9 808.954 11351 800 11339.9 800C11328.9 800 11319.9 808.954 11319.9 819.999V961.634C11319.9 983.726 11302 1001.63 11279.9 1001.63H11120.3C11098.3 1001.63 11080.3 983.726 11080.3 961.634V718.52H10920V801.444C10920 823.536 10902.1 841.444 10880 841.444H10800C10777.9 841.444 10760 823.536 10760 801.444V699.999C10760 688.954 10751 680 10740 680C10729 680 10720 688.954 10720 699.999L10720 820.25C10720 853.386 10693.1 880.247 10660 880.247C10626.9 880.247 10600 853.385 10600 820.249L10600 600.135C10600 577.991 10618 560.06 10640.1 560.135L11019.9 561.412C11031 561.45 11040 552.5 11040 541.446C11040 530.419 11031 521.48 11020 521.48H10760C10737.9 521.48 10720 503.571 10720 481.48V240C10720 217.909 10737.9 200 10760 200H11079.9Z" fill="#F28EC0"/>
<path d="M12399.9 200V0H12439.9V200C12439.9 222.091 12422 240 12399.9 240H12089.5V481.48H12330.6C12363.6 481.48 12390.4 508.297 12390.4 541.377C12390.4 574.537 12363.5 601.387 12330.3 601.273L11960 600L11960 829.642C11960 840.687 11969 849.641 11980 849.641C11991 849.641 12000 840.687 12000 829.642L12000 699.997C12000 666.861 12026.9 640 12060 640C12093.1 640 12120 666.862 12120 699.997V800H12200V720C12200 697.909 12217.9 680 12240 680H12405.3C12427.4 680 12445.3 697.909 12445.3 720V961.634H12599.9V819.997C12599.9 786.862 12626.8 760 12659.9 760C12693.1 760 12719.9 786.862 12719.9 819.997V1078.52L13160 1080V1120L12719.8 1118.64C12697.8 1118.58 12679.9 1100.69 12679.9 1078.64V819.999C12679.9 808.954 12671 800 12659.9 800C12648.9 800 12639.9 808.954 12639.9 819.999V961.634C12639.9 983.726 12622 1001.63 12599.9 1001.63H12445.3C12423.3 1001.63 12405.3 983.726 12405.3 961.634V718.52H12240V801.444C12240 823.536 12222.1 841.444 12200 841.444H12120C12097.9 841.444 12080 823.536 12080 801.444V699.999C12080 688.954 12071 680 12060 680C12049 680 12040 688.954 12040 699.999L12040 829.644C12040 862.78 12013.1 889.641 11980 889.641C11946.9 889.641 11920 862.779 11920 829.643L11920 600.138C11920 577.992 11938 560.062 11960.1 560.138L12330.4 561.411C12341.5 561.449 12350.5 552.499 12350.5 541.445C12350.5 530.419 12341.5 521.48 12330.5 521.48H12089.5C12067.4 521.48 12049.5 503.571 12049.5 481.48V240C12049.5 217.909 12067.4 200 12089.5 200H12399.9Z" fill="#F28EC0"/>
<path d="M13719.9 200V0H13759.9V200C13759.9 222.091 13742 240 13719.9 240H13421V481.48H13639.5C13672.6 481.48 13699.4 508.295 13699.4 541.374C13699.4 574.535 13672.5 601.385 13639.3 601.268L13280 600L13280 840.444C13280 851.489 13289 860.444 13300 860.444C13311 860.444 13320 851.489 13320 840.444L13320 699.997C13320 666.861 13346.9 640 13380 640C13413.1 640 13440 666.862 13440 699.997V800H13520V720C13520 697.909 13537.9 680 13560 680H13731.3C13753.4 680 13771.3 697.909 13771.3 720V961.634H13919.9V819.997C13919.9 786.862 13946.8 760 13979.9 760C14013.1 760 14039.9 786.862 14039.9 819.997V1078.52L14480 1080V1120L14039.8 1118.64C14017.8 1118.58 13999.9 1100.69 13999.9 1078.64V819.999C13999.9 808.954 13991 800 13979.9 800C13968.9 800 13959.9 808.954 13959.9 819.999V961.634C13959.9 983.726 13942 1001.63 13919.9 1001.63H13771.3C13749.3 1001.63 13731.3 983.726 13731.3 961.634V718.52H13560V801.444C13560 823.536 13542.1 841.444 13520 841.444H13440C13417.9 841.444 13400 823.536 13400 801.444V699.999C13400 688.954 13391 680 13380 680C13369 680 13360 688.954 13360 699.999L13360 840.446C13360 873.582 13333.1 900.444 13300 900.444C13266.9 900.444 13240 873.581 13240 840.445L13240 600.141C13240 577.995 13258 560.063 13280.1 560.142L13639.4 561.409C13650.5 561.448 13659.4 552.498 13659.4 541.445C13659.4 530.418 13650.5 521.48 13639.5 521.48H13421C13398.9 521.48 13381 503.571 13381 481.48V240C13381 217.909 13398.9 200 13421 200H13719.9Z" fill="#F28EC0"/>
<path d="M15039.9 200V0H15079.9V200C15079.9 222.091 15062 240 15039.9 240H14749.5V481.48H14950.7C14983.7 481.48 15010.6 508.294 15010.6 541.372C15010.6 574.533 14983.6 601.383 14950.4 601.263L14600 600L14600 850.338C14600 861.383 14609 870.337 14620 870.337C14631 870.337 14640 861.383 14640 850.337L14640 699.998C14640 666.862 14666.9 640 14700 640C14733.1 640 14760 666.861 14760 699.997V800H14840V720C14840 697.909 14857.9 680 14880 680H15055.1C15077.2 680 15095.1 697.909 15095.1 720V961.634H15239.9V819.997C15239.9 786.862 15266.8 760 15299.9 760C15333.1 760 15359.9 786.862 15359.9 819.997V1078.52L15800 1080V1120L15359.8 1118.64C15337.8 1118.58 15319.9 1100.69 15319.9 1078.64V819.999C15319.9 808.954 15311 800 15299.9 800C15288.9 800 15279.9 808.954 15279.9 819.999V961.634C15279.9 983.726 15262 1001.63 15239.9 1001.63H15095.1C15073 1001.63 15055.1 983.726 15055.1 961.634V718.52H14880V801.444C14880 823.536 14862.1 841.444 14840 841.444H14760C14737.9 841.444 14720 823.536 14720 801.444V699.999C14720 688.954 14711 680 14700 680C14688.9 680 14680 688.954 14680 699.999L14680 850.338C14680 883.474 14653.1 910.337 14620 910.337C14586.9 910.337 14560 883.475 14560 850.34L14560 600.145C14560 577.997 14578 560.065 14600.1 560.145L14950.5 561.408C14961.6 561.448 14970.6 552.498 14970.6 541.444C14970.6 530.418 14961.6 521.48 14950.6 521.48H14749.5C14727.4 521.48 14709.5 503.571 14709.5 481.48V240C14709.5 217.909 14727.4 200 14749.5 200H15039.9Z" fill="#F28EC0"/>
<path d="M16359.9 200V0H16399.9V200C16399.9 222.091 16382 240 16359.9 240H16079.9V481.48H16260.4C16293.5 481.48 16320.3 508.293 16320.3 541.369C16320.3 574.531 16293.4 601.38 16260.2 601.258L15920 600L15920 859.937C15920 870.982 15929 879.936 15940 879.936C15951 879.936 15960 870.982 15960 859.936L15960 699.998C15960 666.862 15986.9 640 16020 640C16053.1 640 16080 666.861 16080 699.997V800H16160V720C16160 697.909 16177.9 680 16200 680H16381.1C16403.2 680 16421.1 697.909 16421.1 720V961.634H16559.9V819.997C16559.9 786.862 16586.8 760 16619.9 760C16653.1 760 16679.9 786.862 16679.9 819.997V1078.52L17120 1080V1120L16679.8 1118.64C16657.8 1118.58 16639.9 1100.69 16639.9 1078.64V819.999C16639.9 808.954 16631 800 16619.9 800C16608.9 800 16599.9 808.954 16599.9 819.999V961.634C16599.9 983.726 16582 1001.63 16559.9 1001.63H16421.1C16399 1001.63 16381.1 983.726 16381.1 961.634V718.52H16200V801.444C16200 823.536 16182.1 841.444 16160 841.444H16080C16057.9 841.444 16040 823.536 16040 801.444V699.999C16040 688.954 16031 680 16020 680C16008.9 680 16000 688.954 16000 699.999L16000 859.938C16000 893.074 15973.1 919.936 15940 919.936C15906.9 919.936 15880 893.075 15880 859.939L15880 600.149C15880 577.999 15898 560.067 15920.1 560.148L16260.3 561.406C16271.3 561.447 16280.3 552.497 16280.3 541.443C16280.3 530.418 16271.4 521.48 16260.4 521.48H16079.9C16057.8 521.48 16039.9 503.571 16039.9 481.48V240C16039.9 217.909 16057.8 200 16079.9 200H16359.9Z" fill="#F28EC0"/>
<path d="M17679.9 200V0H17719.9V200C17719.9 222.091 17702 240 17679.9 240H17410.4V481.48H17570.9C17604 481.48 17630.8 508.292 17630.8 541.366C17630.8 574.529 17603.8 601.378 17570.7 601.252L17240 600L17240 870.061C17240 881.106 17249 890.06 17260 890.06C17271 890.06 17280 881.106 17280 870.06L17280 699.998C17280 666.862 17306.9 640 17340 640C17373.1 640 17400 666.861 17400 699.996V800H17480V720C17480 697.909 17497.9 680 17520 680H17706.1C17728.2 680 17746.1 697.909 17746.1 720V961.634H17879.9V819.997C17879.9 786.862 17906.8 760 17939.9 760C17973.1 760 17999.9 786.862 17999.9 819.997V1078.52L18440 1080V1120L17999.8 1118.64C17977.8 1118.58 17959.9 1100.69 17959.9 1078.64V819.999C17959.9 808.954 17951 800 17939.9 800C17928.9 800 17919.9 808.954 17919.9 819.999V961.634C17919.9 983.726 17902 1001.63 17879.9 1001.63H17746.1C17724 1001.63 17706.1 983.726 17706.1 961.634V718.52H17520V801.444C17520 823.536 17502.1 841.444 17480 841.444H17400C17377.9 841.444 17360 823.536 17360 801.444V699.999C17360 688.954 17351 680 17340 680C17328.9 680 17320 688.954 17320 699.999L17320 870.061C17320 903.198 17293.1 930.06 17260 930.06C17226.9 930.06 17200 903.199 17200 870.064L17200 600.152C17200 578.002 17218 560.068 17240.2 560.152L17570.8 561.404C17581.8 561.446 17590.8 552.496 17590.8 541.442C17590.8 530.417 17581.9 521.48 17570.8 521.48H17410.4C17388.3 521.48 17370.4 503.571 17370.4 481.48V240C17370.4 217.909 17388.3 200 17410.4 200H17679.9Z" fill="#F28EC0"/>
<path d="M18999.9 200V0H19039.9V200C19039.9 222.091 19022 240 18999.9 240H18740.5V481.48H18880.5C18913.5 481.48 18940.3 508.291 18940.3 541.363C18940.3 574.527 18913.4 601.375 18880.2 601.246L18560 600L18560 879.965C18560 891.011 18569 899.965 18580 899.965C18591 899.965 18600 891.01 18600 879.965L18600 699.998C18600 666.862 18626.9 640 18660 640C18693.1 640 18720 666.861 18720 699.996V800H18800V720C18800 697.909 18817.9 680 18840 680H19030C19052.1 680 19070 697.909 19070 720V961.634H19199.9V819.997C19199.9 786.862 19226.8 760 19259.9 760C19293.1 760 19319.9 786.862 19319.9 819.997V1078.52L19760 1080V1120L19319.8 1118.64C19297.8 1118.58 19279.9 1100.69 19279.9 1078.64V819.999C19279.9 808.954 19271 800 19259.9 800C19248.9 800 19239.9 808.954 19239.9 819.999V961.634C19239.9 983.726 19222 1001.63 19199.9 1001.63H19070C19048 1001.63 19030 983.726 19030 961.634V718.52H18840V801.444C18840 823.536 18822.1 841.444 18800 841.444H18720C18697.9 841.444 18680 823.536 18680 801.444V699.999C18680 688.954 18671 680 18660 680C18648.9 680 18640 688.954 18640 699.999L18640 879.966C18640 913.102 18613.1 939.965 18580 939.965C18546.9 939.965 18520 913.103 18520 879.968L18520 600.157C18520 578.004 18538 560.07 18560.2 560.156L18880.3 561.402C18891.4 561.445 18900.3 552.495 18900.3 541.441C18900.3 530.417 18891.4 521.48 18880.4 521.48H18740.5C18718.4 521.48 18700.5 503.571 18700.5 481.48V240C18700.5 217.909 18718.4 200 18740.5 200H18999.9Z" fill="#F28EC0"/>
<path d="M20319.9 200V0H20359.9V200C20359.9 222.091 20342 240 20319.9 240H20070.6V481.48H20189.9C20222.9 481.48 20249.8 508.289 20249.8 541.36C20249.8 574.524 20222.8 601.372 20189.6 601.239L19880 600L19880 890.128C19880 901.174 19889 910.127 19900 910.127C19911 910.127 19920 901.173 19920 890.127L19920 699.998C19920 666.862 19946.9 640 19980 640C20013.1 640 20040 666.861 20040 699.996V800H20120V720C20120 697.909 20137.9 680 20160 680H20355C20377.1 680 20395 697.909 20395 720V961.634H20519.9V819.997C20519.9 786.862 20546.8 760 20579.9 760C20613.1 760 20639.9 786.862 20639.9 819.997V1078.52L21080 1080V1120L20639.8 1118.64C20617.8 1118.58 20599.9 1100.69 20599.9 1078.64V819.999C20599.9 808.954 20591 800 20579.9 800C20568.9 800 20559.9 808.954 20559.9 819.999V961.634C20559.9 983.726 20542 1001.63 20519.9 1001.63H20395C20373 1001.63 20355 983.726 20355 961.634V718.52H20160V801.444C20160 823.536 20142.1 841.444 20120 841.444H20040C20017.9 841.444 20000 823.536 20000 801.444V699.999C20000 688.954 19991 680 19980 680C19968.9 680 19960 688.954 19960 699.999L19960 890.129C19960 923.265 19933.1 950.127 19900 950.127C19866.9 950.127 19840 923.266 19840 890.131L19840 600.161C19840 578.007 19858 560.072 19880.2 560.161L20189.7 561.4C20200.8 561.444 20209.8 552.495 20209.8 541.44C20209.8 530.416 20200.8 521.48 20189.8 521.48H20070.6C20048.5 521.48 20030.6 503.571 20030.6 481.48V240C20030.6 217.909 20048.5 200 20070.6 200H20319.9Z" fill="#F28EC0"/>
<path d="M21639.9 200V0H21679.9V200C21679.9 222.091 21662 240 21639.9 240H21400V481.48H21501.4C21534.4 481.48 21561.2 508.288 21561.2 541.357C21561.2 574.522 21534.3 601.369 21501.1 601.234L21200 600L21200 899.938C21200 910.984 21209 919.937 21220 919.937C21231 919.937 21240 910.983 21240 899.937L21240 699.998C21240 666.862 21266.9 640 21300 640C21333.1 640 21360 666.861 21360 699.996V800H21440V720C21440 697.909 21457.9 680 21480 680H21679.4C21701.5 680 21719.4 697.909 21719.4 720V961.634H21839.9V819.997C21839.9 786.862 21866.8 760 21899.9 760C21933.1 760 21959.9 786.862 21959.9 819.997V1078.52L22400 1080V1120L21959.8 1118.64C21937.8 1118.58 21919.9 1100.69 21919.9 1078.64V819.999C21919.9 808.954 21911 800 21899.9 800C21888.9 800 21879.9 808.954 21879.9 819.999V961.634C21879.9 983.726 21862 1001.63 21839.9 1001.63H21719.4C21697.3 1001.63 21679.4 983.726 21679.4 961.634V718.52H21480V801.444C21480 823.536 21462.1 841.444 21440 841.444H21360C21337.9 841.444 21320 823.536 21320 801.444V699.999C21320 688.954 21311 680 21300 680C21288.9 680 21280 688.954 21280 699.999L21280 899.939C21280 933.075 21253.1 959.937 21220 959.937C21186.9 959.937 21160 933.076 21160 899.941L21160 600.165C21160 578.009 21178 560.074 21200.2 560.165L21501.2 561.398C21512.2 561.443 21521.2 552.494 21521.2 541.439C21521.2 530.416 21512.3 521.48 21501.3 521.48H21400C21377.9 521.48 21360 503.571 21360 481.48V240C21360 217.909 21377.9 200 21400 200H21639.9Z" fill="#F28EC0"/>
<path d="M22959.9 200V0H22999.9V200C22999.9 222.091 22982 240 22959.9 240H22729.5V481.48H22810.7C22843.8 481.48 22870.6 508.286 22870.6 541.353C22870.6 574.519 22843.6 601.366 22810.4 601.226L22520 600L22520 909.401C22520 920.446 22529 929.4 22540 929.4C22551 929.4 22560 920.446 22560 909.4L22560 699.998C22560 666.862 22586.9 640 22620 640C22653.1 640 22680 666.861 22680 699.996V800H22760V720C22760 697.909 22777.9 680 22800 680H23005.4C23027.5 680 23045.4 697.909 23045.4 720V961.634H23159.9V819.997C23159.9 786.862 23186.8 760 23219.9 760C23253.1 760 23279.9 786.862 23279.9 819.997V1078.52L23720 1080V1120L23279.8 1118.64C23257.8 1118.58 23239.9 1100.69 23239.9 1078.64V819.999C23239.9 808.954 23231 800 23219.9 800C23208.9 800 23199.9 808.954 23199.9 819.999V961.634C23199.9 983.726 23182 1001.63 23159.9 1001.63H23045.4C23023.3 1001.63 23005.4 983.726 23005.4 961.634V718.52H22800V801.444C22800 823.536 22782.1 841.444 22760 841.444H22680C22657.9 841.444 22640 823.536 22640 801.444V699.999C22640 688.954 22631 680 22620 680C22608.9 680 22600 688.954 22600 699.999L22600 909.401C22600 942.537 22573.1 969.4 22540 969.4C22506.9 969.4 22480 942.539 22480 909.403L22480 600.17C22480 578.012 22498 560.076 22520.2 560.17L22810.5 561.395C22821.6 561.442 22830.6 552.493 22830.6 541.438C22830.6 530.415 22821.6 521.48 22810.6 521.48H22729.5C22707.4 521.48 22689.5 503.571 22689.5 481.48V240C22689.5 217.909 22707.4 200 22729.5 200H22959.9Z" fill="#F28EC0"/>
<path d="M24279.9 200V0H24319.9V200C24319.9 222.091 24302 240 24279.9 240H24059.5V481.48H24119.8C24152.8 481.48 24179.6 508.284 24179.6 541.349C24179.6 574.516 24152.7 601.362 24119.5 601.218L23840 600L23840 920.49C23840 931.536 23849 940.49 23860 940.49C23871 940.49 23880 931.535 23880 920.49L23880 699.998C23880 666.862 23906.9 640 23940 640C23973.1 640 24000 666.861 24000 699.997V800H24080V720C24080 697.909 24097.9 680 24120 680H24330.4C24352.5 680 24370.4 697.909 24370.4 720V961.634H24479.9V819.997C24479.9 786.862 24506.8 760 24539.9 760C24573.1 760 24599.9 786.862 24599.9 819.997V1078.52L25040 1080V1120L24599.8 1118.64C24577.8 1118.58 24559.9 1100.69 24559.9 1078.64V819.999C24559.9 808.954 24551 800 24539.9 800C24528.9 800 24519.9 808.954 24519.9 819.999V961.634C24519.9 983.726 24502 1001.63 24479.9 1001.63H24370.4C24348.3 1001.63 24330.4 983.726 24330.4 961.634V718.52H24120V801.444C24120 823.536 24102.1 841.444 24080 841.444H24000C23977.9 841.444 23960 823.536 23960 801.444V699.999C23960 688.954 23951 680 23940 680C23928.9 680 23920 688.954 23920 699.999L23920 920.491C23920 953.627 23893.1 980.49 23860 980.49C23826.9 980.49 23800 953.628 23800 920.493L23800 600.175C23800 578.016 23818 560.078 23840.2 560.175L24119.6 561.393C24130.6 561.441 24139.6 552.492 24139.6 541.436C24139.6 530.415 24130.7 521.48 24119.7 521.48H24059.5C24037.4 521.48 24019.5 503.571 24019.5 481.48V240C24019.5 217.909 24037.4 200 24059.5 200H24279.9Z" fill="#F28EC0"/>
<path d="M25599.9 200V0H25639.9V200C25639.9 222.091 25622 240 25599.9 240H25389.7V481.48H25430.5C25463.5 481.48 25490.3 508.283 25490.3 541.345C25490.3 574.513 25463.4 601.359 25430.2 601.21L25160 600L25160 930.538C25160 941.583 25169 950.537 25180 950.537C25191 950.537 25200 941.583 25200 930.537L25200 699.998C25200 666.862 25226.9 640 25260 640C25293.1 640 25320 666.861 25320 699.997V800H25400V720C25400 697.909 25417.9 680 25440 680H25654.7C25676.8 680 25694.7 697.909 25694.7 720V961.634H25799.9V819.997C25799.9 786.862 25826.8 760 25859.9 760C25893.1 760 25919.9 786.862 25919.9 819.997V1078.52L26360 1080V1120L25919.8 1118.64C25897.8 1118.58 25879.9 1100.69 25879.9 1078.64V819.999C25879.9 808.954 25871 800 25859.9 800C25848.9 800 25839.9 808.954 25839.9 819.999V961.634C25839.9 983.726 25822 1001.63 25799.9 1001.63H25694.7C25672.7 1001.63 25654.7 983.726 25654.7 961.634V718.52H25440V801.444C25440 823.536 25422.1 841.444 25400 841.444H25320C25297.9 841.444 25280 823.536 25280 801.444V699.999C25280 688.954 25271 680 25260 680C25248.9 680 25240 688.954 25240 699.999L25240 930.538C25240 963.675 25213.1 990.537 25180 990.537C25146.9 990.537 25120 963.676 25120 930.54L25120 600.18C25120 578.019 25138 560.081 25160.2 560.18L25430.3 561.39C25441.3 561.44 25450.3 552.491 25450.3 541.435C25450.3 530.414 25441.4 521.48 25430.4 521.48H25389.7C25367.6 521.48 25349.7 503.571 25349.7 481.48V240C25349.7 217.909 25367.6 200 25389.7 200H25599.9Z" fill="#F28EC0"/>
</svg>
