<svg width="29600" height="1121" viewBox="0 0 29600 1121" fill="none" xmlns="http://www.w3.org/2000/svg">
<g clip-path="url(#clip0)">
<path d="M600 200.727V0.726562H640V200.727C640 222.818 622.091 240.727 600 240.727H159.477V482.206H660.686C693.823 482.206 720.686 509.069 720.686 542.206C720.686 575.344 693.823 602.206 660.686 602.206H80V762.206H160V702.206C160 669.069 186.863 642.206 220 642.206C253.137 642.206 280 669.069 280 702.206V802.206H360V721.995C360 699.987 377.78 682.112 399.788 681.996L599.638 680.939C621.812 680.822 639.85 698.765 639.85 720.939V962.361H838.49V821.185C838.49 788.048 865.353 761.185 898.49 761.185C931.627 761.185 958.49 788.048 958.49 821.185V1079.25L1440 1080.73V1120.73L958.376 1119.36C936.329 1119.3 918.49 1101.41 918.49 1079.36V821.185C918.49 810.139 909.535 801.185 898.49 801.185C887.444 801.185 878.49 810.139 878.49 821.185V962.361C878.49 984.452 860.581 1002.36 838.49 1002.36H639.85C617.758 1002.36 599.85 984.452 599.85 962.361V719.247L400 720.727V803.651C400 825.742 382.091 843.651 360 843.651H280C257.909 843.651 240 825.742 240 803.651V702.206C240 691.161 231.046 682.206 220 682.206C208.954 682.206 200 691.161 200 702.206V762.206C200 784.298 182.091 802.206 160 802.206H80C57.9086 802.206 40 784.298 40 762.206V602.206C40 580.115 57.9087 562.206 80.0001 562.206H660.686C671.732 562.206 680.686 553.252 680.686 542.206C680.686 531.161 671.732 522.206 660.686 522.206H159.477C137.386 522.206 119.477 504.298 119.477 482.206V240.727C119.477 218.635 137.386 200.727 159.477 200.727H600Z" fill="#F28EC0"/>
<path d="M2080 200.727V0.726562H2120V200.727C2120 222.818 2102.09 240.727 2080 240.727H1650.56V482.206H2130.47C2163.61 482.206 2190.47 509.069 2190.47 542.206C2190.47 575.344 2163.61 602.206 2130.47 602.206H1560L1560 771.225H1640L1640 702.206C1640 669.069 1666.86 642.206 1700 642.206C1733.14 642.206 1760 669.069 1760 702.206V802.206H1840V721.999C1840 699.989 1857.78 682.114 1879.79 682L2084.75 680.935C2106.92 680.82 2124.96 698.762 2124.96 720.935V962.361H2318.49V821.185C2318.49 788.048 2345.35 761.185 2378.49 761.185C2411.63 761.185 2438.49 788.048 2438.49 821.185V1079.25L2920 1080.73V1120.73L2438.38 1119.36C2416.33 1119.3 2398.49 1101.41 2398.49 1079.36V821.185C2398.49 810.139 2389.54 801.185 2378.49 801.185C2367.45 801.185 2358.49 810.139 2358.49 821.185V962.361C2358.49 984.452 2340.58 1002.36 2318.49 1002.36H2124.96C2102.87 1002.36 2084.96 984.452 2084.96 962.361V719.247L1880 720.727V803.651C1880 825.742 1862.09 843.651 1840 843.651H1760C1737.91 843.651 1720 825.742 1720 803.651V702.206C1720 691.161 1711.05 682.206 1700 682.206C1688.96 682.206 1680 691.161 1680 702.206L1680 771.226C1680 793.317 1662.09 811.225 1640 811.225H1560C1537.91 811.225 1520 793.317 1520 771.225L1520 602.206C1520 580.115 1537.91 562.206 1560 562.206H2130.47C2141.52 562.206 2150.47 553.252 2150.47 542.206C2150.47 531.161 2141.52 522.206 2130.47 522.206H1650.56C1628.46 522.206 1610.56 504.298 1610.56 482.206V240.727C1610.56 218.635 1628.46 200.727 1650.56 200.727H2080Z" fill="#F28EC0"/>
<path d="M3560 200.727V0.726562H3600V200.727C3600 222.818 3582.09 240.727 3560 240.727H3140.62V482.206H3599.96C3633.1 482.206 3659.96 509.069 3659.96 542.206C3659.96 575.344 3633.1 602.206 3599.96 602.206H3040V781.073H3120V702.206C3120 669.069 3146.86 642.206 3180 642.206C3213.14 642.206 3240 669.069 3240 702.206V802.206H3320V722.003C3320 699.991 3337.78 682.116 3359.8 682.004L3570.21 680.931C3592.38 680.818 3610.42 698.76 3610.42 720.931V962.361H3798.49V821.185C3798.49 788.048 3825.35 761.185 3858.49 761.185C3891.63 761.185 3918.49 788.048 3918.49 821.185V1079.25L4400 1080.73V1120.73L3918.38 1119.36C3896.33 1119.3 3878.49 1101.41 3878.49 1079.36V821.185C3878.49 810.139 3869.54 801.185 3858.49 801.185C3847.44 801.185 3838.49 810.139 3838.49 821.185V962.361C3838.49 984.452 3820.58 1002.36 3798.49 1002.36H3610.42C3588.32 1002.36 3570.42 984.452 3570.42 962.361V719.247L3360 720.727V803.651C3360 825.742 3342.09 843.651 3320 843.651H3240C3217.91 843.651 3200 825.742 3200 803.651V702.206C3200 691.161 3191.05 682.206 3180 682.206C3168.95 682.206 3160 691.161 3160 702.206V781.073C3160 803.165 3142.09 821.073 3120 821.073H3040C3017.91 821.073 3000 803.165 3000 781.073V602.206C3000 580.115 3017.91 562.206 3040 562.206H3599.96C3611.01 562.206 3619.96 553.252 3619.96 542.206C3619.96 531.161 3611.01 522.206 3599.96 522.206H3140.62C3118.53 522.206 3100.62 504.298 3100.62 482.206V240.727C3100.62 218.635 3118.53 200.727 3140.62 200.727H3560Z" fill="#F28EC0"/>
<path d="M5040 200.727V0.726562H5080V200.727C5080 222.818 5062.09 240.727 5040 240.727H4631.28V482.206H5070.28C5103.41 482.206 5130.28 509.069 5130.28 542.206C5130.28 575.344 5103.41 602.206 5070.28 602.206H4520V791.552H4600V702.206C4600 669.069 4626.86 642.206 4660 642.206C4693.14 642.206 4720 669.069 4720 702.206V802.206H4800V722.006C4800 699.993 4817.79 682.117 4839.8 682.007L5055.04 680.928C5077.2 680.817 5095.24 698.758 5095.24 720.928V962.361H5278.49V821.185C5278.49 788.048 5305.35 761.185 5338.49 761.185C5371.63 761.185 5398.49 788.048 5398.49 821.185V1079.25L5880 1080.73V1120.73L5398.38 1119.36C5376.33 1119.3 5358.49 1101.41 5358.49 1079.36V821.185C5358.49 810.139 5349.54 801.185 5338.49 801.185C5327.44 801.185 5318.49 810.139 5318.49 821.185V962.361C5318.49 984.452 5300.58 1002.36 5278.49 1002.36H5095.24C5073.14 1002.36 5055.24 984.452 5055.24 962.361V719.247L4840 720.727V803.651C4840 825.742 4822.09 843.651 4800 843.651H4720C4697.91 843.651 4680 825.742 4680 803.651V702.206C4680 691.161 4671.05 682.206 4660 682.206C4648.95 682.206 4640 691.161 4640 702.206L4640 791.552C4640 813.644 4622.09 831.552 4600 831.552H4520C4497.91 831.552 4480 813.644 4480 791.552V602.206C4480 580.115 4497.91 562.206 4520 562.206H5070.28C5081.32 562.206 5090.28 553.252 5090.28 542.206C5090.28 531.161 5081.32 522.206 5070.28 522.206H4631.28C4609.19 522.206 4591.28 504.298 4591.28 482.206V240.727C4591.28 218.635 4609.19 200.727 4631.28 200.727H5040Z" fill="#F28EC0"/>
<path d="M6520 200.727V0.726562H6560V200.727C6560 222.818 6542.09 240.727 6520 240.727H6120.54V482.206H6539.85C6572.99 482.206 6599.85 509.069 6599.85 542.206C6599.85 575.344 6572.99 602.206 6539.85 602.206H6000V800.727H6080V702.206C6080 669.069 6106.86 642.206 6140 642.206C6173.14 642.206 6200 669.069 6200 702.206V802.206H6280V722.01C6280 699.995 6297.79 682.119 6319.8 682.01L6539.88 680.925C6562.05 680.815 6580.08 698.756 6580.08 720.924V962.361H6758.49V821.185C6758.49 788.048 6785.35 761.185 6818.49 761.185C6851.63 761.185 6878.49 788.048 6878.49 821.185V1079.25L7360 1080.73V1120.73L6878.38 1119.36C6856.33 1119.3 6838.49 1101.41 6838.49 1079.36V821.185C6838.49 810.139 6829.54 801.185 6818.49 801.185C6807.44 801.185 6798.49 810.139 6798.49 821.185V962.361C6798.49 984.452 6780.58 1002.36 6758.49 1002.36H6580.08C6557.99 1002.36 6540.08 984.452 6540.08 962.361V719.247L6320 720.727V803.651C6320 825.742 6302.09 843.651 6280 843.651H6200C6177.91 843.651 6160 825.742 6160 803.651V702.206C6160 691.161 6151.05 682.206 6140 682.206C6128.95 682.206 6120 691.161 6120 702.206V800.727C6120 822.818 6102.09 840.727 6080 840.727H6000C5977.91 840.727 5960 822.818 5960 800.727V602.206C5960 580.115 5977.91 562.206 6000 562.206H6539.85C6550.9 562.206 6559.85 553.252 6559.85 542.206C6559.85 531.161 6550.9 522.206 6539.85 522.206H6120.54C6098.45 522.206 6080.54 504.298 6080.54 482.206V240.727C6080.54 218.635 6098.45 200.727 6120.54 200.727H6520Z" fill="#F28EC0"/>
<path d="M8000 200.727V0.726562H8040V200.727C8040 222.818 8022.09 240.727 8000 240.727H7609.81V482.206H8010.62C8043.75 482.206 8070.62 509.069 8070.62 542.206C8070.62 575.344 8043.75 602.206 8010.62 602.206H7480L7480 810.914H7560L7560 702.206C7560 669.069 7586.86 642.206 7620 642.206C7653.14 642.206 7680 669.069 7680 702.206V802.206H7760V722.013C7760 699.997 7777.79 682.12 7799.81 682.013L8024.68 680.922C8046.84 680.814 8064.87 698.754 8064.87 720.921V962.361H8238.49V821.185C8238.49 788.048 8265.35 761.185 8298.49 761.185C8331.63 761.185 8358.49 788.048 8358.49 821.185V1079.25L8840 1080.73V1120.73L8358.38 1119.36C8336.33 1119.3 8318.49 1101.41 8318.49 1079.36V821.185C8318.49 810.139 8309.54 801.185 8298.49 801.185C8287.44 801.185 8278.49 810.139 8278.49 821.185V962.361C8278.49 984.452 8260.58 1002.36 8238.49 1002.36H8064.87C8042.78 1002.36 8024.87 984.452 8024.87 962.361V719.247L7800 720.727V803.651C7800 825.742 7782.09 843.651 7760 843.651H7680C7657.91 843.651 7640 825.742 7640 803.651V702.206C7640 691.161 7631.05 682.206 7620 682.206C7608.95 682.206 7600 691.161 7600 702.206L7600 810.914C7600 833.005 7582.09 850.914 7560 850.914H7480C7457.91 850.914 7440 833.005 7440 810.914V602.206C7440 580.115 7457.91 562.206 7480 562.206H8010.62C8021.66 562.206 8030.62 553.252 8030.62 542.206C8030.62 531.161 8021.66 522.206 8010.62 522.206H7609.81C7587.72 522.206 7569.81 504.298 7569.81 482.206V240.727C7569.81 218.635 7587.72 200.727 7609.81 200.727H8000Z" fill="#F28EC0"/>
<path d="M9480 200.727V0.726562H9520V200.727C9520 222.818 9502.09 240.727 9480 240.727H9099.79V482.206H9480.54C9513.68 482.206 9540.54 509.069 9540.54 542.206C9540.54 575.344 9513.68 602.206 9480.54 602.206H8960V821.229H9040V702.206C9040 669.069 9066.86 642.206 9100 642.206C9133.14 642.206 9160 669.069 9160 702.206V802.206H9240V722.016C9240 699.999 9257.79 682.121 9279.81 682.016L9509.81 680.918C9531.97 680.813 9550 698.752 9550 720.918V962.361H9718.49V821.185C9718.49 788.048 9745.35 761.185 9778.49 761.185C9811.63 761.185 9838.49 788.048 9838.49 821.185V1079.25L10320 1080.73V1120.73L9838.38 1119.36C9816.33 1119.3 9798.49 1101.41 9798.49 1079.36V821.185C9798.49 810.139 9789.54 801.185 9778.49 801.185C9767.44 801.185 9758.49 810.139 9758.49 821.185V962.361C9758.49 984.452 9740.58 1002.36 9718.49 1002.36H9550C9527.91 1002.36 9510 984.452 9510 962.361V719.247L9280 720.727V803.651C9280 825.742 9262.09 843.651 9240 843.651H9160C9137.91 843.651 9120 825.742 9120 803.651V702.206C9120 691.161 9111.05 682.206 9100 682.206C9088.95 682.206 9080 691.161 9080 702.206V821.229C9080 843.32 9062.09 861.229 9040 861.229H8960C8937.91 861.229 8920 843.32 8920 821.229V602.206C8920 580.115 8937.91 562.206 8960 562.206H9480.54C9491.58 562.206 9500.54 553.252 9500.54 542.206C9500.54 531.161 9491.58 522.206 9480.54 522.206H9099.79C9077.69 522.206 9059.79 504.298 9059.79 482.206V240.727C9059.79 218.635 9077.69 200.727 9099.79 200.727H9480Z" fill="#F28EC0"/>
<path d="M10960 200.727V0.726562H11000V200.727C11000 222.818 10982.1 240.727 10960 240.727H10590V482.206H10950C10983.1 482.206 11010 509.069 11010 542.206C11010 575.344 10983.1 602.206 10950 602.206H10440V830.854H10520V702.206C10520 669.069 10546.9 642.206 10580 642.206C10613.1 642.206 10640 669.069 10640 702.206V802.206H10720V722.019C10720 700.001 10737.8 682.123 10759.8 682.02L10995.2 680.915C11017.4 680.811 11035.4 698.75 11035.4 720.915V962.361H11198.5V821.185C11198.5 788.048 11225.4 761.185 11258.5 761.185C11291.6 761.185 11318.5 788.048 11318.5 821.185V1079.25L11800 1080.73V1120.73L11318.4 1119.36C11296.3 1119.3 11278.5 1101.41 11278.5 1079.36V821.185C11278.5 810.139 11269.5 801.185 11258.5 801.185C11247.4 801.185 11238.5 810.139 11238.5 821.185V962.361C11238.5 984.452 11220.6 1002.36 11198.5 1002.36H11035.4C11013.3 1002.36 10995.4 984.452 10995.4 962.361V719.247L10760 720.727V803.651C10760 825.742 10742.1 843.651 10720 843.651H10640C10617.9 843.651 10600 825.742 10600 803.651V702.206C10600 691.161 10591 682.206 10580 682.206C10569 682.206 10560 691.161 10560 702.206V830.854C10560 852.946 10542.1 870.854 10520 870.854H10440C10417.9 870.854 10400 852.946 10400 830.854V602.206C10400 580.115 10417.9 562.206 10440 562.206H10950C10961 562.206 10970 553.252 10970 542.206C10970 531.161 10961 522.206 10950 522.206H10590C10567.9 522.206 10550 504.298 10550 482.206V240.727C10550 218.635 10567.9 200.727 10590 200.727H10960Z" fill="#F28EC0"/>
<path d="M12440 200.727V0.726562H12480V200.727C12480 222.818 12462.1 240.727 12440 240.727H12079.8V482.206H12419.8C12453 482.206 12479.8 509.069 12479.8 542.206C12479.8 575.344 12453 602.206 12419.8 602.206H11920V840.48H12000V702.206C12000 669.069 12026.9 642.206 12060 642.206C12093.1 642.206 12120 669.069 12120 702.206V802.206H12200V722.022C12200 700.003 12217.8 682.124 12239.8 682.022L12479.8 680.912C12502 680.81 12520 698.748 12520 720.912V962.361H12678.5V821.185C12678.5 788.048 12705.4 761.185 12738.5 761.185C12771.6 761.185 12798.5 788.048 12798.5 821.185V1079.25L13280 1080.73V1120.73L12798.4 1119.36C12776.3 1119.3 12758.5 1101.41 12758.5 1079.36V821.185C12758.5 810.139 12749.5 801.185 12738.5 801.185C12727.4 801.185 12718.5 810.139 12718.5 821.185V962.361C12718.5 984.452 12700.6 1002.36 12678.5 1002.36H12520C12497.9 1002.36 12480 984.452 12480 962.361V719.247L12240 720.727V803.651C12240 825.742 12222.1 843.651 12200 843.651H12120C12097.9 843.651 12080 825.742 12080 803.651V702.206C12080 691.161 12071 682.206 12060 682.206C12049 682.206 12040 691.161 12040 702.206V840.48C12040 862.571 12022.1 880.48 12000 880.48H11920C11897.9 880.48 11880 862.571 11880 840.48V602.206C11880 580.115 11897.9 562.206 11920 562.206H12419.8C12430.9 562.206 12439.8 553.252 12439.8 542.206C12439.8 531.161 12430.9 522.206 12419.8 522.206H12079.8C12057.7 522.206 12039.8 504.298 12039.8 482.206V240.727C12039.8 218.635 12057.7 200.727 12079.8 200.727H12440Z" fill="#F28EC0"/>
<path d="M13920 200.727V0.726562H13960V200.727C13960 222.818 13942.1 240.727 13920 240.727H13569.9V482.206H13890C13923.1 482.206 13950 509.069 13950 542.206C13950 575.344 13923.1 602.206 13890 602.206H13400V850.707H13480V702.206C13480 669.069 13506.9 642.206 13540 642.206C13573.1 642.206 13600 669.069 13600 702.206V802.206H13680V722.025C13680 700.004 13697.8 682.125 13719.8 682.025L13964.9 680.909C13987.1 680.809 14005.1 698.747 14005.1 720.909V962.361H14158.5V821.185C14158.5 788.048 14185.4 761.185 14218.5 761.185C14251.6 761.185 14278.5 788.048 14278.5 821.185V1079.25L14760 1080.73V1120.73L14278.4 1119.36C14256.3 1119.3 14238.5 1101.41 14238.5 1079.36V821.185C14238.5 810.139 14229.5 801.185 14218.5 801.185C14207.4 801.185 14198.5 810.139 14198.5 821.185V962.361C14198.5 984.452 14180.6 1002.36 14158.5 1002.36H14005.1C13983 1002.36 13965.1 984.452 13965.1 962.361V719.247L13720 720.727V803.651C13720 825.742 13702.1 843.651 13680 843.651H13600C13577.9 843.651 13560 825.742 13560 803.651V702.206C13560 691.161 13551 682.206 13540 682.206C13529 682.206 13520 691.161 13520 702.206V850.707C13520 872.799 13502.1 890.707 13480 890.707H13400C13377.9 890.707 13360 872.799 13360 850.707V602.206C13360 580.115 13377.9 562.206 13400 562.206H13890C13901 562.206 13910 553.252 13910 542.206C13910 531.161 13901 522.206 13890 522.206H13569.9C13547.8 522.206 13529.9 504.298 13529.9 482.206V240.727C13529.9 218.635 13547.8 200.727 13569.9 200.727H13920Z" fill="#F28EC0"/>
<path d="M15400 200.727V0.726562H15440V200.727C15440 222.818 15422.1 240.727 15400 240.727H15060.4V482.206H15360C15393.2 482.206 15420 509.069 15420 542.206C15420 575.344 15393.2 602.206 15360 602.206H14880L14880 860.935H14960L14960 702.206C14960 669.069 14986.9 642.206 15020 642.206C15053.1 642.206 15080 669.069 15080 702.206V802.206H15160V722.028C15160 700.006 15177.8 682.127 15199.8 682.028L15449.9 680.907C15472.1 680.807 15490.1 698.745 15490.1 720.906V962.361H15638.5V821.185C15638.5 788.048 15665.4 761.185 15698.5 761.185C15731.6 761.185 15758.5 788.048 15758.5 821.185V1079.25L16240 1080.73V1120.73L15758.4 1119.36C15736.3 1119.3 15718.5 1101.41 15718.5 1079.36V821.185C15718.5 810.139 15709.5 801.185 15698.5 801.185C15687.4 801.185 15678.5 810.139 15678.5 821.185V962.361C15678.5 984.452 15660.6 1002.36 15638.5 1002.36H15490.1C15468 1002.36 15450.1 984.452 15450.1 962.361V719.247L15200 720.727V803.651C15200 825.742 15182.1 843.651 15160 843.651H15080C15057.9 843.651 15040 825.742 15040 803.651V702.206C15040 691.161 15031 682.206 15020 682.206C15009 682.206 15000 691.161 15000 702.206L15000 860.935C15000 883.026 14982.1 900.935 14960 900.935H14880C14857.9 900.935 14840 883.026 14840 860.935L14840 602.206C14840 580.115 14857.9 562.206 14880 562.206H15360C15371.1 562.206 15380 553.252 15380 542.206C15380 531.161 15371.1 522.206 15360 522.206H15060.4C15038.3 522.206 15020.4 504.298 15020.4 482.206V240.727C15020.4 218.635 15038.3 200.727 15060.4 200.727H15400Z" fill="#F28EC0"/>
<path d="M16880 200.727V0.726562H16920V200.727C16920 222.818 16902.1 240.727 16880 240.727H16550.5V482.206H16830.6C16863.7 482.206 16890.6 509.069 16890.6 542.206C16890.6 575.344 16863.7 602.206 16830.6 602.206H16360V869.959H16440V702.206C16440 669.069 16466.9 642.206 16500 642.206C16533.1 642.206 16560 669.069 16560 702.206V802.206H16640V722.03C16640 700.008 16657.8 682.128 16679.8 682.031L16935.4 680.904C16957.6 680.806 16975.6 698.743 16975.6 720.903V962.361H17118.5V821.185C17118.5 788.048 17145.4 761.185 17178.5 761.185C17211.6 761.185 17238.5 788.048 17238.5 821.185V1079.25L17720 1080.73V1120.73L17238.4 1119.36C17216.3 1119.3 17198.5 1101.41 17198.5 1079.36V821.185C17198.5 810.139 17189.5 801.185 17178.5 801.185C17167.4 801.185 17158.5 810.139 17158.5 821.185V962.361C17158.5 984.452 17140.6 1002.36 17118.5 1002.36H16975.6C16953.5 1002.36 16935.6 984.452 16935.6 962.361V719.247L16680 720.727V803.651C16680 825.742 16662.1 843.651 16640 843.651H16560C16537.9 843.651 16520 825.742 16520 803.651V702.206C16520 691.161 16511 682.206 16500 682.206C16489 682.206 16480 691.161 16480 702.206V869.959C16480 892.05 16462.1 909.959 16440 909.959H16360C16337.9 909.959 16320 892.05 16320 869.959V602.206C16320 580.115 16337.9 562.206 16360 562.206H16830.6C16841.6 562.206 16850.6 553.252 16850.6 542.206C16850.6 531.161 16841.6 522.206 16830.6 522.206H16550.5C16528.4 522.206 16510.5 504.298 16510.5 482.206V240.727C16510.5 218.635 16528.4 200.727 16550.5 200.727H16880Z" fill="#F28EC0"/>
<path d="M18360 200.727V0.726562H18400V200.727C18400 222.818 18382.1 240.727 18360 240.727H18040.3V482.206H18300.5C18333.6 482.206 18360.5 509.069 18360.5 542.206C18360.5 575.344 18333.6 602.206 18300.5 602.206H17840V869.357H17920V702.206C17920 669.069 17946.9 642.206 17980 642.206C18013.1 642.206 18040 669.069 18040 702.206V802.206H18120V722.033C18120 700.009 18137.8 682.129 18159.8 682.033L18419.8 680.901C18442 680.805 18460 698.742 18460 720.901V962.361H18598.5V821.185C18598.5 788.048 18625.4 761.185 18658.5 761.185C18691.6 761.185 18718.5 788.048 18718.5 821.185V1079.25L19200 1080.73V1120.73L18718.4 1119.36C18696.3 1119.3 18678.5 1101.41 18678.5 1079.36V821.185C18678.5 810.139 18669.5 801.185 18658.5 801.185C18647.4 801.185 18638.5 810.139 18638.5 821.185V962.361C18638.5 984.452 18620.6 1002.36 18598.5 1002.36H18460C18437.9 1002.36 18420 984.452 18420 962.361V719.247L18160 720.727V803.651C18160 825.742 18142.1 843.651 18120 843.651H18040C18017.9 843.651 18000 825.742 18000 803.651V702.206C18000 691.161 17991 682.206 17980 682.206C17969 682.206 17960 691.161 17960 702.206V869.357C17960 891.448 17942.1 909.357 17920 909.357H17840C17817.9 909.357 17800 891.448 17800 869.357V602.206C17800 580.115 17817.9 562.206 17840 562.206H18300.5C18311.5 562.206 18320.5 553.252 18320.5 542.206C18320.5 531.161 18311.5 522.206 18300.5 522.206H18040.3C18018.2 522.206 18000.3 504.298 18000.3 482.206V240.727C18000.3 218.635 18018.2 200.727 18040.3 200.727H18360Z" fill="#F28EC0"/>
<path d="M19840 200.727V0.726562H19880V200.727C19880 222.818 19862.1 240.727 19840 240.727H19529.7V482.206H19771.2C19804.3 482.206 19831.2 509.069 19831.2 542.206C19831.2 575.344 19804.3 602.206 19771.2 602.206H19320V880.788H19400V702.206C19400 669.069 19426.9 642.206 19460 642.206C19493.1 642.206 19520 669.069 19520 702.206V802.206H19600V722.035C19600 700.011 19617.8 682.13 19639.8 682.036L19905.3 680.899C19927.4 680.804 19945.4 698.74 19945.4 720.898V962.361H20078.5V821.185C20078.5 788.048 20105.4 761.185 20138.5 761.185C20171.6 761.185 20198.5 788.048 20198.5 821.185V1079.25L20680 1080.73V1120.73L20198.4 1119.36C20176.3 1119.3 20158.5 1101.41 20158.5 1079.36V821.185C20158.5 810.139 20149.5 801.185 20138.5 801.185C20127.4 801.185 20118.5 810.139 20118.5 821.185V962.361C20118.5 984.452 20100.6 1002.36 20078.5 1002.36H19945.4C19923.3 1002.36 19905.4 984.452 19905.4 962.361V719.247L19640 720.727V803.651C19640 825.742 19622.1 843.651 19600 843.651H19520C19497.9 843.651 19480 825.742 19480 803.651V702.206C19480 691.161 19471 682.206 19460 682.206C19449 682.206 19440 691.161 19440 702.206V880.788C19440 902.879 19422.1 920.788 19400 920.788H19320C19297.9 920.788 19280 902.879 19280 880.788V602.206C19280 580.115 19297.9 562.206 19320 562.206H19771.2C19782.2 562.206 19791.2 553.252 19791.2 542.206C19791.2 531.161 19782.2 522.206 19771.2 522.206H19529.7C19507.6 522.206 19489.7 504.298 19489.7 482.206V240.727C19489.7 218.635 19507.6 200.727 19529.7 200.727H19840Z" fill="#F28EC0"/>
<path d="M21320 200.727V0.726562H21360V200.727C21360 222.818 21342.1 240.727 21320 240.727H21020.3V482.206H21241.2C21274.3 482.206 21301.2 509.069 21301.2 542.206C21301.2 575.344 21274.3 602.206 21241.2 602.206H20800V890.258H20880V702.206C20880 669.069 20906.9 642.206 20940 642.206C20973.1 642.206 21000 669.069 21000 702.206V802.206H21080V722.038C21080 700.012 21097.8 682.131 21119.8 682.038L21390.5 680.896C21412.6 680.803 21430.6 698.738 21430.6 720.896V962.361H21558.5V821.185C21558.5 788.048 21585.4 761.185 21618.5 761.185C21651.6 761.185 21678.5 788.048 21678.5 821.185V1079.25L22160 1080.73V1120.73L21678.4 1119.36C21656.3 1119.3 21638.5 1101.41 21638.5 1079.36V821.185C21638.5 810.139 21629.5 801.185 21618.5 801.185C21607.4 801.185 21598.5 810.139 21598.5 821.185V962.361C21598.5 984.452 21580.6 1002.36 21558.5 1002.36H21430.6C21408.5 1002.36 21390.6 984.452 21390.6 962.361V719.247L21120 720.727V803.651C21120 825.742 21102.1 843.651 21080 843.651H21000C20977.9 843.651 20960 825.742 20960 803.651V702.206C20960 691.161 20951 682.206 20940 682.206C20929 682.206 20920 691.161 20920 702.206V890.258C20920 912.35 20902.1 930.258 20880 930.258H20800C20777.9 930.258 20760 912.35 20760 890.258V602.206C20760 580.115 20777.9 562.206 20800 562.206H21241.2C21252.2 562.206 21261.2 553.252 21261.2 542.206C21261.2 531.161 21252.2 522.206 21241.2 522.206H21020.3C20998.2 522.206 20980.3 504.298 20980.3 482.206V240.727C20980.3 218.635 20998.2 200.727 21020.3 200.727H21320Z" fill="#F28EC0"/>
<path d="M22800 200.727V0.726562H22840V200.727C22840 222.818 22822.1 240.727 22800 240.727H22510.1V482.206H22710.8C22743.9 482.206 22770.8 509.069 22770.8 542.206C22770.8 575.344 22743.9 602.206 22710.8 602.206H22280V900.588H22360L22360 702.206C22360 669.069 22386.9 642.206 22420 642.206C22453.1 642.206 22480 669.069 22480 702.206V802.206H22560V722.04C22560 700.014 22577.8 682.132 22599.8 682.04L22875 680.894C22897.2 680.802 22915.2 698.737 22915.2 720.894V962.361H23038.5V821.185C23038.5 788.048 23065.4 761.185 23098.5 761.185C23131.6 761.185 23158.5 788.048 23158.5 821.185V1079.25L23640 1080.73V1120.73L23158.4 1119.36C23136.3 1119.3 23118.5 1101.41 23118.5 1079.36V821.185C23118.5 810.139 23109.5 801.185 23098.5 801.185C23087.4 801.185 23078.5 810.139 23078.5 821.185V962.361C23078.5 984.452 23060.6 1002.36 23038.5 1002.36H22915.2C22893.1 1002.36 22875.2 984.452 22875.2 962.361V719.247L22600 720.727V803.651C22600 825.742 22582.1 843.651 22560 843.651H22480C22457.9 843.651 22440 825.742 22440 803.651V702.206C22440 691.161 22431 682.206 22420 682.206C22409 682.206 22400 691.161 22400 702.206L22400 900.588C22400 922.68 22382.1 940.588 22360 940.588H22280C22257.9 940.588 22240 922.68 22240 900.588V602.206C22240 580.115 22257.9 562.206 22280 562.206H22710.8C22721.8 562.206 22730.8 553.252 22730.8 542.206C22730.8 531.161 22721.8 522.206 22710.8 522.206H22510.1C22488 522.206 22470.1 504.298 22470.1 482.206V240.727C22470.1 218.635 22488 200.727 22510.1 200.727H22800Z" fill="#F28EC0"/>
<path d="M24280 200.727V0.726562H24320V200.727C24320 222.818 24302.1 240.727 24280 240.727H23999.8V482.206H24180.3C24213.4 482.206 24240.3 509.069 24240.3 542.206C24240.3 575.344 24213.4 602.206 24180.3 602.206H23760V910.915H23840V702.206C23840 669.069 23866.9 642.206 23900 642.206C23933.1 642.206 23960 669.069 23960 702.206V802.206H24040V722.042C24040 700.015 24057.8 682.133 24079.8 682.043L24360.1 680.892C24382.3 680.801 24400.3 698.736 24400.3 720.891V962.361H24518.5V821.185C24518.5 788.048 24545.4 761.185 24578.5 761.185C24611.6 761.185 24638.5 788.048 24638.5 821.185V1079.25L25120 1080.73V1120.73L24638.4 1119.36C24616.3 1119.3 24598.5 1101.41 24598.5 1079.36V821.185C24598.5 810.139 24589.5 801.185 24578.5 801.185C24567.4 801.185 24558.5 810.139 24558.5 821.185V962.361C24558.5 984.452 24540.6 1002.36 24518.5 1002.36H24400.3C24378.2 1002.36 24360.3 984.452 24360.3 962.361V719.247L24080 720.727V803.651C24080 825.742 24062.1 843.651 24040 843.651H23960C23937.9 843.651 23920 825.742 23920 803.651V702.206C23920 691.161 23911 682.206 23900 682.206C23889 682.206 23880 691.161 23880 702.206V910.915C23880 933.007 23862.1 950.915 23840 950.915H23760C23737.9 950.915 23720 933.007 23720 910.915V602.206C23720 580.115 23737.9 562.206 23760 562.206H24180.3C24191.3 562.206 24200.3 553.252 24200.3 542.206C24200.3 531.161 24191.3 522.206 24180.3 522.206H23999.8C23977.7 522.206 23959.8 504.298 23959.8 482.206V240.727C23959.8 218.635 23977.7 200.727 23999.8 200.727H24280Z" fill="#F28EC0"/>
<path d="M25760 200.727V0.726562H25800V200.727C25800 222.818 25782.1 240.727 25760 240.727H25490.1V482.206H25650.1C25683.2 482.206 25710.1 509.069 25710.1 542.206C25710.1 575.344 25683.2 602.206 25650.1 602.206H25240V920.867H25320V702.206C25320 669.069 25346.9 642.206 25380 642.206C25413.1 642.206 25440 669.069 25440 702.206V802.206H25520V722.045C25520 700.017 25537.8 682.134 25559.8 682.045L25845 680.889C25867.1 680.8 25885.1 698.734 25885.1 720.889V962.361H25998.5V821.185C25998.5 788.048 26025.4 761.185 26058.5 761.185C26091.6 761.185 26118.5 788.048 26118.5 821.185V1079.25L26600 1080.73V1120.73L26118.4 1119.36C26096.3 1119.3 26078.5 1101.41 26078.5 1079.36V821.185C26078.5 810.139 26069.5 801.185 26058.5 801.185C26047.4 801.185 26038.5 810.139 26038.5 821.185V962.361C26038.5 984.452 26020.6 1002.36 25998.5 1002.36H25885.1C25863 1002.36 25845.1 984.452 25845.1 962.361V719.247L25560 720.727V803.651C25560 825.742 25542.1 843.651 25520 843.651H25440C25417.9 843.651 25400 825.742 25400 803.651V702.206C25400 691.161 25391 682.206 25380 682.206C25369 682.206 25360 691.161 25360 702.206V920.867C25360 942.958 25342.1 960.867 25320 960.867H25240C25217.9 960.867 25200 942.958 25200 920.867V602.206C25200 580.115 25217.9 562.206 25240 562.206H25650.1C25661.1 562.206 25670.1 553.252 25670.1 542.206C25670.1 531.161 25661.1 522.206 25650.1 522.206H25490.1C25468 522.206 25450.1 504.298 25450.1 482.206V240.727C25450.1 218.635 25468 200.727 25490.1 200.727H25760Z" fill="#F28EC0"/>
<path d="M27240 200.727V0.726562H27280V200.727C27280 222.818 27262.1 240.727 27240 240.727H26980.2V482.206H27121.2C27154.3 482.206 27181.2 509.069 27181.2 542.206C27181.2 575.344 27154.3 602.206 27121.2 602.206H26720V931.251H26800V702.206C26800 669.069 26826.9 642.206 26860 642.206C26893.1 642.206 26920 669.069 26920 702.206V802.206H27000V722.047C27000 700.018 27017.8 682.135 27039.8 682.047L27330.4 680.887C27352.6 680.798 27370.6 698.733 27370.6 720.887V962.361H27478.5V821.185C27478.5 788.048 27505.4 761.185 27538.5 761.185C27571.6 761.185 27598.5 788.048 27598.5 821.185V1079.25L28080 1080.73V1120.73L27598.4 1119.36C27576.3 1119.3 27558.5 1101.41 27558.5 1079.36V821.185C27558.5 810.139 27549.5 801.185 27538.5 801.185C27527.4 801.185 27518.5 810.139 27518.5 821.185V962.361C27518.5 984.452 27500.6 1002.36 27478.5 1002.36H27370.6C27348.5 1002.36 27330.6 984.452 27330.6 962.361V719.247L27040 720.727V803.651C27040 825.742 27022.1 843.651 27000 843.651H26920C26897.9 843.651 26880 825.742 26880 803.651V702.206C26880 691.161 26871 682.206 26860 682.206C26849 682.206 26840 691.161 26840 702.206V931.251C26840 953.342 26822.1 971.251 26800 971.251H26720C26697.9 971.251 26680 953.342 26680 931.251V602.206C26680 580.115 26697.9 562.206 26720 562.206H27121.2C27132.2 562.206 27141.2 553.252 27141.2 542.206C27141.2 531.161 27132.2 522.206 27121.2 522.206H26980.2C26958.1 522.206 26940.2 504.298 26940.2 482.206V240.727C26940.2 218.635 26958.1 200.727 26980.2 200.727H27240Z" fill="#F28EC0"/>
<path d="M28720 200.727V0.726562H28760V200.727C28760 222.818 28742.1 240.727 28720 240.727H28469.6V482.206H28590.7C28623.8 482.206 28650.7 509.069 28650.7 542.206C28650.7 575.344 28623.8 602.206 28590.7 602.206H28200V940.934H28280V702.206C28280 669.069 28306.9 642.206 28340 642.206C28373.1 642.206 28400 669.069 28400 702.206V802.206H28480V722.049C28480 700.019 28497.8 682.136 28519.8 682.049L28815.1 680.885C28837.2 680.798 28855.2 698.732 28855.2 720.885V962.361H28958.5V821.185C28958.5 788.048 28985.4 761.185 29018.5 761.185C29051.6 761.185 29078.5 788.048 29078.5 821.185V1079.25L29560 1080.73V1120.73L29078.4 1119.36C29056.3 1119.3 29038.5 1101.41 29038.5 1079.36V821.185C29038.5 810.139 29029.5 801.185 29018.5 801.185C29007.4 801.185 28998.5 810.139 28998.5 821.185V962.361C28998.5 984.452 28980.6 1002.36 28958.5 1002.36H28855.2C28833.2 1002.36 28815.2 984.452 28815.2 962.361V719.247L28520 720.727V803.651C28520 825.742 28502.1 843.651 28480 843.651H28400C28377.9 843.651 28360 825.742 28360 803.651V702.206C28360 691.161 28351 682.206 28340 682.206C28329 682.206 28320 691.161 28320 702.206V940.934C28320 963.026 28302.1 980.934 28280 980.934H28200C28177.9 980.934 28160 963.026 28160 940.934V602.206C28160 580.115 28177.9 562.206 28200 562.206H28590.7C28601.8 562.206 28610.7 553.252 28610.7 542.206C28610.7 531.161 28601.8 522.206 28590.7 522.206H28469.6C28447.5 522.206 28429.6 504.298 28429.6 482.206V240.727C28429.6 218.635 28447.5 200.727 28469.6 200.727H28720Z" fill="#F28EC0"/>
</g>
<defs>
<clipPath id="clip0">
<rect width="29600" height="1120" fill="white" transform="translate(0 0.726562)"/>
</clipPath>
</defs>
</svg>
