<svg width="12000" height="720" viewBox="0 0 12000 720" fill="none" xmlns="http://www.w3.org/2000/svg">
<path d="M215.866 60.2271L570.165 62.027V89.3738L216.125 89.9652C207.805 89.9791 201.067 96.728 201.067 105.048C201.067 113.381 207.825 120.136 216.158 120.131L471.236 120.003C490.573 119.993 506.253 135.666 506.253 155.003V654.898C506.253 674.216 490.602 689.881 471.284 689.898L390.505 689.969C371.163 689.986 355.474 674.311 355.474 654.969V360.298H124.93C105.6 360.298 89.9303 344.628 89.9303 325.298V210.501L64.6897 210.277C45.4816 210.107 30 194.487 30 175.278V30.0009L60.3623 30V179.975L86.0268 179.975C105.357 179.975 121.026 195.645 121.026 214.975V330.739H351.394C370.724 330.739 386.394 346.409 386.394 365.739V660.143H476.18L475.483 150.904H215.636C190.596 150.904 170.297 130.605 170.297 105.565C170.297 80.4354 190.736 60.0995 215.866 60.2271Z" fill="#F28EC0"/>
<path d="M820.867 60.2301L1170.16 62.027V89.3738L821.125 89.9649C812.805 89.979 806.067 96.7278 806.067 105.048C806.067 113.381 812.825 120.135 821.158 120.131L1071.24 120.003C1090.57 119.993 1106.25 135.666 1106.25 155.003V649.898C1106.25 669.216 1090.6 684.881 1071.28 684.898L990.505 684.969C971.163 684.986 955.474 669.311 955.474 649.969V360.298H724.93C705.6 360.298 689.93 344.628 689.93 325.298V210.501L664.69 210.277C645.482 210.107 630 194.487 630 175.278V30.0009L660.362 30V179.975L686.027 179.975C705.357 179.975 721.026 195.645 721.026 214.975V330.739H951.394C970.724 330.739 986.394 346.409 986.394 365.739V655.143H1076.18L1075.48 150.904H820.634C795.595 150.904 775.297 130.606 775.297 105.567C775.297 80.4365 795.737 60.1008 820.867 60.2301Z" fill="#F28EC0"/>
<path d="M1425.87 60.2331L1770.16 62.027V89.3738L1426.12 89.9645C1417.8 89.9788 1411.07 96.7276 1411.07 105.048C1411.07 113.381 1417.83 120.135 1426.16 120.131L1671.24 120.003C1690.57 119.993 1706.25 135.666 1706.25 155.003V644.898C1706.25 664.216 1690.6 679.881 1671.28 679.898L1590.5 679.969C1571.16 679.986 1555.47 664.311 1555.47 644.969V360.298H1324.93C1305.6 360.298 1289.93 344.628 1289.93 325.298V210.501L1264.69 210.277C1245.48 210.107 1230 194.487 1230 175.278V30.0009L1260.36 30V179.975L1286.03 179.975C1305.36 179.975 1321.03 195.645 1321.03 214.975V330.739H1551.39C1570.72 330.739 1586.39 346.409 1586.39 365.739V650.143H1676.18L1675.48 150.904H1425.63C1400.59 150.904 1380.3 130.607 1380.3 105.568C1380.3 80.4377 1400.74 60.1021 1425.87 60.2331Z" fill="#F28EC0"/>
<path d="M2031.87 60.2368L2370.16 62.027V89.3738L2032.12 89.9641C2023.8 89.9786 2017.07 96.7274 2017.07 105.047C2017.07 113.381 2023.82 120.135 2032.16 120.131L2271.23 120.004C2290.57 119.993 2306.25 135.667 2306.25 155.004V639.898C2306.25 659.216 2290.6 674.881 2271.28 674.898L2190.5 674.969C2171.16 674.986 2155.47 659.311 2155.47 639.969V360.298H1924.93C1905.6 360.298 1889.93 344.628 1889.93 325.298V210.501L1864.69 210.277C1845.48 210.107 1830 194.487 1830 175.278V30.0009L1860.36 30V179.975L1886.03 179.975C1905.36 179.975 1921.03 195.645 1921.03 214.975V330.739H2151.39C2170.72 330.739 2186.39 346.409 2186.39 365.739V645.143H2276.18L2275.48 150.904H2031.63C2006.59 150.904 1986.3 130.607 1986.3 105.57C1986.3 80.4391 2006.74 60.1038 2031.87 60.2368Z" fill="#F28EC0"/>
<path d="M2636.87 60.24L2970.16 62.027V89.3738L2637.12 89.9637C2628.8 89.9784 2622.07 96.7273 2622.07 105.047C2622.07 113.381 2628.82 120.135 2637.16 120.131L2871.23 120.004C2890.57 119.994 2906.25 135.667 2906.25 155.004V634.898C2906.25 654.216 2890.6 669.881 2871.28 669.898L2790.5 669.969C2771.16 669.986 2755.47 654.311 2755.47 634.969V360.298H2524.93C2505.6 360.298 2489.93 344.628 2489.93 325.298V210.501L2464.69 210.277C2445.48 210.107 2430 194.487 2430 175.278V30.0009L2460.36 30V179.975L2486.03 179.975C2505.36 179.975 2521.03 195.645 2521.03 214.975V330.739H2751.39C2770.72 330.739 2786.39 346.409 2786.39 365.739V640.143H2876.18L2875.48 150.904H2636.63C2611.59 150.904 2591.3 130.608 2591.3 105.572C2591.3 80.4404 2611.74 60.1052 2636.87 60.24Z" fill="#F28EC0"/>
<path d="M3241.87 60.2433L3570.16 62.027V89.3738L3242.12 89.9633C3233.8 89.9783 3227.07 96.7271 3227.07 105.047C3227.07 113.381 3233.83 120.135 3242.16 120.131L3471.23 120.004C3490.57 119.994 3506.25 135.667 3506.25 155.004V629.898C3506.25 649.216 3490.6 664.881 3471.28 664.898L3390.5 664.969C3371.16 664.986 3355.47 649.311 3355.47 629.969V360.298H3124.93C3105.6 360.298 3089.93 344.628 3089.93 325.298V210.501L3064.69 210.277C3045.48 210.107 3030 194.487 3030 175.278V30.0009L3060.36 30V179.975L3086.03 179.975C3105.36 179.975 3121.03 195.645 3121.03 214.975V330.739H3351.39C3370.72 330.739 3386.39 346.409 3386.39 365.739V635.143H3476.18L3475.48 150.904H3241.63C3216.59 150.904 3196.3 130.609 3196.3 105.573C3196.3 80.4416 3216.74 60.1067 3241.87 60.2433Z" fill="#F28EC0"/>
<path d="M3845.88 60.2459L4170.16 62.027V89.3738L3846.12 89.963C3837.8 89.9781 3831.07 96.7269 3831.07 105.047C3831.07 113.381 3837.83 120.135 3846.16 120.131L4071.23 120.005C4090.57 119.994 4106.25 135.667 4106.25 155.005V625.898C4106.25 645.216 4090.6 660.881 4071.28 660.898L3990.5 660.969C3971.16 660.986 3955.47 645.311 3955.47 625.969V360.298H3724.93C3705.6 360.298 3689.93 344.628 3689.93 325.298V210.501L3664.69 210.277C3645.48 210.107 3630 194.487 3630 175.278V30.0009L3660.36 30V179.975L3686.03 179.975C3705.36 179.975 3721.03 195.645 3721.03 214.975V330.739H3951.39C3970.72 330.739 3986.39 346.409 3986.39 365.739V631.143H4076.18L4075.48 150.904H3845.63C3820.59 150.904 3800.3 130.609 3800.3 105.575C3800.3 80.4427 3820.74 60.1079 3845.88 60.2459Z" fill="#F28EC0"/>
<path d="M4450.71 60.2494L4770 62.027V89.3738L4450.96 89.9626C4442.64 89.9779 4435.9 96.7267 4435.9 105.046C4435.9 113.38 4442.66 120.135 4451 120.13L4671.07 120.005C4690.41 119.994 4706.09 135.667 4706.09 155.005V620.898C4706.09 640.216 4690.44 655.881 4671.12 655.898L4590.34 655.969C4571 655.986 4555.31 640.311 4555.31 620.969V360.298H4324.77C4305.44 360.298 4289.77 344.628 4289.77 325.298V210.501L4264.53 210.277C4245.32 210.107 4229.84 194.487 4229.84 175.278V30.0009L4260.2 30V179.975L4285.86 179.975C4305.19 179.975 4320.86 195.645 4320.86 214.975V330.739H4551.23C4570.56 330.739 4586.23 346.409 4586.23 365.739V626.143H4676.02L4675.32 150.904H4450.46C4425.43 150.904 4405.13 130.61 4405.13 105.576C4405.13 80.444 4425.58 60.1095 4450.71 60.2494Z" fill="#F28EC0"/>
<path d="M5055.88 60.2529L5370.16 62.027V89.3738L5056.12 89.9622C5047.8 89.9778 5041.07 96.7265 5041.07 105.046C5041.07 113.38 5047.83 120.135 5056.16 120.13L5271.23 120.005C5290.57 119.994 5306.25 135.668 5306.25 155.005V614.898C5306.25 634.216 5290.6 649.881 5271.28 649.898L5190.5 649.969C5171.16 649.986 5155.47 634.311 5155.47 614.969V360.298H4924.93C4905.6 360.298 4889.93 344.628 4889.93 325.298V210.501L4864.69 210.277C4845.48 210.107 4830 194.487 4830 175.278V30.0009L4860.36 30V179.975L4886.03 179.975C4905.36 179.975 4921.03 195.645 4921.03 214.975V330.739H5151.39C5170.72 330.739 5186.39 346.409 5186.39 365.739V620.143H5276.18L5275.48 150.904H5055.62C5030.59 150.904 5010.3 130.611 5010.3 105.578C5010.3 80.4453 5030.75 60.1111 5055.88 60.2529Z" fill="#F28EC0"/>
<path d="M5661.04 60.2566L5970.33 62.027V89.3738L5661.29 89.9617C5652.97 89.9776 5646.23 96.7263 5646.23 105.046C5646.23 113.38 5652.99 120.135 5661.32 120.13L5871.4 120.006C5890.74 119.994 5906.42 135.668 5906.42 155.006V609.898C5906.42 629.216 5890.77 644.881 5871.45 644.898L5790.67 644.969C5771.33 644.986 5755.64 629.311 5755.64 609.969V360.298H5525.09C5505.76 360.298 5490.09 344.628 5490.09 325.298V210.501L5464.85 210.277C5445.65 210.107 5430.16 194.487 5430.16 175.278V30.0009L5460.53 30V179.975L5486.19 179.975C5505.52 179.975 5521.19 195.645 5521.19 214.975V330.739H5751.56C5770.89 330.739 5786.56 346.409 5786.56 365.739V615.143H5876.35L5875.65 150.904H5660.79C5635.75 150.904 5615.46 130.612 5615.46 105.58C5615.46 80.4467 5635.91 60.1127 5661.04 60.2566Z" fill="#F28EC0"/>
<path d="M6266.21 60.2603L6570.49 62.027V89.3738L6266.45 89.9613C6258.13 89.9774 6251.4 96.7261 6251.4 105.046C6251.4 113.38 6258.16 120.135 6266.49 120.13L6471.56 120.006C6490.9 119.995 6506.58 135.668 6506.58 155.006V604.898C6506.58 624.216 6490.93 639.881 6471.61 639.898L6390.83 639.969C6371.49 639.986 6355.8 624.311 6355.8 604.969V360.298H6125.26C6105.93 360.298 6090.26 344.628 6090.26 325.298V210.501L6065.02 210.277C6045.81 210.107 6030.33 194.487 6030.33 175.278V30.0009L6060.69 30V179.975L6086.36 179.975C6105.69 179.975 6121.36 195.645 6121.36 214.975V330.739H6351.72C6371.05 330.739 6386.72 346.409 6386.72 365.739V610.143H6476.51L6475.81 150.904H6265.95C6240.92 150.904 6220.63 130.613 6220.63 105.582C6220.63 80.4482 6241.08 60.1144 6266.21 60.2603Z" fill="#F28EC0"/>
<path d="M6870.88 60.2641L7170.16 62.027V89.3738L6871.12 89.9608C6862.8 89.9772 6856.07 96.7259 6856.07 105.045C6856.07 113.38 6862.83 120.135 6871.16 120.13L7071.23 120.007C7090.57 119.995 7106.25 135.668 7106.25 155.007V600.898C7106.25 620.216 7090.6 635.881 7071.28 635.898L6990.5 635.969C6971.16 635.986 6955.47 620.311 6955.47 600.969V360.298H6724.93C6705.6 360.298 6689.93 344.628 6689.93 325.298V210.501L6664.69 210.277C6645.48 210.107 6630 194.487 6630 175.278V30.0009L6660.36 30V179.975L6686.03 179.975C6705.36 179.975 6721.03 195.645 6721.03 214.975V330.739H6951.39C6970.72 330.739 6986.39 346.409 6986.39 365.739V606.143H7076.18L7075.48 150.904H6870.62C6845.59 150.904 6825.3 130.613 6825.3 105.584C6825.3 80.4497 6845.75 60.1161 6870.88 60.2641Z" fill="#F28EC0"/>
<path d="M7475.89 60.2681L7770.16 62.027V89.3738L7476.12 89.9604C7467.8 89.9769 7461.07 96.7257 7461.07 105.045C7461.07 113.38 7467.83 120.135 7476.16 120.129L7671.23 120.007C7690.57 119.995 7706.25 135.669 7706.25 155.007V595.898C7706.25 615.216 7690.6 630.881 7671.28 630.898L7590.5 630.969C7571.16 630.986 7555.47 615.311 7555.47 595.969V360.298H7324.93C7305.6 360.298 7289.93 344.628 7289.93 325.298V210.501L7264.69 210.277C7245.48 210.107 7230 194.487 7230 175.278V30.0009L7260.36 30V179.975L7286.03 179.975C7305.36 179.975 7321.03 195.645 7321.03 214.975V330.739H7551.39C7570.72 330.739 7586.39 346.409 7586.39 365.739V601.143H7676.18L7675.48 150.904H7475.62C7450.59 150.904 7430.3 130.614 7430.3 105.586C7430.3 80.4512 7450.75 60.1179 7475.89 60.2681Z" fill="#F28EC0"/>
<path d="M8080.89 60.2722L8370.16 62.027V89.3738L8081.12 89.9599C8072.8 89.9767 8066.07 96.7254 8066.07 105.045C8066.07 113.379 8072.83 120.135 8081.16 120.129L8271.23 120.008C8290.57 119.995 8306.25 135.669 8306.25 155.008V590.898C8306.25 610.216 8290.6 625.881 8271.28 625.898L8190.5 625.969C8171.16 625.986 8155.47 610.311 8155.47 590.969V360.298H7924.93C7905.6 360.298 7889.93 344.628 7889.93 325.298V210.501L7864.69 210.277C7845.48 210.107 7830 194.487 7830 175.278V30.0009L7860.36 30V179.975L7886.03 179.975C7905.36 179.975 7921.03 195.645 7921.03 214.975V330.739H8151.39C8170.72 330.739 8186.39 346.409 8186.39 365.739V596.143H8276.18L8275.48 150.904H8080.61C8055.59 150.904 8035.3 130.615 8035.3 105.588C8035.3 80.4528 8055.75 60.1197 8080.89 60.2722Z" fill="#F28EC0"/>
<path d="M8685.89 60.2764L8970.16 62.027V89.3738L8686.12 89.9593C8677.8 89.9765 8671.07 96.7252 8671.07 105.044C8671.07 113.379 8677.83 120.135 8686.16 120.129L8871.23 120.008C8890.57 119.995 8906.25 135.669 8906.25 155.008V585.898C8906.25 605.216 8890.6 620.881 8871.28 620.898L8790.5 620.969C8771.16 620.986 8755.47 605.311 8755.47 585.969V360.298H8524.93C8505.6 360.298 8489.93 344.628 8489.93 325.298V210.501L8464.69 210.277C8445.48 210.107 8430 194.487 8430 175.278V30.0009L8460.36 30V179.975L8486.03 179.975C8505.36 179.975 8521.03 195.645 8521.03 214.975V330.739H8751.39C8770.72 330.739 8786.39 346.409 8786.39 365.739V591.143H8876.18L8875.48 150.904H8685.61C8660.58 150.904 8640.3 130.616 8640.3 105.59C8640.3 80.4544 8660.76 60.1216 8685.89 60.2764Z" fill="#F28EC0"/>
<path d="M9290.89 60.2807L9570.16 62.027V89.3738L9291.12 89.9588C9282.8 89.9763 9276.07 96.7249 9276.07 105.044C9276.07 113.379 9282.83 120.134 9291.16 120.129L9471.23 120.009C9490.57 119.996 9506.25 135.669 9506.25 155.009V579.898C9506.25 599.216 9490.6 614.881 9471.28 614.898L9390.5 614.969C9371.16 614.986 9355.47 599.311 9355.47 579.969V360.298H9124.93C9105.6 360.298 9089.93 344.628 9089.93 325.298V210.501L9064.69 210.277C9045.48 210.107 9030 194.487 9030 175.278V30.0009L9060.36 30V179.975L9086.03 179.975C9105.36 179.975 9121.03 195.645 9121.03 214.975V330.739H9351.39C9370.72 330.739 9386.39 346.409 9386.39 365.739V585.143H9476.18L9475.48 150.904H9290.61C9265.58 150.904 9245.3 130.617 9245.3 105.592C9245.3 80.456 9265.76 60.1236 9290.89 60.2807Z" fill="#F28EC0"/>
<path d="M9896.89 60.2861L10170.2 62.027V89.3738L9897.12 89.9582C9888.8 89.976 9882.07 96.7246 9882.07 105.043C9882.07 113.379 9888.83 120.134 9897.16 120.129L10071.2 120.009C10090.6 119.996 10106.3 135.67 10106.3 155.009V574.898C10106.3 594.216 10090.6 609.881 10071.3 609.898L9990.5 609.969C9971.16 609.986 9955.47 594.311 9955.47 574.969V360.298H9724.93C9705.6 360.298 9689.93 344.628 9689.93 325.298V210.501L9664.69 210.277C9645.48 210.107 9630 194.487 9630 175.278V30.0009L9660.36 30V179.975L9686.03 179.975C9705.36 179.975 9721.03 195.645 9721.03 214.975V330.739H9951.39C9970.72 330.739 9986.39 346.409 9986.39 365.739V580.143H10076.2L10075.5 150.904H9896.61C9871.58 150.904 9851.3 130.618 9851.3 105.595C9851.3 80.4581 9871.76 60.126 9896.89 60.2861Z" fill="#F28EC0"/>
<path d="M10501.9 60.2908L10770.2 62.027V89.3738L10502.1 89.9576C10493.8 89.9757 10487.1 96.7243 10487.1 105.043C10487.1 113.379 10493.8 120.134 10502.2 120.128L10671.2 120.01C10690.6 119.996 10706.3 135.67 10706.3 155.01V569.898C10706.3 589.216 10690.6 604.881 10671.3 604.898L10590.5 604.969C10571.2 604.986 10555.5 589.311 10555.5 569.969V360.298H10324.9C10305.6 360.298 10289.9 344.628 10289.9 325.298V210.501L10264.7 210.277C10245.5 210.107 10230 194.487 10230 175.278V30.0009L10260.4 30V179.975L10286 179.975C10305.4 179.975 10321 195.645 10321 214.975V330.739H10551.4C10570.7 330.739 10586.4 346.409 10586.4 365.739V575.143H10676.2L10675.5 150.904H10501.6C10476.6 150.904 10456.3 130.619 10456.3 105.597C10456.3 80.4599 10476.8 60.1281 10501.9 60.2908Z" fill="#F28EC0"/>
<path d="M11105.9 60.2946L11370.2 62.027V89.3738L11106.1 89.9571C11097.8 89.9755 11091.1 96.7241 11091.1 105.043C11091.1 113.378 11097.8 120.134 11106.2 120.128L11271.2 120.01C11290.6 119.996 11306.3 135.67 11306.3 155.01V565.898C11306.3 585.216 11290.6 600.881 11271.3 600.898L11190.5 600.969C11171.2 600.986 11155.5 585.311 11155.5 565.969V360.298H10924.9C10905.6 360.298 10889.9 344.628 10889.9 325.298V210.501L10864.7 210.277C10845.5 210.107 10830 194.487 10830 175.278V30.0009L10860.4 30V179.975L10886 179.975C10905.4 179.975 10921 195.645 10921 214.975V330.739H11151.4C11170.7 330.739 11186.4 346.409 11186.4 365.739V571.143H11276.2L11275.5 150.904H11105.6C11080.6 150.904 11060.3 130.62 11060.3 105.599C11060.3 80.4614 11080.8 60.1298 11105.9 60.2946Z" fill="#F28EC0"/>
<path d="M11711.9 60.3005L11970.2 62.027V89.3738L11712.1 89.9564C11703.8 89.9752 11697.1 96.7238 11697.1 105.042C11697.1 113.378 11703.8 120.134 11712.2 120.128L11871.2 120.011C11890.6 119.997 11906.3 135.671 11906.3 155.011V559.898C11906.3 579.216 11890.6 594.881 11871.3 594.898L11790.5 594.969C11771.2 594.986 11755.5 579.311 11755.5 559.969V360.298H11524.9C11505.6 360.298 11489.9 344.628 11489.9 325.298V210.501L11464.7 210.277C11445.5 210.107 11430 194.487 11430 175.278V30.0009L11460.4 30V179.975L11486 179.975C11505.4 179.975 11521 195.645 11521 214.975V330.739H11751.4C11770.7 330.739 11786.4 346.409 11786.4 365.739V565.143H11876.2L11875.5 150.904H11711.6C11686.6 150.904 11666.3 130.622 11666.3 105.602C11666.3 80.4637 11686.8 60.1324 11711.9 60.3005Z" fill="#F28EC0"/>
</svg>
