<svg width="28000" height="1121" viewBox="0 0 28000 1121" fill="none" xmlns="http://www.w3.org/2000/svg">
<g clip-path="url(#clip0)">
<path d="M558.409 200.938V0.9375H598.289V200.938C598.289 223.029 580.381 240.938 558.289 240.938H119.76V482.417H580.348C613.442 482.417 640.269 509.245 640.269 542.338C640.269 575.493 613.345 602.346 580.19 602.259L79.8801 600.938V760.938H159.64V700.758C159.64 667.72 186.423 640.938 219.46 640.938C252.498 640.938 279.28 667.72 279.28 700.758V800.938H359.041V720.938C359.041 698.846 376.949 680.938 399.041 680.938H558.943C581.035 680.938 598.943 698.846 598.943 720.938V962.572H796.184V829.873C796.184 796.836 822.966 770.053 856.004 770.053C889.042 770.053 915.824 796.836 915.824 829.873V1080.46L1360 1081.94V1121.94L915.822 1120.58C893.778 1120.51 875.944 1102.62 875.944 1080.58V829.993C875.944 818.981 867.017 810.053 856.004 810.053C844.991 810.053 836.064 818.981 836.064 829.993V962.572C836.064 984.663 818.155 1002.57 796.064 1002.57H599.063C576.972 1002.57 559.063 984.663 559.063 962.572V719.458H398.921V802.382C398.921 824.473 381.012 842.382 358.921 842.382H279.4C257.309 842.382 239.4 824.473 239.4 802.382V700.878C239.4 689.865 230.473 680.938 219.46 680.938C208.448 680.938 199.52 689.865 199.52 700.878V760.938C199.52 783.029 181.612 800.938 159.52 800.938H80C57.9086 800.938 40 783.029 40 760.938V601.043C40 578.911 57.9731 560.985 80.1057 561.043L580.363 562.365C591.414 562.394 600.389 553.443 600.389 542.391C600.389 531.36 591.447 522.417 580.416 522.417H119.88C97.7887 522.417 79.8801 504.509 79.8801 482.417V240.938C79.8801 218.846 97.7887 200.938 119.88 200.938H558.409Z" fill="#F28EC0"/>
<path d="M1958.41 200.938V0.9375H1998.29V200.938C1998.29 223.029 1980.38 240.938 1958.29 240.938H1530.63V482.417H1970.22C2003.31 482.417 2030.14 509.244 2030.14 542.337C2030.14 575.492 2003.21 602.345 1970.06 602.256L1479.88 600.938V770.637H1559.64V700.758C1559.64 667.72 1586.42 640.938 1619.46 640.938C1652.5 640.938 1679.28 667.72 1679.28 700.758V800.938H1759.04V720.938C1759.04 698.846 1776.95 680.938 1799.04 680.938H1965.36C1987.45 680.938 2005.36 698.846 2005.36 720.938V962.572H2196.18V829.873C2196.18 796.836 2222.97 770.053 2256 770.053C2289.04 770.053 2315.82 796.836 2315.82 829.873V1080.46L2760 1081.94V1121.94L2315.82 1120.58C2293.78 1120.51 2275.94 1102.62 2275.94 1080.58V829.993C2275.94 818.981 2267.02 810.053 2256 810.053C2244.99 810.053 2236.06 818.981 2236.06 829.993V962.572C2236.06 984.663 2218.16 1002.57 2196.06 1002.57H2005.48C1983.39 1002.57 1965.48 984.663 1965.48 962.572V719.458H1798.92V802.382C1798.92 824.473 1781.01 842.382 1758.92 842.382H1679.4C1657.31 842.382 1639.4 824.473 1639.4 802.382V700.878C1639.4 689.865 1630.47 680.938 1619.46 680.938C1608.45 680.938 1599.52 689.865 1599.52 700.878V770.637C1599.52 792.729 1581.61 810.637 1559.52 810.637H1480C1457.91 810.637 1440 792.729 1440 770.638V601.045C1440 578.912 1457.97 560.986 1480.11 561.045L1970.23 562.364C1981.28 562.393 1990.26 553.442 1990.26 542.39C1990.26 531.36 1981.32 522.417 1970.28 522.417H1530.75C1508.66 522.417 1490.75 504.509 1490.75 482.417V240.938C1490.75 218.846 1508.66 200.938 1530.75 200.938H1958.41Z" fill="#F28EC0"/>
<path d="M3358.41 200.938V0.9375H3398.29V200.938C3398.29 223.029 3380.38 240.938 3358.29 240.938H2940.33V482.417H3360.06C3393.15 482.417 3419.97 509.243 3419.97 542.335C3419.97 575.491 3393.05 602.344 3359.89 602.253L2879.88 600.938V780.477H2959.64V700.758C2959.64 667.72 2986.42 640.938 3019.46 640.938C3052.5 640.938 3079.28 667.72 3079.28 700.758V800.938H3159.04V720.938C3159.04 698.846 3176.95 680.938 3199.04 680.938H3370.36C3392.45 680.938 3410.36 698.846 3410.36 720.938V962.572H3596.18V829.873C3596.18 796.836 3622.97 770.053 3656 770.053C3689.04 770.053 3715.82 796.836 3715.82 829.873V1080.46L4160 1081.94V1121.94L3715.82 1120.58C3693.78 1120.51 3675.94 1102.62 3675.94 1080.58V829.993C3675.94 818.981 3667.02 810.053 3656 810.053C3644.99 810.053 3636.06 818.981 3636.06 829.993V962.572C3636.06 984.663 3618.16 1002.57 3596.06 1002.57H3410.48C3388.39 1002.57 3370.48 984.663 3370.48 962.572V719.458H3198.92V802.382C3198.92 824.473 3181.01 842.382 3158.92 842.382H3079.4C3057.31 842.382 3039.4 824.473 3039.4 802.382V700.878C3039.4 689.865 3030.47 680.938 3019.46 680.938C3008.45 680.938 2999.52 689.865 2999.52 700.878V780.477C2999.52 802.568 2981.61 820.477 2959.52 820.477H2880C2857.91 820.477 2840 802.568 2840 780.477V601.047C2840 578.913 2857.98 560.987 2880.11 561.047L3360.07 562.362C3371.12 562.393 3380.09 553.442 3380.09 542.39C3380.09 531.359 3371.15 522.417 3360.12 522.417H2940.45C2918.36 522.417 2900.45 504.509 2900.45 482.417V240.938C2900.45 218.846 2918.36 200.938 2940.45 200.938H3358.41Z" fill="#F28EC0"/>
<path d="M4758.41 200.938V0.9375H4798.29V200.938C4798.29 223.029 4780.38 240.938 4758.29 240.938H4349.95V482.417H4750.4C4783.49 482.417 4810.31 509.243 4810.31 542.334C4810.31 575.49 4783.39 602.342 4750.23 602.25L4279.88 600.938V790.305H4359.64V700.758C4359.64 667.72 4386.42 640.938 4419.46 640.938C4452.5 640.938 4479.28 667.72 4479.28 700.758V800.938H4559.04V720.938C4559.04 698.846 4576.95 680.938 4599.04 680.938H4775.36C4797.45 680.938 4815.36 698.846 4815.36 720.938V962.572H4996.18V829.873C4996.18 796.836 5022.97 770.053 5056 770.053C5089.04 770.053 5115.82 796.836 5115.82 829.873V1080.46L5560 1081.94V1121.94L5115.82 1120.58C5093.78 1120.51 5075.94 1102.62 5075.94 1080.58V829.993C5075.94 818.981 5067.02 810.053 5056 810.053C5044.99 810.053 5036.06 818.981 5036.06 829.993V962.572C5036.06 984.663 5018.16 1002.57 4996.06 1002.57H4815.48C4793.39 1002.57 4775.48 984.663 4775.48 962.572V719.458H4598.92V802.382C4598.92 824.473 4581.01 842.382 4558.92 842.382H4479.4C4457.31 842.382 4439.4 824.473 4439.4 802.382V700.878C4439.4 689.865 4430.47 680.938 4419.46 680.938C4408.45 680.938 4399.52 689.865 4399.52 700.878V790.305C4399.52 812.396 4381.61 830.305 4359.52 830.305H4280C4257.91 830.305 4240 812.396 4240 790.305V601.049C4240 578.914 4257.98 560.988 4280.11 561.049L4750.41 562.362C4761.46 562.392 4770.43 553.442 4770.43 542.389C4770.43 531.359 4761.49 522.417 4750.46 522.417H4350.07C4327.98 522.417 4310.07 504.509 4310.07 482.417V240.938C4310.07 218.846 4327.98 200.938 4350.07 200.938H4758.41Z" fill="#F28EC0"/>
<path d="M6158.41 200.938V0.9375H6198.29V200.938C6198.29 223.029 6180.38 240.938 6158.29 240.938H5759.62V482.417H6141.08C6174.17 482.417 6201 509.242 6201 542.332C6201 575.489 6174.07 602.341 6140.91 602.247L5679.88 600.938V801.004H5759.64V700.758C5759.64 667.72 5786.42 640.938 5819.46 640.938C5852.5 640.938 5879.28 667.72 5879.28 700.758V800.938H5959.04V720.938C5959.04 698.846 5976.95 680.938 5999.04 680.938H6179.99C6202.08 680.938 6219.99 698.846 6219.99 720.938V962.572H6396.18V829.873C6396.18 796.836 6422.97 770.053 6456 770.053C6489.04 770.053 6515.82 796.836 6515.82 829.873V1080.46L6960 1081.94V1121.94L6515.82 1120.58C6493.78 1120.51 6475.94 1102.62 6475.94 1080.58V829.993C6475.94 818.981 6467.02 810.053 6456 810.053C6444.99 810.053 6436.06 818.981 6436.06 829.993V962.572C6436.06 984.663 6418.16 1002.57 6396.06 1002.57H6220.11C6198.01 1002.57 6180.11 984.663 6180.11 962.572V719.458H5998.92V802.382C5998.92 824.473 5981.01 842.382 5958.92 842.382H5879.4C5857.31 842.382 5839.4 824.473 5839.4 802.382V700.878C5839.4 689.865 5830.47 680.938 5819.46 680.938C5808.45 680.938 5799.52 689.865 5799.52 700.878V801.004C5799.52 823.095 5781.61 841.004 5759.52 841.004H5680C5657.91 841.004 5640 823.095 5640 801.004V601.051C5640 578.915 5657.98 560.989 5680.11 561.051L6141.09 562.36C6152.14 562.392 6161.12 553.441 6161.12 542.389C6161.12 531.359 6152.18 522.417 6141.15 522.417H5759.74C5737.65 522.417 5719.74 504.509 5719.74 482.417V240.938C5719.74 218.846 5737.65 200.938 5759.74 200.938H6158.41Z" fill="#F28EC0"/>
<path d="M7558.41 200.938V0.9375H7598.29V200.938C7598.29 223.029 7580.38 240.938 7558.29 240.938H7170.69V482.417H7529.95C7563.04 482.417 7589.86 509.241 7589.86 542.33C7589.86 575.487 7562.93 602.339 7529.78 602.243L7079.88 600.938L7079.88 810.739H7159.64L7159.64 700.757C7159.64 667.72 7186.42 640.938 7219.46 640.938C7252.5 640.938 7279.28 667.72 7279.28 700.758V800.938H7359.04V720.938C7359.04 698.846 7376.95 680.938 7399.04 680.938H7584.99C7607.08 680.938 7624.99 698.846 7624.99 720.938V962.572H7796.18V829.873C7796.18 796.836 7822.97 770.053 7856.01 770.053C7889.04 770.053 7915.83 796.836 7915.83 829.873V1080.46L8360 1081.94V1121.94L7915.82 1120.58C7893.78 1120.51 7875.95 1102.62 7875.95 1080.58V829.993C7875.95 818.981 7867.02 810.053 7856.01 810.053C7844.99 810.053 7836.06 818.981 7836.06 829.993V962.572C7836.06 984.663 7818.16 1002.57 7796.06 1002.57H7625.11C7603.01 1002.57 7585.11 984.663 7585.11 962.572V719.458H7398.92V802.382C7398.92 824.473 7381.01 842.382 7358.92 842.382H7279.4C7257.31 842.382 7239.4 824.473 7239.4 802.382V700.878C7239.4 689.865 7230.47 680.938 7219.46 680.938C7208.45 680.938 7199.52 689.865 7199.52 700.877L7199.52 810.739C7199.52 832.83 7181.61 850.739 7159.52 850.739H7080C7057.91 850.739 7040 832.83 7040 810.739L7040 601.054C7040 578.917 7057.98 560.99 7080.12 561.054L7529.96 562.359C7541.01 562.391 7549.98 553.441 7549.98 542.388C7549.98 531.359 7541.04 522.417 7530.01 522.417H7170.81C7148.71 522.417 7130.81 504.509 7130.81 482.417V240.938C7130.81 218.846 7148.71 200.938 7170.81 200.938H7558.41Z" fill="#F28EC0"/>
<path d="M8958.41 200.938V0.9375H8998.29V200.938C8998.29 223.029 8980.38 240.938 8958.29 240.938H8580.16V482.417H8920.42C8953.51 482.417 8980.33 509.241 8980.33 542.329C8980.33 575.486 8953.4 602.338 8920.24 602.24L8479.88 600.938L8479.88 820.649H8559.64L8559.64 700.758C8559.64 667.72 8586.42 640.938 8619.46 640.938C8652.5 640.938 8679.28 667.72 8679.28 700.758V800.938H8759.04V720.938C8759.04 698.846 8776.95 680.938 8799.04 680.938H8990.08C9012.17 680.938 9030.08 698.846 9030.08 720.938V962.572H9196.18V829.873C9196.18 796.836 9222.97 770.053 9256 770.053C9289.04 770.053 9315.82 796.836 9315.82 829.873V1080.46L9760 1081.94V1121.94L9315.82 1120.58C9293.78 1120.51 9275.94 1102.62 9275.94 1080.58V829.993C9275.94 818.981 9267.02 810.053 9256 810.053C9244.99 810.053 9236.06 818.981 9236.06 829.993V962.572C9236.06 984.663 9218.16 1002.57 9196.06 1002.57H9030.2C9008.11 1002.57 8990.2 984.663 8990.2 962.572V719.458H8798.92V802.382C8798.92 824.473 8781.01 842.382 8758.92 842.382H8679.4C8657.31 842.382 8639.4 824.473 8639.4 802.382V700.878C8639.4 689.865 8630.47 680.938 8619.46 680.938C8608.45 680.938 8599.52 689.865 8599.52 700.878L8599.52 820.649C8599.52 842.741 8581.61 860.649 8559.52 860.649H8480C8457.91 860.649 8440 842.741 8440 820.649V601.056C8440 578.918 8457.98 560.991 8480.12 561.056L8920.42 562.358C8931.48 562.391 8940.45 553.44 8940.45 542.388C8940.45 531.358 8931.51 522.417 8920.48 522.417H8580.28C8558.18 522.417 8540.28 504.509 8540.28 482.417V240.938C8540.28 218.846 8558.18 200.938 8580.28 200.938H8958.41Z" fill="#F28EC0"/>
<path d="M10358.4 200.938V0.9375H10398.3V200.938C10398.3 223.029 10380.4 240.938 10358.3 240.938H9989.76V482.417H10310.1C10343.2 482.417 10370 509.24 10370 542.327C10370 575.484 10343.1 602.336 10309.9 602.236L9879.88 600.938L9879.88 831.515H9959.64L9959.64 700.757C9959.64 667.72 9986.43 640.938 10019.5 640.938C10052.5 640.938 10079.3 667.72 10079.3 700.758V800.938H10159V720.938C10159 698.846 10177 680.938 10199 680.938H10395.2C10417.3 680.938 10435.2 698.846 10435.2 720.938V962.572H10596.2V829.873C10596.2 796.836 10623 770.053 10656 770.053C10689 770.053 10715.8 796.836 10715.8 829.873V1080.46L11160 1081.94V1121.94L10715.8 1120.58C10693.8 1120.51 10675.9 1102.62 10675.9 1080.58V829.993C10675.9 818.981 10667 810.053 10656 810.053C10645 810.053 10636.1 818.981 10636.1 829.993V962.572C10636.1 984.663 10618.2 1002.57 10596.1 1002.57H10435.3C10413.2 1002.57 10395.3 984.663 10395.3 962.572V719.458H10198.9V802.382C10198.9 824.473 10181 842.382 10158.9 842.382H10079.4C10057.3 842.382 10039.4 824.473 10039.4 802.382V700.878C10039.4 689.865 10030.5 680.938 10019.5 680.938C10008.5 680.938 9999.52 689.865 9999.52 700.877L9999.52 831.516C9999.52 853.607 9981.61 871.515 9959.52 871.515H9880C9857.91 871.515 9840 853.607 9840 831.515L9840 601.058C9840 578.92 9857.98 560.992 9880.12 561.059L10310.1 562.357C10321.2 562.39 10330.2 553.44 10330.2 542.387C10330.2 531.358 10321.2 522.417 10310.2 522.417H9989.88C9967.79 522.417 9949.88 504.509 9949.88 482.417V240.938C9949.88 218.846 9967.79 200.938 9989.88 200.938H10358.4Z" fill="#F28EC0"/>
<path d="M11758.4 200.938V0.9375H11798.3V200.938C11798.3 223.029 11780.4 240.938 11758.3 240.938H11400.6V482.417H11699.3C11732.4 482.417 11759.2 509.239 11759.2 542.325C11759.2 575.483 11732.3 602.334 11699.1 602.232L11279.9 600.938L11279.9 841.191H11359.6L11359.6 700.757C11359.6 667.72 11386.4 640.938 11419.5 640.938C11452.5 640.938 11479.3 667.72 11479.3 700.758V800.938H11559V720.938C11559 698.846 11577 680.938 11599 680.938H11800.2C11822.3 680.938 11840.2 698.846 11840.2 720.938V962.572H11996.2V829.873C11996.2 796.836 12023 770.053 12056 770.053C12089 770.053 12115.8 796.836 12115.8 829.873V1080.46L12560 1081.94V1121.94L12115.8 1120.58C12093.8 1120.51 12075.9 1102.62 12075.9 1080.58V829.993C12075.9 818.981 12067 810.053 12056 810.053C12045 810.053 12036.1 818.981 12036.1 829.993V962.572C12036.1 984.663 12018.2 1002.57 11996.1 1002.57H11840.3C11818.2 1002.57 11800.3 984.663 11800.3 962.572V719.458H11598.9V802.382C11598.9 824.473 11581 842.382 11558.9 842.382H11479.4C11457.3 842.382 11439.4 824.473 11439.4 802.382V700.878C11439.4 689.865 11430.5 680.938 11419.5 680.938C11408.5 680.938 11399.5 689.865 11399.5 700.877L11399.5 841.192C11399.5 863.283 11381.6 881.191 11359.5 881.191H11280C11257.9 881.191 11240 863.282 11240 841.191L11240 601.061C11240 578.921 11258 560.993 11280.1 561.061L11699.3 562.356C11710.4 562.39 11719.3 553.439 11719.3 542.386C11719.3 531.358 11710.4 522.417 11699.4 522.417H11400.7C11378.6 522.417 11360.7 504.509 11360.7 482.417V240.938C11360.7 218.846 11378.6 200.938 11400.7 200.938H11758.4Z" fill="#F28EC0"/>
<path d="M13158.4 200.938V0.9375H13198.3V200.938C13198.3 223.029 13180.4 240.938 13158.3 240.938H12809.7V482.417H13090.1C13123.2 482.417 13150 509.238 13150 542.323C13150 575.482 13123.1 602.333 13089.9 602.228L12679.9 600.938L12679.9 851.374H12759.6L12759.6 700.757C12759.6 667.719 12786.4 640.938 12819.5 640.938C12852.5 640.938 12879.3 667.72 12879.3 700.758V800.938H12959V720.938C12959 698.846 12977 680.938 12999 680.938H13205.2C13227.3 680.938 13245.2 698.846 13245.2 720.938V962.572H13396.2V829.873C13396.2 796.836 13423 770.053 13456 770.053C13489 770.053 13515.8 796.836 13515.8 829.873V1080.46L13960 1081.94V1121.94L13515.8 1120.58C13493.8 1120.51 13475.9 1102.62 13475.9 1080.58V829.993C13475.9 818.981 13467 810.053 13456 810.053C13445 810.053 13436.1 818.981 13436.1 829.993V962.572C13436.1 984.663 13418.2 1002.57 13396.1 1002.57H13245.3C13223.2 1002.57 13205.3 984.663 13205.3 962.572V719.458H12998.9V802.382C12998.9 824.473 12981 842.382 12958.9 842.382H12879.4C12857.3 842.382 12839.4 824.473 12839.4 802.382V700.878C12839.4 689.865 12830.5 680.938 12819.5 680.938C12808.5 680.938 12799.5 689.865 12799.5 700.877L12799.5 851.375C12799.5 873.466 12781.6 891.374 12759.5 891.374H12680C12657.9 891.374 12640 873.465 12640 851.373L12640 601.063C12640 578.923 12658 560.994 12680.1 561.064L13090.1 562.354C13101.1 562.389 13110.1 553.439 13110.1 542.386C13110.1 531.358 13101.2 522.417 13090.2 522.417H12809.9C12787.8 522.417 12769.9 504.509 12769.9 482.417V240.938C12769.9 218.846 12787.8 200.938 12809.9 200.938H13158.4Z" fill="#F28EC0"/>
<path d="M14558.4 200.938V0.9375H14598.3V200.938C14598.3 223.029 14580.4 240.938 14558.3 240.938H14220V482.417H14479.6C14512.7 482.417 14539.5 509.237 14539.5 542.321C14539.5 575.48 14512.5 602.331 14479.4 602.224L14079.9 600.938L14079.9 861.039H14159.6L14159.6 700.757C14159.6 667.72 14186.4 640.938 14219.5 640.938C14252.5 640.938 14279.3 667.72 14279.3 700.758V800.938H14359V720.938C14359 698.846 14377 680.938 14399 680.938H14610.2C14632.3 680.938 14650.2 698.846 14650.2 720.938V962.572H14796.2V829.873C14796.2 796.836 14823 770.053 14856 770.053C14889 770.053 14915.8 796.836 14915.8 829.873V1080.46L15360 1081.94V1121.94L14915.8 1120.58C14893.8 1120.51 14875.9 1102.62 14875.9 1080.58V829.993C14875.9 818.981 14867 810.053 14856 810.053C14845 810.053 14836.1 818.981 14836.1 829.993V962.572C14836.1 984.663 14818.2 1002.57 14796.1 1002.57H14650.3C14628.2 1002.57 14610.3 984.663 14610.3 962.572V719.458H14398.9V802.382C14398.9 824.473 14381 842.382 14358.9 842.382H14279.4C14257.3 842.382 14239.4 824.473 14239.4 802.382V700.878C14239.4 689.865 14230.5 680.938 14219.5 680.938C14208.4 680.938 14199.5 689.865 14199.5 700.877L14199.5 861.039C14199.5 883.13 14181.6 901.039 14159.5 901.039H14080C14057.9 901.039 14040 883.13 14040 861.038L14040 601.066C14040 578.925 14058 560.995 14080.1 561.067L14479.6 562.353C14490.6 562.388 14499.6 553.438 14499.6 542.385C14499.6 531.357 14490.7 522.417 14479.6 522.417H14220.1C14198 522.417 14180.1 504.509 14180.1 482.417V240.938C14180.1 218.846 14198 200.938 14220.1 200.938H14558.4Z" fill="#F28EC0"/>
<path d="M15958.4 200.938V0.9375H15998.3V200.938C15998.3 223.029 15980.4 240.938 15958.3 240.938H15630.4V482.417H15870.3C15903.3 482.417 15930.2 509.236 15930.2 542.319C15930.2 575.478 15903.2 602.329 15870.1 602.22L15479.9 600.938L15479.9 871.225H15559.6L15559.6 700.757C15559.6 667.72 15586.4 640.938 15619.5 640.938C15652.5 640.938 15679.3 667.72 15679.3 700.758V800.938H15759V720.938C15759 698.846 15777 680.938 15799 680.938H16015.2C16037.3 680.938 16055.2 698.846 16055.2 720.938V962.572H16196.2V829.873C16196.2 796.836 16223 770.053 16256 770.053C16289 770.053 16315.8 796.836 16315.8 829.873V1080.46L16760 1081.94V1121.94L16315.8 1120.58C16293.8 1120.51 16275.9 1102.62 16275.9 1080.58V829.993C16275.9 818.981 16267 810.053 16256 810.053C16245 810.053 16236.1 818.981 16236.1 829.993V962.572C16236.1 984.663 16218.2 1002.57 16196.1 1002.57H16055.3C16033.2 1002.57 16015.3 984.663 16015.3 962.572V719.458H15798.9V802.382C15798.9 824.473 15781 842.382 15758.9 842.382H15679.4C15657.3 842.382 15639.4 824.473 15639.4 802.382V700.878C15639.4 689.865 15630.5 680.938 15619.5 680.938C15608.4 680.938 15599.5 689.865 15599.5 700.877L15599.5 871.226C15599.5 893.317 15581.6 911.225 15559.5 911.225H15480C15457.9 911.225 15440 893.317 15440 871.225L15440 601.069C15440 578.926 15458 560.997 15480.1 561.069L15870.2 562.352C15881.3 562.388 15890.3 553.438 15890.3 542.385C15890.3 531.357 15881.3 522.417 15870.3 522.417H15630.5C15608.4 522.417 15590.5 504.509 15590.5 482.417V240.938C15590.5 218.846 15608.4 200.938 15630.5 200.938H15958.4Z" fill="#F28EC0"/>
<path d="M17358.4 200.938V0.9375H17398.3V200.938C17398.3 223.029 17380.4 240.938 17358.3 240.938H17039.4V482.417H17260.5C17293.6 482.417 17320.4 509.235 17320.4 542.317C17320.4 575.477 17293.4 602.327 17260.3 602.215L16879.9 600.938L16879.9 882.14H16959.6L16959.6 700.757C16959.6 667.719 16986.4 640.938 17019.5 640.938C17052.5 640.938 17079.3 667.72 17079.3 700.758V800.938H17159V720.938C17159 698.846 17177 680.938 17199 680.938H17420.2C17442.3 680.938 17460.2 698.846 17460.2 720.938V962.572H17596.2V829.873C17596.2 796.836 17623 770.053 17656 770.053C17689 770.053 17715.8 796.836 17715.8 829.873V1080.46L18160 1081.94V1121.94L17715.8 1120.58C17693.8 1120.51 17675.9 1102.62 17675.9 1080.58V829.993C17675.9 818.981 17667 810.053 17656 810.053C17645 810.053 17636.1 818.981 17636.1 829.993V962.572C17636.1 984.663 17618.2 1002.57 17596.1 1002.57H17460.3C17438.2 1002.57 17420.3 984.663 17420.3 962.572V719.458H17198.9V802.382C17198.9 824.473 17181 842.382 17158.9 842.382H17079.4C17057.3 842.382 17039.4 824.473 17039.4 802.382V700.878C17039.4 689.865 17030.5 680.938 17019.5 680.938C17008.5 680.938 16999.5 689.865 16999.5 700.877L16999.5 882.14C16999.5 904.231 16981.6 922.14 16959.5 922.14H16880C16857.9 922.14 16840 904.231 16840 882.139L16840 601.072C16840 578.928 16858 560.998 16880.1 561.072L17260.5 562.35C17271.5 562.387 17280.5 553.437 17280.5 542.384C17280.5 531.357 17271.6 522.417 17260.5 522.417H17039.5C17017.4 522.417 16999.5 504.509 16999.5 482.417V240.938C16999.5 218.846 17017.4 200.938 17039.5 200.938H17358.4Z" fill="#F28EC0"/>
<path d="M18758.4 200.938V0.9375H18798.3V200.938C18798.3 223.029 18780.4 240.938 18758.3 240.938H18450.3V482.417H18650.5C18683.6 482.417 18710.4 509.234 18710.4 542.314C18710.4 575.475 18683.5 602.325 18650.3 602.211L18279.9 600.938L18279.9 891.06H18359.6L18359.6 700.757C18359.6 667.72 18386.4 640.938 18419.5 640.938C18452.5 640.938 18479.3 667.72 18479.3 700.758V800.938H18559V720.938C18559 698.846 18577 680.938 18599 680.938H18825.2C18847.3 680.938 18865.2 698.846 18865.2 720.938V962.572H18996.2V829.873C18996.2 796.836 19023 770.053 19056 770.053C19089 770.053 19115.8 796.836 19115.8 829.873V1080.46L19560 1081.94V1121.94L19115.8 1120.58C19093.8 1120.51 19075.9 1102.62 19075.9 1080.58V829.993C19075.9 818.981 19067 810.053 19056 810.053C19045 810.053 19036.1 818.981 19036.1 829.993V962.572C19036.1 984.663 19018.2 1002.57 18996.1 1002.57H18865.3C18843.2 1002.57 18825.3 984.663 18825.3 962.572V719.458H18598.9V802.382C18598.9 824.473 18581 842.382 18558.9 842.382H18479.4C18457.3 842.382 18439.4 824.473 18439.4 802.382V700.878C18439.4 689.865 18430.5 680.938 18419.5 680.938C18408.5 680.938 18399.5 689.865 18399.5 700.877L18399.5 891.06C18399.5 913.151 18381.6 931.06 18359.5 931.06H18280C18257.9 931.06 18240 913.151 18240 891.059L18240 601.075C18240 578.93 18258 560.999 18280.1 561.075L18650.5 562.349C18661.6 562.386 18670.5 553.437 18670.5 542.383C18670.5 531.356 18661.6 522.417 18650.6 522.417H18450.5C18428.4 522.417 18410.5 504.509 18410.5 482.417V240.938C18410.5 218.846 18428.4 200.938 18450.5 200.938H18758.4Z" fill="#F28EC0"/>
<path d="M20158.4 200.938V0.9375H20198.3V200.938C20198.3 223.029 20180.4 240.938 20158.3 240.938H19859.9V482.417H20040.2C20073.3 482.417 20100.1 509.233 20100.1 542.312C20100.1 575.473 20073.2 602.322 20040 602.206L19679.9 600.938L19679.9 901.4H19759.6L19759.6 700.757C19759.6 667.719 19786.4 640.938 19819.5 640.938C19852.5 640.938 19879.3 667.72 19879.3 700.758V800.938H19959V720.938C19959 698.846 19977 680.938 19999 680.938H20230.2C20252.3 680.938 20270.2 698.846 20270.2 720.938V962.572H20396.2V829.873C20396.2 796.836 20423 770.053 20456 770.053C20489 770.053 20515.8 796.836 20515.8 829.873V1080.46L20960 1081.94V1121.94L20515.8 1120.58C20493.8 1120.51 20475.9 1102.62 20475.9 1080.58V829.993C20475.9 818.981 20467 810.053 20456 810.053C20445 810.053 20436.1 818.981 20436.1 829.993V962.572C20436.1 984.663 20418.2 1002.57 20396.1 1002.57H20270.3C20248.2 1002.57 20230.3 984.663 20230.3 962.572V719.458H19998.9V802.382C19998.9 824.473 19981 842.382 19958.9 842.382H19879.4C19857.3 842.382 19839.4 824.473 19839.4 802.382V700.878C19839.4 689.865 19830.5 680.938 19819.5 680.938C19808.5 680.938 19799.5 689.865 19799.5 700.877L19799.5 901.401C19799.5 923.492 19781.6 941.4 19759.5 941.4H19680C19657.9 941.4 19640 923.491 19640 901.4L19640 601.078C19640 578.932 19658 561.001 19680.1 561.079L20040.2 562.347C20051.3 562.386 20060.3 553.436 20060.3 542.382C20060.3 531.356 20051.3 522.417 20040.3 522.417H19860C19837.9 522.417 19820 504.509 19820 482.417V240.938C19820 218.846 19837.9 200.938 19860 200.938H20158.4Z" fill="#F28EC0"/>
<path d="M21558.4 200.938V0.9375H21598.3V200.938C21598.3 223.029 21580.4 240.938 21558.3 240.938H21268.9V482.417H21430.8C21463.9 482.417 21490.7 509.232 21490.7 542.309C21490.7 575.471 21463.7 602.32 21430.6 602.201L21079.9 600.938L21079.9 910.76H21159.6L21159.6 700.757C21159.6 667.72 21186.4 640.938 21219.5 640.938C21252.5 640.938 21279.3 667.72 21279.3 700.758V800.938H21359V720.938C21359 698.846 21377 680.938 21399 680.938H21635.2C21657.3 680.938 21675.2 698.846 21675.2 720.938V962.572H21796.2V829.873C21796.2 796.836 21823 770.053 21856 770.053C21889 770.053 21915.8 796.836 21915.8 829.873V1080.46L22360 1081.94V1121.94L21915.8 1120.58C21893.8 1120.51 21875.9 1102.62 21875.9 1080.58V829.993C21875.9 818.981 21867 810.053 21856 810.053C21845 810.053 21836.1 818.981 21836.1 829.993V962.572C21836.1 984.663 21818.2 1002.57 21796.1 1002.57H21675.3C21653.2 1002.57 21635.3 984.663 21635.3 962.572V719.458H21398.9V802.382C21398.9 824.473 21381 842.382 21358.9 842.382H21279.4C21257.3 842.382 21239.4 824.473 21239.4 802.382V700.878C21239.4 689.865 21230.5 680.938 21219.5 680.938C21208.5 680.938 21199.5 689.865 21199.5 700.877L21199.5 910.76C21199.5 932.851 21181.6 950.76 21159.5 950.76H21080C21057.9 950.76 21040 932.851 21040 910.759L21040 601.081C21040 578.934 21058 561.002 21080.1 561.082L21430.8 562.345C21441.8 562.385 21450.8 553.435 21450.8 542.381C21450.8 531.356 21441.9 522.417 21430.8 522.417H21269C21246.9 522.417 21229 504.509 21229 482.417V240.938C21229 218.846 21246.9 200.938 21269 200.938H21558.4Z" fill="#F28EC0"/>
<path d="M22958.4 200.938V0.9375H22998.3V200.938C22998.3 223.029 22980.4 240.938 22958.3 240.938H22679.3V482.417H22820C22853.1 482.417 22879.9 509.231 22879.9 542.306C22879.9 575.469 22853 602.318 22819.8 602.195L22479.9 600.938L22479.9 921.49H22559.6L22559.6 700.757C22559.6 667.72 22586.4 640.938 22619.5 640.938C22652.5 640.938 22679.3 667.72 22679.3 700.758V800.938H22759V720.938C22759 698.846 22777 680.938 22799 680.938H23040.2C23062.3 680.938 23080.2 698.846 23080.2 720.938V962.572H23196.2V829.873C23196.2 796.836 23223 770.053 23256 770.053C23289 770.053 23315.8 796.836 23315.8 829.873V1080.46L23760 1081.94V1121.94L23315.8 1120.58C23293.8 1120.51 23275.9 1102.62 23275.9 1080.58V829.993C23275.9 818.981 23267 810.053 23256 810.053C23245 810.053 23236.1 818.981 23236.1 829.993V962.572C23236.1 984.663 23218.2 1002.57 23196.1 1002.57H23080.3C23058.2 1002.57 23040.3 984.663 23040.3 962.572V719.458H22798.9V802.382C22798.9 824.473 22781 842.382 22758.9 842.382H22679.4C22657.3 842.382 22639.4 824.473 22639.4 802.382V700.878C22639.4 689.865 22630.5 680.938 22619.5 680.938C22608.5 680.938 22599.5 689.865 22599.5 700.877L22599.5 921.49C22599.5 943.581 22581.6 961.49 22559.5 961.49H22480C22457.9 961.49 22440 943.581 22440 921.489L22440 601.085C22440 578.936 22458 561.004 22480.2 561.086L22820 562.343C22831.1 562.384 22840.1 553.435 22840.1 542.38C22840.1 531.355 22831.1 522.417 22820.1 522.417H22679.4C22657.3 522.417 22639.4 504.509 22639.4 482.417V240.938C22639.4 218.846 22657.3 200.938 22679.4 200.938H22958.4Z" fill="#F28EC0"/>
<path d="M24358.4 200.938V0.9375H24398.3V200.938C24398.3 223.029 24380.4 240.938 24358.3 240.938H24090.2V482.417H24209.7C24242.8 482.417 24269.6 509.229 24269.6 542.303C24269.6 575.466 24242.6 602.315 24209.5 602.189L23879.9 600.938L23879.9 930.705H23959.6L23959.6 700.757C23959.6 667.72 23986.4 640.938 24019.5 640.938C24052.5 640.938 24079.3 667.72 24079.3 700.758V800.938H24159V720.938C24159 698.846 24177 680.938 24199 680.938H24445.2C24467.3 680.938 24485.2 698.846 24485.2 720.938V962.572H24596.2V829.873C24596.2 796.836 24623 770.053 24656 770.053C24689 770.053 24715.8 796.836 24715.8 829.873V1080.46L25160 1081.94V1121.94L24715.8 1120.58C24693.8 1120.51 24675.9 1102.62 24675.9 1080.58V829.993C24675.9 818.981 24667 810.053 24656 810.053C24645 810.053 24636.1 818.981 24636.1 829.993V962.572C24636.1 984.663 24618.2 1002.57 24596.1 1002.57H24485.3C24463.2 1002.57 24445.3 984.663 24445.3 962.572V719.458H24198.9V802.382C24198.9 824.473 24181 842.382 24158.9 842.382H24079.4C24057.3 842.382 24039.4 824.473 24039.4 802.382V700.878C24039.4 689.865 24030.5 680.938 24019.5 680.938C24008.5 680.938 23999.5 689.865 23999.5 700.877L23999.5 930.705C23999.5 952.796 23981.6 970.705 23959.5 970.705H23880C23857.9 970.705 23840 952.796 23840 930.705L23840 601.089C23840 578.939 23858 561.006 23880.2 561.09L24209.7 562.341C24220.7 562.383 24229.7 553.434 24229.7 542.379C24229.7 531.355 24220.8 522.417 24209.8 522.417H24090.3C24068.2 522.417 24050.3 504.509 24050.3 482.417V240.938C24050.3 218.846 24068.2 200.938 24090.3 200.938H24358.4Z" fill="#F28EC0"/>
<path d="M25758.4 200.938V0.9375H25798.3V200.938C25798.3 223.029 25780.4 240.938 25758.3 240.938H25500.4V482.417H25600.7C25633.8 482.417 25660.6 509.228 25660.6 542.301C25660.6 575.464 25633.7 602.313 25600.5 602.184L25279.9 600.938L25279.9 940.681H25359.6L25359.6 700.757C25359.6 667.72 25386.4 640.938 25419.5 640.938C25452.5 640.938 25479.3 667.72 25479.3 700.758V800.938H25559V720.938C25559 698.846 25577 680.938 25599 680.938H25850.2C25872.3 680.938 25890.2 698.846 25890.2 720.938V962.572H25996.2V829.873C25996.2 796.836 26023 770.053 26056 770.053C26089 770.053 26115.8 796.836 26115.8 829.873V1080.46L26560 1081.94V1121.94L26115.8 1120.58C26093.8 1120.51 26075.9 1102.62 26075.9 1080.58V829.993C26075.9 818.981 26067 810.053 26056 810.053C26045 810.053 26036.1 818.981 26036.1 829.993V962.572C26036.1 984.663 26018.2 1002.57 25996.1 1002.57H25890.3C25868.2 1002.57 25850.3 984.663 25850.3 962.572V719.458H25598.9V802.382C25598.9 824.473 25581 842.382 25558.9 842.382H25479.4C25457.3 842.382 25439.4 824.473 25439.4 802.382V700.878C25439.4 689.865 25430.5 680.938 25419.5 680.938C25408.4 680.938 25399.5 689.865 25399.5 700.877L25399.5 940.681C25399.5 962.772 25381.6 980.681 25359.5 980.681H25280C25257.9 980.681 25240 962.772 25240 940.68L25240 601.093C25240 578.941 25258 561.007 25280.2 561.094L25600.7 562.339C25611.8 562.382 25620.7 553.433 25620.7 542.378C25620.7 531.354 25611.8 522.417 25600.8 522.417H25500.5C25478.4 522.417 25460.5 504.509 25460.5 482.417V240.938C25460.5 218.846 25478.4 200.938 25500.5 200.938H25758.4Z" fill="#F28EC0"/>
<path d="M27158.4 200.938V0.9375H27198.3V200.938C27198.3 223.029 27180.4 240.938 27158.3 240.938H26909.9V482.417H26990.9C27024 482.417 27050.8 509.227 27050.8 542.298C27050.8 575.462 27023.8 602.31 26990.7 602.177L26679.9 600.938L26679.9 950.682H26759.6L26759.6 700.757C26759.6 667.72 26786.4 640.938 26819.5 640.938C26852.5 640.938 26879.3 667.72 26879.3 700.758V800.938H26959V720.938C26959 698.846 26977 680.938 26999 680.938H27255.2C27277.3 680.938 27295.2 698.846 27295.2 720.938V962.572H27396.2V829.873C27396.2 796.836 27423 770.053 27456 770.053C27489 770.053 27515.8 796.836 27515.8 829.873V1080.46L27960 1081.94V1121.94L27515.8 1120.58C27493.8 1120.51 27475.9 1102.62 27475.9 1080.58V829.993C27475.9 818.981 27467 810.053 27456 810.053C27445 810.053 27436.1 818.981 27436.1 829.993V962.572C27436.1 984.663 27418.2 1002.57 27396.1 1002.57H27295.3C27273.2 1002.57 27255.3 984.663 27255.3 962.572V719.458H26998.9V802.382C26998.9 824.473 26981 842.382 26958.9 842.382H26879.4C26857.3 842.382 26839.4 824.473 26839.4 802.382V700.878C26839.4 689.865 26830.5 680.938 26819.5 680.938C26808.4 680.938 26799.5 689.865 26799.5 700.878L26799.5 950.682C26799.5 972.773 26781.6 990.682 26759.5 990.682H26680C26657.9 990.682 26640 972.773 26640 950.681L26640 601.097C26640 578.944 26658 561.009 26680.2 561.098L26990.9 562.337C27001.9 562.382 27010.9 553.432 27010.9 542.377C27010.9 531.354 27002 522.417 26990.9 522.417H26910.1C26888 522.417 26870.1 504.509 26870.1 482.417V240.938C26870.1 218.846 26888 200.938 26910.1 200.938H27158.4Z" fill="#F28EC0"/>
</g>
<defs>
<clipPath id="clip0">
<rect width="28000" height="1120" fill="white" transform="translate(0 0.9375)"/>
</clipPath>
</defs>
</svg>
