<svg width="20400" height="930" viewBox="0 0 20400 930" fill="none" xmlns="http://www.w3.org/2000/svg">
<path d="M239.794 390.027V0H269.786V385.383C269.786 404.768 254.03 420.461 234.645 420.383L165.54 420.105C157.371 420.072 150.732 426.685 150.732 434.854C150.732 442.992 157.324 449.593 165.463 449.602L515.117 450.022C534.43 450.045 550.075 465.708 550.075 485.022V565.573C550.075 584.903 534.405 600.573 515.075 600.573H60.5708V721.164H120.206V665.391C120.206 646.061 135.876 630.391 155.206 630.391H412.76C432.09 630.391 447.76 646.061 447.76 665.391V796.491C447.76 804.682 454.4 811.321 462.59 811.321C470.781 811.321 477.421 804.682 477.421 796.491V695.625C477.421 676.295 493.091 660.625 512.421 660.625H595.216C614.546 660.625 630.216 676.295 630.216 695.625V840.522H994V870H634.922C615.592 870 599.922 854.33 599.922 835V690.476H507.996V795.119C507.996 820.194 487.668 840.522 462.593 840.522C437.517 840.522 417.189 820.194 417.189 795.119V660.05H151.191V715.085C151.191 734.415 135.521 750.085 116.191 750.085H65C45.67 750.085 30 734.415 30 715.085V606.107C30 586.777 45.6701 571.107 65 571.107H519.895V480.996H165.691C140.57 480.996 120.206 460.632 120.206 435.511C120.206 410.391 140.57 390.027 165.691 390.027L239.794 390.027Z" fill="#F28EC0"/>
<path d="M1259.79 390.027V0H1289.79V385.389C1289.79 404.772 1274.03 420.464 1254.65 420.389L1180.54 420.102C1172.37 420.071 1165.73 426.684 1165.73 434.852C1165.73 442.992 1172.32 449.593 1180.46 449.602L1535.12 450.022C1554.43 450.045 1570.07 465.709 1570.07 485.022V565.573C1570.07 584.903 1554.4 600.573 1535.07 600.573H1080.57V721.164H1140.21V665.391C1140.21 646.061 1155.88 630.391 1175.21 630.391H1432.76C1452.09 630.391 1467.76 646.061 1467.76 665.391V796.491C1467.76 804.682 1474.4 811.321 1482.59 811.321C1490.78 811.321 1497.42 804.682 1497.42 796.491V695.625C1497.42 676.295 1513.09 660.625 1532.42 660.625H1620.22C1639.55 660.625 1655.22 676.295 1655.22 695.625V840.522H2014V870H1659.92C1640.59 870 1624.92 854.33 1624.92 835V690.476H1528V795.119C1528 820.194 1507.67 840.522 1482.59 840.522C1457.52 840.522 1437.19 820.194 1437.19 795.119V660.05H1171.19V715.085C1171.19 734.415 1155.52 750.085 1136.19 750.085H1085C1065.67 750.085 1050 734.415 1050 715.085V606.107C1050 586.777 1065.67 571.107 1085 571.107H1539.89V480.996H1180.69C1155.57 480.996 1135.21 460.632 1135.21 435.511C1135.21 410.391 1155.57 390.027 1180.69 390.027L1259.79 390.027Z" fill="#F28EC0"/>
<path d="M2279.79 390.027V0H2309.79V385.394C2309.79 404.775 2294.04 420.466 2274.66 420.394L2195.54 420.1C2187.37 420.07 2180.73 426.683 2180.73 434.851C2180.73 442.991 2187.33 449.592 2195.47 449.602L2555.12 450.023C2574.43 450.046 2590.07 465.709 2590.07 485.023V565.573C2590.07 584.903 2574.4 600.573 2555.07 600.573H2100.57V721.164H2160.21V665.391C2160.21 646.061 2175.88 630.391 2195.21 630.391H2452.76C2472.09 630.391 2487.76 646.061 2487.76 665.391V796.491C2487.76 804.682 2494.4 811.321 2502.59 811.321C2510.78 811.321 2517.42 804.682 2517.42 796.491V695.625C2517.42 676.295 2533.09 660.625 2552.42 660.625H2645.22C2664.55 660.625 2680.22 676.295 2680.22 695.625V840.522H3034V870H2684.92C2665.59 870 2649.92 854.33 2649.92 835V690.476H2548V795.119C2548 820.194 2527.67 840.522 2502.59 840.522C2477.52 840.522 2457.19 820.194 2457.19 795.119V660.05H2191.19V715.085C2191.19 734.415 2175.52 750.085 2156.19 750.085H2105C2085.67 750.085 2070 734.415 2070 715.085V606.107C2070 586.777 2085.67 571.107 2105 571.107H2559.89V480.996H2195.69C2170.57 480.996 2150.21 460.632 2150.21 435.511C2150.21 410.391 2170.57 390.027 2195.69 390.027L2279.79 390.027Z" fill="#F28EC0"/>
<path d="M3299.79 390.027V0H3329.79V385.399C3329.79 404.778 3314.04 420.468 3294.66 420.399L3210.54 420.098C3202.37 420.069 3195.73 426.682 3195.73 434.85C3195.73 442.99 3202.33 449.592 3210.47 449.602L3575.12 450.023C3594.43 450.046 3610.07 465.709 3610.07 485.023V565.573C3610.07 584.903 3594.4 600.573 3575.07 600.573H3120.57V721.164H3180.21V665.391C3180.21 646.061 3195.88 630.391 3215.21 630.391H3472.76C3492.09 630.391 3507.76 646.061 3507.76 665.391V796.491C3507.76 804.682 3514.4 811.321 3522.59 811.321C3530.78 811.321 3537.42 804.682 3537.42 796.491V695.625C3537.42 676.295 3553.09 660.625 3572.42 660.625H3670.22C3689.55 660.625 3705.22 676.295 3705.22 695.625V840.522H4054V870H3709.92C3690.59 870 3674.92 854.33 3674.92 835V690.476H3568V795.119C3568 820.194 3547.67 840.522 3522.59 840.522C3497.52 840.522 3477.19 820.194 3477.19 795.119V660.05H3211.19V715.085C3211.19 734.415 3195.52 750.085 3176.19 750.085H3125C3105.67 750.085 3090 734.415 3090 715.085V606.107C3090 586.777 3105.67 571.107 3125 571.107H3579.89V480.996H3210.69C3185.57 480.996 3165.21 460.632 3165.21 435.511C3165.21 410.391 3185.57 390.027 3210.69 390.027L3299.79 390.027Z" fill="#F28EC0"/>
<path d="M4319.79 390.027V0H4349.79V385.404C4349.79 404.781 4334.04 420.47 4314.67 420.403L4225.54 420.096C4217.37 420.068 4210.73 426.681 4210.73 434.849C4210.73 442.99 4217.33 449.592 4225.47 449.602L4595.11 450.024C4614.43 450.046 4630.07 465.71 4630.07 485.024V565.573C4630.07 584.903 4614.4 600.573 4595.07 600.573H4140.57V721.164H4200.21V665.391C4200.21 646.061 4215.88 630.391 4235.21 630.391H4492.76C4512.09 630.391 4527.76 646.061 4527.76 665.391V796.491C4527.76 804.682 4534.4 811.321 4542.59 811.321C4550.78 811.321 4557.42 804.682 4557.42 796.491V695.625C4557.42 676.295 4573.09 660.625 4592.42 660.625H4696.22C4715.55 660.625 4731.22 676.295 4731.22 695.625V840.522H5074V870H4735.92C4716.59 870 4700.92 854.33 4700.92 835V690.476H4588V795.119C4588 820.194 4567.67 840.522 4542.59 840.522C4517.52 840.522 4497.19 820.194 4497.19 795.119V660.05H4231.19V715.085C4231.19 734.415 4215.52 750.085 4196.19 750.085H4145C4125.67 750.085 4110 734.415 4110 715.085V606.107C4110 586.777 4125.67 571.107 4145 571.107H4599.89V480.996H4225.69C4200.57 480.996 4180.21 460.632 4180.21 435.511C4180.21 410.391 4200.57 390.027 4225.69 390.027L4319.79 390.027Z" fill="#F28EC0"/>
<path d="M5339.79 390.027V0H5369.79V385.408C5369.79 404.783 5354.04 420.472 5334.67 420.408L5240.53 420.094C5232.37 420.067 5225.73 426.681 5225.73 434.848C5225.73 442.99 5232.33 449.592 5240.47 449.601L5615.11 450.024C5634.43 450.046 5650.07 465.71 5650.07 485.024V565.573C5650.07 584.903 5634.4 600.573 5615.07 600.573H5160.57V721.164H5220.21V665.391C5220.21 646.061 5235.88 630.391 5255.21 630.391H5512.76C5532.09 630.391 5547.76 646.061 5547.76 665.391V796.491C5547.76 804.682 5554.4 811.321 5562.59 811.321C5570.78 811.321 5577.42 804.682 5577.42 796.491V695.625C5577.42 676.295 5593.09 660.625 5612.42 660.625H5721.22C5740.55 660.625 5756.22 676.295 5756.22 695.625V840.522H6094V870H5760.92C5741.59 870 5725.92 854.33 5725.92 835V690.476H5608V795.119C5608 820.194 5587.67 840.522 5562.59 840.522C5537.52 840.522 5517.19 820.194 5517.19 795.119V660.05H5251.19V715.085C5251.19 734.415 5235.52 750.085 5216.19 750.085H5165C5145.67 750.085 5130 734.415 5130 715.085V606.107C5130 586.777 5145.67 571.107 5165 571.107H5619.89V480.996H5240.69C5215.57 480.996 5195.21 460.632 5195.21 435.511C5195.21 410.391 5215.57 390.027 5240.69 390.027L5339.79 390.027Z" fill="#F28EC0"/>
<path d="M6359.79 390.027V0H6389.79V385.412C6389.79 404.786 6374.05 420.474 6354.67 420.411L6255.53 420.093C6247.37 420.067 6240.73 426.68 6240.73 434.847C6240.73 442.989 6247.33 449.592 6255.47 449.601L6635.11 450.025C6654.43 450.046 6670.07 465.71 6670.07 485.025V565.573C6670.07 584.903 6654.4 600.573 6635.07 600.573H6180.57V721.164H6240.21V665.391C6240.21 646.061 6255.88 630.391 6275.21 630.391H6532.76C6552.09 630.391 6567.76 646.061 6567.76 665.391V796.491C6567.76 804.682 6574.4 811.321 6582.59 811.321C6590.78 811.321 6597.42 804.682 6597.42 796.491V695.625C6597.42 676.295 6613.09 660.625 6632.42 660.625H6746.22C6765.55 660.625 6781.22 676.295 6781.22 695.625V840.522H7114V870H6785.92C6766.59 870 6750.92 854.33 6750.92 835V690.476H6628V795.119C6628 820.194 6607.67 840.522 6582.59 840.522C6557.52 840.522 6537.19 820.194 6537.19 795.119V660.05H6271.19V715.085C6271.19 734.415 6255.52 750.085 6236.19 750.085H6185C6165.67 750.085 6150 734.415 6150 715.085V606.107C6150 586.777 6165.67 571.107 6185 571.107H6639.89V480.996H6255.69C6230.57 480.996 6210.21 460.632 6210.21 435.511C6210.21 410.391 6230.57 390.027 6255.69 390.027L6359.79 390.027Z" fill="#F28EC0"/>
<path d="M7379.79 390.027V0H7409.79V385.415C7409.79 404.788 7394.05 420.475 7374.68 420.415L7270.53 420.091C7262.37 420.066 7255.73 426.679 7255.73 434.846C7255.73 442.989 7262.33 449.592 7270.47 449.601L7655.11 450.025C7674.43 450.047 7690.07 465.71 7690.07 485.025V565.573C7690.07 584.903 7674.4 600.573 7655.07 600.573H7200.57V721.164H7260.21V665.391C7260.21 646.061 7275.88 630.391 7295.21 630.391H7552.76C7572.09 630.391 7587.76 646.061 7587.76 665.391V796.491C7587.76 804.682 7594.4 811.321 7602.59 811.321C7610.78 811.321 7617.42 804.682 7617.42 796.491V695.625C7617.42 676.295 7633.09 660.625 7652.42 660.625H7771.22C7790.55 660.625 7806.22 676.295 7806.22 695.625V840.522H8134V870H7810.92C7791.59 870 7775.92 854.33 7775.92 835V690.476H7648V795.119C7648 820.194 7627.67 840.522 7602.59 840.522C7577.52 840.522 7557.19 820.194 7557.19 795.119V660.05H7291.19V715.085C7291.19 734.415 7275.52 750.085 7256.19 750.085H7205C7185.67 750.085 7170 734.415 7170 715.085V606.107C7170 586.777 7185.67 571.107 7205 571.107H7659.89V480.996H7270.69C7245.57 480.996 7225.21 460.632 7225.21 435.511C7225.21 410.391 7245.57 390.027 7270.69 390.027L7379.79 390.027Z" fill="#F28EC0"/>
<path d="M8399.79 390.027V0H8429.79V385.419C8429.79 404.79 8414.05 420.477 8394.68 420.419L8285.53 420.09C8277.37 420.065 8270.73 426.679 8270.73 434.845C8270.73 442.988 8277.33 449.592 8285.47 449.601L8675.11 450.026C8694.43 450.047 8710.07 465.711 8710.07 485.026V565.573C8710.07 584.903 8694.4 600.573 8675.07 600.573H8220.57V721.164H8280.21V665.391C8280.21 646.061 8295.88 630.391 8315.21 630.391H8572.76C8592.09 630.391 8607.76 646.061 8607.76 665.391V796.491C8607.76 804.682 8614.4 811.321 8622.59 811.321C8630.78 811.321 8637.42 804.682 8637.42 796.491V695.625C8637.42 676.295 8653.09 660.625 8672.42 660.625H8796.22C8815.55 660.625 8831.22 676.295 8831.22 695.625V840.522H9154V870H8835.92C8816.59 870 8800.92 854.33 8800.92 835V690.476H8668V795.119C8668 820.194 8647.67 840.522 8622.59 840.522C8597.52 840.522 8577.19 820.194 8577.19 795.119V660.05H8311.19V715.085C8311.19 734.415 8295.52 750.085 8276.19 750.085H8225C8205.67 750.085 8190 734.415 8190 715.085V606.107C8190 586.777 8205.67 571.107 8225 571.107H8679.89V480.996H8285.69C8260.57 480.996 8240.21 460.632 8240.21 435.511C8240.21 410.391 8260.57 390.027 8285.69 390.027L8399.79 390.027Z" fill="#F28EC0"/>
<path d="M9419.79 390.027V0H9449.79V385.422C9449.79 404.792 9434.05 420.478 9414.68 420.422L9300.53 420.088C9292.36 420.065 9285.73 426.678 9285.73 434.845C9285.73 442.988 9292.33 449.592 9300.47 449.601L9695.11 450.026C9714.43 450.047 9730.07 465.711 9730.07 485.026V565.573C9730.07 584.903 9714.4 600.573 9695.07 600.573H9240.57V721.164H9300.21V665.391C9300.21 646.061 9315.88 630.391 9335.21 630.391H9592.76C9612.09 630.391 9627.76 646.061 9627.76 665.391V796.491C9627.76 804.682 9634.4 811.321 9642.59 811.321C9650.78 811.321 9657.42 804.682 9657.42 796.491V695.625C9657.42 676.295 9673.09 660.625 9692.42 660.625H9821.22C9840.55 660.625 9856.22 676.295 9856.22 695.625V840.522H10174V870H9860.92C9841.59 870 9825.92 854.33 9825.92 835V690.476H9688V795.119C9688 820.194 9667.67 840.522 9642.59 840.522C9617.52 840.522 9597.19 820.194 9597.19 795.119V660.05H9331.19V715.085C9331.19 734.415 9315.52 750.085 9296.19 750.085H9245C9225.67 750.085 9210 734.415 9210 715.085V606.107C9210 586.777 9225.67 571.107 9245 571.107H9699.89V480.996H9300.69C9275.57 480.996 9255.21 460.632 9255.21 435.511C9255.21 410.391 9275.57 390.027 9300.69 390.027L9419.79 390.027Z" fill="#F28EC0"/>
<path d="M10439.8 390.027V0H10469.8V385.425C10469.8 404.794 10454.1 420.48 10434.7 420.425L10315.5 420.087C10307.4 420.064 10300.7 426.678 10300.7 434.844C10300.7 442.988 10307.3 449.592 10315.5 449.6L10715.1 450.027C10734.4 450.047 10750.1 465.711 10750.1 485.027V565.573C10750.1 584.903 10734.4 600.573 10715.1 600.573H10260.6V721.164H10320.2V665.391C10320.2 646.061 10335.9 630.391 10355.2 630.391H10612.8C10632.1 630.391 10647.8 646.061 10647.8 665.391V796.491C10647.8 804.682 10654.4 811.321 10662.6 811.321C10670.8 811.321 10677.4 804.682 10677.4 796.491V695.625C10677.4 676.295 10693.1 660.625 10712.4 660.625H10846.2C10865.5 660.625 10881.2 676.295 10881.2 695.625V840.522H11194V870H10885.9C10866.6 870 10850.9 854.33 10850.9 835V690.476H10708V795.119C10708 820.194 10687.7 840.522 10662.6 840.522C10637.5 840.522 10617.2 820.194 10617.2 795.119V660.05H10351.2V715.085C10351.2 734.415 10335.5 750.085 10316.2 750.085H10265C10245.7 750.085 10230 734.415 10230 715.085V606.107C10230 586.777 10245.7 571.107 10265 571.107H10719.9V480.996H10315.7C10290.6 480.996 10270.2 460.632 10270.2 435.511C10270.2 410.391 10290.6 390.027 10315.7 390.027L10439.8 390.027Z" fill="#F28EC0"/>
<path d="M11459.8 390.027V0H11489.8V385.428C11489.8 404.795 11474.1 420.481 11454.7 420.428L11330.5 420.086C11322.4 420.063 11315.7 426.677 11315.7 434.843C11315.7 442.987 11322.3 449.592 11330.5 449.6L11735.1 450.027C11754.4 450.047 11770.1 465.711 11770.1 485.027V565.573C11770.1 584.903 11754.4 600.573 11735.1 600.573H11280.6V721.164H11340.2V665.391C11340.2 646.061 11355.9 630.391 11375.2 630.391H11632.8C11652.1 630.391 11667.8 646.061 11667.8 665.391V796.491C11667.8 804.682 11674.4 811.321 11682.6 811.321C11690.8 811.321 11697.4 804.682 11697.4 796.491V695.625C11697.4 676.295 11713.1 660.625 11732.4 660.625H11871.2C11890.5 660.625 11906.2 676.295 11906.2 695.625V840.522H12214V870H11910.9C11891.6 870 11875.9 854.33 11875.9 835V690.476H11728V795.119C11728 820.194 11707.7 840.522 11682.6 840.522C11657.5 840.522 11637.2 820.194 11637.2 795.119V660.05H11371.2V715.085C11371.2 734.415 11355.5 750.085 11336.2 750.085H11285C11265.7 750.085 11250 734.415 11250 715.085V606.107C11250 586.777 11265.7 571.107 11285 571.107H11739.9V480.996H11330.7C11305.6 480.996 11285.2 460.632 11285.2 435.511C11285.2 410.391 11305.6 390.027 11330.7 390.027L11459.8 390.027Z" fill="#F28EC0"/>
<path d="M12479.8 390.027V0H12509.8V385.43C12509.8 404.797 12494.1 420.482 12474.7 420.43L12346.5 420.085C12338.4 420.063 12331.7 426.677 12331.7 434.843C12331.7 442.987 12338.3 449.592 12346.5 449.6L12755.1 450.027C12774.4 450.048 12790.1 465.712 12790.1 485.027V565.573C12790.1 584.903 12774.4 600.573 12755.1 600.573H12300.6V721.164H12360.2V665.391C12360.2 646.061 12375.9 630.391 12395.2 630.391H12652.8C12672.1 630.391 12687.8 646.061 12687.8 665.391V796.491C12687.8 804.682 12694.4 811.321 12702.6 811.321C12710.8 811.321 12717.4 804.682 12717.4 796.491V695.625C12717.4 676.295 12733.1 660.625 12752.4 660.625H12896.2C12915.5 660.625 12931.2 676.295 12931.2 695.625V840.522H13234V870H12935.9C12916.6 870 12900.9 854.33 12900.9 835V690.476H12748V795.119C12748 820.194 12727.7 840.522 12702.6 840.522C12677.5 840.522 12657.2 820.194 12657.2 795.119V660.05H12391.2V715.085C12391.2 734.415 12375.5 750.085 12356.2 750.085H12305C12285.7 750.085 12270 734.415 12270 715.085V606.107C12270 586.777 12285.7 571.107 12305 571.107H12759.9V480.996H12346.7C12321.6 480.996 12301.2 460.632 12301.2 435.511C12301.2 410.391 12321.6 390.027 12346.7 390.027L12479.8 390.027Z" fill="#F28EC0"/>
<path d="M13499.8 390.027V0H13529.8V385.433C13529.8 404.798 13514.1 420.483 13494.7 420.432L13361.5 420.084C13353.4 420.063 13346.7 426.676 13346.7 434.842C13346.7 442.987 13353.3 449.592 13361.5 449.6L13775.1 450.028C13794.4 450.048 13810.1 465.712 13810.1 485.028V565.573C13810.1 584.903 13794.4 600.573 13775.1 600.573H13320.6V721.164H13380.2V665.391C13380.2 646.061 13395.9 630.391 13415.2 630.391H13672.8C13692.1 630.391 13707.8 646.061 13707.8 665.391V796.491C13707.8 804.682 13714.4 811.321 13722.6 811.321C13730.8 811.321 13737.4 804.682 13737.4 796.491V695.625C13737.4 676.295 13753.1 660.625 13772.4 660.625H13922.2C13941.5 660.625 13957.2 676.295 13957.2 695.625V840.522H14254V870H13961.9C13942.6 870 13926.9 854.33 13926.9 835V690.476H13768V795.119C13768 820.194 13747.7 840.522 13722.6 840.522C13697.5 840.522 13677.2 820.194 13677.2 795.119V660.05H13411.2V715.085C13411.2 734.415 13395.5 750.085 13376.2 750.085H13325C13305.7 750.085 13290 734.415 13290 715.085V606.107C13290 586.777 13305.7 571.107 13325 571.107H13779.9V480.996H13361.7C13336.6 480.996 13316.2 460.632 13316.2 435.511C13316.2 410.391 13336.6 390.027 13361.7 390.027L13499.8 390.027Z" fill="#F28EC0"/>
<path d="M14519.8 390.027V0H14549.8V385.435C14549.8 404.8 14534.1 420.484 14514.7 420.435L14376.5 420.083C14368.4 420.062 14361.7 426.676 14361.7 434.841C14361.7 442.986 14368.3 449.591 14376.5 449.6L14795.1 450.028C14814.4 450.048 14830.1 465.712 14830.1 485.028V565.573C14830.1 584.903 14814.4 600.573 14795.1 600.573H14340.6V721.164H14400.2V665.391C14400.2 646.061 14415.9 630.391 14435.2 630.391H14692.8C14712.1 630.391 14727.8 646.061 14727.8 665.391V796.491C14727.8 804.682 14734.4 811.321 14742.6 811.321C14750.8 811.321 14757.4 804.682 14757.4 796.491V695.625C14757.4 676.295 14773.1 660.625 14792.4 660.625H14947.2C14966.5 660.625 14982.2 676.295 14982.2 695.625V840.522H15274V870H14986.9C14967.6 870 14951.9 854.33 14951.9 835V690.476H14788V795.119C14788 820.194 14767.7 840.522 14742.6 840.522C14717.5 840.522 14697.2 820.194 14697.2 795.119V660.05H14431.2V715.085C14431.2 734.415 14415.5 750.085 14396.2 750.085H14345C14325.7 750.085 14310 734.415 14310 715.085V606.107C14310 586.777 14325.7 571.107 14345 571.107H14799.9V480.996H14376.7C14351.6 480.996 14331.2 460.632 14331.2 435.511C14331.2 410.391 14351.6 390.027 14376.7 390.027L14519.8 390.027Z" fill="#F28EC0"/>
<path d="M15539.8 390.027V0H15569.8V385.437C15569.8 404.801 15554.1 420.485 15534.7 420.437L15391.5 420.082C15383.4 420.062 15376.7 426.675 15376.7 434.841C15376.7 442.986 15383.3 449.591 15391.5 449.6L15815.1 450.028C15834.4 450.048 15850.1 465.712 15850.1 485.028V565.573C15850.1 584.903 15834.4 600.573 15815.1 600.573H15360.6V721.164H15420.2V665.391C15420.2 646.061 15435.9 630.391 15455.2 630.391H15712.8C15732.1 630.391 15747.8 646.061 15747.8 665.391V796.491C15747.8 804.682 15754.4 811.321 15762.6 811.321C15770.8 811.321 15777.4 804.682 15777.4 796.491V695.625C15777.4 676.295 15793.1 660.625 15812.4 660.625H15971.2C15990.5 660.625 16006.2 676.295 16006.2 695.625V840.522H16294V870H16010.9C15991.6 870 15975.9 854.33 15975.9 835V690.476H15808V795.119C15808 820.194 15787.7 840.522 15762.6 840.522C15737.5 840.522 15717.2 820.194 15717.2 795.119V660.05H15451.2V715.085C15451.2 734.415 15435.5 750.085 15416.2 750.085H15365C15345.7 750.085 15330 734.415 15330 715.085V606.107C15330 586.777 15345.7 571.107 15365 571.107H15819.9V480.996H15391.7C15366.6 480.996 15346.2 460.632 15346.2 435.511C15346.2 410.391 15366.6 390.027 15391.7 390.027L15539.8 390.027Z" fill="#F28EC0"/>
<path d="M16559.8 390.027V0H16589.8V385.44C16589.8 404.803 16574.1 420.487 16554.7 420.44L16405.5 420.081C16397.4 420.061 16390.7 426.675 16390.7 434.84C16390.7 442.986 16397.3 449.591 16405.5 449.599L16835.1 450.029C16854.4 450.048 16870.1 465.713 16870.1 485.029V565.573C16870.1 584.903 16854.4 600.573 16835.1 600.573H16380.6V721.164H16440.2V665.391C16440.2 646.061 16455.9 630.391 16475.2 630.391H16732.8C16752.1 630.391 16767.8 646.061 16767.8 665.391V796.491C16767.8 804.682 16774.4 811.321 16782.6 811.321C16790.8 811.321 16797.4 804.682 16797.4 796.491V695.625C16797.4 676.295 16813.1 660.625 16832.4 660.625H16996.2C17015.5 660.625 17031.2 676.295 17031.2 695.625V840.522H17314V870H17035.9C17016.6 870 17000.9 854.33 17000.9 835V690.476H16828V795.119C16828 820.194 16807.7 840.522 16782.6 840.522C16757.5 840.522 16737.2 820.194 16737.2 795.119V660.05H16471.2V715.085C16471.2 734.415 16455.5 750.085 16436.2 750.085H16385C16365.7 750.085 16350 734.415 16350 715.085V606.107C16350 586.777 16365.7 571.107 16385 571.107H16839.9V480.996H16405.7C16380.6 480.996 16360.2 460.632 16360.2 435.511C16360.2 410.391 16380.6 390.027 16405.7 390.027L16559.8 390.027Z" fill="#F28EC0"/>
<path d="M17579.8 390.027V0H17609.8V385.442C17609.8 404.804 17594.1 420.487 17574.7 420.442L17420.5 420.08C17412.4 420.061 17405.7 426.675 17405.7 434.84C17405.7 442.985 17412.3 449.591 17420.5 449.599L17855.1 450.029C17874.4 450.048 17890.1 465.713 17890.1 485.029V565.573C17890.1 584.903 17874.4 600.573 17855.1 600.573H17400.6V721.164H17460.2V665.391C17460.2 646.061 17475.9 630.391 17495.2 630.391H17752.8C17772.1 630.391 17787.8 646.061 17787.8 665.391V796.491C17787.8 804.682 17794.4 811.321 17802.6 811.321C17810.8 811.321 17817.4 804.682 17817.4 796.491V695.625C17817.4 676.295 17833.1 660.625 17852.4 660.625H18021.2C18040.5 660.625 18056.2 676.295 18056.2 695.625V840.522H18334V870H18060.9C18041.6 870 18025.9 854.33 18025.9 835V690.476H17848V795.119C17848 820.194 17827.7 840.522 17802.6 840.522C17777.5 840.522 17757.2 820.194 17757.2 795.119V660.05H17491.2V715.085C17491.2 734.415 17475.5 750.085 17456.2 750.085H17405C17385.7 750.085 17370 734.415 17370 715.085V606.107C17370 586.777 17385.7 571.107 17405 571.107H17859.9V480.996H17420.7C17395.6 480.996 17375.2 460.632 17375.2 435.511C17375.2 410.391 17395.6 390.027 17420.7 390.027L17579.8 390.027Z" fill="#F28EC0"/>
<path d="M18599.8 390.027V0H18629.8V385.444C18629.8 404.805 18614.1 420.488 18594.7 420.444L18436.5 420.079C18428.4 420.06 18421.7 426.674 18421.7 434.839C18421.7 442.985 18428.3 449.591 18436.5 449.599L18875.1 450.03C18894.4 450.049 18910.1 465.713 18910.1 485.03V565.573C18910.1 584.903 18894.4 600.573 18875.1 600.573H18420.6V721.164H18480.2V665.391C18480.2 646.061 18495.9 630.391 18515.2 630.391H18772.8C18792.1 630.391 18807.8 646.061 18807.8 665.391V796.491C18807.8 804.682 18814.4 811.321 18822.6 811.321C18830.8 811.321 18837.4 804.682 18837.4 796.491V695.625C18837.4 676.295 18853.1 660.625 18872.4 660.625H19045.2C19064.5 660.625 19080.2 676.295 19080.2 695.625V840.522H19354V870H19084.9C19065.6 870 19049.9 854.33 19049.9 835V690.476H18868V795.119C18868 820.194 18847.7 840.522 18822.6 840.522C18797.5 840.522 18777.2 820.194 18777.2 795.119V660.05H18511.2V715.085C18511.2 734.415 18495.5 750.085 18476.2 750.085H18425C18405.7 750.085 18390 734.415 18390 715.085V606.107C18390 586.777 18405.7 571.107 18425 571.107H18879.9V480.996H18436.7C18411.6 480.996 18391.2 460.632 18391.2 435.511C18391.2 410.391 18411.6 390.027 18436.7 390.027L18599.8 390.027Z" fill="#F28EC0"/>
<path d="M19619.8 390.027V0H19649.8V385.446C19649.8 404.806 19634.1 420.489 19614.7 420.445L19451.5 420.078C19443.4 420.06 19436.7 426.674 19436.7 434.839C19436.7 442.985 19443.3 449.591 19451.5 449.599L19895.1 450.03C19914.4 450.049 19930.1 465.713 19930.1 485.03V565.573C19930.1 584.903 19914.4 600.573 19895.1 600.573H19440.6V721.164H19500.2V665.391C19500.2 646.061 19515.9 630.391 19535.2 630.391H19792.8C19812.1 630.391 19827.8 646.061 19827.8 665.391V796.491C19827.8 804.682 19834.4 811.321 19842.6 811.321C19850.8 811.321 19857.4 804.682 19857.4 796.491V695.625C19857.4 676.295 19873.1 660.625 19892.4 660.625H20070.2C20089.5 660.625 20105.2 676.295 20105.2 695.625V840.522H20374V870H20109.9C20090.6 870 20074.9 854.33 20074.9 835V690.476H19888V795.119C19888 820.194 19867.7 840.522 19842.6 840.522C19817.5 840.522 19797.2 820.194 19797.2 795.119V660.05H19531.2V715.085C19531.2 734.415 19515.5 750.085 19496.2 750.085H19445C19425.7 750.085 19410 734.415 19410 715.085V606.107C19410 586.777 19425.7 571.107 19445 571.107H19899.9V480.996H19451.7C19426.6 480.996 19406.2 460.632 19406.2 435.511C19406.2 410.391 19426.6 390.027 19451.7 390.027L19619.8 390.027Z" fill="#F28EC0"/>
</svg>
