<svg width="9400" height="720" viewBox="0 0 9400 720" fill="none" xmlns="http://www.w3.org/2000/svg">
<path d="M185.578 60.3252L440 62.0489V89.4143L185.919 89.9967C177.595 90.0158 170.857 96.7694 170.857 105.094C170.857 113.435 177.622 120.196 185.963 120.191L380.722 120.068C400.061 120.056 415.744 135.73 415.744 155.069V654.898C415.744 674.216 400.093 689.881 380.775 689.898L299.278 689.969C279.936 689.986 264.247 674.311 264.247 654.969V360.523H125.216C105.886 360.523 90.2156 344.853 90.2156 325.523V210.624L64.6909 210.398C45.4823 210.229 30 194.609 30 175.4V30.0009L60.5068 30V180.077L86.4601 180.077C105.79 180.078 121.46 195.747 121.46 215.077V330.944H260.315C279.644 330.944 295.315 346.614 295.315 365.944V660.122H385.528L384.827 150.986H185.271C160.235 150.986 139.94 130.691 139.94 105.655C139.94 80.4996 160.423 60.1548 185.578 60.3252Z" fill="#F28EC0"/>
<path d="M660.581 60.3305L910 62.0489V89.4143L660.919 89.9961C652.595 90.0155 645.857 96.7691 645.857 105.093C645.857 113.435 652.622 120.196 660.964 120.191L850.722 120.069C870.061 120.057 885.744 135.73 885.744 155.069V649.898C885.744 669.216 870.093 684.881 850.775 684.898L769.278 684.969C749.936 684.986 734.247 669.311 734.247 649.969V360.523H595.216C575.886 360.523 560.216 344.853 560.216 325.523V210.624L534.691 210.398C515.482 210.229 500 194.609 500 175.4V30.0009L530.507 30V180.077L556.46 180.077C575.79 180.078 591.46 195.747 591.46 215.077V330.944H730.315C749.644 330.944 765.315 346.614 765.315 365.944V655.122H855.528L854.827 150.986H660.268C635.234 150.986 614.94 130.692 614.94 105.658C614.94 80.5016 635.425 60.1572 660.581 60.3305Z" fill="#F28EC0"/>
<path d="M1135.58 60.3359L1380 62.0489V89.4143L1135.92 89.9954C1127.59 90.0152 1120.86 96.7688 1120.86 105.093C1120.86 113.435 1127.62 120.196 1135.96 120.19L1320.72 120.069C1340.06 120.057 1355.74 135.73 1355.74 155.069V644.898C1355.74 664.216 1340.09 679.881 1320.78 679.898L1239.28 679.969C1219.94 679.986 1204.25 664.311 1204.25 644.969V360.523H1065.22C1045.89 360.523 1030.22 344.853 1030.22 325.523V210.624L1004.69 210.398C985.482 210.229 970 194.609 970 175.4V30.0009L1000.51 30V180.077L1026.46 180.077C1045.79 180.078 1061.46 195.747 1061.46 215.077V330.944H1200.31C1219.64 330.944 1235.31 346.614 1235.31 365.944V650.122H1325.53L1324.83 150.986H1135.27C1110.23 150.986 1089.94 130.693 1089.94 105.661C1089.94 80.5037 1110.43 60.1596 1135.58 60.3359Z" fill="#F28EC0"/>
<path d="M1610.59 60.3416L1850 62.0489V89.4143L1610.92 89.9947C1602.59 90.0149 1595.86 96.7685 1595.86 105.092C1595.86 113.435 1602.62 120.196 1610.96 120.19L1790.72 120.07C1810.06 120.057 1825.74 135.731 1825.74 155.07V639.898C1825.74 659.216 1810.09 674.881 1790.78 674.898L1709.28 674.969C1689.94 674.986 1674.25 659.311 1674.25 639.969V360.523H1535.22C1515.89 360.523 1500.22 344.853 1500.22 325.523V210.624L1474.69 210.398C1455.48 210.229 1440 194.609 1440 175.4V30.0009L1470.51 30V180.077L1496.46 180.077C1515.79 180.078 1531.46 195.747 1531.46 215.077V330.944H1670.31C1689.64 330.944 1705.31 346.614 1705.31 365.944V645.122H1795.53L1794.83 150.986H1610.26C1585.23 150.986 1564.94 130.695 1564.94 105.663C1564.94 80.5059 1585.43 60.1622 1610.59 60.3416Z" fill="#F28EC0"/>
<path d="M2085.59 60.3474L2320 62.0489V89.4143L2085.92 89.994C2077.59 90.0146 2070.86 96.7681 2070.86 105.092C2070.86 113.434 2077.62 120.196 2085.97 120.19L2260.72 120.07C2280.06 120.057 2295.74 135.731 2295.74 155.07V635.898C2295.74 655.216 2280.09 670.881 2260.78 670.898L2179.28 670.969C2159.94 670.986 2144.25 655.311 2144.25 635.969V360.523H2005.22C1985.89 360.523 1970.22 344.853 1970.22 325.523V210.624L1944.69 210.398C1925.48 210.229 1910 194.609 1910 175.4V30.0009L1940.51 30V180.077L1966.46 180.077C1985.79 180.078 2001.46 195.747 2001.46 215.077V330.944H2140.31C2159.64 330.944 2175.31 346.614 2175.31 365.944V641.122H2265.53L2264.83 150.986H2085.26C2060.23 150.986 2039.94 130.696 2039.94 105.666C2039.94 80.5082 2060.43 60.1648 2085.59 60.3474Z" fill="#F28EC0"/>
<path d="M2561.59 60.3547L2790 62.0489V89.4143L2561.92 89.993C2553.59 90.0142 2546.86 96.7677 2546.86 105.091C2546.86 113.434 2553.62 120.196 2561.97 120.19L2730.72 120.071C2750.06 120.057 2765.74 135.731 2765.74 155.071V629.898C2765.74 649.216 2750.09 664.881 2730.78 664.898L2649.28 664.969C2629.94 664.986 2614.25 649.311 2614.25 629.969V360.523H2475.22C2455.89 360.523 2440.22 344.853 2440.22 325.523V210.624L2414.69 210.398C2395.48 210.229 2380 194.609 2380 175.4V30.0009L2410.51 30V180.077L2436.46 180.077C2455.79 180.078 2471.46 195.747 2471.46 215.077V330.944H2610.31C2629.64 330.944 2645.31 346.614 2645.31 365.944V635.122H2735.53L2734.83 150.986H2561.26C2536.23 150.986 2515.94 130.698 2515.94 105.67C2515.94 80.511 2536.43 60.1681 2561.59 60.3547Z" fill="#F28EC0"/>
<path d="M3036.6 60.361L3260 62.0489V89.4143L3036.92 89.9922C3028.59 90.0138 3021.86 96.7674 3021.86 105.091C3021.86 113.434 3028.62 120.196 3036.97 120.189L3200.72 120.072C3220.06 120.058 3235.74 135.732 3235.74 155.072V625.898C3235.74 645.216 3220.09 660.881 3200.78 660.898L3119.28 660.969C3099.94 660.986 3084.25 645.311 3084.25 625.969V360.523H2945.22C2925.89 360.523 2910.22 344.853 2910.22 325.523V210.624L2884.69 210.398C2865.48 210.229 2850 194.609 2850 175.4V30.0009L2880.51 30V180.077L2906.46 180.077C2925.79 180.078 2941.46 195.747 2941.46 215.077V330.944H3080.31C3099.64 330.944 3115.31 346.614 3115.31 365.944V631.122H3205.53L3204.83 150.986H3036.25C3011.23 150.986 2990.94 130.699 2990.94 105.673C2990.94 80.5134 3011.44 60.1709 3036.6 60.361Z" fill="#F28EC0"/>
<path d="M3511.6 60.3676L3730 62.0489V89.4143L3511.92 89.9914C3503.59 90.0134 3496.86 96.767 3496.86 105.09C3496.86 113.434 3503.62 120.195 3511.97 120.189L3670.72 120.072C3690.06 120.058 3705.74 135.732 3705.74 155.072V619.898C3705.74 639.216 3690.09 654.881 3670.78 654.898L3589.28 654.969C3569.94 654.986 3554.25 639.311 3554.25 619.969V360.523H3415.22C3395.89 360.523 3380.22 344.853 3380.22 325.523V210.624L3354.69 210.398C3335.48 210.229 3320 194.609 3320 175.4V30.0009L3350.51 30V180.077L3376.46 180.077C3395.79 180.078 3411.46 195.747 3411.46 215.077V330.944H3550.31C3569.64 330.944 3585.31 346.614 3585.31 365.944V625.122H3675.53L3674.83 150.986H3511.25C3486.23 150.986 3465.94 130.7 3465.94 105.676C3465.94 80.5159 3486.44 60.1739 3511.6 60.3676Z" fill="#F28EC0"/>
<path d="M3986.6 60.3744L4200 62.0489V89.4143L3986.92 89.9905C3978.59 90.013 3971.86 96.7666 3971.86 105.09C3971.86 113.433 3978.62 120.195 3986.97 120.189L4140.72 120.073C4160.06 120.058 4175.74 135.733 4175.74 155.073V615.898C4175.74 635.216 4160.09 650.881 4140.78 650.898L4059.28 650.969C4039.94 650.986 4024.25 635.311 4024.25 615.969V360.523H3885.22C3865.89 360.523 3850.22 344.853 3850.22 325.523V210.624L3824.69 210.398C3805.48 210.229 3790 194.609 3790 175.4V30.0009L3820.51 30V180.077L3846.46 180.077C3865.79 180.078 3881.46 195.747 3881.46 215.077V330.944H4020.31C4039.64 330.944 4055.31 346.614 4055.31 365.944V621.122H4145.53L4144.83 150.986H3986.25C3961.22 150.986 3940.94 130.702 3940.94 105.68C3940.94 80.5185 3961.44 60.1769 3986.6 60.3744Z" fill="#F28EC0"/>
<path d="M4461.61 60.3814L4670 62.0489V89.4143L4461.91 89.9896C4453.59 90.0126 4446.86 96.7662 4446.86 105.089C4446.86 113.433 4453.62 120.195 4461.97 120.189L4610.72 120.074C4630.06 120.059 4645.74 135.733 4645.74 155.074V609.898C4645.74 629.216 4630.09 644.881 4610.78 644.898L4529.28 644.969C4509.94 644.986 4494.25 629.311 4494.25 609.969V360.523H4355.22C4335.89 360.523 4320.22 344.853 4320.22 325.523V210.624L4294.69 210.398C4275.48 210.229 4260 194.609 4260 175.4V30.0009L4290.51 30V180.077L4316.46 180.077C4335.79 180.078 4351.46 195.747 4351.46 215.077V330.944H4490.31C4509.64 330.944 4525.31 346.614 4525.31 365.944V615.122H4615.53L4614.83 150.986H4461.24C4436.22 150.986 4415.94 130.704 4415.94 105.683C4415.94 80.5213 4436.44 60.1801 4461.61 60.3814Z" fill="#F28EC0"/>
<path d="M4936.61 60.3888L5140 62.0489V89.4143L4936.91 89.9887C4928.59 90.0122 4921.86 96.7657 4921.86 105.088C4921.86 113.433 4928.62 120.195 4936.97 120.188L5080.72 120.074C5100.06 120.059 5115.74 135.733 5115.74 155.074V604.898C5115.74 624.216 5100.09 639.881 5080.78 639.898L4999.28 639.969C4979.94 639.986 4964.25 624.311 4964.25 604.969V360.523H4825.22C4805.89 360.523 4790.22 344.853 4790.22 325.523V210.624L4764.69 210.398C4745.48 210.229 4730 194.609 4730 175.4V30.0009L4760.51 30V180.077L4786.46 180.077C4805.79 180.078 4821.46 195.747 4821.46 215.077V330.944H4960.31C4979.64 330.944 4995.31 346.614 4995.31 365.944V610.122H5085.53L5084.83 150.986H4936.24C4911.22 150.986 4890.94 130.705 4890.94 105.687C4890.94 80.5241 4911.45 60.1834 4936.61 60.3888Z" fill="#F28EC0"/>
<path d="M5411.61 60.3965L5610 62.0489V89.4143L5411.91 89.9877C5403.59 90.0118 5396.86 96.7653 5396.86 105.088C5396.86 113.432 5403.62 120.195 5411.97 120.188L5550.72 120.075C5570.06 120.059 5585.74 135.734 5585.74 155.075V599.898C5585.74 619.216 5570.09 634.881 5550.78 634.898L5469.28 634.969C5449.94 634.986 5434.25 619.311 5434.25 599.969V360.523H5295.22C5275.89 360.523 5260.22 344.853 5260.22 325.523V210.624L5234.69 210.398C5215.48 210.229 5200 194.609 5200 175.4V30.0009L5230.51 30V180.077L5256.46 180.077C5275.79 180.078 5291.46 195.747 5291.46 215.077V330.944H5430.31C5449.64 330.944 5465.31 346.614 5465.31 365.944V605.122H5555.53L5554.83 150.986H5411.24C5386.22 150.986 5365.94 130.707 5365.94 105.691C5365.94 80.5271 5386.45 60.1869 5411.61 60.3965Z" fill="#F28EC0"/>
<path d="M5886.62 60.4045L6080 62.0489V89.4143L5886.91 89.9866C5878.59 90.0113 5871.86 96.7648 5871.86 105.087C5871.86 113.432 5878.63 120.195 5886.97 120.188L6020.72 120.076C6040.06 120.06 6055.74 135.734 6055.74 155.076V594.898C6055.74 614.216 6040.09 629.881 6020.78 629.898L5939.28 629.969C5919.94 629.986 5904.25 614.311 5904.25 594.969V360.523H5765.22C5745.89 360.523 5730.22 344.853 5730.22 325.523V210.624L5704.69 210.398C5685.48 210.229 5670 194.609 5670 175.4V30.0009L5700.51 30V180.077L5726.46 180.077C5745.79 180.078 5761.46 195.747 5761.46 215.077V330.944H5900.31C5919.64 330.944 5935.31 346.614 5935.31 365.944V600.122H6025.53L6024.83 150.986H5886.23C5861.22 150.986 5840.94 130.709 5840.94 105.695C5840.94 80.5301 5861.45 60.1905 5886.62 60.4045Z" fill="#F28EC0"/>
<path d="M6361.62 60.4128L6550 62.0489V89.4143L6361.91 89.9855C6353.59 90.0108 6346.86 96.7643 6346.86 105.086C6346.86 113.432 6353.63 120.195 6361.97 120.187L6490.71 120.077C6510.06 120.06 6525.74 135.735 6525.74 155.077V589.898C6525.74 609.216 6510.09 624.881 6490.78 624.898L6409.28 624.969C6389.94 624.986 6374.25 609.311 6374.25 589.969V360.523H6235.22C6215.89 360.523 6200.22 344.853 6200.22 325.523V210.624L6174.69 210.398C6155.48 210.229 6140 194.609 6140 175.4V30.0009L6170.51 30V180.077L6196.46 180.077C6215.79 180.078 6231.46 195.747 6231.46 215.077V330.944H6370.31C6389.64 330.944 6405.31 346.614 6405.31 365.944V595.122H6495.53L6494.83 150.986H6361.23C6336.22 150.986 6315.94 130.71 6315.94 105.699C6315.94 80.5333 6336.46 60.1942 6361.62 60.4128Z" fill="#F28EC0"/>
<path d="M6836.63 60.4215L7020 62.0489V89.4143L6836.91 89.9844C6828.59 90.0103 6821.86 96.7638 6821.86 105.086C6821.86 113.431 6828.63 120.194 6836.97 120.187L6960.71 120.077C6980.06 120.06 6995.74 135.735 6995.74 155.077V584.898C6995.74 604.216 6980.09 619.881 6960.78 619.898L6879.28 619.969C6859.94 619.986 6844.25 604.311 6844.25 584.969V360.523H6705.22C6685.89 360.523 6670.22 344.853 6670.22 325.523V210.624L6644.69 210.398C6625.48 210.229 6610 194.609 6610 175.4V30.0009L6640.51 30V180.077L6666.46 180.077C6685.79 180.078 6701.46 195.747 6701.46 215.077V330.944H6840.31C6859.64 330.944 6875.31 346.614 6875.31 365.944V590.122H6965.53L6964.83 150.986H6836.22C6811.21 150.986 6790.94 130.712 6790.94 105.703C6790.94 80.5367 6811.46 60.1982 6836.63 60.4215Z" fill="#F28EC0"/>
<path d="M7311.63 60.4306L7490 62.0489V89.4143L7311.91 89.9832C7303.59 90.0098 7296.86 96.7632 7296.86 105.085C7296.86 113.431 7303.63 120.194 7311.97 120.187L7430.71 120.078C7450.05 120.061 7465.74 135.736 7465.74 155.078V579.898C7465.74 599.216 7450.09 614.881 7430.78 614.898L7349.28 614.969C7329.94 614.986 7314.25 599.311 7314.25 579.969V360.523H7175.22C7155.89 360.523 7140.22 344.853 7140.22 325.523V210.624L7114.69 210.398C7095.48 210.229 7080 194.609 7080 175.4V30.0009L7110.51 30V180.077L7136.46 180.077C7155.79 180.078 7171.46 195.747 7171.46 215.077V330.944H7310.31C7329.64 330.944 7345.31 346.614 7345.31 365.944V585.122H7435.53L7434.83 150.986H7311.22C7286.21 150.986 7265.94 130.714 7265.94 105.708C7265.94 80.5402 7286.46 60.2023 7311.63 60.4306Z" fill="#F28EC0"/>
<path d="M7786.63 60.4401L7960 62.0489V89.4143L7786.91 89.9819C7778.59 90.0092 7771.86 96.7626 7771.86 105.084C7771.86 113.43 7778.63 120.194 7786.97 120.186L7900.71 120.079C7920.05 120.061 7935.74 135.737 7935.74 155.079V574.898C7935.74 594.216 7920.09 609.881 7900.78 609.898L7819.28 609.969C7799.94 609.986 7784.25 594.311 7784.25 574.969V360.523H7645.22C7625.89 360.523 7610.22 344.853 7610.22 325.523V210.624L7584.69 210.398C7565.48 210.229 7550 194.609 7550 175.4V30.0009L7580.51 30V180.077L7606.46 180.077C7625.79 180.078 7641.46 195.747 7641.46 215.077V330.944H7780.31C7799.64 330.944 7815.31 346.614 7815.31 365.944V580.122H7905.53L7904.83 150.986H7786.21C7761.21 150.986 7740.94 130.717 7740.94 105.712C7740.94 80.5438 7761.47 60.2065 7786.63 60.4401Z" fill="#F28EC0"/>
<path d="M8261.64 60.45L8430 62.0489V89.4143L8261.91 89.9806C8253.59 90.0086 8246.86 96.762 8246.86 105.083C8246.86 113.43 8253.63 120.194 8261.97 120.186L8370.71 120.08C8390.05 120.062 8405.74 135.737 8405.74 155.08V569.898C8405.74 589.216 8390.09 604.881 8370.78 604.898L8289.28 604.969C8269.94 604.986 8254.25 589.311 8254.25 569.969V360.523H8115.22C8095.89 360.523 8080.22 344.853 8080.22 325.523V210.624L8054.69 210.398C8035.48 210.229 8020 194.609 8020 175.4V30.0009L8050.51 30V180.077L8076.46 180.077C8095.79 180.078 8111.46 195.747 8111.46 215.077V330.944H8250.31C8269.64 330.944 8285.31 346.614 8285.31 365.944V575.122H8375.53L8374.83 150.986H8261.21C8236.21 150.986 8215.94 130.719 8215.94 105.717C8215.94 80.5477 8236.47 60.211 8261.64 60.45Z" fill="#F28EC0"/>
<path d="M8736.64 60.4605L8900 62.0489V89.4143L8736.91 89.9791C8728.59 90.008 8721.86 96.7614 8721.86 105.082C8721.86 113.429 8728.63 120.194 8736.98 120.185L8840.71 120.082C8860.05 120.062 8875.74 135.738 8875.74 155.082V564.898C8875.74 584.216 8860.09 599.881 8840.78 599.898L8759.28 599.969C8739.94 599.986 8724.25 584.311 8724.25 564.969V360.523H8585.22C8565.89 360.523 8550.22 344.853 8550.22 325.523V210.624L8524.69 210.398C8505.48 210.229 8490 194.609 8490 175.4V30.0009L8520.51 30V180.077L8546.46 180.077C8565.79 180.078 8581.46 195.747 8581.46 215.077V330.944H8720.31C8739.64 330.944 8755.31 346.614 8755.31 365.944V570.122H8845.53L8844.83 150.986H8736.2C8711.21 150.986 8690.94 130.721 8690.94 105.722C8690.94 80.5517 8711.47 60.2157 8736.64 60.4605Z" fill="#F28EC0"/>
<path d="M9211.65 60.4714L9370 62.0489V89.4143L9211.91 89.9776C9203.59 90.0073 9196.86 96.7607 9196.86 105.081C9196.86 113.429 9203.63 120.193 9211.98 120.185L9310.71 120.083C9330.05 120.063 9345.74 135.739 9345.74 155.083V558.898C9345.74 578.216 9330.09 593.881 9310.78 593.898L9229.28 593.969C9209.94 593.986 9194.25 578.311 9194.25 558.969V360.523H9055.22C9035.89 360.523 9020.22 344.853 9020.22 325.523V210.624L8994.69 210.398C8975.48 210.229 8960 194.609 8960 175.4V30.0009L8990.51 30V180.077L9016.46 180.077C9035.79 180.078 9051.46 195.747 9051.46 215.077V330.944H9190.31C9209.64 330.944 9225.31 346.614 9225.31 365.944V564.122H9315.53L9314.83 150.986H9211.2C9186.2 150.986 9165.94 130.723 9165.94 105.728C9165.94 80.5559 9186.48 60.2207 9211.65 60.4714Z" fill="#F28EC0"/>
</svg>
