<svg width="280" height="302" viewBox="0 0 280 302" fill="none" xmlns="http://www.w3.org/2000/svg">
<path d="M260 142H280V162H260C248.954 162 240 153.046 240 142V30.5585C240 25.0357 235.523 20.5586 230 20.5586C224.477 20.5586 220 25.0357 220 30.5585V122C220 133.046 211.046 142 200 142H160C148.954 142 140 133.046 140 122V62.0004H56.661V102H70C86.5685 102 100 115.432 100 132C100 148.569 86.5685 162 70 162H20V272C20 277.523 24.4771 282 30 282C35.5228 282 40 277.523 40 272V222C40 210.955 48.9543 202 60 202H280V222H60V272C60 288.569 46.5685 302 30 302C13.4315 302 1.52588e-05 288.569 1.52588e-05 272V162C1.52588e-05 150.955 8.95432 142 20 142H70C75.5228 142 80 137.523 80 132C80 126.478 75.5229 122 70 122H56.661C45.6153 122 36.661 113.046 36.661 102V62.0004C36.661 50.9547 45.6154 42.0004 56.6611 42.0004H140C151.046 42.0004 160 50.9547 160 62.0004V122H200V30.5585C200 13.99 213.431 0.558594 230 0.558594C246.568 0.558594 260 13.99 260 30.5585V142Z" fill="#F28EC0"/>
</svg>
