<svg width="32768" height="1067" viewBox="0 0 32768 1067" fill="none" xmlns="http://www.w3.org/2000/svg">
<g clip-path="url(#clip0)">
<path d="M689.594 153.093V-0.952558H727.696V153.093C727.696 174.136 710.637 191.195 689.593 191.195H152.519V418.173H705.024C736.589 418.173 762.178 443.762 762.178 475.327C762.178 506.892 736.589 532.48 705.024 532.48H76.2047V724.401H192.628V667.248C192.628 635.683 218.217 610.094 249.782 610.094C281.347 610.094 306.935 635.683 306.935 667.248V762.504H460.98V686.299C460.98 665.256 478.039 648.197 499.082 648.197H686.167C707.21 648.197 724.269 665.256 724.269 686.299V915.06H916.769V780.145C916.769 748.58 942.357 722.992 973.922 722.992C1005.49 722.992 1031.08 748.58 1031.08 780.145V1026.4L1610.43 1028.76V1066.87L1030.93 1064.65C1009.94 1064.57 992.973 1047.53 992.973 1026.55V780.145C992.973 769.623 984.444 761.094 973.922 761.094C963.401 761.094 954.871 769.623 954.871 780.145V915.06C954.871 936.103 937.812 953.162 916.769 953.162H724.223C703.198 953.162 686.146 936.132 686.121 915.106L685.842 686.299H499.082V763.879C499.082 784.923 482.023 801.982 460.98 801.982H306.935C285.892 801.982 268.833 784.923 268.833 763.879V667.248C268.833 656.726 260.304 648.197 249.782 648.197C239.26 648.197 230.731 656.726 230.731 667.248V724.401C230.731 745.445 213.672 762.504 192.628 762.504H76.2047C55.1613 762.504 38.1023 745.445 38.1023 724.401V532.48C38.1023 511.437 55.1614 494.378 76.2047 494.378H705.024C715.546 494.378 724.075 485.848 724.075 475.327C724.075 464.805 715.546 456.275 705.024 456.275H152.519C131.476 456.275 114.417 439.216 114.417 418.173V191.195C114.417 170.152 131.476 153.093 152.519 153.093H689.594Z" fill="#F28EC0"/>
<path d="M2327.99 153.093V-0.952558H2366.1V153.093C2366.1 174.136 2349.04 191.195 2327.99 191.195H1800.49V418.173H2334.14C2365.71 418.173 2391.29 443.762 2391.29 475.327C2391.29 506.892 2365.71 532.48 2334.14 532.48H1714.6V733.311H1831.03V667.248C1831.03 635.683 1856.62 610.094 1888.18 610.094C1919.75 610.094 1945.34 635.683 1945.34 667.248V762.504H2099.38V686.299C2099.38 665.256 2116.44 648.197 2137.48 648.197H2329.1C2350.14 648.197 2367.2 665.256 2367.2 686.299V915.06H2555.17V780.145C2555.17 748.58 2580.76 722.992 2612.32 722.992C2643.89 722.992 2669.48 748.58 2669.48 780.145V1026.4L3248.83 1028.76V1066.87L2669.33 1064.65C2648.34 1064.57 2631.37 1047.53 2631.37 1026.55V780.145C2631.37 769.623 2622.84 761.094 2612.32 761.094C2601.8 761.094 2593.27 769.623 2593.27 780.145V915.06C2593.27 936.103 2576.21 953.162 2555.17 953.162H2367.15C2346.13 953.162 2329.08 936.132 2329.05 915.106L2328.77 686.299H2137.48V763.879C2137.48 784.923 2120.42 801.982 2099.38 801.982H1945.34C1924.29 801.982 1907.23 784.923 1907.23 763.879V667.248C1907.23 656.726 1898.7 648.197 1888.18 648.197C1877.66 648.197 1869.13 656.726 1869.13 667.248V733.311C1869.13 754.354 1852.07 771.413 1831.03 771.413H1714.6C1693.56 771.413 1676.5 754.354 1676.5 733.311V532.48C1676.5 511.437 1693.56 494.378 1714.6 494.378H2334.14C2344.66 494.378 2353.19 485.848 2353.19 475.327C2353.19 464.805 2344.66 456.275 2334.14 456.275H1800.49C1779.45 456.275 1762.39 439.216 1762.39 418.173V191.195C1762.39 170.152 1779.45 153.093 1800.49 153.093H2327.99Z" fill="#F28EC0"/>
<path d="M3966.39 153.093V-0.952558H4004.5V153.093C4004.5 174.136 3987.44 191.195 3966.39 191.195H3448.6V418.173H3962.69C3994.26 418.173 4019.85 443.762 4019.85 475.327C4019.85 506.892 3994.26 532.48 3962.69 532.48H3353V743.549H3469.43V667.248C3469.43 635.683 3495.02 610.094 3526.58 610.094C3558.15 610.094 3583.74 635.683 3583.74 667.248V762.504H3737.78V686.299C3737.78 665.256 3754.84 648.197 3775.88 648.197H3971.94C3992.99 648.197 4010.04 665.256 4010.04 686.299V915.06H4193.57V780.145C4193.57 748.58 4219.16 722.992 4250.72 722.992C4282.29 722.992 4307.88 748.58 4307.88 780.145V1026.4L4887.23 1028.76V1066.87L4307.73 1064.65C4286.74 1064.57 4269.77 1047.53 4269.77 1026.55V780.145C4269.77 769.623 4261.24 761.094 4250.72 761.094C4240.2 761.094 4231.67 769.623 4231.67 780.145V915.06C4231.67 936.103 4214.61 953.162 4193.57 953.162H4010C3988.97 953.162 3971.92 936.132 3971.9 915.106L3971.62 686.299H3775.88V763.879C3775.88 784.923 3758.82 801.982 3737.78 801.982H3583.74C3562.69 801.982 3545.63 784.923 3545.63 763.879V667.248C3545.63 656.726 3537.1 648.197 3526.58 648.197C3516.06 648.197 3507.53 656.726 3507.53 667.248V743.549C3507.53 764.593 3490.47 781.652 3469.43 781.652H3353C3331.96 781.652 3314.9 764.593 3314.9 743.549V532.48C3314.9 511.437 3331.96 494.378 3353 494.378H3962.69C3973.22 494.378 3981.74 485.848 3981.74 475.327C3981.74 464.805 3973.22 456.275 3962.69 456.275H3448.6C3427.55 456.275 3410.49 439.216 3410.49 418.173V191.195C3410.49 170.152 3427.55 153.093 3448.6 153.093H3966.39Z" fill="#F28EC0"/>
<path d="M5604.79 153.093V-0.952558H5642.9V153.093C5642.9 174.136 5625.84 191.195 5604.79 191.195H5096.86V418.173H5590.97C5622.53 418.173 5648.12 443.762 5648.12 475.327C5648.12 506.892 5622.53 532.48 5590.97 532.48H4991.4V752.761H5107.83V667.248C5107.83 635.683 5133.42 610.094 5164.98 610.094C5196.55 610.094 5222.14 635.683 5222.14 667.248V762.504H5376.18V686.299C5376.18 665.256 5393.24 648.197 5414.28 648.197H5615.62C5636.66 648.197 5653.72 665.256 5653.72 686.299V915.06H5831.97V780.145C5831.97 748.58 5857.56 722.992 5889.12 722.992C5920.69 722.992 5946.28 748.58 5946.28 780.145V1026.4L6525.63 1028.76V1066.87L5946.13 1064.65C5925.14 1064.57 5908.17 1047.53 5908.17 1026.55V780.145C5908.17 769.623 5899.64 761.094 5889.12 761.094C5878.6 761.094 5870.07 769.623 5870.07 780.145V915.06C5870.07 936.103 5853.01 953.162 5831.97 953.162H5653.67C5632.65 953.162 5615.6 936.132 5615.57 915.106L5615.29 686.299H5414.28V763.879C5414.28 784.923 5397.22 801.982 5376.18 801.982H5222.14C5201.09 801.982 5184.03 784.923 5184.03 763.879V667.248C5184.03 656.726 5175.5 648.197 5164.98 648.197C5154.46 648.197 5145.93 656.726 5145.93 667.248V752.761C5145.93 773.804 5128.87 790.863 5107.83 790.863H4991.4C4970.36 790.863 4953.3 773.804 4953.3 752.761V532.48C4953.3 511.437 4970.36 494.378 4991.4 494.378H5590.97C5601.49 494.378 5610.02 485.848 5610.02 475.327C5610.02 464.805 5601.49 456.275 5590.97 456.275H5096.86C5075.81 456.275 5058.76 439.216 5058.76 418.173V191.195C5058.76 170.152 5075.81 153.093 5096.86 153.093H5604.79Z" fill="#F28EC0"/>
<path d="M7243.19 153.093V-0.952558H7281.3V153.044C7281.3 174.107 7264.21 191.173 7243.15 191.147L6743.42 190.512V417.489L7220.76 418.1C7252.3 418.14 7277.84 443.754 7277.84 475.29C7277.84 506.855 7252.25 532.48 7220.69 532.48H6629.8V762.202H6746.23V667.248C6746.23 635.683 6771.82 610.094 6803.38 610.094C6834.95 610.094 6860.54 635.683 6860.54 667.248V762.504H7014.58V686.299C7014.58 665.256 7031.64 648.197 7052.68 648.197H7258.16C7279.21 648.197 7296.26 665.256 7296.26 686.299V915.06H7470.37V780.145C7470.37 748.58 7495.96 722.992 7527.52 722.992C7559.09 722.992 7584.68 748.58 7584.68 780.145V1026.4L8164.03 1028.76V1066.87L7584.53 1064.65C7563.54 1064.57 7546.57 1047.53 7546.57 1026.55V780.145C7546.57 769.623 7538.04 761.094 7527.52 761.094C7517 761.094 7508.47 769.623 7508.47 780.145V915.06C7508.47 936.103 7491.41 953.162 7470.37 953.162H7296.22C7275.19 953.162 7258.14 936.132 7258.12 915.106L7257.84 686.299H7052.68V763.879C7052.68 784.923 7035.62 801.982 7014.58 801.982H6860.54C6839.49 801.982 6822.43 784.923 6822.43 763.879V667.248C6822.43 656.726 6813.9 648.197 6803.38 648.197C6792.86 648.197 6784.33 656.726 6784.33 667.248V762.202C6784.33 783.245 6767.27 800.304 6746.23 800.304H6629.8C6608.76 800.304 6591.7 783.245 6591.7 762.202V532.48C6591.7 511.437 6608.76 494.378 6629.8 494.378H7220.69C7231.21 494.378 7239.74 485.836 7239.74 475.314C7239.74 464.802 7231.22 456.264 7220.71 456.251L6743.37 455.64C6722.35 455.614 6705.32 438.562 6705.32 417.538V190.56C6705.32 169.498 6722.41 152.431 6743.47 152.458L7243.19 153.093Z" fill="#F28EC0"/>
<path d="M8881.59 153.093V-0.952558H8919.7V153.043C8919.7 174.106 8902.61 191.173 8881.54 191.146L8391.87 190.512V417.489L8849.39 418.097C8880.93 418.139 8906.47 443.753 8906.47 475.289C8906.47 506.854 8880.88 532.48 8849.32 532.48H8268.2V770.932H8384.63V667.248C8384.63 635.683 8410.22 610.094 8441.78 610.094C8473.35 610.094 8498.94 635.683 8498.94 667.248V762.504H8652.98V686.299C8652.98 665.256 8670.04 648.197 8691.08 648.197H8901.59C8922.63 648.197 8939.69 665.256 8939.69 686.299V915.06H9108.77V780.145C9108.77 748.58 9134.36 722.992 9165.92 722.992C9197.49 722.992 9223.08 748.58 9223.08 780.145V1026.4L9802.43 1028.76V1066.87L9222.93 1064.65C9201.94 1064.57 9184.97 1047.53 9184.97 1026.55V780.145C9184.97 769.623 9176.44 761.094 9165.92 761.094C9155.4 761.094 9146.87 769.623 9146.87 780.145V915.06C9146.87 936.103 9129.81 953.162 9108.77 953.162H8939.65C8918.62 953.162 8901.57 936.132 8901.54 915.106L8901.27 686.299H8691.08V763.879C8691.08 784.923 8674.02 801.982 8652.98 801.982H8498.94C8477.89 801.982 8460.83 784.923 8460.83 763.879V667.248C8460.83 656.726 8452.3 648.197 8441.78 648.197C8431.26 648.197 8422.73 656.726 8422.73 667.248V770.932C8422.73 791.975 8405.67 809.034 8384.63 809.034H8268.2C8247.16 809.034 8230.1 791.975 8230.1 770.932V532.48C8230.1 511.437 8247.16 494.378 8268.2 494.378H8849.32C8859.84 494.378 8868.37 485.836 8868.37 475.314C8868.37 464.802 8859.86 456.264 8849.34 456.25L8391.82 455.642C8370.79 455.614 8353.77 438.564 8353.77 417.54V190.561C8353.77 169.498 8370.86 152.431 8391.92 152.459L8881.59 153.093Z" fill="#F28EC0"/>
<path d="M10520 153.093V-0.952558H10558.1V153.043C10558.1 174.106 10541 191.173 10519.9 191.145L10040.3 190.512V417.489L10478.5 418.094C10510 418.138 10535.5 443.753 10535.5 475.287C10535.5 506.852 10509.9 532.48 10478.4 532.48H9906.6L9906.6 780.381H10023L10023 667.248C10023 635.683 10048.6 610.094 10080.2 610.094C10111.7 610.094 10137.3 635.683 10137.3 667.248V762.504H10291.4V686.299C10291.4 665.256 10308.4 648.197 10329.5 648.197H10544.7C10565.7 648.197 10582.8 665.256 10582.8 686.299V915.06H10747.2V780.145C10747.2 748.58 10772.8 722.992 10804.3 722.992C10835.9 722.992 10861.5 748.58 10861.5 780.145V1026.4L11440.8 1028.76V1066.87L10861.3 1064.65C10840.3 1064.57 10823.4 1047.53 10823.4 1026.55V780.145C10823.4 769.623 10814.8 761.094 10804.3 761.094C10793.8 761.094 10785.3 769.623 10785.3 780.145V915.06C10785.3 936.103 10768.2 953.162 10747.2 953.162H10582.8C10561.7 953.162 10544.7 936.132 10544.7 915.106L10544.4 686.299H10329.5V763.879C10329.5 784.923 10312.4 801.982 10291.4 801.982H10137.3C10116.3 801.982 10099.2 784.923 10099.2 763.879V667.248C10099.2 656.726 10090.7 648.197 10080.2 648.197C10069.7 648.197 10061.1 656.726 10061.1 667.248L10061.1 780.381C10061.1 801.425 10044.1 818.484 10023 818.484H9906.6C9885.56 818.484 9868.5 801.425 9868.5 780.381L9868.5 532.48C9868.5 511.437 9885.56 494.378 9906.6 494.378H10478.4C10488.9 494.378 10497.4 485.835 10497.4 475.313C10497.4 464.802 10488.9 456.264 10478.4 456.249L10040.3 455.644C10019.2 455.615 10002.2 438.565 10002.2 417.542V190.562C10002.2 169.499 10019.3 152.432 10040.4 152.46L10520 153.093Z" fill="#F28EC0"/>
<path d="M12158.4 153.093V-0.952558H12196.5V153.042C12196.5 174.105 12179.4 191.172 12158.3 191.144L11688.1 190.512V417.489L12107.4 418.091C12139 418.136 12164.5 443.753 12164.5 475.286C12164.5 506.851 12138.9 532.48 12107.4 532.48H11545L11545 789.947H11661.4L11661.4 667.248C11661.4 635.683 11687 610.094 11718.6 610.094C11750.1 610.094 11775.7 635.683 11775.7 667.248V762.504H11929.8V686.299C11929.8 665.256 11946.8 648.197 11967.9 648.197H12188.6C12209.6 648.197 12226.7 665.256 12226.7 686.299V915.06H12385.6V780.145C12385.6 748.58 12411.2 722.992 12442.7 722.992C12474.3 722.992 12499.9 748.58 12499.9 780.145V1026.4L13079.2 1028.76V1066.87L12499.7 1064.65C12478.7 1064.57 12461.8 1047.53 12461.8 1026.55V780.145C12461.8 769.623 12453.2 761.094 12442.7 761.094C12432.2 761.094 12423.7 769.623 12423.7 780.145V915.06C12423.7 936.103 12406.6 953.162 12385.6 953.162H12226.6C12205.6 953.162 12188.6 936.132 12188.5 915.106L12188.2 686.299H11967.9V763.879C11967.9 784.923 11950.8 801.982 11929.8 801.982H11775.7C11754.7 801.982 11737.6 784.923 11737.6 763.879V667.248C11737.6 656.726 11729.1 648.197 11718.6 648.197C11708.1 648.197 11699.5 656.726 11699.5 667.248L11699.5 789.947C11699.5 810.99 11682.5 828.049 11661.4 828.049H11545C11524 828.049 11506.9 810.99 11506.9 789.947L11506.9 532.48C11506.9 511.437 11524 494.378 11545 494.378H12107.4C12117.9 494.378 12126.4 485.835 12126.4 475.313C12126.4 464.802 12117.9 456.263 12107.4 456.248L11688.1 455.646C11667 455.616 11650 438.566 11650 417.544V190.563C11650 169.5 11667.1 152.432 11688.2 152.461L12158.4 153.093Z" fill="#F28EC0"/>
<path d="M13796.8 153.093V-0.952558H13834.9V153.041C13834.9 174.104 13817.8 191.172 13796.7 191.143L13335.9 190.512V417.489L13736.7 418.088C13768.2 418.135 13793.7 443.752 13793.7 475.284C13793.7 506.849 13768.2 532.48 13736.6 532.48H13183.4L13183.4 800.274H13299.8L13299.8 667.248C13299.8 635.683 13325.4 610.094 13357 610.094C13388.5 610.094 13414.1 635.683 13414.1 667.248V762.504H13568.2V686.299C13568.2 665.256 13585.2 648.197 13606.3 648.197H13831.1C13852.1 648.197 13869.2 665.256 13869.2 686.299V915.06H14024V780.145C14024 748.58 14049.6 722.992 14081.1 722.992C14112.7 722.992 14138.3 748.58 14138.3 780.145V1026.4L14717.6 1028.76V1066.87L14138.1 1064.65C14117.1 1064.57 14100.2 1047.53 14100.2 1026.55V780.145C14100.2 769.623 14091.6 761.094 14081.1 761.094C14070.6 761.094 14062.1 769.623 14062.1 780.145V915.06C14062.1 936.103 14045 953.162 14024 953.162H13869.1C13848.1 953.162 13831.1 936.132 13831 915.106L13830.8 686.299H13606.3V763.879C13606.3 784.923 13589.2 801.982 13568.2 801.982H13414.1C13393.1 801.982 13376 784.923 13376 763.879V667.248C13376 656.726 13367.5 648.197 13357 648.197C13346.5 648.197 13337.9 656.726 13337.9 667.248L13337.9 800.275C13337.9 821.318 13320.9 838.377 13299.8 838.377H13183.4C13162.4 838.377 13145.3 821.318 13145.3 800.274L13145.3 532.48C13145.3 511.437 13162.4 494.378 13183.4 494.378H13736.6C13747.1 494.378 13755.6 485.834 13755.6 475.312C13755.6 464.802 13747.1 456.263 13736.6 456.247L13335.9 455.649C13314.9 455.617 13297.8 438.567 13297.8 417.546V190.564C13297.8 169.5 13314.9 152.433 13336 152.462L13796.8 153.093Z" fill="#F28EC0"/>
<path d="M15435.2 153.093V-0.952558H15473.3V153.04C15473.3 174.104 15456.2 191.171 15435.1 191.142L14983.8 190.512V417.489L15364.8 418.084C15396.3 418.133 15421.8 443.752 15421.8 475.282C15421.8 506.847 15396.2 532.48 15364.7 532.48H14821.8V810.284H14938.2V667.248C14938.2 635.683 14963.8 610.094 14995.4 610.094C15026.9 610.094 15052.5 635.683 15052.5 667.248V762.504H15206.6V686.299C15206.6 665.256 15223.6 648.197 15244.7 648.197H15474.4C15495.4 648.197 15512.5 665.256 15512.5 686.299V915.06H15662.4V780.145C15662.4 748.58 15688 722.992 15719.5 722.992C15751.1 722.992 15776.7 748.58 15776.7 780.145V1026.4L16356 1028.76V1066.87L15776.5 1064.65C15755.5 1064.57 15738.6 1047.53 15738.6 1026.55V780.145C15738.6 769.623 15730 761.094 15719.5 761.094C15709 761.094 15700.5 769.623 15700.5 780.145V915.06C15700.5 936.103 15683.4 953.162 15662.4 953.162H15512.4C15491.4 953.162 15474.3 936.132 15474.3 915.106L15474 686.299H15244.7V763.879C15244.7 784.923 15227.6 801.982 15206.6 801.982H15052.5C15031.5 801.982 15014.4 784.923 15014.4 763.879V667.248C15014.4 656.726 15005.9 648.197 14995.4 648.197C14984.9 648.197 14976.3 656.726 14976.3 667.248V810.284C14976.3 831.327 14959.3 848.386 14938.2 848.386H14821.8C14800.8 848.386 14783.7 831.327 14783.7 810.284V532.48C14783.7 511.437 14800.8 494.378 14821.8 494.378H15364.7C15375.2 494.378 15383.7 485.833 15383.7 475.312C15383.7 464.802 15375.2 456.262 15364.7 456.246L14983.7 455.651C14962.7 455.618 14945.6 438.569 14945.6 417.549V190.565C14945.6 169.501 14962.7 152.433 14983.8 152.463L15435.2 153.093Z" fill="#F28EC0"/>
<path d="M17073.6 153.093V-0.952558H17111.7V153.039C17111.7 174.103 17094.6 191.171 17073.5 191.141L16631.6 190.512V417.489L16993.8 418.08C17025.3 418.131 17050.9 443.751 17050.9 475.28C17050.9 506.845 17025.3 532.48 16993.7 532.48H16460.2V819.059H16576.6V667.248C16576.6 635.683 16602.2 610.094 16633.8 610.094C16665.3 610.094 16690.9 635.683 16690.9 667.248V762.504H16845V686.299C16845 665.256 16862 648.197 16883.1 648.197H17117.2C17138.3 648.197 17155.3 665.256 17155.3 686.299V915.06H17300.8V780.145C17300.8 748.58 17326.4 722.992 17357.9 722.992C17389.5 722.992 17415.1 748.58 17415.1 780.145V1026.4L17994.4 1028.76V1066.87L17414.9 1064.65C17393.9 1064.57 17377 1047.53 17377 1026.55V780.145C17377 769.623 17368.4 761.094 17357.9 761.094C17347.4 761.094 17338.9 769.623 17338.9 780.145V915.06C17338.9 936.103 17321.8 953.162 17300.8 953.162H17155.3C17134.3 953.162 17117.2 936.132 17117.2 915.106L17116.9 686.299H16883.1V763.879C16883.1 784.923 16866 801.982 16845 801.982H16690.9C16669.9 801.982 16652.8 784.923 16652.8 763.879V667.248C16652.8 656.726 16644.3 648.197 16633.8 648.197C16623.3 648.197 16614.7 656.726 16614.7 667.248V819.059C16614.7 840.103 16597.7 857.162 16576.6 857.162H16460.2C16439.2 857.162 16422.1 840.103 16422.1 819.059V532.48C16422.1 511.437 16439.2 494.378 16460.2 494.378H16993.7C17004.2 494.378 17012.8 485.833 17012.8 475.311C17012.8 464.801 17004.3 456.261 16993.8 456.244L16631.5 455.654C16610.5 455.62 16593.4 438.571 16593.4 417.552V190.566C16593.4 169.501 16610.5 152.434 16631.6 152.464L17073.6 153.093Z" fill="#F28EC0"/>
<path d="M18712 153.093V-0.952558H18750.1V153.037C18750.1 174.102 18733 191.17 18711.9 191.14L18279.5 190.512V417.489L18622.8 418.076C18654.3 418.129 18679.8 443.751 18679.8 475.278C18679.8 506.843 18654.2 532.48 18622.7 532.48H18098.6V828.499H18215V667.248C18215 635.683 18240.6 610.094 18272.2 610.094C18303.7 610.094 18329.3 635.683 18329.3 667.248V762.504H18483.4V686.299C18483.4 665.256 18500.4 648.197 18521.5 648.197H18760.6C18781.6 648.197 18798.7 665.256 18798.7 686.299V915.06H18939.2V780.145C18939.2 748.58 18964.8 722.992 18996.3 722.992C19027.9 722.992 19053.5 748.58 19053.5 780.145V1026.4L19632.8 1028.76V1066.87L19053.3 1064.65C19032.3 1064.57 19015.4 1047.53 19015.4 1026.55V780.145C19015.4 769.623 19006.8 761.094 18996.3 761.094C18985.8 761.094 18977.3 769.623 18977.3 780.145V915.06C18977.3 936.103 18960.2 953.162 18939.2 953.162H18798.6C18777.6 953.162 18760.5 936.132 18760.5 915.106L18760.2 686.299H18521.5V763.879C18521.5 784.923 18504.4 801.982 18483.4 801.982H18329.3C18308.3 801.982 18291.2 784.923 18291.2 763.879V667.248C18291.2 656.726 18282.7 648.197 18272.2 648.197C18261.7 648.197 18253.1 656.726 18253.1 667.248V828.499C18253.1 849.543 18236.1 866.602 18215 866.602H18098.6C18077.6 866.602 18060.5 849.543 18060.5 828.499V532.48C18060.5 511.437 18077.6 494.378 18098.6 494.378H18622.7C18633.2 494.378 18641.7 485.832 18641.7 475.31C18641.7 464.801 18633.2 456.261 18622.7 456.243L18279.4 455.657C18258.4 455.621 18241.4 438.572 18241.4 417.554V190.567C18241.4 169.502 18258.5 152.434 18279.6 152.465L18712 153.093Z" fill="#F28EC0"/>
<path d="M20350.4 153.093V-0.952558H20388.5V153.036C20388.5 174.102 20371.4 191.17 20350.3 191.139L19927.5 190.512V417.489L20251.7 418.071C20283.3 418.127 20308.8 443.75 20308.8 475.275C20308.8 506.84 20283.2 532.48 20251.6 532.48H19737V838.362H19853.4V667.248C19853.4 635.683 19879 610.094 19910.6 610.094C19942.1 610.094 19967.7 635.683 19967.7 667.248V762.504H20121.8V686.299C20121.8 665.256 20138.8 648.197 20159.9 648.197H20403.5C20424.6 648.197 20441.6 665.256 20441.6 686.299V915.06H20577.6V780.145C20577.6 748.58 20603.2 722.992 20634.7 722.992C20666.3 722.992 20691.9 748.58 20691.9 780.145V1026.4L21271.2 1028.76V1066.87L20691.7 1064.65C20670.7 1064.57 20653.8 1047.53 20653.8 1026.55V780.145C20653.8 769.623 20645.2 761.094 20634.7 761.094C20624.2 761.094 20615.7 769.623 20615.7 780.145V915.06C20615.7 936.103 20598.6 953.162 20577.6 953.162H20441.6C20420.6 953.162 20403.5 936.132 20403.5 915.106L20403.2 686.299H20159.9V763.879C20159.9 784.923 20142.8 801.982 20121.8 801.982H19967.7C19946.7 801.982 19929.6 784.923 19929.6 763.879V667.248C19929.6 656.726 19921.1 648.197 19910.6 648.197C19900.1 648.197 19891.5 656.726 19891.5 667.248V838.362C19891.5 859.406 19874.5 876.465 19853.4 876.465H19737C19716 876.465 19698.9 859.406 19698.9 838.362V532.48C19698.9 511.437 19716 494.378 19737 494.378H20251.6C20262.1 494.378 20270.7 485.831 20270.7 475.309C20270.7 464.801 20262.2 456.26 20251.7 456.241L19927.5 455.66C19906.4 455.622 19889.4 438.574 19889.4 417.558V190.568C19889.4 169.503 19906.5 152.435 19927.6 152.466L20350.4 153.093Z" fill="#F28EC0"/>
<path d="M21988.8 153.093V-0.952558H22026.9V153.035C22026.9 174.101 22009.8 191.169 21988.7 191.137L21575.6 190.512V417.489L21880.6 418.065C21912.1 418.125 21937.6 443.75 21937.6 475.273C21937.6 506.838 21912 532.48 21880.5 532.48H21375.4V847.111H21491.8V667.248C21491.8 635.683 21517.4 610.094 21549 610.094C21580.5 610.094 21606.1 635.683 21606.1 667.248V762.504H21760.2V686.299C21760.2 665.256 21777.2 648.197 21798.3 648.197H22046.8C22067.8 648.197 22084.9 665.256 22084.9 686.299V915.06H22216V780.145C22216 748.58 22241.6 722.992 22273.1 722.992C22304.7 722.992 22330.3 748.58 22330.3 780.145V1026.4L22909.6 1028.76V1066.87L22330.1 1064.65C22309.1 1064.57 22292.2 1047.53 22292.2 1026.55V780.145C22292.2 769.623 22283.6 761.094 22273.1 761.094C22262.6 761.094 22254.1 769.623 22254.1 780.145V915.06C22254.1 936.103 22237 953.162 22216 953.162H22084.8C22063.8 953.162 22046.7 936.132 22046.7 915.106L22046.4 686.299H21798.3V763.879C21798.3 784.923 21781.2 801.982 21760.2 801.982H21606.1C21585.1 801.982 21568 784.923 21568 763.879V667.248C21568 656.726 21559.5 648.197 21549 648.197C21538.5 648.197 21529.9 656.726 21529.9 667.248V847.111C21529.9 868.154 21512.9 885.213 21491.8 885.213H21375.4C21354.4 885.213 21337.3 868.154 21337.3 847.111V532.48C21337.3 511.437 21354.4 494.378 21375.4 494.378H21880.5C21891 494.378 21899.5 485.83 21899.5 475.309C21899.5 464.801 21891 456.259 21880.5 456.239L21575.6 455.664C21554.5 455.624 21537.5 438.577 21537.5 417.561V190.569C21537.5 169.504 21554.6 152.435 21575.7 152.467L21988.8 153.093Z" fill="#F28EC0"/>
<path d="M23627.2 153.093V-0.952558H23665.3V153.034C23665.3 174.1 23648.2 191.169 23627.1 191.136L23223.4 190.512V417.489L23509.1 418.059C23540.6 418.122 23566.2 443.749 23566.2 475.27C23566.2 506.835 23540.6 532.48 23509 532.48H23013.8V857.045H23130.2V667.248C23130.2 635.683 23155.8 610.094 23187.4 610.094C23218.9 610.094 23244.5 635.683 23244.5 667.248V762.504H23398.6V686.299C23398.6 665.256 23415.6 648.197 23436.7 648.197H23690.1C23711.2 648.197 23728.2 665.256 23728.2 686.299V915.06H23854.4V780.145C23854.4 748.58 23880 722.992 23911.5 722.992C23943.1 722.992 23968.7 748.58 23968.7 780.145V1026.4L24548 1028.76V1066.87L23968.5 1064.65C23947.5 1064.57 23930.6 1047.53 23930.6 1026.55V780.145C23930.6 769.623 23922 761.094 23911.5 761.094C23901 761.094 23892.5 769.623 23892.5 780.145V915.06C23892.5 936.103 23875.4 953.162 23854.4 953.162H23728.2C23707.1 953.162 23690.1 936.132 23690.1 915.106L23689.8 686.299H23436.7V763.879C23436.7 784.923 23419.6 801.982 23398.6 801.982H23244.5C23223.5 801.982 23206.4 784.923 23206.4 763.879V667.248C23206.4 656.726 23197.9 648.197 23187.4 648.197C23176.9 648.197 23168.3 656.726 23168.3 667.248V857.045C23168.3 878.089 23151.3 895.148 23130.2 895.148H23013.8C22992.8 895.148 22975.7 878.089 22975.7 857.045V532.48C22975.7 511.437 22992.8 494.378 23013.8 494.378H23509C23519.5 494.378 23528.1 485.829 23528.1 475.308C23528.1 464.801 23519.5 456.258 23509 456.237L23223.3 455.668C23202.3 455.626 23185.3 438.579 23185.3 417.565V190.571C23185.3 169.504 23202.4 152.436 23223.4 152.468L23627.2 153.093Z" fill="#F28EC0"/>
<path d="M25265.6 153.093V-0.952558H25303.7V153.033C25303.7 174.099 25286.6 191.168 25265.5 191.135L24871.4 190.512V417.489L25138.2 418.053C25169.7 418.119 25195.2 443.748 25195.2 475.266C25195.2 506.831 25169.6 532.48 25138 532.48H24652.2V866.936H24768.6V667.248C24768.6 635.683 24794.2 610.094 24825.8 610.094C24857.3 610.094 24882.9 635.683 24882.9 667.248V762.504H25037V686.299C25037 665.256 25054 648.197 25075.1 648.197H25333.4C25354.5 648.197 25371.5 665.256 25371.5 686.299V915.06H25492.8V780.145C25492.8 748.58 25518.4 722.992 25549.9 722.992C25581.5 722.992 25607.1 748.58 25607.1 780.145V1026.4L26186.4 1028.76V1066.87L25606.9 1064.65C25585.9 1064.57 25569 1047.53 25569 1026.55V780.145C25569 769.623 25560.4 761.094 25549.9 761.094C25539.4 761.094 25530.9 769.623 25530.9 780.145V915.06C25530.9 936.103 25513.8 953.162 25492.8 953.162H25371.5C25350.5 953.162 25333.4 936.132 25333.4 915.106L25333.1 686.299H25075.1V763.879C25075.1 784.923 25058 801.982 25037 801.982H24882.9C24861.9 801.982 24844.8 784.923 24844.8 763.879V667.248C24844.8 656.726 24836.3 648.197 24825.8 648.197C24815.3 648.197 24806.7 656.726 24806.7 667.248V866.936C24806.7 887.979 24789.7 905.038 24768.6 905.038H24652.2C24631.2 905.038 24614.1 887.979 24614.1 866.936V532.48C24614.1 511.437 24631.2 494.378 24652.2 494.378H25138C25148.6 494.378 25157.1 485.828 25157.1 475.306C25157.1 464.8 25148.6 456.257 25138.1 456.235L24871.3 455.672C24850.3 455.628 24833.3 438.582 24833.3 417.57V190.572C24833.3 169.505 24850.3 152.436 24871.4 152.47L25265.6 153.093Z" fill="#F28EC0"/>
<path d="M26904 153.093V-0.952558H26942.1V153.031C26942.1 174.099 26925 191.168 26903.9 191.133L26519.2 190.512V417.489L26767.1 418.045C26798.6 418.116 26824.1 443.747 26824.1 475.262C26824.1 506.827 26798.5 532.48 26766.9 532.48H26290.6V875.476H26407V667.248C26407 635.683 26432.6 610.094 26464.2 610.094C26495.7 610.094 26521.3 635.683 26521.3 667.248V762.504H26675.4V686.299C26675.4 665.256 26692.4 648.197 26713.5 648.197H26976.2C26997.2 648.197 27014.3 665.256 27014.3 686.299V915.06H27131.2V780.145C27131.2 748.58 27156.8 722.992 27188.3 722.992C27219.9 722.992 27245.5 748.58 27245.5 780.145V1026.4L27824.8 1028.76V1066.87L27245.3 1064.65C27224.3 1064.57 27207.4 1047.53 27207.4 1026.55V780.145C27207.4 769.623 27198.8 761.094 27188.3 761.094C27177.8 761.094 27169.3 769.623 27169.3 780.145V915.06C27169.3 936.103 27152.2 953.162 27131.2 953.162H27014.3C26993.2 953.162 26976.2 936.132 26976.2 915.106L26975.9 686.299H26713.5V763.879C26713.5 784.923 26696.4 801.982 26675.4 801.982H26521.3C26500.3 801.982 26483.2 784.923 26483.2 763.879V667.248C26483.2 656.726 26474.7 648.197 26464.2 648.197C26453.7 648.197 26445.1 656.726 26445.1 667.248V875.476C26445.1 896.519 26428.1 913.578 26407 913.578H26290.6C26269.6 913.578 26252.5 896.519 26252.5 875.476V532.48C26252.5 511.437 26269.6 494.378 26290.6 494.378H26766.9C26777.5 494.378 26786 485.827 26786 475.305C26786 464.8 26777.5 456.256 26767 456.233L26519.2 455.677C26498.2 455.63 26481.1 438.585 26481.1 417.575V190.573C26481.1 169.506 26498.2 152.437 26519.3 152.471L26904 153.093Z" fill="#F28EC0"/>
<path d="M28542.4 153.093V-0.952558H28580.5V153.03C28580.5 174.098 28563.4 191.167 28542.3 191.132L28167.5 190.512V417.489L28396.3 418.037C28427.8 418.112 28453.3 443.747 28453.3 475.258C28453.3 506.823 28427.7 532.48 28396.1 532.48H27929V885.834H28045.4V667.248C28045.4 635.683 28071 610.094 28102.6 610.094C28134.1 610.094 28159.7 635.683 28159.7 667.248V762.504H28313.8V686.299C28313.8 665.256 28330.8 648.197 28351.9 648.197H28623.8C28644.8 648.197 28661.9 665.256 28661.9 686.299V915.06H28769.6V780.145C28769.6 748.58 28795.2 722.992 28826.7 722.992C28858.3 722.992 28883.9 748.58 28883.9 780.145V1026.4L29463.2 1028.76V1066.87L28883.7 1064.65C28862.7 1064.57 28845.8 1047.53 28845.8 1026.55V780.145C28845.8 769.623 28837.2 761.094 28826.7 761.094C28816.2 761.094 28807.7 769.623 28807.7 780.145V915.06C28807.7 936.103 28790.6 953.162 28769.6 953.162H28661.8C28640.8 953.162 28623.7 936.132 28623.7 915.106L28623.4 686.299H28351.9V763.879C28351.9 784.923 28334.8 801.982 28313.8 801.982H28159.7C28138.7 801.982 28121.6 784.923 28121.6 763.879V667.248C28121.6 656.726 28113.1 648.197 28102.6 648.197C28092.1 648.197 28083.5 656.726 28083.5 667.248V885.834C28083.5 906.877 28066.5 923.937 28045.4 923.937H27929C27908 923.937 27890.9 906.878 27890.9 885.834V532.48C27890.9 511.437 27908 494.378 27929 494.378H28396.1C28406.6 494.378 28415.2 485.825 28415.2 475.304C28415.2 464.8 28406.7 456.255 28396.2 456.23L28167.4 455.683C28146.4 455.632 28129.4 438.588 28129.4 417.58V190.575C28129.4 169.507 28146.5 152.438 28167.5 152.472L28542.4 153.093Z" fill="#F28EC0"/>
<path d="M30180.8 153.093V-0.952558H30218.9V153.028C30218.9 174.097 30201.8 191.166 30180.7 191.131L29815 190.512V417.489L30025.1 418.027C30056.6 418.108 30082.1 443.745 30082.1 475.253C30082.1 506.818 30056.5 532.48 30025 532.48H29567.4V895.462H29683.8V667.248C29683.8 635.683 29709.4 610.094 29741 610.094C29772.5 610.094 29798.1 635.683 29798.1 667.248V762.504H29952.2V686.299C29952.2 665.256 29969.2 648.197 29990.3 648.197H30267.8C30288.9 648.197 30305.9 665.256 30305.9 686.299V915.06H30408V780.145C30408 748.58 30433.6 722.992 30465.1 722.992C30496.7 722.992 30522.3 748.58 30522.3 780.145V1026.4L31101.6 1028.76V1066.87L30522.1 1064.65C30501.1 1064.57 30484.2 1047.53 30484.2 1026.55V780.145C30484.2 769.623 30475.6 761.094 30465.1 761.094C30454.6 761.094 30446.1 769.623 30446.1 780.145V915.06C30446.1 936.103 30429 953.162 30408 953.162H30305.9C30284.8 953.162 30267.8 936.132 30267.8 915.106L30267.5 686.299H29990.3V763.879C29990.3 784.923 29973.2 801.982 29952.2 801.982H29798.1C29777.1 801.982 29760 784.923 29760 763.879V667.248C29760 656.726 29751.5 648.197 29741 648.197C29730.5 648.197 29721.9 656.726 29721.9 667.248V895.462C29721.9 916.505 29704.9 933.564 29683.8 933.564H29567.4C29546.4 933.564 29529.3 916.505 29529.3 895.462V532.48C29529.3 511.437 29546.4 494.378 29567.4 494.378H30025C30035.5 494.378 30044 485.824 30044 475.302C30044 464.8 30035.5 456.254 30025 456.227L29814.9 455.689C29793.9 455.635 29776.9 438.592 29776.9 417.587V190.576C29776.9 169.508 29794 152.438 29815.1 152.474L30180.8 153.093Z" fill="#F28EC0"/>
<path d="M31819.2 153.093V-0.952558H31857.3V153.027C31857.3 174.096 31840.2 191.166 31819.1 191.129L31463 190.512V417.489L31653.8 418.016C31685.3 418.103 31710.8 443.744 31710.8 475.248C31710.8 506.813 31685.2 532.48 31653.7 532.48H31205.8L31205.8 904.626H31322.2L31322.2 667.247C31322.2 635.682 31347.8 610.094 31379.4 610.094C31410.9 610.094 31436.5 635.683 31436.5 667.248V762.504H31590.6V686.299C31590.6 665.256 31607.6 648.197 31628.7 648.197H31910.3C31931.4 648.197 31948.4 665.256 31948.4 686.299V915.06H32046.4V780.145C32046.4 748.58 32072 722.992 32103.5 722.992C32135.1 722.992 32160.7 748.58 32160.7 780.145V1026.4L32740 1028.76V1066.87L32160.5 1064.65C32139.5 1064.57 32122.6 1047.53 32122.6 1026.55V780.145C32122.6 769.623 32114 761.094 32103.5 761.094C32093 761.094 32084.5 769.623 32084.5 780.145V915.06C32084.5 936.103 32067.4 953.162 32046.4 953.162H31948.4C31927.4 953.162 31910.3 936.132 31910.3 915.106L31910 686.299H31628.7V763.879C31628.7 784.923 31611.6 801.982 31590.6 801.982H31436.5C31415.5 801.982 31398.4 784.923 31398.4 763.879V667.248C31398.4 656.726 31389.9 648.197 31379.4 648.197C31368.9 648.197 31360.3 656.726 31360.3 667.248L31360.3 904.627C31360.3 925.67 31343.3 942.729 31322.2 942.729H31205.8C31184.8 942.729 31167.7 925.67 31167.7 904.626L31167.7 532.48C31167.7 511.437 31184.8 494.378 31205.8 494.378H31653.7C31664.2 494.378 31672.7 485.822 31672.7 475.3C31672.7 464.799 31664.2 456.252 31653.7 456.223L31462.9 455.697C31441.9 455.639 31424.9 438.597 31424.9 417.594V190.578C31424.9 169.509 31442 152.439 31463.1 152.475L31819.2 153.093Z" fill="#F28EC0"/>
</g>
<defs>
<clipPath id="clip0">
<rect width="34400" height="1120" fill="white" transform="scale(0.952558)"/>
</clipPath>
</defs>
</svg>
