<svg width="15200" height="761" viewBox="0 0 15200 761" fill="none" xmlns="http://www.w3.org/2000/svg">
<g clip-path="url(#clip0)">
<path d="M540.186 80.9603H720V120.96H540.186C529.14 120.96 520.186 129.915 520.186 140.96C520.186 152.006 529.14 160.96 540.186 160.96H637.683C659.774 160.96 677.683 178.869 677.683 200.96V720.96C677.683 743.052 659.774 760.96 637.683 760.96H557.685C535.594 760.96 517.685 743.052 517.685 720.96V480.96H279.997C257.906 480.96 239.997 463.052 239.997 440.96V300.961C239.997 289.915 231.043 280.96 219.997 280.961C208.951 280.961 199.997 289.915 199.997 300.961L199.997 360.984C199.998 394.121 173.135 420.984 139.998 420.984C106.862 420.984 79.9993 394.121 79.9992 360.985L79.998 0.960938H119.998L119.999 360.984C119.999 372.03 128.953 380.984 139.999 380.984C151.044 380.984 159.998 372.029 159.998 360.984L159.998 295.961C159.997 265.585 184.622 240.961 214.997 240.961L224.996 240.961C255.372 240.96 279.997 265.585 279.997 295.961V440.96H518.099C540.19 440.96 558.099 458.869 558.099 480.96V720.96H637.683V200.96H540.186C507.049 200.96 480.186 174.097 480.186 140.96C480.186 107.823 507.049 80.9603 540.186 80.9603Z" fill="#F28EC0"/>
<path d="M1290.23 80.9609H1480V120.961H1290.23C1279.18 120.961 1270.23 129.915 1270.23 140.961C1270.23 152.007 1279.18 160.961 1290.23 160.961H1397.68C1419.77 160.961 1437.68 178.87 1437.68 200.961V720.961C1437.68 743.052 1419.77 760.961 1397.68 760.961H1317.68C1295.59 760.961 1277.68 743.052 1277.68 720.961V480.961H1040C1017.91 480.961 999.997 463.052 999.997 440.961V300.961C999.997 289.915 991.043 280.961 979.997 280.961C968.951 280.961 959.997 289.915 959.997 300.961L959.997 370.99C959.998 404.127 933.135 430.99 899.998 430.99C866.862 430.99 839.999 404.128 839.999 370.991L839.998 0.960938H879.998L879.999 370.99C879.999 382.036 888.953 390.99 899.999 390.99C911.044 390.99 919.998 382.036 919.998 370.99L919.998 295.961C919.997 265.586 944.622 240.961 974.998 240.961H984.997C1015.37 240.961 1040 265.585 1040 295.961V440.961H1278.1C1300.19 440.961 1318.1 458.87 1318.1 480.961V720.961H1397.68V200.961H1290.23C1257.09 200.961 1230.23 174.098 1230.23 140.961C1230.23 107.824 1257.09 80.9609 1290.23 80.9609Z" fill="#F28EC0"/>
<path d="M2040.15 80.9626H2240V120.963H2040.15C2029.11 120.963 2020.15 129.917 2020.15 140.963C2020.15 152.008 2029.11 160.963 2040.15 160.963H2157.68C2179.77 160.963 2197.68 178.871 2197.68 200.963V720.963C2197.68 743.054 2179.77 760.963 2157.68 760.963H2077.68C2055.59 760.963 2037.68 743.054 2037.68 720.963V480.963H1800C1777.91 480.963 1760 463.054 1760 440.963V300.962C1760 289.916 1751.04 280.962 1740 280.962C1728.95 280.961 1720 289.916 1720 300.962L1720 380.796C1720 413.933 1693.14 440.796 1660 440.796C1626.86 440.796 1600 413.933 1600 380.797L1600 0.960938H1640L1640 380.796C1640 391.842 1648.95 400.796 1660 400.796C1671.04 400.796 1680 391.842 1680 380.796L1680 295.962C1680 265.586 1704.62 240.961 1735 240.962L1745 240.962C1775.37 240.962 1800 265.587 1800 295.962V440.963H2038.1C2060.19 440.963 2078.1 458.871 2078.1 480.963V720.963H2157.68V200.963H2040.15C2007.01 200.963 1980.15 174.1 1980.15 140.963C1980.15 107.826 2007.01 80.9626 2040.15 80.9626Z" fill="#F28EC0"/>
<path d="M2790.01 80.9609H3000V120.961H2790.01C2778.97 120.961 2770.01 129.915 2770.01 140.961C2770.01 152.007 2778.97 160.961 2790.01 160.961H2917.68C2939.77 160.961 2957.68 178.87 2957.68 200.961V720.961C2957.68 743.052 2939.77 760.961 2917.68 760.961H2837.68C2815.59 760.961 2797.68 743.052 2797.68 720.961V480.961H2560C2537.91 480.961 2520 463.052 2520 440.961V300.961C2520 289.915 2511.04 280.961 2500 280.961C2488.95 280.961 2480 289.915 2480 300.961L2480 390.961C2480 424.098 2453.14 450.961 2420 450.961C2386.86 450.961 2360 424.099 2360 390.962L2360 0.960938H2400L2400 390.961C2400 402.007 2408.95 410.961 2420 410.961C2431.04 410.961 2440 402.007 2440 390.961L2440 295.961C2440 265.586 2464.62 240.961 2495 240.961H2505C2535.37 240.961 2560 265.585 2560 295.961V440.961H2798.1C2820.19 440.961 2838.1 458.87 2838.1 480.961V720.961H2917.68V200.961H2790.01C2756.87 200.961 2730.01 174.098 2730.01 140.961C2730.01 107.824 2756.87 80.9609 2790.01 80.9609Z" fill="#F28EC0"/>
<path d="M3540.06 80.9619H3760V120.962H3540.06C3529.01 120.962 3520.06 129.916 3520.06 140.962C3520.06 152.008 3529.01 160.962 3540.06 160.962H3677.68C3699.77 160.962 3717.68 178.87 3717.68 200.962V720.962C3717.68 743.053 3699.77 760.962 3677.68 760.962H3597.68C3575.59 760.962 3557.68 743.053 3557.68 720.962V480.962H3320C3297.9 480.962 3280 463.053 3280 440.962V300.961C3280 289.916 3271.04 280.962 3260 280.961C3248.95 280.961 3240 289.915 3240 300.961L3240 401.147C3240 434.284 3213.14 461.147 3180 461.147C3146.86 461.147 3120 434.284 3120 401.148L3120 0.960938H3160L3160 401.147C3160 412.193 3168.95 421.147 3180 421.147C3191.04 421.147 3200 412.192 3200 401.147L3200 295.962C3200 265.586 3224.62 240.961 3255 240.961L3265 240.961C3295.37 240.962 3320 265.586 3320 295.961V440.962H3558.1C3580.19 440.962 3598.1 458.87 3598.1 480.962V720.962H3677.68V200.962H3540.06C3506.92 200.962 3480.06 174.099 3480.06 140.962C3480.06 107.825 3506.92 80.9619 3540.06 80.9619Z" fill="#F28EC0"/>
<path d="M4290.23 80.9622H4520V120.962H4290.23C4279.18 120.962 4270.23 129.917 4270.23 140.962C4270.23 152.008 4279.18 160.962 4290.23 160.962H4437.68C4459.78 160.962 4477.68 178.871 4477.68 200.962V720.962C4477.68 743.054 4459.78 760.962 4437.68 760.962H4357.69C4335.59 760.962 4317.69 743.054 4317.69 720.962V480.962H4080C4057.91 480.962 4040 463.054 4040 440.962V300.961C4040 289.916 4031.04 280.962 4020 280.962C4008.95 280.961 4000 289.915 4000 300.961L4000 411.188C4000 444.324 3973.14 471.187 3940 471.187C3906.86 471.187 3880 444.325 3880 411.188L3880 0.960938H3920L3920 411.188C3920 422.233 3928.96 431.187 3940 431.187C3951.05 431.187 3960 422.233 3960 411.187L3960 295.962C3960 265.586 3984.62 240.961 4015 240.962L4025 240.962C4055.37 240.962 4080 265.586 4080 295.962V440.962H4318.1C4340.19 440.962 4358.1 458.871 4358.1 480.962V720.962H4437.68V200.962H4290.23C4257.09 200.962 4230.23 174.099 4230.23 140.962C4230.23 107.825 4257.09 80.9622 4290.23 80.9622Z" fill="#F28EC0"/>
<path d="M5039.9 80.9609H5280V120.961H5039.9C5028.85 120.961 5019.9 129.915 5019.9 140.961C5019.9 152.007 5028.85 160.961 5039.9 160.961H5197.68C5219.77 160.961 5237.68 178.87 5237.68 200.961V720.961C5237.68 743.052 5219.77 760.961 5197.68 760.961H5117.68C5095.59 760.961 5077.68 743.052 5077.68 720.961V480.961H4840C4817.91 480.961 4800 463.052 4800 440.961V300.961C4800 289.915 4791.04 280.961 4780 280.961C4768.95 280.961 4760 289.915 4760 300.961L4760 420.961C4760 454.098 4733.14 480.961 4700 480.961C4666.86 480.961 4640 454.099 4640 420.962L4640 0.960938H4680L4680 420.961C4680 432.007 4688.95 440.961 4700 440.961C4711.04 440.961 4720 432.007 4720 420.961L4720 295.961C4720 265.586 4744.62 240.961 4775 240.961H4785C4815.37 240.961 4840 265.585 4840 295.961V440.961H5078.1C5100.19 440.961 5118.1 458.87 5118.1 480.961V720.961H5197.68V200.961H5039.9C5006.76 200.961 4979.9 174.098 4979.9 140.961C4979.9 107.824 5006.76 80.9609 5039.9 80.9609Z" fill="#F28EC0"/>
<path d="M5790.77 80.9605H6040V120.961H5790.77C5779.72 120.961 5770.77 129.915 5770.77 140.961C5770.77 152.006 5779.72 160.961 5790.77 160.961H5957.68C5979.77 160.961 5997.68 178.869 5997.68 200.961V720.961C5997.68 743.052 5979.77 760.961 5957.68 760.961H5877.68C5855.59 760.961 5837.68 743.052 5837.68 720.961V480.961H5600C5577.91 480.961 5560 463.052 5560 440.961V300.961C5560 289.915 5551.04 280.961 5540 280.961C5528.95 280.961 5520 289.915 5520 300.961L5520 431.522C5520 464.659 5493.14 491.522 5460 491.522C5426.86 491.522 5400 464.659 5400 431.523L5400 0.960938H5440L5440 431.522C5440 442.568 5448.95 451.522 5460 451.522C5471.04 451.522 5480 442.568 5480 431.522L5480 295.961C5480 265.585 5504.62 240.961 5535 240.961L5545 240.961C5575.37 240.961 5600 265.585 5600 295.961V440.961H5838.1C5860.19 440.961 5878.1 458.869 5878.1 480.961V720.961H5957.68V200.961H5790.77C5757.63 200.961 5730.77 174.098 5730.77 140.961C5730.77 107.823 5757.63 80.9605 5790.77 80.9605Z" fill="#F28EC0"/>
<path d="M6540.24 80.9597H6800V120.96H6540.24C6529.2 120.96 6520.24 129.914 6520.24 140.96C6520.24 152.005 6529.2 160.96 6540.24 160.96H6717.68C6739.77 160.96 6757.68 178.868 6757.68 200.96V720.96C6757.68 743.051 6739.77 760.96 6717.68 760.96H6637.68C6615.59 760.96 6597.68 743.051 6597.68 720.96V480.96H6360C6337.9 480.96 6320 463.051 6320 440.96V300.96C6320 289.914 6311.04 280.96 6300 280.96C6288.95 280.961 6280 289.915 6280 300.96L6280 441.042C6280 474.178 6253.14 501.041 6220 501.041C6186.86 501.041 6160 474.179 6160 441.042L6160 0.960938H6200L6200 441.041C6200 452.087 6208.95 461.041 6220 461.041C6231.04 461.041 6240 452.087 6240 441.041L6240 295.961C6240 265.585 6264.62 240.961 6295 240.96L6304.99 240.96C6335.37 240.96 6360 265.584 6360 295.96V440.96H6598.1C6620.19 440.96 6638.1 458.868 6638.1 480.96V720.96H6717.68V200.96H6540.24C6507.1 200.96 6480.24 174.097 6480.24 140.96C6480.24 107.823 6507.1 80.9597 6540.24 80.9597Z" fill="#F28EC0"/>
<path d="M7290.53 80.9623H7560V120.962H7290.53C7279.49 120.962 7270.53 129.917 7270.53 140.962C7270.53 152.008 7279.49 160.962 7290.53 160.962H7477.68C7499.77 160.962 7517.68 178.871 7517.68 200.962V720.962C7517.68 743.054 7499.77 760.962 7477.68 760.962H7397.68C7375.59 760.962 7357.68 743.054 7357.68 720.962V480.962H7120C7097.9 480.962 7080 463.054 7080 440.962V300.961C7080 289.916 7071.04 280.962 7060 280.962C7048.95 280.961 7040 289.915 7040 300.961L7040 451.319C7040 484.456 7013.14 511.319 6980 511.319C6946.86 511.319 6920 484.456 6920 451.32L6920 0.960938H6960L6960 451.319C6960 462.365 6968.95 471.319 6980 471.319C6991.04 471.319 7000 462.365 7000 451.319L7000 295.962C7000 265.586 7024.62 240.961 7055 240.962L7065 240.962C7095.37 240.962 7119.99 265.586 7119.99 295.962V440.962H7358.1C7380.19 440.962 7398.1 458.871 7398.1 480.962V720.962H7477.68V200.962H7290.53C7257.4 200.962 7230.53 174.099 7230.53 140.962C7230.53 107.825 7257.4 80.9623 7290.53 80.9623Z" fill="#F28EC0"/>
<path d="M8040.07 80.9609H8320V120.961H8040.07C8029.02 120.961 8020.07 129.915 8020.07 140.961C8020.07 152.007 8029.02 160.961 8040.07 160.961H8237.68C8259.77 160.961 8277.68 178.87 8277.68 200.961V720.961C8277.68 743.052 8259.77 760.961 8237.68 760.961H8157.68C8135.59 760.961 8117.68 743.052 8117.68 720.961V480.961H7880C7857.9 480.961 7840 463.052 7840 440.961V300.961C7840 289.915 7831.04 280.961 7820 280.961C7808.95 280.961 7800 289.915 7800 300.961L7800 460.961C7800 494.098 7773.14 520.961 7740 520.961C7706.86 520.961 7680 494.099 7680 460.962L7680 0.960938H7720L7720 460.961C7720 472.007 7728.95 480.961 7740 480.961C7751.04 480.961 7760 472.007 7760 460.961L7760 295.961C7760 265.585 7784.62 240.961 7815 240.961H7825C7855.37 240.961 7880 265.585 7880 295.961V440.961H8118.1C8140.19 440.961 8158.1 458.87 8158.1 480.961V720.961H8237.68V200.961H8040.07C8006.93 200.961 7980.07 174.098 7980.07 140.961C7980.07 107.824 8006.93 80.9609 8040.07 80.9609Z" fill="#F28EC0"/>
<path d="M8789.81 80.9609H9080.01V120.961H8789.81C8778.77 120.961 8769.81 129.915 8769.81 140.961C8769.81 152.007 8778.77 160.961 8789.81 160.961H8997.69C9019.78 160.961 9037.69 178.87 9037.69 200.961V720.961C9037.69 743.052 9019.78 760.961 8997.69 760.961H8917.69C8895.6 760.961 8877.69 743.052 8877.69 720.961V480.961H8640C8617.91 480.961 8600 463.052 8600 440.961V300.961C8600 289.915 8591.05 280.961 8580 280.961C8568.95 280.961 8560 289.915 8560 300.961L8560 470.961C8560 504.098 8533.14 530.961 8500 530.961C8466.86 530.961 8440 504.098 8440 470.962L8440 0.960938H8480L8480 470.961C8480 482.007 8488.95 490.961 8500 490.961C8511.04 490.961 8520 482.007 8520 470.961L8520 295.961C8520 265.585 8544.62 240.961 8575 240.961H8585C8615.38 240.961 8640 265.585 8640 295.961V440.961H8878.11C8900.2 440.961 8918.11 458.87 8918.11 480.961V720.961H8997.69V200.961H8789.81C8756.68 200.961 8729.81 174.098 8729.81 140.961C8729.81 107.824 8756.68 80.9609 8789.81 80.9609Z" fill="#F28EC0"/>
<path d="M9540.01 80.9604H9840.01V120.96H9540.01C9528.96 120.96 9520.01 129.915 9520.01 140.96C9520.01 152.006 9528.96 160.96 9540.01 160.96H9757.69C9779.78 160.96 9797.69 178.869 9797.69 200.96V720.96C9797.69 743.052 9779.78 760.96 9757.69 760.96H9677.69C9655.6 760.96 9637.69 743.052 9637.69 720.96V480.96H9400C9377.91 480.96 9360 463.052 9360 440.96V300.961C9360 289.915 9351.05 280.961 9340 280.961C9328.95 280.961 9320 289.915 9320 300.961L9320 481.276C9320 514.413 9293.14 541.275 9260 541.275C9226.86 541.275 9200 514.413 9200 481.276L9200 0.960938H9240L9240 481.276C9240 492.321 9248.95 501.275 9260 501.275C9271.04 501.275 9280 492.321 9280 481.275L9280 295.961C9280 265.585 9304.62 240.961 9335 240.961L9345 240.961C9375.38 240.96 9400 265.585 9400 295.961V440.96H9638.11C9660.2 440.96 9678.11 458.869 9678.11 480.96V720.96H9757.69V200.96H9540.01C9506.87 200.96 9480.01 174.097 9480.01 140.96C9480.01 107.823 9506.87 80.9604 9540.01 80.9604Z" fill="#F28EC0"/>
<path d="M10290.5 80.9609H10600V120.961H10290.5C10279.5 120.961 10270.5 129.915 10270.5 140.961C10270.5 152.007 10279.5 160.961 10290.5 160.961H10517.7C10539.8 160.961 10557.7 178.87 10557.7 200.961V720.961C10557.7 743.052 10539.8 760.961 10517.7 760.961H10437.7C10415.6 760.961 10397.7 743.052 10397.7 720.961V480.961H10160C10137.9 480.961 10120 463.052 10120 440.961V300.961C10120 289.915 10111 280.961 10100 280.961C10089 280.961 10080 289.915 10080 300.961L10080 490.787C10080 523.924 10053.1 550.787 10020 550.787C9986.86 550.787 9960 523.924 9960 490.788L9960 0.960938H10000L10000 490.787C10000 501.833 10009 510.787 10020 510.787C10031 510.787 10040 501.833 10040 490.787L10040 295.961C10040 265.585 10064.6 240.961 10095 240.961H10105C10135.4 240.961 10160 265.585 10160 295.961V440.961H10398.1C10420.2 440.961 10438.1 458.87 10438.1 480.961V720.961H10517.7V200.961H10290.5C10257.4 200.961 10230.5 174.098 10230.5 140.961C10230.5 107.824 10257.4 80.9609 10290.5 80.9609Z" fill="#F28EC0"/>
<path d="M11040.5 80.9628H11360V120.963H11040.5C11029.5 120.963 11020.5 129.917 11020.5 140.963C11020.5 152.008 11029.5 160.963 11040.5 160.963H11277.7C11299.8 160.963 11317.7 178.871 11317.7 200.963V720.963C11317.7 743.054 11299.8 760.963 11277.7 760.963H11197.7C11175.6 760.963 11157.7 743.054 11157.7 720.963V480.963H10920C10897.9 480.963 10880 463.054 10880 440.963V300.962C10880 289.917 10871 280.962 10860 280.962C10849 280.961 10840 289.916 10840 300.962L10840 501.201C10840 534.337 10813.1 561.2 10780 561.2C10746.9 561.2 10720 534.338 10720 501.201L10720 0.960938H10760L10760 501.2C10760 512.246 10769 521.2 10780 521.2C10791 521.2 10800 512.246 10800 501.2L10800 295.962C10800 265.586 10824.6 240.961 10855 240.962L10865 240.962C10895.4 240.962 10920 265.587 10920 295.962V440.963H11158.1C11180.2 440.963 11198.1 458.871 11198.1 480.963V720.963H11277.7V200.963H11040.5C11007.4 200.963 10980.5 174.1 10980.5 140.963C10980.5 107.826 11007.4 80.9628 11040.5 80.9628Z" fill="#F28EC0"/>
<path d="M11790.3 80.9607H12120V120.961H11790.3C11779.3 120.961 11770.3 129.915 11770.3 140.961C11770.3 152.006 11779.3 160.961 11790.3 160.961H12037.7C12059.8 160.961 12077.7 178.869 12077.7 200.961V720.961C12077.7 743.052 12059.8 760.961 12037.7 760.961H11957.7C11935.6 760.961 11917.7 743.052 11917.7 720.961V480.961H11680C11657.9 480.961 11640 463.052 11640 440.961V300.961C11640 289.915 11631 280.961 11620 280.961C11609 280.961 11600 289.915 11600 300.961L11600 511.026C11600 544.163 11573.1 571.025 11540 571.025C11506.9 571.025 11480 544.163 11480 511.026L11480 0.960938H11520L11520 511.026C11520 522.071 11529 531.025 11540 531.025C11551 531.025 11560 522.071 11560 511.025L11560 295.961C11560 265.585 11584.6 240.961 11615 240.961L11625 240.961C11655.4 240.961 11680 265.585 11680 295.961V440.961H11918.1C11940.2 440.961 11958.1 458.869 11958.1 480.961V720.961H12037.7V200.961H11790.3C11757.2 200.961 11730.3 174.098 11730.3 140.961C11730.3 107.824 11757.2 80.9607 11790.3 80.9607Z" fill="#F28EC0"/>
<path d="M12540.7 80.9595H12880V120.96H12540.7C12529.6 120.96 12520.7 129.914 12520.7 140.96C12520.7 152.005 12529.6 160.96 12540.7 160.96H12797.7C12819.8 160.96 12837.7 178.868 12837.7 200.96V720.96C12837.7 743.051 12819.8 760.96 12797.7 760.96H12717.7C12695.6 760.96 12677.7 743.051 12677.7 720.96V480.96H12440C12417.9 480.96 12400 463.051 12400 440.96V300.96C12400 289.914 12391 280.96 12380 280.96C12369 280.961 12360 289.915 12360 300.96L12360 520.895C12360 554.032 12333.1 580.894 12300 580.894C12266.9 580.894 12240 554.032 12240 520.895L12240 0.960938H12280L12280 520.895C12280 531.94 12289 540.894 12300 540.894C12311 540.894 12320 531.94 12320 520.894L12320 295.961C12320 265.585 12344.6 240.961 12375 240.96L12385 240.96C12415.4 240.96 12440 265.584 12440 295.96V440.96H12678.1C12700.2 440.96 12718.1 458.868 12718.1 480.96V720.96H12797.7V200.96H12540.7C12507.5 200.96 12480.7 174.097 12480.7 140.96C12480.7 107.822 12507.5 80.9595 12540.7 80.9595Z" fill="#F28EC0"/>
<path d="M13290.5 80.9609H13640V120.961H13290.5C13279.4 120.961 13270.5 129.915 13270.5 140.961C13270.5 152.007 13279.4 160.961 13290.5 160.961H13557.7C13579.8 160.961 13597.7 178.87 13597.7 200.961V720.961C13597.7 743.052 13579.8 760.961 13557.7 760.961H13477.7C13455.6 760.961 13437.7 743.052 13437.7 720.961V480.961H13200C13177.9 480.961 13160 463.052 13160 440.961V300.961C13160 289.915 13151 280.961 13140 280.961C13129 280.961 13120 289.915 13120 300.961L13120 530.908C13120 564.044 13093.1 590.907 13060 590.907C13026.9 590.907 13000 564.044 13000 530.908L13000 0.960938H13040L13040 530.907C13040 541.953 13049 550.907 13060 550.907C13071 550.907 13080 541.953 13080 530.907L13080 295.961C13080 265.585 13104.6 240.961 13135 240.961H13145C13175.4 240.961 13200 265.585 13200 295.961V440.961H13438.1C13460.2 440.961 13478.1 458.87 13478.1 480.961V720.961H13557.7V200.961H13290.5C13257.3 200.961 13230.5 174.098 13230.5 140.961C13230.5 107.824 13257.3 80.9609 13290.5 80.9609Z" fill="#F28EC0"/>
<path d="M14040.1 80.9609H14400V120.961H14040.1C14029 120.961 14020.1 129.915 14020.1 140.961C14020.1 152.007 14029 160.961 14040.1 160.961H14317.7C14339.8 160.961 14357.7 178.87 14357.7 200.961V720.961C14357.7 743.052 14339.8 760.961 14317.7 760.961H14237.7C14215.6 760.961 14197.7 743.052 14197.7 720.961V480.961H13960C13937.9 480.961 13920 463.052 13920 440.961V300.961C13920 289.915 13911 280.961 13900 280.961C13889 280.961 13880 289.915 13880 300.961L13880 541.115C13880 574.252 13853.1 601.114 13820 601.114C13786.9 601.114 13760 574.252 13760 541.115L13760 0.960938H13800L13800 541.115C13800 552.16 13809 561.114 13820 561.114C13831 561.114 13840 552.16 13840 541.115L13840 295.961C13840 265.585 13864.6 240.961 13895 240.961H13905C13935.4 240.961 13960 265.585 13960 295.961V440.961H14198.1C14220.2 440.961 14238.1 458.87 14238.1 480.961V720.961H14317.7V200.961H14040.1C14006.9 200.961 13980.1 174.098 13980.1 140.961C13980.1 107.824 14006.9 80.9609 14040.1 80.9609Z" fill="#F28EC0"/>
<path d="M14790.7 80.9623H15160V120.962H14790.7C14779.7 120.962 14770.7 129.917 14770.7 140.962C14770.7 152.008 14779.7 160.962 14790.7 160.962H15077.7C15099.8 160.962 15117.7 178.871 15117.7 200.962V720.962C15117.7 743.054 15099.8 760.962 15077.7 760.962H14997.7C14975.6 760.962 14957.7 743.054 14957.7 720.962V480.962H14720C14697.9 480.962 14680 463.054 14680 440.962V300.962C14680 289.916 14671 280.962 14660 280.962C14649 280.961 14640 289.916 14640 300.962L14640 551.204C14640 584.341 14613.1 611.204 14580 611.204C14546.9 611.204 14520 584.341 14520 551.204L14520 0.960938H14560L14560 551.204C14560 562.249 14569 571.204 14580 571.204C14591 571.204 14600 562.249 14600 551.204L14600 295.962C14600 265.586 14624.6 240.961 14655 240.962L14665 240.962C14695.4 240.962 14720 265.586 14720 295.962V440.962H14958.1C14980.2 440.962 14998.1 458.871 14998.1 480.962V720.962H15077.7V200.962H14790.7C14757.6 200.962 14730.7 174.099 14730.7 140.962C14730.7 107.825 14757.6 80.9623 14790.7 80.9623Z" fill="#F28EC0"/>
</g>
<defs>
<clipPath id="clip0">
<rect width="15200" height="760" fill="white" transform="translate(0 0.960938)"/>
</clipPath>
</defs>
</svg>
