<svg width="17600" height="760" viewBox="0 0 17600 760" fill="none" xmlns="http://www.w3.org/2000/svg">
<path d="M657.404 80H840V120H657.408C646.362 120 637.408 128.954 637.408 140C637.408 151.046 646.362 160 657.408 160H761.494C783.586 160 801.494 177.909 801.494 200V720C801.494 742.091 783.586 760 761.494 760H558.138C536.047 760 518.138 742.091 518.138 720V480H280.423C258.331 480 240.423 462.091 240.423 440V280H160.415V340.702C160.415 373.839 133.345 400.702 100.208 400.702C67.0707 400.702 40 373.839 40 340.702V0H80.4084V340.702C80.4084 351.747 89.3645 360.702 100.41 360.702C111.456 360.702 120.412 351.747 120.412 340.702V280C120.412 257.909 138.321 240 160.412 240H240.426C262.517 240 280.426 257.909 280.426 280V440H518.556C540.647 440 558.556 457.909 558.556 480V720H761.491V200H657.404C624.267 200 597.404 173.137 597.404 140C597.404 106.863 624.267 80 657.404 80Z" fill="#F28EC0"/>
<path d="M1530.15 80H1720V120H1530.15C1519.11 120 1510.15 128.954 1510.15 140C1510.15 151.046 1519.11 160 1530.15 160H1641.49C1663.59 160 1681.49 177.909 1681.49 200V720C1681.49 742.091 1663.59 760 1641.49 760H1438.14C1416.05 760 1398.14 742.091 1398.14 720V480H1160.42C1138.33 480 1120.42 462.091 1120.42 440V280H1040.42L1040.42 350.284C1040.42 383.422 1013.34 410.284 980.208 410.284C947.071 410.284 920 383.421 920 350.284V0H960.408V350.284C960.408 361.33 969.365 370.284 980.41 370.284C991.456 370.284 1000.41 361.33 1000.41 350.284V280C1000.41 257.909 1018.32 240 1040.41 240H1120.43C1142.52 240 1160.43 257.909 1160.43 280V440H1398.56C1420.65 440 1438.56 457.909 1438.56 480V720H1641.49V200H1530.15C1497.01 200 1470.15 173.137 1470.15 140C1470.15 106.863 1497.01 80 1530.15 80Z" fill="#F28EC0"/>
<path d="M2400.17 80H2600V120H2400.17C2389.13 120 2380.17 128.954 2380.17 140C2380.17 151.046 2389.13 160 2400.17 160H2521.49C2543.59 160 2561.49 177.909 2561.49 200V720C2561.49 742.091 2543.59 760 2521.49 760H2318.14C2296.05 760 2278.14 742.091 2278.14 720V480H2040.42C2018.33 480 2000.42 462.091 2000.42 440V280H1920.42L1920.42 360.033C1920.42 393.17 1893.34 420.033 1860.21 420.033C1827.07 420.033 1800 393.17 1800 360.033V0H1840.41V360.033C1840.41 371.079 1849.36 380.033 1860.41 380.033C1871.46 380.033 1880.41 371.079 1880.41 360.033V280C1880.41 257.909 1898.32 240 1920.41 240H2000.43C2022.52 240 2040.43 257.909 2040.43 280V440H2278.56C2300.65 440 2318.56 457.909 2318.56 480V720H2521.49V200H2400.17C2367.03 200 2340.17 173.137 2340.17 140C2340.17 106.863 2367.03 80 2400.17 80Z" fill="#F28EC0"/>
<path d="M3270.34 80H3480V120H3270.34C3259.3 120 3250.34 128.954 3250.34 140C3250.34 151.046 3259.3 160 3270.34 160H3401.49C3423.59 160 3441.49 177.909 3441.49 200V720C3441.49 742.091 3423.59 760 3401.49 760H3198.14C3176.05 760 3158.14 742.091 3158.14 720V480H2920.42C2898.33 480 2880.42 462.091 2880.42 440V280H2800.42L2800.42 369.864C2800.42 403.001 2773.34 429.864 2740.21 429.864C2707.07 429.864 2680 403.001 2680 369.864V0H2720.41V369.864C2720.41 380.909 2729.36 389.864 2740.41 389.864C2751.46 389.864 2760.41 380.909 2760.41 369.864V280C2760.41 257.909 2778.32 240 2800.41 240H2880.43C2902.52 240 2920.43 257.909 2920.43 280V440H3158.56C3180.65 440 3198.56 457.909 3198.56 480V720H3401.49V200H3270.34C3237.2 200 3210.34 173.137 3210.34 140C3210.34 106.863 3237.2 80 3270.34 80Z" fill="#F28EC0"/>
<path d="M4140.3 80H4360V120H4140.3C4129.26 120 4120.3 128.954 4120.3 140C4120.3 151.046 4129.26 160 4140.3 160H4281.49C4303.59 160 4321.49 177.909 4321.49 200V720C4321.49 742.091 4303.59 760 4281.49 760H4078.14C4056.05 760 4038.14 742.091 4038.14 720V480H3800.42C3778.33 480 3760.42 462.091 3760.42 440V280H3680.42L3680.42 379.878C3680.42 413.015 3653.34 439.878 3620.21 439.878C3587.07 439.878 3560 413.015 3560 379.878V0H3600.41V379.878C3600.41 390.923 3609.36 399.878 3620.41 399.878C3631.46 399.878 3640.41 390.923 3640.41 379.878V280C3640.41 257.909 3658.32 240 3680.41 240H3760.43C3782.52 240 3800.43 257.909 3800.43 280V440H4038.56C4060.65 440 4078.56 457.909 4078.56 480V720H4281.49V200H4140.3C4107.16 200 4080.3 173.137 4080.3 140C4080.3 106.863 4107.16 80 4140.3 80Z" fill="#F28EC0"/>
<path d="M5010.15 80H5240V120H5010.16C4999.11 120 4990.16 128.954 4990.16 140C4990.16 151.046 4999.11 160 5010.16 160H5161.49C5183.59 160 5201.49 177.909 5201.49 200V720C5201.49 742.091 5183.59 760 5161.49 760H4958.14C4936.05 760 4918.14 742.091 4918.14 720V480H4680.42C4658.33 480 4640.42 462.091 4640.42 440V280H4560.42L4560.42 389.982C4560.42 423.119 4533.34 449.982 4500.21 449.982C4467.07 449.982 4440 423.119 4440 389.982V0H4480.41V389.982C4480.41 401.028 4489.36 409.982 4500.41 409.982C4511.46 409.982 4520.41 401.028 4520.41 389.982V280C4520.41 257.909 4538.32 240 4560.41 240H4640.43C4662.52 240 4680.43 257.909 4680.43 280V440H4918.56C4940.65 440 4958.56 457.909 4958.56 480V720H5161.49V200H5010.15C4977.02 200 4950.15 173.137 4950.15 140C4950.15 106.863 4977.02 80 5010.15 80Z" fill="#F28EC0"/>
<path d="M5880.32 80H6120V120H5880.32C5869.27 120 5860.32 128.954 5860.32 140C5860.32 151.046 5869.27 160 5880.32 160H6041.49C6063.59 160 6081.49 177.909 6081.49 200V720C6081.49 742.091 6063.59 760 6041.49 760H5838.14C5816.05 760 5798.14 742.091 5798.14 720V480H5560.42C5538.33 480 5520.42 462.091 5520.42 440V280H5440.42L5440.42 399.937C5440.42 433.074 5413.34 459.937 5380.21 459.937C5347.07 459.937 5320 433.074 5320 399.937V0H5360.41V399.937C5360.41 410.983 5369.36 419.937 5380.41 419.937C5391.46 419.937 5400.41 410.983 5400.41 399.937V280C5400.41 257.909 5418.32 240 5440.41 240H5520.43C5542.52 240 5560.43 257.909 5560.43 280V440H5798.56C5820.65 440 5838.56 457.909 5838.56 480V720H6041.49V200H5880.32C5847.18 200 5820.32 173.137 5820.32 140C5820.32 106.863 5847.18 80 5880.32 80Z" fill="#F28EC0"/>
<path d="M6750.96 80H7000V120H6750.96C6739.92 120 6730.96 128.954 6730.96 140C6730.96 151.046 6739.92 160 6750.96 160H6921.49C6943.59 160 6961.49 177.909 6961.49 200V720C6961.49 742.091 6943.59 760 6921.49 760H6718.14C6696.05 760 6678.14 742.091 6678.14 720V480H6440.42C6418.33 480 6400.42 462.091 6400.42 440V280H6320.42L6320.42 409.38C6320.42 442.517 6293.34 469.38 6260.21 469.38C6227.07 469.38 6200 442.517 6200 409.38V0H6240.41V409.38C6240.41 420.426 6249.36 429.38 6260.41 429.38C6271.46 429.38 6280.41 420.426 6280.41 409.38V280C6280.41 257.909 6298.32 240 6320.41 240H6400.43C6422.52 240 6440.43 257.909 6440.43 280V440H6678.56C6700.65 440 6718.56 457.909 6718.56 480V720H6921.49V200H6750.96C6717.82 200 6690.96 173.137 6690.96 140C6690.96 106.863 6717.82 80 6750.96 80Z" fill="#F28EC0"/>
<path d="M7620.12 80H7880V120H7620.12C7609.08 120 7600.12 128.954 7600.12 140C7600.12 151.046 7609.08 160 7620.12 160H7801.5C7823.59 160 7841.5 177.909 7841.5 200V720C7841.5 742.091 7823.59 760 7801.5 760H7598.14C7576.05 760 7558.14 742.091 7558.14 720V480H7320.42C7298.33 480 7280.42 462.091 7280.42 440V280H7200.42L7200.42 419.96C7200.42 453.097 7173.35 479.959 7140.21 479.959C7107.07 479.959 7080 453.096 7080 419.959L7080 0H7120.41L7120.41 419.959C7120.41 431.005 7129.36 439.959 7140.41 439.959C7151.46 439.959 7160.41 431.005 7160.41 419.96L7160.41 280C7160.41 257.908 7178.32 240 7200.41 240H7280.43C7302.52 240 7320.43 257.909 7320.43 280V440H7558.56C7580.65 440 7598.56 457.909 7598.56 480V720H7801.49V200H7620.12C7586.98 200 7560.12 173.137 7560.12 140C7560.12 106.863 7586.98 80 7620.12 80Z" fill="#F28EC0"/>
<path d="M8490.07 80H8760V120H8490.07C8479.03 120 8470.07 128.954 8470.07 140C8470.07 151.046 8479.03 160 8490.07 160H8681.5C8703.59 160 8721.5 177.909 8721.5 200V720C8721.5 742.091 8703.59 760 8681.5 760H8478.14C8456.05 760 8438.14 742.091 8438.14 720V480H8200.42C8178.33 480 8160.42 462.091 8160.42 440V280H8080.42L8080.42 430.243C8080.42 463.38 8053.34 490.242 8020.21 490.242C7987.07 490.242 7960 463.379 7960 430.242L7960 0H8000.41L8000.41 430.242C8000.41 441.288 8009.36 450.242 8020.41 450.242C8031.46 450.242 8040.41 441.288 8040.41 430.243L8040.41 280C8040.41 257.908 8058.32 240 8080.41 240H8160.43C8182.52 240 8200.43 257.909 8200.43 280V440H8438.56C8460.65 440 8478.56 457.909 8478.56 480V720H8681.49V200H8490.07C8456.93 200 8430.07 173.137 8430.07 140C8430.07 106.863 8456.93 80 8490.07 80Z" fill="#F28EC0"/>
<path d="M9360.25 80H9640.01V120H9360.26C9349.21 120 9340.26 128.954 9340.26 140C9340.26 151.046 9349.21 160 9360.26 160H9561.5C9583.59 160 9601.5 177.909 9601.5 200V720C9601.5 742.091 9583.59 760 9561.5 760H9358.15C9336.06 760 9318.15 742.091 9318.15 720V480H9080.43C9058.34 480 9040.43 462.091 9040.43 440V280H8960.42L8960.42 439.991C8960.42 473.127 8933.35 499.988 8900.21 499.988C8867.07 499.988 8840 473.125 8840 439.987L8840.01 0H8880.42L8880.41 439.988C8880.41 451.034 8889.36 459.988 8900.41 459.988C8911.46 459.988 8920.41 451.035 8920.41 439.989L8920.42 279.998C8920.42 257.908 8938.33 240 8960.42 240H9040.44C9062.53 240 9080.44 257.909 9080.44 280V440H9318.56C9340.66 440 9358.56 457.909 9358.56 480V720H9561.5V200H9360.25C9327.12 200 9300.25 173.137 9300.25 140C9300.25 106.863 9327.12 80 9360.25 80Z" fill="#F28EC0"/>
<path d="M10229.9 80H10520V120H10229.9C10218.9 120 10209.9 128.954 10209.9 140C10209.9 151.046 10218.9 160 10229.9 160H10441.5C10463.6 160 10481.5 177.909 10481.5 200V720C10481.5 742.091 10463.6 760 10441.5 760H10238.2C10216.1 760 10198.2 742.091 10198.2 720V480H9960.44C9938.35 480 9920.44 462.091 9920.44 440V280H9840.43L9840.43 450.368C9840.42 483.504 9813.35 510.365 9780.22 510.365C9747.08 510.365 9720.01 483.501 9720.01 450.364L9720.02 0H9760.43L9760.42 450.365C9760.42 461.41 9769.37 470.365 9780.42 470.365C9791.46 470.365 9800.42 461.411 9800.42 450.366L9800.43 279.998C9800.43 257.907 9818.34 240 9840.43 240H9920.44C9942.54 240 9960.44 257.909 9960.44 280V440H10198.6C10220.7 440 10238.6 457.909 10238.6 480V720H10441.5V200H10229.9C10196.8 200 10169.9 173.137 10169.9 140C10169.9 106.863 10196.8 80 10229.9 80Z" fill="#F28EC0"/>
<path d="M11100 80H11400V120H11100C11089 120 11080 128.954 11080 140C11080 151.046 11089 160 11100 160H11321.5C11343.6 160 11361.5 177.909 11361.5 200V720C11361.5 742.091 11343.6 760 11321.5 760H11118.1C11096.1 760 11078.1 742.091 11078.1 720V480H10840.4C10818.3 480 10800.4 462.091 10800.4 440V280H10720.4L10720.4 460.144C10720.4 493.281 10693.3 520.143 10660.2 520.143C10627.1 520.143 10600 493.28 10600 460.143L10600 0H10640.4L10640.4 460.143C10640.4 471.189 10649.4 480.143 10660.4 480.143C10671.5 480.143 10680.4 471.189 10680.4 460.144L10680.4 279.999C10680.4 257.908 10698.3 240 10720.4 240H10800.4C10822.5 240 10840.4 257.909 10840.4 280V440H11078.6C11100.7 440 11118.6 457.909 11118.6 480V720H11321.5V200H11100C11066.9 200 11040 173.137 11040 140C11040 106.863 11066.9 80 11100 80Z" fill="#F28EC0"/>
<path d="M11970 80H12280V120H11970C11959 120 11950 128.954 11950 140C11950 151.046 11959 160 11970 160H12201.5C12223.6 160 12241.5 177.909 12241.5 200V720C12241.5 742.091 12223.6 760 12201.5 760H11998.1C11976.1 760 11958.1 742.091 11958.1 720V480H11720.4C11698.3 480 11680.4 462.091 11680.4 440V280H11600.4L11600.4 470.283C11600.4 503.419 11573.3 530.282 11540.2 530.282C11507.1 530.282 11480 503.418 11480 470.281L11480 0H11520.4L11520.4 470.281C11520.4 481.327 11529.4 490.282 11540.4 490.282C11551.5 490.282 11560.4 481.327 11560.4 470.282L11560.4 279.999C11560.4 257.908 11578.3 240 11600.4 240H11680.4C11702.5 240 11720.4 257.909 11720.4 280V440H11958.6C11980.7 440 11998.6 457.909 11998.6 480V720H12201.5V200H11970C11936.9 200 11910 173.137 11910 140C11910 106.863 11936.9 80 11970 80Z" fill="#F28EC0"/>
<path d="M12839.9 80H13160V120H12839.9C12828.8 120 12819.9 128.954 12819.9 140C12819.9 151.046 12828.8 160 12839.9 160H13081.5C13103.6 160 13121.5 177.909 13121.5 200V720C13121.5 742.091 13103.6 760 13081.5 760H12878.1C12856.1 760 12838.1 742.091 12838.1 720V480H12600.4C12578.3 480 12560.4 462.091 12560.4 440V280H12480.4L12480.4 480.4C12480.4 513.536 12453.3 540.399 12420.2 540.399C12387.1 540.399 12360 513.535 12360 480.398L12360 0H12400.4L12400.4 480.398C12400.4 491.444 12409.4 500.399 12420.4 500.399C12431.5 500.399 12440.4 491.444 12440.4 480.399L12440.4 279.999C12440.4 257.908 12458.3 240 12480.4 240H12560.4C12582.5 240 12600.4 257.909 12600.4 280V440H12838.6C12860.7 440 12878.6 457.909 12878.6 480V720H13081.5V200H12839.9C12806.7 200 12779.9 173.137 12779.9 140C12779.9 106.863 12806.7 80 12839.9 80Z" fill="#F28EC0"/>
<path d="M13710.4 80H14040V120H13710.4C13699.3 120 13690.4 128.954 13690.4 140C13690.4 151.046 13699.3 160 13710.4 160H13961.5C13983.6 160 14001.5 177.909 14001.5 200V720C14001.5 742.091 13983.6 760 13961.5 760H13758.1C13736.1 760 13718.1 742.091 13718.1 720V480H13480.4C13458.3 480 13440.4 462.091 13440.4 440V280H13360.4L13360.4 489.918C13360.4 523.054 13333.3 549.916 13300.2 549.916C13267.1 549.916 13240 523.052 13240 489.915L13240 0H13280.4L13280.4 489.915C13280.4 500.961 13289.4 509.916 13300.4 509.916C13311.5 509.916 13320.4 500.962 13320.4 489.917L13320.4 279.999C13320.4 257.908 13338.3 240 13360.4 240H13440.4C13462.5 240 13480.4 257.909 13480.4 280V440H13718.6C13740.7 440 13758.6 457.909 13758.6 480V720H13961.5V200H13710.4C13677.2 200 13650.4 173.137 13650.4 140C13650.4 106.863 13677.2 80 13710.4 80Z" fill="#F28EC0"/>
<path d="M14580.5 80H14920V120H14580.5C14569.5 120 14560.5 128.954 14560.5 140C14560.5 151.046 14569.5 160 14580.5 160H14841.5C14863.6 160 14881.5 177.909 14881.5 200V720C14881.5 742.091 14863.6 760 14841.5 760H14638.2C14616.1 760 14598.2 742.091 14598.2 720V480H14360.4C14338.3 480 14320.4 462.091 14320.4 440V280H14240.4L14240.4 500.204C14240.4 533.34 14213.3 560.201 14180.2 560.201C14147.1 560.201 14120 533.337 14120 500.199L14120 0H14160.4L14160.4 500.2C14160.4 511.246 14169.4 520.201 14180.4 520.201C14191.5 520.201 14200.4 511.247 14200.4 500.202L14200.4 279.998C14200.4 257.907 14218.3 240 14240.4 240H14320.4C14342.5 240 14360.4 257.909 14360.4 280V440H14598.6C14620.7 440 14638.6 457.909 14638.6 480V720H14841.5V200H14580.5C14547.4 200 14520.5 173.137 14520.5 140C14520.5 106.863 14547.4 80 14580.5 80Z" fill="#F28EC0"/>
<path d="M15450.1 80H15800V120H15450.2C15439.1 120 15430.2 128.954 15430.2 140C15430.2 151.046 15439.1 160 15450.2 160H15721.5C15743.6 160 15761.5 177.909 15761.5 200V720C15761.5 742.091 15743.6 760 15721.5 760H15518.2C15496.1 760 15478.2 742.091 15478.2 720V480H15240.4C15218.3 480 15200.4 462.091 15200.4 440V280H15120.4L15120.4 509.441C15120.4 542.577 15093.3 569.438 15060.2 569.438C15027.1 569.438 15000 542.574 15000 509.436L15000 0H15040.4L15040.4 509.438C15040.4 520.483 15049.4 529.438 15060.4 529.438C15071.5 529.438 15080.4 520.484 15080.4 509.439L15080.4 279.998C15080.4 257.907 15098.3 240 15120.4 240H15200.4C15222.5 240 15240.4 257.909 15240.4 280V440H15478.6C15500.7 440 15518.6 457.909 15518.6 480V720H15721.5V200H15450.1C15417 200 15390.1 173.137 15390.1 140C15390.1 106.863 15417 80 15450.1 80Z" fill="#F28EC0"/>
<path d="M16320.5 80H16680V120H16320.5C16309.5 120 16300.5 128.954 16300.5 140C16300.5 151.046 16309.5 160 16320.5 160H16601.5C16623.6 160 16641.5 177.909 16641.5 200V720C16641.5 742.091 16623.6 760 16601.5 760H16398.2C16376.1 760 16358.2 742.091 16358.2 720V480H16120.4C16098.4 480 16080.4 462.091 16080.4 440V280H16000.4L16000.4 520.006C16000.4 553.141 15973.3 580.001 15940.2 580.001C15907.1 580.001 15880 553.137 15880 519.999L15880 0H15920.4L15920.4 520C15920.4 531.046 15929.4 540.001 15940.4 540.001C15951.5 540.001 15960.4 531.048 15960.4 520.003L15960.4 279.997C15960.4 257.907 15978.3 240 16000.4 240H16080.5C16102.5 240 16120.5 257.909 16120.5 280V440H16358.6C16380.7 440 16398.6 457.909 16398.6 480V720H16601.5V200H16320.5C16287.4 200 16260.5 173.137 16260.5 140C16260.5 106.863 16287.4 80 16320.5 80Z" fill="#F28EC0"/>
<path d="M17190.4 80H17560V120H17190.5C17179.4 120 17170.5 128.954 17170.5 140C17170.5 151.046 17179.4 160 17190.5 160H17481.5C17503.6 160 17521.5 177.909 17521.5 200V720C17521.5 742.091 17503.6 760 17481.5 760H17278.2C17256.1 760 17238.2 742.091 17238.2 720V480H17000.4C16978.4 480 16960.4 462.091 16960.4 440V280H16880.4L16880.4 530.171C16880.4 563.306 16853.3 590.167 16820.2 590.167C16787.1 590.167 16760 563.303 16760 530.165L16760 0H16800.4L16800.4 530.166C16800.4 541.212 16809.4 550.167 16820.4 550.167C16831.5 550.167 16840.4 541.214 16840.4 530.168L16840.4 279.998C16840.4 257.907 16858.3 240 16880.4 240H16960.4C16982.5 240 17000.4 257.909 17000.4 280V440H17238.6C17260.7 440 17278.6 457.909 17278.6 480V720H17481.5V200H17190.4C17157.3 200 17130.4 173.137 17130.4 140C17130.4 106.863 17157.3 80 17190.4 80Z" fill="#F28EC0"/>
</svg>
