<svg width="7600" height="760" viewBox="0 0 7600 760" fill="none" xmlns="http://www.w3.org/2000/svg">
<path d="M540.186 80H720V120H540.186C529.14 120 520.186 128.954 520.186 140C520.186 151.046 529.14 160 540.186 160H637.684C659.775 160 677.684 177.909 677.684 200V720C677.684 742.091 659.775 760 637.684 760H557.685C535.594 760 517.685 742.091 517.685 720V480H279.998C257.906 480 239.998 462.091 239.998 440V280H159.999L159.999 360.023C160 393.16 133.137 420.023 100 420.023C66.8638 420.023 40.0013 393.16 40.0012 360.024L40 0H79.9995L80.0009 360.023C80.0009 371.069 88.9551 380.023 100.001 380.023C111.046 380.023 120 371.069 120 360.023L119.999 280C119.999 257.909 137.908 240 159.999 240H239.997C262.089 240 279.997 257.909 279.997 280V440H518.099C540.191 440 558.099 457.909 558.099 480V720H637.684V200H540.186C507.049 200 480.186 173.137 480.186 140C480.186 106.863 507.049 80 540.186 80Z" fill="#F28EC0"/>
<path d="M1280.15 80H1480V120H1280.15C1269.11 120 1260.15 128.954 1260.15 140C1260.15 151.046 1269.11 160 1280.15 160H1397.68C1419.77 160 1437.68 177.909 1437.68 200V720C1437.68 742.091 1419.77 760 1397.68 760H1317.69C1295.59 760 1277.69 742.091 1277.69 720V480H1040C1017.91 480 999.998 462.091 999.998 440V280H919.999L919.999 379.835C920 412.972 893.137 439.835 860 439.835C826.864 439.835 800.001 412.972 800.001 379.836L800 0H840L840.001 379.835C840.001 390.881 848.955 399.835 860.001 399.835C871.046 399.835 880 390.881 880 379.835L879.999 280C879.999 257.909 897.908 240 919.999 240H999.997C1022.09 240 1040 257.909 1040 280V440H1278.1C1300.19 440 1318.1 457.909 1318.1 480V720H1397.68V200H1280.15C1247.01 200 1220.15 173.137 1220.15 140C1220.15 106.863 1247.01 80 1280.15 80Z" fill="#F28EC0"/>
<path d="M2020.06 80H2240V120H2020.06C2009.01 120 2000.06 128.954 2000.06 140C2000.06 151.046 2009.01 160 2020.06 160H2157.68C2179.78 160 2197.68 177.909 2197.68 200V720C2197.68 742.091 2179.78 760 2157.68 760H2077.69C2055.59 760 2037.69 742.091 2037.69 720V480H1800C1777.91 480 1760 462.091 1760 440V280H1680L1680 400.186C1680 433.323 1653.14 460.186 1620 460.186C1586.86 460.186 1560 433.323 1560 400.187L1560 0H1600L1600 400.186C1600 411.232 1608.96 420.186 1620 420.186C1631.05 420.186 1640 411.231 1640 400.186L1640 280C1640 257.909 1657.91 240 1680 240H1760C1782.09 240 1800 257.909 1800 280V440H2038.1C2060.19 440 2078.1 457.909 2078.1 480V720H2157.68V200H2020.06C1986.92 200 1960.06 173.137 1960.06 140C1960.06 106.863 1986.92 80 2020.06 80Z" fill="#F28EC0"/>
<path d="M2759.9 80H3000V120H2759.9C2748.85 120 2739.9 128.954 2739.9 140C2739.9 151.046 2748.85 160 2759.9 160H2917.68C2939.78 160 2957.68 177.909 2957.68 200V720C2957.68 742.091 2939.78 760 2917.68 760H2837.69C2815.59 760 2797.69 742.091 2797.69 720V480H2560C2537.91 480 2520 462.091 2520 440V280H2440L2440 420C2440 453.137 2413.14 480 2380 480C2346.86 480 2320 453.138 2320 420.001L2320 0H2360L2360 420C2360 431.046 2368.96 440 2380 440C2391.05 440 2400 431.046 2400 420L2400 280C2400 257.909 2417.91 240 2440 240H2520C2542.09 240 2560 257.909 2560 280V440H2798.1C2820.19 440 2838.1 457.909 2838.1 480V720H2917.68V200H2759.9C2726.76 200 2699.9 173.137 2699.9 140C2699.9 106.863 2726.76 80 2759.9 80Z" fill="#F28EC0"/>
<path d="M3500.24 80H3760V120H3500.24C3489.2 120 3480.24 128.954 3480.24 140C3480.24 151.046 3489.2 160 3500.24 160H3677.68C3699.78 160 3717.68 177.909 3717.68 200V720C3717.68 742.091 3699.78 760 3677.68 760H3597.69C3575.59 760 3557.69 742.091 3557.69 720V480H3320C3297.91 480 3280 462.091 3280 440V280H3200L3200 440.081C3200 473.217 3173.14 500.08 3140 500.08C3106.86 500.08 3080 473.218 3080 440.081L3080 0H3120L3120 440.08C3120 451.126 3128.96 460.08 3140 460.08C3151.05 460.08 3160 451.126 3160 440.08L3160 280C3160 257.909 3177.91 240 3200 240H3280C3302.09 240 3320 257.909 3320 280V440H3558.1C3580.19 440 3598.1 457.909 3598.1 480V720H3677.68V200H3500.24C3467.11 200 3440.24 173.137 3440.24 140C3440.24 106.863 3467.11 80 3500.24 80Z" fill="#F28EC0"/>
<path d="M4240.07 80H4520V120H4240.07C4229.03 120 4220.07 128.954 4220.07 140C4220.07 151.046 4229.03 160 4240.07 160H4437.68C4459.78 160 4477.68 177.909 4477.68 200V720C4477.68 742.091 4459.78 760 4437.68 760H4357.69C4335.59 760 4317.69 742.091 4317.69 720V480H4080C4057.91 480 4040 462.091 4040 440V280H3960L3960 460C3960 493.137 3933.14 520 3900 520C3866.86 520 3840 493.138 3840 460.001L3840 0H3880L3880 460C3880 471.046 3888.96 480 3900 480C3911.05 480 3920 471.046 3920 460L3920 280C3920 257.909 3937.91 240 3960 240H4040C4062.09 240 4080 257.909 4080 280V440H4318.1C4340.19 440 4358.1 457.909 4358.1 480V720H4437.68V200H4240.07C4206.94 200 4180.07 173.137 4180.07 140C4180.07 106.863 4206.94 80 4240.07 80Z" fill="#F28EC0"/>
<path d="M4980 80H5280V120H4980C4968.95 120 4960 128.954 4960 140C4960 151.046 4968.95 160 4980 160H5197.68C5219.78 160 5237.68 177.909 5237.68 200V720C5237.68 742.091 5219.78 760 5197.68 760H5117.69C5095.59 760 5077.69 742.091 5077.69 720V480H4840C4817.91 480 4800 462.091 4800 440V280H4720L4720 480.315C4720 513.452 4693.14 540.314 4660 540.314C4626.86 540.314 4600 513.452 4600 480.315L4600 0H4640L4640 480.315C4640 491.36 4648.96 500.314 4660 500.314C4671.05 500.314 4680 491.36 4680 480.315L4680 280C4680 257.909 4697.91 240 4720 240H4800C4822.09 240 4840 257.909 4840 280V440H5078.1C5100.19 440 5118.1 457.909 5118.1 480V720H5197.68V200H4980C4946.86 200 4920 173.137 4920 140C4920 106.863 4946.86 80 4980 80Z" fill="#F28EC0"/>
<path d="M5720.51 80H6040V120H5720.51C5709.46 120 5700.51 128.954 5700.51 140C5700.51 151.046 5709.46 160 5720.51 160H5957.68C5979.78 160 5997.68 177.909 5997.68 200V720C5997.68 742.091 5979.78 760 5957.68 760H5877.69C5855.59 760 5837.69 742.091 5837.69 720V480H5600C5577.91 480 5560 462.091 5560 440V280H5480L5480 500.24C5480 533.376 5453.14 560.239 5420 560.239C5386.86 560.239 5360 533.377 5360 500.24L5360 0H5400L5400 500.24C5400 511.285 5408.96 520.239 5420 520.239C5431.05 520.239 5440 511.285 5440 500.239L5440 280C5440 257.909 5457.91 240 5480 240H5560C5582.09 240 5600 257.909 5600 280V440H5838.1C5860.19 440 5878.1 457.909 5878.1 480V720H5957.68V200H5720.51C5687.37 200 5660.51 173.137 5660.51 140C5660.51 106.863 5687.37 80 5720.51 80Z" fill="#F28EC0"/>
<path d="M6460.65 80H6800V120H6460.65C6449.6 120 6440.65 128.954 6440.65 140C6440.65 151.046 6449.6 160 6460.65 160H6717.68C6739.78 160 6757.68 177.909 6757.68 200V720C6757.68 742.091 6739.78 760 6717.68 760H6637.69C6615.59 760 6597.69 742.091 6597.69 720V480H6360C6337.91 480 6320 462.091 6320 440V280H6240L6240 519.934C6240 553.071 6213.14 579.933 6180 579.933C6146.86 579.933 6120 553.071 6120 519.934L6120 0H6160L6160 519.934C6160 530.979 6168.96 539.933 6180 539.933C6191.05 539.933 6200 530.979 6200 519.934L6200 280C6200 257.909 6217.91 240 6240 240H6320C6342.09 240 6360 257.909 6360 280V440H6598.1C6620.19 440 6638.1 457.909 6638.1 480V720H6717.68V200H6460.65C6427.51 200 6400.65 173.137 6400.65 140C6400.65 106.863 6427.51 80 6460.65 80Z" fill="#F28EC0"/>
<path d="M7200.06 80H7560V120H7200.06C7189.02 120 7180.06 128.954 7180.06 140C7180.06 151.046 7189.02 160 7200.06 160H7477.68C7499.78 160 7517.68 177.909 7517.68 200V720C7517.68 742.091 7499.78 760 7477.68 760H7397.69C7375.59 760 7357.69 742.091 7357.69 720V480H7120C7097.91 480 7080 462.091 7080 440V280H7000L7000 540.154C7000 573.291 6973.14 600.153 6940 600.153C6906.86 600.153 6880 573.291 6880 540.154L6880 0H6920L6920 540.154C6920 551.199 6928.96 560.153 6940 560.153C6951.05 560.153 6960 551.199 6960 540.154L6960 280C6960 257.909 6977.91 240 7000 240H7080C7102.09 240 7120 257.909 7120 280V440H7358.1C7380.19 440 7398.1 457.909 7398.1 480V720H7477.68V200H7200.06C7166.93 200 7140.06 173.137 7140.06 140C7140.06 106.863 7166.93 80 7200.06 80Z" fill="#F28EC0"/>
</svg>
