<svg width="309" height="463" viewBox="0 0 309 463" fill="none" xmlns="http://www.w3.org/2000/svg">
<path d="M68.9999 220V0H88.9999V220C88.9999 231.046 80.0456 240 68.9999 240H30.751C25.2281 240 20.751 244.477 20.751 250C20.751 255.523 25.2281 260 30.751 260H189C200.046 260 209 268.954 209 280V319.832C209 330.878 200.046 339.832 189 339.832H68.9999V440H109V400.884C109 389.839 117.954 380.884 129 380.884H308.981V400.884H129V442.503C129 453.548 120.046 462.503 109 462.503H68.9999C57.9542 462.503 48.9999 453.548 48.9999 442.503V339.832C48.9999 328.787 57.9542 319.832 68.9999 319.832H189V280H30.751C14.1824 280 0.750977 266.569 0.750977 250C0.750977 233.431 14.1824 220 30.751 220H68.9999Z" fill="#F28EC0"/>
</svg>
