<svg width="15200" height="760" viewBox="0 0 15200 760" fill="none" xmlns="http://www.w3.org/2000/svg">
<path d="M540.186 80H720V120H540.186C529.14 120 520.186 128.954 520.186 140C520.186 151.046 529.14 160 540.186 160H637.684C659.775 160 677.684 177.909 677.684 200V720C677.684 742.091 659.775 760 637.684 760H557.685C535.594 760 517.685 742.091 517.685 720V480H279.998C257.906 480 239.998 462.091 239.998 440V280H159.999L159.999 360.023C160 393.16 133.137 420.023 100 420.023C66.8638 420.023 40.0013 393.16 40.0012 360.024L40 0H79.9995L80.0009 360.023C80.0009 371.069 88.9551 380.023 100.001 380.023C111.046 380.023 120 371.069 120 360.023L119.999 280C119.999 257.909 137.908 240 159.999 240H239.997C262.089 240 279.997 257.909 279.997 280V440H518.099C540.191 440 558.099 457.909 558.099 480V720H637.684V200H540.186C507.049 200 480.186 173.137 480.186 140C480.186 106.863 507.049 80 540.186 80Z" fill="#F28EC0"/>
<path d="M1290.23 80H1480V120H1290.23C1279.18 120 1270.23 128.954 1270.23 140C1270.23 151.046 1279.18 160 1290.23 160H1397.68C1419.77 160 1437.68 177.909 1437.68 200V720C1437.68 742.091 1419.77 760 1397.68 760H1317.69C1295.59 760 1277.69 742.091 1277.69 720V480H1040C1017.91 480 999.998 462.091 999.998 440V280H919.999L919.999 370.029C920 403.166 893.137 430.029 860 430.029C826.864 430.029 800.001 403.167 800.001 370.03L800 0H840L840.001 370.029C840.001 381.075 848.955 390.029 860.001 390.029C871.046 390.029 880 381.075 880 370.029L879.999 280C879.999 257.909 897.908 240 920 240H999.997C1022.09 240 1040 257.909 1040 280V440H1278.1C1300.19 440 1318.1 457.909 1318.1 480V720H1397.68V200H1290.23C1257.09 200 1230.23 173.137 1230.23 140C1230.23 106.863 1257.09 80 1290.23 80Z" fill="#F28EC0"/>
<path d="M2040.15 80H2240V120H2040.15C2029.11 120 2020.15 128.954 2020.15 140C2020.15 151.046 2029.11 160 2040.15 160H2157.68C2179.77 160 2197.68 177.909 2197.68 200V720C2197.68 742.091 2179.77 760 2157.68 760H2077.69C2055.59 760 2037.69 742.091 2037.69 720V480H1800C1777.91 480 1760 462.091 1760 440V280H1680L1680 379.835C1680 412.972 1653.14 439.835 1620 439.835C1586.86 439.835 1560 412.972 1560 379.836L1560 0H1600L1600 379.835C1600 390.881 1608.96 399.835 1620 399.835C1631.05 399.835 1640 390.881 1640 379.835L1640 280C1640 257.909 1657.91 240 1680 240H1760C1782.09 240 1800 257.909 1800 280V440H2038.1C2060.19 440 2078.1 457.909 2078.1 480V720H2157.68V200H2040.15C2007.01 200 1980.15 173.137 1980.15 140C1980.15 106.863 2007.01 80 2040.15 80Z" fill="#F28EC0"/>
<path d="M2790.01 80H3000V120H2790.01C2778.97 120 2770.01 128.954 2770.01 140C2770.01 151.046 2778.97 160 2790.01 160H2917.68C2939.77 160 2957.68 177.909 2957.68 200V720C2957.68 742.091 2939.77 760 2917.68 760H2837.69C2815.59 760 2797.69 742.091 2797.69 720V480H2560C2537.91 480 2520 462.091 2520 440V280H2440L2440 390C2440 423.137 2413.14 450 2380 450C2346.86 450 2320 423.138 2320 390.001L2320 0H2360L2360 390C2360 401.046 2368.96 410 2380 410C2391.05 410 2400 401.046 2400 390L2400 280C2400 257.909 2417.91 240 2440 240H2520C2542.09 240 2560 257.909 2560 280V440H2798.1C2820.19 440 2838.1 457.909 2838.1 480V720H2917.68V200H2790.01C2756.87 200 2730.01 173.137 2730.01 140C2730.01 106.863 2756.87 80 2790.01 80Z" fill="#F28EC0"/>
<path d="M3540.06 80H3760V120H3540.06C3529.01 120 3520.06 128.954 3520.06 140C3520.06 151.046 3529.01 160 3540.06 160H3677.68C3699.78 160 3717.68 177.909 3717.68 200V720C3717.68 742.091 3699.78 760 3677.68 760H3597.69C3575.59 760 3557.69 742.091 3557.69 720V480H3320C3297.91 480 3280 462.091 3280 440V280H3200L3200 400.186C3200 433.323 3173.14 460.186 3140 460.186C3106.86 460.186 3080 433.323 3080 400.187L3080 0H3120L3120 400.186C3120 411.232 3128.96 420.186 3140 420.186C3151.05 420.186 3160 411.231 3160 400.186L3160 280C3160 257.909 3177.91 240 3200 240H3280C3302.09 240 3320 257.909 3320 280V440H3558.1C3580.19 440 3598.1 457.909 3598.1 480V720H3677.68V200H3540.06C3506.92 200 3480.06 173.137 3480.06 140C3480.06 106.863 3506.92 80 3540.06 80Z" fill="#F28EC0"/>
<path d="M4290.23 80H4520V120H4290.23C4279.18 120 4270.23 128.954 4270.23 140C4270.23 151.046 4279.18 160 4290.23 160H4437.68C4459.78 160 4477.68 177.909 4477.68 200V720C4477.68 742.091 4459.78 760 4437.68 760H4357.69C4335.59 760 4317.69 742.091 4317.69 720V480H4080C4057.91 480 4040 462.091 4040 440V280H3960L3960 410.227C3960 443.363 3933.14 470.226 3900 470.226C3866.86 470.226 3840 443.364 3840 410.227L3840 0H3880L3880 410.227C3880 421.272 3888.96 430.226 3900 430.226C3911.05 430.226 3920 421.272 3920 410.226L3920 280C3920 257.909 3937.91 240 3960 240H4040C4062.09 240 4080 257.909 4080 280V440H4318.1C4340.19 440 4358.1 457.909 4358.1 480V720H4437.68V200H4290.23C4257.09 200 4230.23 173.137 4230.23 140C4230.23 106.863 4257.09 80 4290.23 80Z" fill="#F28EC0"/>
<path d="M5039.9 80H5280V120H5039.9C5028.85 120 5019.9 128.954 5019.9 140C5019.9 151.046 5028.85 160 5039.9 160H5197.68C5219.78 160 5237.68 177.909 5237.68 200V720C5237.68 742.091 5219.78 760 5197.68 760H5117.69C5095.59 760 5077.69 742.091 5077.69 720V480H4840C4817.91 480 4800 462.091 4800 440V280H4720L4720 420C4720 453.137 4693.14 480 4660 480C4626.86 480 4600 453.138 4600 420.001L4600 0H4640L4640 420C4640 431.046 4648.96 440 4660 440C4671.05 440 4680 431.046 4680 420L4680 280C4680 257.909 4697.91 240 4720 240H4800C4822.09 240 4840 257.909 4840 280V440H5078.1C5100.19 440 5118.1 457.909 5118.1 480V720H5197.68V200H5039.9C5006.76 200 4979.9 173.137 4979.9 140C4979.9 106.863 5006.76 80 5039.9 80Z" fill="#F28EC0"/>
<path d="M5790.77 80H6040V120H5790.77C5779.72 120 5770.77 128.954 5770.77 140C5770.77 151.046 5779.72 160 5790.77 160H5957.68C5979.78 160 5997.68 177.909 5997.68 200V720C5997.68 742.091 5979.78 760 5957.68 760H5877.69C5855.59 760 5837.69 742.091 5837.69 720V480H5600C5577.91 480 5560 462.091 5560 440V280H5480L5480 430.561C5480 463.698 5453.14 490.561 5420 490.561C5386.86 490.561 5360 463.698 5360 430.562L5360 0H5400L5400 430.561C5400 441.607 5408.96 450.561 5420 450.561C5431.05 450.561 5440 441.607 5440 430.561L5440 280C5440 257.909 5457.91 240 5480 240H5560C5582.09 240 5600 257.909 5600 280V440H5838.1C5860.19 440 5878.1 457.909 5878.1 480V720H5957.68V200H5790.77C5757.63 200 5730.77 173.137 5730.77 140C5730.77 106.863 5757.63 80 5790.77 80Z" fill="#F28EC0"/>
<path d="M6540.24 80H6800V120H6540.24C6529.2 120 6520.24 128.954 6520.24 140C6520.24 151.046 6529.2 160 6540.24 160H6717.68C6739.78 160 6757.68 177.909 6757.68 200V720C6757.68 742.091 6739.78 760 6717.68 760H6637.69C6615.59 760 6597.69 742.091 6597.69 720V480H6360C6337.91 480 6320 462.091 6320 440V280H6240L6240 440.081C6240 473.217 6213.14 500.08 6180 500.08C6146.86 500.08 6120 473.218 6120 440.081L6120 0H6160L6160 440.08C6160 451.126 6168.96 460.08 6180 460.08C6191.05 460.08 6200 451.126 6200 440.08L6200 280C6200 257.909 6217.91 240 6240 240H6320C6342.09 240 6360 257.909 6360 280V440H6598.1C6620.19 440 6638.1 457.909 6638.1 480V720H6717.68V200H6540.24C6507.11 200 6480.24 173.137 6480.24 140C6480.24 106.863 6507.11 80 6540.24 80Z" fill="#F28EC0"/>
<path d="M7290.53 80H7560V120H7290.53C7279.49 120 7270.53 128.954 7270.53 140C7270.53 151.046 7279.49 160 7290.53 160H7477.68C7499.78 160 7517.68 177.909 7517.68 200V720C7517.68 742.091 7499.78 760 7477.68 760H7397.69C7375.59 760 7357.69 742.091 7357.69 720V480H7120C7097.91 480 7080 462.091 7080 440V280H7000L7000 450.358C7000 483.495 6973.14 510.358 6940 510.358C6906.86 510.358 6880 483.495 6880 450.359L6880 0H6920L6920 450.358C6920 461.404 6928.96 470.358 6940 470.358C6951.05 470.358 6960 461.404 6960 450.358L6960 280C6960 257.909 6977.91 240 7000 240H7080C7102.09 240 7120 257.909 7120 280V440H7358.1C7380.19 440 7398.1 457.909 7398.1 480V720H7477.68V200H7290.53C7257.4 200 7230.53 173.137 7230.53 140C7230.53 106.863 7257.4 80 7290.53 80Z" fill="#F28EC0"/>
<path d="M8040.07 80H8320V120H8040.07C8029.03 120 8020.07 128.954 8020.07 140C8020.07 151.046 8029.03 160 8040.07 160H8237.68C8259.78 160 8277.68 177.909 8277.68 200V720C8277.68 742.091 8259.78 760 8237.68 760H8157.69C8135.59 760 8117.69 742.091 8117.69 720V480H7880C7857.91 480 7840 462.091 7840 440V280H7760L7760 460C7760 493.137 7733.14 520 7700 520C7666.86 520 7640 493.138 7640 460.001L7640 0H7680L7680 460C7680 471.046 7688.96 480 7700 480C7711.05 480 7720 471.046 7720 460L7720 280C7720 257.909 7737.91 240 7760 240H7840C7862.09 240 7880 257.909 7880 280V440H8118.1C8140.19 440 8158.1 457.909 8158.1 480V720H8237.68V200H8040.07C8006.94 200 7980.07 173.137 7980.07 140C7980.07 106.863 8006.94 80 8040.07 80Z" fill="#F28EC0"/>
<path d="M8789.81 80H9080V120H8789.81C8778.76 120 8769.81 128.954 8769.81 140C8769.81 151.046 8778.76 160 8789.81 160H8997.68C9019.78 160 9037.68 177.909 9037.68 200V720C9037.68 742.091 9019.78 760 8997.68 760H8917.69C8895.59 760 8877.69 742.091 8877.69 720V480H8640C8617.91 480 8600 462.091 8600 440V280H8520L8520 470C8520 503.137 8493.14 530 8460 530C8426.86 530 8400 503.138 8400 470.001L8400 0H8440L8440 470C8440 481.046 8448.96 490 8460 490C8471.05 490 8480 481.046 8480 470L8480 280C8480 257.909 8497.91 240 8520 240H8600C8622.09 240 8640 257.909 8640 280V440H8878.1C8900.19 440 8918.1 457.909 8918.1 480V720H8997.68V200H8789.81C8756.67 200 8729.81 173.137 8729.81 140C8729.81 106.863 8756.67 80 8789.81 80Z" fill="#F28EC0"/>
<path d="M9540 80H9840V120H9540C9528.95 120 9520 128.954 9520 140C9520 151.046 9528.95 160 9540 160H9757.68C9779.78 160 9797.68 177.909 9797.68 200V720C9797.68 742.091 9779.78 760 9757.68 760H9677.69C9655.59 760 9637.69 742.091 9637.69 720V480H9400C9377.91 480 9360 462.091 9360 440V280H9280L9280 480.315C9280 513.452 9253.14 540.314 9220 540.314C9186.86 540.314 9160 513.452 9160 480.315L9160 0H9200L9200 480.315C9200 491.36 9208.96 500.314 9220 500.314C9231.05 500.314 9240 491.36 9240 480.315L9240 280C9240 257.909 9257.91 240 9280 240H9360C9382.09 240 9400 257.909 9400 280V440H9638.1C9660.19 440 9678.1 457.909 9678.1 480V720H9757.68V200H9540C9506.86 200 9480 173.137 9480 140C9480 106.863 9506.86 80 9540 80Z" fill="#F28EC0"/>
<path d="M10290.5 80H10600V120H10290.5C10279.5 120 10270.5 128.954 10270.5 140C10270.5 151.046 10279.5 160 10290.5 160H10517.7C10539.8 160 10557.7 177.909 10557.7 200V720C10557.7 742.091 10539.8 760 10517.7 760H10437.7C10415.6 760 10397.7 742.091 10397.7 720V480H10160C10137.9 480 10120 462.091 10120 440V280H10040L10040 489.826C10040 522.963 10013.1 549.826 9980 549.826C9946.86 549.826 9920 522.964 9920 489.827L9920 0H9960L9960 489.826C9960 500.872 9968.96 509.826 9980 509.826C9991.05 509.826 10000 500.872 10000 489.826L10000 280C10000 257.909 10017.9 240 10040 240H10120C10142.1 240 10160 257.909 10160 280V440H10398.1C10420.2 440 10438.1 457.909 10438.1 480V720H10517.7V200H10290.5C10257.4 200 10230.5 173.137 10230.5 140C10230.5 106.863 10257.4 80 10290.5 80Z" fill="#F28EC0"/>
<path d="M11040.5 80H11360V120H11040.5C11029.5 120 11020.5 128.954 11020.5 140C11020.5 151.046 11029.5 160 11040.5 160H11277.7C11299.8 160 11317.7 177.909 11317.7 200V720C11317.7 742.091 11299.8 760 11277.7 760H11197.7C11175.6 760 11157.7 742.091 11157.7 720V480H10920C10897.9 480 10880 462.091 10880 440V280H10800L10800 500.24C10800 533.376 10773.1 560.239 10740 560.239C10706.9 560.239 10680 533.377 10680 500.24L10680 0H10720L10720 500.24C10720 511.285 10729 520.239 10740 520.239C10751 520.239 10760 511.285 10760 500.239L10760 280C10760 257.909 10777.9 240 10800 240H10880C10902.1 240 10920 257.909 10920 280V440H11158.1C11180.2 440 11198.1 457.909 11198.1 480V720H11277.7V200H11040.5C11007.4 200 10980.5 173.137 10980.5 140C10980.5 106.863 11007.4 80 11040.5 80Z" fill="#F28EC0"/>
<path d="M11790.3 80H12120V120H11790.3C11779.3 120 11770.3 128.954 11770.3 140C11770.3 151.046 11779.3 160 11790.3 160H12037.7C12059.8 160 12077.7 177.909 12077.7 200V720C12077.7 742.091 12059.8 760 12037.7 760H11957.7C11935.6 760 11917.7 742.091 11917.7 720V480H11680C11657.9 480 11640 462.091 11640 440V280H11560L11560 510.065C11560 543.202 11533.1 570.064 11500 570.064C11466.9 570.064 11440 543.202 11440 510.065L11440 0H11480L11480 510.065C11480 521.11 11489 530.064 11500 530.064C11511 530.064 11520 521.11 11520 510.065L11520 280C11520 257.909 11537.9 240 11560 240H11640C11662.1 240 11680 257.909 11680 280V440H11918.1C11940.2 440 11958.1 457.909 11958.1 480V720H12037.7V200H11790.3C11757.2 200 11730.3 173.137 11730.3 140C11730.3 106.863 11757.2 80 11790.3 80Z" fill="#F28EC0"/>
<path d="M12540.6 80H12880V120H12540.6C12529.6 120 12520.6 128.954 12520.6 140C12520.6 151.046 12529.6 160 12540.6 160H12797.7C12819.8 160 12837.7 177.909 12837.7 200V720C12837.7 742.091 12819.8 760 12797.7 760H12717.7C12695.6 760 12677.7 742.091 12677.7 720V480H12440C12417.9 480 12400 462.091 12400 440V280H12320L12320 519.934C12320 553.071 12293.1 579.933 12260 579.933C12226.9 579.933 12200 553.071 12200 519.934L12200 0H12240L12240 519.934C12240 530.979 12249 539.933 12260 539.933C12271 539.933 12280 530.979 12280 519.934L12280 280C12280 257.909 12297.9 240 12320 240H12400C12422.1 240 12440 257.909 12440 280V440H12678.1C12700.2 440 12718.1 457.909 12718.1 480V720H12797.7V200H12540.6C12507.5 200 12480.6 173.137 12480.6 140C12480.6 106.863 12507.5 80 12540.6 80Z" fill="#F28EC0"/>
<path d="M13290.5 80H13640V120H13290.5C13279.4 120 13270.5 128.954 13270.5 140C13270.5 151.046 13279.4 160 13290.5 160H13557.7C13579.8 160 13597.7 177.909 13597.7 200V720C13597.7 742.091 13579.8 760 13557.7 760H13477.7C13455.6 760 13437.7 742.091 13437.7 720V480H13200C13177.9 480 13160 462.091 13160 440V280H13080L13080 529.947C13080 563.083 13053.1 589.946 13020 589.946C12986.9 589.946 12960 563.084 12960 529.947L12960 0H13000L13000 529.946C13000 540.992 13009 549.946 13020 549.946C13031 549.946 13040 540.992 13040 529.946L13040 280C13040 257.909 13057.9 240 13080 240H13160C13182.1 240 13200 257.909 13200 280V440H13438.1C13460.2 440 13478.1 457.909 13478.1 480V720H13557.7V200H13290.5C13257.3 200 13230.5 173.137 13230.5 140C13230.5 106.863 13257.4 80 13290.5 80Z" fill="#F28EC0"/>
<path d="M14040.1 80H14400V120H14040.1C14029 120 14020.1 128.954 14020.1 140C14020.1 151.046 14029 160 14040.1 160H14317.7C14339.8 160 14357.7 177.909 14357.7 200V720C14357.7 742.091 14339.8 760 14317.7 760H14237.7C14215.6 760 14197.7 742.091 14197.7 720V480H13960C13937.9 480 13920 462.091 13920 440V280H13840L13840 540.154C13840 573.291 13813.1 600.153 13780 600.153C13746.9 600.153 13720 573.291 13720 540.154L13720 0H13760L13760 540.154C13760 551.199 13769 560.153 13780 560.153C13791 560.153 13800 551.199 13800 540.154L13800 280C13800 257.909 13817.9 240 13840 240H13920C13942.1 240 13960 257.909 13960 280V440H14198.1C14220.2 440 14238.1 457.909 14238.1 480V720H14317.7V200H14040.1C14006.9 200 13980.1 173.137 13980.1 140C13980.1 106.863 14006.9 80 14040.1 80Z" fill="#F28EC0"/>
<path d="M14790.7 80H15160V120H14790.7C14779.7 120 14770.7 128.954 14770.7 140C14770.7 151.046 14779.7 160 14790.7 160H15077.7C15099.8 160 15117.7 177.909 15117.7 200V720C15117.7 742.091 15099.8 760 15077.7 760H14997.7C14975.6 760 14957.7 742.091 14957.7 720V480H14720C14697.9 480 14680 462.091 14680 440V280H14600L14600 550.243C14600 583.38 14573.1 610.243 14540 610.243C14506.9 610.243 14480 583.38 14480 550.243L14480 0H14520L14520 550.243C14520 561.288 14529 570.243 14540 570.243C14551 570.243 14560 561.288 14560 550.243L14560 280C14560 257.909 14577.9 240 14600 240H14680C14702.1 240 14720 257.909 14720 280V440H14958.1C14980.2 440 14998.1 457.909 14998.1 480V720H15077.7V200H14790.7C14757.6 200 14730.7 173.137 14730.7 140C14730.7 106.863 14757.6 80 14790.7 80Z" fill="#F28EC0"/>
</svg>
