<svg width="16401" height="1051" viewBox="0 0 16401 1051" fill="none" xmlns="http://www.w3.org/2000/svg">
<path d="M201.728 390.849V30.6406H231.729V386.059C231.729 405.5 215.885 421.216 196.445 421.058L187.649 420.987C179.472 420.92 172.808 427.53 172.808 435.707C172.808 443.828 179.385 450.415 187.506 450.428L437.265 450.827C456.573 450.858 472.209 466.519 472.209 485.827V596.188C472.209 615.517 456.539 631.188 437.209 631.188H141.08V841.258H200.734V756.039C200.734 736.709 216.404 721.039 235.734 721.039H377.35C396.68 721.039 412.35 736.709 412.35 756.039V916.576C412.35 924.769 418.991 931.411 427.185 931.411C435.378 931.411 442.02 924.769 442.02 916.576V786.271C442.02 766.941 457.69 751.271 477.02 751.271H557.114C576.444 751.271 592.114 766.941 592.114 786.271V991.164H790.5V1020.64H596.81C577.48 1020.64 561.81 1004.97 561.81 985.641V781.121H472.604V915.193C472.604 940.276 452.27 960.61 427.187 960.61C402.103 960.61 381.769 940.276 381.769 915.193V750.697H231.729V835.177C231.729 854.507 216.059 870.177 196.729 870.177H145.5C126.17 870.177 110.5 854.507 110.5 835.177V636.723C110.5 617.393 126.17 601.723 145.5 601.723H442.02V481.814H187.756C162.636 481.814 142.273 461.45 142.273 436.331C142.273 411.212 162.636 390.849 187.756 390.849H201.728Z" fill="#F28EC0"/>
<path d="M1021.73 390.849V30.6406H1051.73V386.082C1051.73 405.514 1035.9 421.226 1016.47 421.081L1002.64 420.977C994.469 420.916 987.808 427.526 987.808 435.702C987.808 443.825 994.387 450.414 1002.51 450.427L1257.26 450.828C1276.57 450.859 1292.21 466.52 1292.21 485.828V596.188C1292.21 615.517 1276.54 631.188 1257.21 631.188H961.08V841.258H1020.73V756.039C1020.73 736.709 1036.4 721.039 1055.73 721.039H1197.35C1216.68 721.039 1232.35 736.709 1232.35 756.039V916.576C1232.35 924.769 1238.99 931.411 1247.18 931.411C1255.38 931.411 1262.02 924.769 1262.02 916.576V786.271C1262.02 766.941 1277.69 751.271 1297.02 751.271H1382.11C1401.44 751.271 1417.11 766.941 1417.11 786.271V991.164H1610.5V1020.64H1421.81C1402.48 1020.64 1386.81 1004.97 1386.81 985.641V781.121H1292.6V915.193C1292.6 940.276 1272.27 960.61 1247.19 960.61C1222.1 960.61 1201.77 940.276 1201.77 915.193V750.697H1051.73V835.177C1051.73 854.507 1036.06 870.177 1016.73 870.177H965.5C946.17 870.177 930.5 854.507 930.5 835.177V636.723C930.5 617.393 946.17 601.723 965.5 601.723H1262.02V481.814H1002.76C977.636 481.814 957.273 461.45 957.273 436.331C957.273 411.212 977.636 390.849 1002.76 390.849H1021.73Z" fill="#F28EC0"/>
<path d="M1841.73 390.849V30.6406H1871.73V386.101C1871.73 405.526 1855.91 421.235 1836.49 421.1L1817.64 420.969C1809.47 420.912 1802.81 427.523 1802.81 435.698C1802.81 443.824 1809.39 450.414 1817.51 450.427L2077.26 450.829C2096.57 450.859 2112.21 466.52 2112.21 485.829V596.188C2112.21 615.517 2096.54 631.188 2077.21 631.188H1781.08V841.258H1840.73V756.039C1840.73 736.709 1856.4 721.039 1875.73 721.039H2017.35C2036.68 721.039 2052.35 736.709 2052.35 756.039V916.576C2052.35 924.769 2058.99 931.411 2067.18 931.411C2075.38 931.411 2082.02 924.769 2082.02 916.576V786.271C2082.02 766.941 2097.69 751.271 2117.02 751.271H2207.11C2226.44 751.271 2242.11 766.941 2242.11 786.271V991.164H2430.5V1020.64H2246.81C2227.48 1020.64 2211.81 1004.97 2211.81 985.641V781.121H2112.6V915.193C2112.6 940.276 2092.27 960.61 2067.19 960.61C2042.1 960.61 2021.77 940.276 2021.77 915.193V750.697H1871.73V835.177C1871.73 854.507 1856.06 870.177 1836.73 870.177H1785.5C1766.17 870.177 1750.5 854.507 1750.5 835.177V636.723C1750.5 617.393 1766.17 601.723 1785.5 601.723H2082.02V481.814H1817.76C1792.64 481.814 1772.27 461.45 1772.27 436.331C1772.27 411.212 1792.64 390.849 1817.76 390.849H1841.73Z" fill="#F28EC0"/>
<path d="M2661.73 390.849V30.6406H2691.73V386.12C2691.73 405.538 2675.92 421.244 2656.51 421.12L2631.64 420.961C2623.46 420.908 2616.81 427.52 2616.81 435.693C2616.81 443.822 2623.39 450.414 2631.52 450.426L2897.26 450.83C2916.57 450.859 2932.21 466.521 2932.21 485.83V596.188C2932.21 615.517 2916.54 631.188 2897.21 631.188H2601.08V841.258H2660.73V756.039C2660.73 736.709 2676.4 721.039 2695.73 721.039H2837.35C2856.68 721.039 2872.35 736.709 2872.35 756.039V916.576C2872.35 924.769 2878.99 931.411 2887.18 931.411C2895.38 931.411 2902.02 924.769 2902.02 916.576V786.271C2902.02 766.941 2917.69 751.271 2937.02 751.271H3032.11C3051.44 751.271 3067.11 766.941 3067.11 786.271V991.164H3250.5V1020.64H3071.81C3052.48 1020.64 3036.81 1004.97 3036.81 985.641V781.121H2932.6V915.193C2932.6 940.276 2912.27 960.61 2887.19 960.61C2862.1 960.61 2841.77 940.276 2841.77 915.193V750.697H2691.73V835.177C2691.73 854.507 2676.06 870.177 2656.73 870.177H2605.5C2586.17 870.177 2570.5 854.507 2570.5 835.177V636.723C2570.5 617.393 2586.17 601.723 2605.5 601.723H2902.02V481.814H2631.76C2606.64 481.814 2586.27 461.45 2586.27 436.331C2586.27 411.212 2606.64 390.849 2631.76 390.849H2661.73Z" fill="#F28EC0"/>
<path d="M3481.73 390.849V30.6406H3511.73V386.135C3511.73 405.547 3495.93 421.25 3476.52 421.134L3446.63 420.955C3438.46 420.906 3431.81 427.517 3431.81 435.69C3431.81 443.82 3438.39 450.414 3446.52 450.426L3717.26 450.831C3736.57 450.86 3752.21 466.521 3752.21 485.831V596.188C3752.21 615.517 3736.54 631.188 3717.21 631.188H3421.08V841.258H3480.73V756.039C3480.73 736.709 3496.4 721.039 3515.73 721.039H3657.35C3676.68 721.039 3692.35 736.709 3692.35 756.039V916.576C3692.35 924.769 3698.99 931.411 3707.18 931.411C3715.38 931.411 3722.02 924.769 3722.02 916.576V786.271C3722.02 766.941 3737.69 751.271 3757.02 751.271H3856.11C3875.44 751.271 3891.11 766.941 3891.11 786.271V991.164H4070.5V1020.64H3895.81C3876.48 1020.64 3860.81 1004.97 3860.81 985.641V781.121H3752.6V915.193C3752.6 940.276 3732.27 960.61 3707.19 960.61C3682.1 960.61 3661.77 940.276 3661.77 915.193V750.697H3511.73V835.177C3511.73 854.507 3496.06 870.177 3476.73 870.177H3425.5C3406.17 870.177 3390.5 854.507 3390.5 835.177V636.723C3390.5 617.393 3406.17 601.723 3425.5 601.723H3722.02V481.814H3446.76C3421.64 481.814 3401.27 461.45 3401.27 436.331C3401.27 411.212 3421.64 390.849 3446.76 390.849H3481.73Z" fill="#F28EC0"/>
<path d="M4301.73 390.849V30.6406H4331.73V386.147C4331.73 405.554 4315.94 421.256 4296.53 421.146L4261.63 420.949C4253.46 420.903 4246.81 427.515 4246.81 435.688C4246.81 443.819 4253.39 450.414 4261.53 450.426L4537.26 450.832C4556.57 450.86 4572.21 466.522 4572.21 485.832V596.188C4572.21 615.517 4556.54 631.188 4537.21 631.188H4241.08V841.258H4300.73V756.039C4300.73 736.709 4316.4 721.039 4335.73 721.039H4477.35C4496.68 721.039 4512.35 736.709 4512.35 756.039V916.576C4512.35 924.769 4518.99 931.411 4527.18 931.411C4535.38 931.411 4542.02 924.769 4542.02 916.576V786.271C4542.02 766.941 4557.69 751.271 4577.02 751.271H4681.11C4700.44 751.271 4716.11 766.941 4716.11 786.271V991.164H4890.5V1020.64H4720.81C4701.48 1020.64 4685.81 1004.97 4685.81 985.641V781.121H4572.6V915.193C4572.6 940.276 4552.27 960.61 4527.19 960.61C4502.1 960.61 4481.77 940.276 4481.77 915.193V750.697H4331.73V835.177C4331.73 854.507 4316.06 870.177 4296.73 870.177H4245.5C4226.17 870.177 4210.5 854.507 4210.5 835.177V636.723C4210.5 617.393 4226.17 601.723 4245.5 601.723H4542.02V481.814H4261.76C4236.64 481.814 4216.27 461.45 4216.27 436.331C4216.27 411.212 4236.64 390.849 4261.76 390.849H4301.73Z" fill="#F28EC0"/>
<path d="M5121.73 390.849V30.6406H5151.73V386.158C5151.73 405.561 5135.95 421.261 5116.54 421.158L5076.63 420.945C5068.46 420.901 5061.81 427.513 5061.81 435.685C5061.81 443.818 5068.39 450.414 5076.53 450.425L5357.26 450.833C5376.57 450.861 5392.21 466.522 5392.21 485.833V596.188C5392.21 615.517 5376.54 631.188 5357.21 631.188H5061.08V841.258H5120.73V756.039C5120.73 736.709 5136.4 721.039 5155.73 721.039H5297.35C5316.68 721.039 5332.35 736.709 5332.35 756.039V916.576C5332.35 924.769 5338.99 931.411 5347.18 931.411C5355.38 931.411 5362.02 924.769 5362.02 916.576V786.271C5362.02 766.941 5377.69 751.271 5397.02 751.271H5506.11C5525.44 751.271 5541.11 766.941 5541.11 786.271V991.164H5710.5V1020.64H5545.81C5526.48 1020.64 5510.81 1004.97 5510.81 985.641V781.121H5392.6V915.193C5392.6 940.276 5372.27 960.61 5347.19 960.61C5322.1 960.61 5301.77 940.276 5301.77 915.193V750.697H5151.73V835.177C5151.73 854.507 5136.06 870.177 5116.73 870.177H5065.5C5046.17 870.177 5030.5 854.507 5030.5 835.177V636.723C5030.5 617.393 5046.17 601.723 5065.5 601.723H5362.02V481.814H5076.76C5051.64 481.814 5031.27 461.45 5031.27 436.331C5031.27 411.212 5051.64 390.849 5076.76 390.849H5121.73Z" fill="#F28EC0"/>
<path d="M5941.73 390.849V30.6406H5971.73V386.168C5971.73 405.567 5955.95 421.265 5936.55 421.167L5891.63 420.941C5883.45 420.899 5876.81 427.512 5876.81 435.683C5876.81 443.817 5883.4 450.413 5891.53 450.425L6177.26 450.833C6196.57 450.861 6212.21 466.523 6212.21 485.833V596.188C6212.21 615.517 6196.54 631.188 6177.21 631.188H5881.08V841.258H5940.73V756.039C5940.73 736.709 5956.4 721.039 5975.73 721.039H6117.35C6136.68 721.039 6152.35 736.709 6152.35 756.039V916.576C6152.35 924.769 6158.99 931.411 6167.18 931.411C6175.38 931.411 6182.02 924.769 6182.02 916.576V786.271C6182.02 766.941 6197.69 751.271 6217.02 751.271H6331.11C6350.44 751.271 6366.11 766.941 6366.11 786.271V991.164H6530.5V1020.64H6370.81C6351.48 1020.64 6335.81 1004.97 6335.81 985.641V781.121H6212.6V915.193C6212.6 940.276 6192.27 960.61 6167.19 960.61C6142.1 960.61 6121.77 940.276 6121.77 915.193V750.697H5971.73V835.177C5971.73 854.507 5956.06 870.177 5936.73 870.177H5885.5C5866.17 870.177 5850.5 854.507 5850.5 835.177V636.723C5850.5 617.393 5866.17 601.723 5885.5 601.723H6182.02V481.814H5891.76C5866.64 481.814 5846.27 461.45 5846.27 436.331C5846.27 411.212 5866.64 390.849 5891.76 390.849H5941.73Z" fill="#F28EC0"/>
<path d="M6761.73 390.849V30.6406H6791.73V386.177C6791.73 405.572 6775.96 421.269 6756.56 421.176L6706.62 420.937C6698.45 420.898 6691.81 427.51 6691.81 435.681C6691.81 443.816 6698.4 450.413 6706.53 450.425L6997.26 450.834C7016.57 450.861 7032.21 466.523 7032.21 485.834V596.188C7032.21 615.517 7016.54 631.188 6997.21 631.188H6701.08V841.258H6760.73V756.039C6760.73 736.709 6776.4 721.039 6795.73 721.039H6937.35C6956.68 721.039 6972.35 736.709 6972.35 756.039V916.576C6972.35 924.769 6978.99 931.411 6987.18 931.411C6995.38 931.411 7002.02 924.769 7002.02 916.576V786.271C7002.02 766.941 7017.69 751.271 7037.02 751.271H7156.11C7175.44 751.271 7191.11 766.941 7191.11 786.271V991.164H7350.5V1020.64H7195.81C7176.48 1020.64 7160.81 1004.97 7160.81 985.641V781.121H7032.6V915.193C7032.6 940.276 7012.27 960.61 6987.19 960.61C6962.1 960.61 6941.77 940.276 6941.77 915.193V750.697H6791.73V835.177C6791.73 854.507 6776.06 870.177 6756.73 870.177H6705.5C6686.17 870.177 6670.5 854.507 6670.5 835.177V636.723C6670.5 617.393 6686.17 601.723 6705.5 601.723H7002.02V481.814H6706.76C6681.64 481.814 6661.27 461.45 6661.27 436.331C6661.27 411.212 6681.64 390.849 6706.76 390.849H6761.73Z" fill="#F28EC0"/>
<path d="M7581.73 390.849V30.6406H7611.73V386.185C7611.73 405.577 7595.96 421.273 7576.57 421.184L7521.62 420.934C7513.45 420.896 7506.81 427.509 7506.81 435.679C7506.81 443.815 7513.4 450.413 7521.53 450.424L7817.26 450.835C7836.57 450.862 7852.21 466.524 7852.21 485.835V596.188C7852.21 615.517 7836.54 631.188 7817.21 631.188H7521.08V841.258H7580.73V756.039C7580.73 736.709 7596.4 721.039 7615.73 721.039H7757.35C7776.68 721.039 7792.35 736.709 7792.35 756.039V916.576C7792.35 924.769 7798.99 931.411 7807.18 931.411C7815.38 931.411 7822.02 924.769 7822.02 916.576V786.271C7822.02 766.941 7837.69 751.271 7857.02 751.271H7981.11C8000.44 751.271 8016.11 766.941 8016.11 786.271V991.164H8170.5V1020.64H8020.81C8001.48 1020.64 7985.81 1004.97 7985.81 985.641V781.121H7852.6V915.193C7852.6 940.276 7832.27 960.61 7807.19 960.61C7782.1 960.61 7761.77 940.276 7761.77 915.193V750.697H7611.73V835.177C7611.73 854.507 7596.06 870.177 7576.73 870.177H7525.5C7506.17 870.177 7490.5 854.507 7490.5 835.177V636.723C7490.5 617.393 7506.17 601.723 7525.5 601.723H7822.02V481.814H7521.76C7496.64 481.814 7476.27 461.45 7476.27 436.331C7476.27 411.212 7496.64 390.849 7521.76 390.849H7581.73Z" fill="#F28EC0"/>
<path d="M8401.73 390.849V30.6406H8431.73V386.192C8431.73 405.582 8415.97 421.276 8396.58 421.192L8336.62 420.93C8328.45 420.895 8321.81 427.508 8321.81 435.677C8321.81 443.814 8328.4 450.413 8336.54 450.424L8637.26 450.835C8656.57 450.862 8672.21 466.524 8672.21 485.835V596.188C8672.21 615.517 8656.54 631.188 8637.21 631.188H8341.08V841.258H8400.73V756.039C8400.73 736.709 8416.4 721.039 8435.73 721.039H8577.35C8596.68 721.039 8612.35 736.709 8612.35 756.039V916.576C8612.35 924.769 8618.99 931.411 8627.18 931.411C8635.38 931.411 8642.02 924.769 8642.02 916.576V786.271C8642.02 766.941 8657.69 751.271 8677.02 751.271H8806.11C8825.44 751.271 8841.11 766.941 8841.11 786.271V991.164H8990.5V1020.64H8845.81C8826.48 1020.64 8810.81 1004.97 8810.81 985.641V781.121H8672.6V915.193C8672.6 940.276 8652.27 960.61 8627.19 960.61C8602.1 960.61 8581.77 940.276 8581.77 915.193V750.697H8431.73V835.177C8431.73 854.507 8416.06 870.177 8396.73 870.177H8345.5C8326.17 870.177 8310.5 854.507 8310.5 835.177V636.723C8310.5 617.393 8326.17 601.723 8345.5 601.723H8642.02V481.814H8336.76C8311.64 481.814 8291.27 461.45 8291.27 436.331C8291.27 411.212 8311.64 390.849 8336.76 390.849H8401.73Z" fill="#F28EC0"/>
<path d="M9221.73 390.849V30.6406H9251.73V386.199C9251.73 405.586 9235.97 421.279 9216.58 421.198L9151.62 420.928C9143.45 420.894 9136.81 427.506 9136.81 435.676C9136.81 443.813 9143.4 450.413 9151.54 450.424L9457.26 450.836C9476.57 450.862 9492.21 466.525 9492.21 485.836V596.188C9492.21 615.517 9476.54 631.188 9457.21 631.188H9161.08V841.258H9220.73V756.039C9220.73 736.709 9236.4 721.039 9255.73 721.039H9397.35C9416.68 721.039 9432.35 736.709 9432.35 756.039V916.576C9432.35 924.769 9438.99 931.411 9447.18 931.411C9455.38 931.411 9462.02 924.769 9462.02 916.576V786.271C9462.02 766.941 9477.69 751.271 9497.02 751.271H9631.11C9650.44 751.271 9666.11 766.941 9666.11 786.271V991.164H9810.5V1020.64H9670.81C9651.48 1020.64 9635.81 1004.97 9635.81 985.641V781.121H9492.6V915.193C9492.6 940.276 9472.27 960.61 9447.19 960.61C9422.1 960.61 9401.77 940.276 9401.77 915.193V750.697H9251.73V835.177C9251.73 854.507 9236.06 870.177 9216.73 870.177H9165.5C9146.17 870.177 9130.5 854.507 9130.5 835.177V636.723C9130.5 617.393 9146.17 601.723 9165.5 601.723H9462.02V481.814H9151.76C9126.64 481.814 9106.27 461.45 9106.27 436.331C9106.27 411.212 9126.64 390.849 9151.76 390.849H9221.73Z" fill="#F28EC0"/>
<path d="M10041.7 390.849V30.6406H10071.7V386.205C10071.7 405.589 10056 421.282 10036.6 421.205L9966.62 420.925C9958.45 420.892 9951.81 427.505 9951.81 435.674C9951.81 443.812 9958.4 450.413 9966.54 450.424L10277.3 450.837C10296.6 450.862 10312.2 466.525 10312.2 485.837V596.188C10312.2 615.517 10296.5 631.188 10277.2 631.188H9981.08V841.258H10040.7V756.039C10040.7 736.709 10056.4 721.039 10075.7 721.039H10217.3C10236.7 721.039 10252.3 736.709 10252.3 756.039V916.576C10252.3 924.769 10259 931.411 10267.2 931.411C10275.4 931.411 10282 924.769 10282 916.576V786.271C10282 766.941 10297.7 751.271 10317 751.271H10456.1C10475.4 751.271 10491.1 766.941 10491.1 786.271V991.164H10630.5V1020.64H10495.8C10476.5 1020.64 10460.8 1004.97 10460.8 985.641V781.121H10312.6V915.193C10312.6 940.276 10292.3 960.61 10267.2 960.61C10242.1 960.61 10221.8 940.276 10221.8 915.193V750.697H10071.7V835.177C10071.7 854.507 10056.1 870.177 10036.7 870.177H9985.5C9966.17 870.177 9950.5 854.507 9950.5 835.177V636.723C9950.5 617.393 9966.17 601.723 9985.5 601.723H10282V481.814H9966.76C9941.64 481.814 9921.27 461.45 9921.27 436.331C9921.27 411.212 9941.64 390.849 9966.76 390.849H10041.7Z" fill="#F28EC0"/>
<path d="M10861.7 390.849V30.6406H10891.7V386.212C10891.7 405.594 10876 421.285 10856.6 421.211L10780.6 420.922C10772.4 420.891 10765.8 427.504 10765.8 435.673C10765.8 443.812 10772.4 450.413 10780.5 450.423L11097.3 450.837C11116.6 450.863 11132.2 466.525 11132.2 485.837V596.188C11132.2 615.517 11116.5 631.188 11097.2 631.188H10801.1V841.258H10860.7V756.039C10860.7 736.709 10876.4 721.039 10895.7 721.039H11037.3C11056.7 721.039 11072.3 736.709 11072.3 756.039V916.576C11072.3 924.769 11079 931.411 11087.2 931.411C11095.4 931.411 11102 924.769 11102 916.576V786.271C11102 766.941 11117.7 751.271 11137 751.271H11281.1C11300.4 751.271 11316.1 766.941 11316.1 786.271V991.164H11450.5V1020.64H11320.8C11301.5 1020.64 11285.8 1004.97 11285.8 985.641V781.121H11132.6V915.193C11132.6 940.276 11112.3 960.61 11087.2 960.61C11062.1 960.61 11041.8 940.276 11041.8 915.193V750.697H10891.7V835.177C10891.7 854.507 10876.1 870.177 10856.7 870.177H10805.5C10786.2 870.177 10770.5 854.507 10770.5 835.177V636.723C10770.5 617.393 10786.2 601.723 10805.5 601.723H11102V481.814H10780.8C10755.6 481.814 10735.3 461.45 10735.3 436.331C10735.3 411.212 10755.6 390.849 10780.8 390.849H10861.7Z" fill="#F28EC0"/>
<path d="M11681.7 390.849V30.6406H11711.7V386.217C11711.7 405.597 11696 421.287 11676.6 421.216L11595.6 420.92C11587.4 420.89 11580.8 427.503 11580.8 435.672C11580.8 443.811 11587.4 450.413 11595.5 450.423L11917.3 450.838C11936.6 450.863 11952.2 466.526 11952.2 485.838V596.188C11952.2 615.517 11936.5 631.188 11917.2 631.188H11621.1V841.258H11680.7V756.039C11680.7 736.709 11696.4 721.039 11715.7 721.039H11857.3C11876.7 721.039 11892.3 736.709 11892.3 756.039V916.576C11892.3 924.769 11899 931.411 11907.2 931.411C11915.4 931.411 11922 924.769 11922 916.576V786.271C11922 766.941 11937.7 751.271 11957 751.271H12106.1C12125.4 751.271 12141.1 766.941 12141.1 786.271V991.164H12270.5V1020.64H12145.8C12126.5 1020.64 12110.8 1004.97 12110.8 985.641V781.121H11952.6V915.193C11952.6 940.276 11932.3 960.61 11907.2 960.61C11882.1 960.61 11861.8 940.276 11861.8 915.193V750.697H11711.7V835.177C11711.7 854.507 11696.1 870.177 11676.7 870.177H11625.5C11606.2 870.177 11590.5 854.507 11590.5 835.177V636.723C11590.5 617.393 11606.2 601.723 11625.5 601.723H11922V481.814H11595.8C11570.6 481.814 11550.3 461.45 11550.3 436.331C11550.3 411.212 11570.6 390.849 11595.8 390.849H11681.7Z" fill="#F28EC0"/>
<path d="M12501.7 390.849V30.6406H12531.7V386.221C12531.7 405.6 12516 421.289 12496.6 421.221L12410.6 420.918C12402.4 420.889 12395.8 427.503 12395.8 435.67C12395.8 443.811 12402.4 450.412 12410.5 450.423L12737.3 450.839C12756.6 450.863 12772.2 466.526 12772.2 485.839V596.188C12772.2 615.517 12756.5 631.188 12737.2 631.188H12441.1V841.258H12500.7V756.039C12500.7 736.709 12516.4 721.039 12535.7 721.039H12677.3C12696.7 721.039 12712.3 736.709 12712.3 756.039V916.576C12712.3 924.769 12719 931.411 12727.2 931.411C12735.4 931.411 12742 924.769 12742 916.576V786.271C12742 766.941 12757.7 751.271 12777 751.271H12931.1C12950.4 751.271 12966.1 766.941 12966.1 786.271V991.164H13090.5V1020.64H12970.8C12951.5 1020.64 12935.8 1004.97 12935.8 985.641V781.121H12772.6V915.193C12772.6 940.276 12752.3 960.61 12727.2 960.61C12702.1 960.61 12681.8 940.276 12681.8 915.193V750.697H12531.7V835.177C12531.7 854.507 12516.1 870.177 12496.7 870.177H12445.5C12426.2 870.177 12410.5 854.507 12410.5 835.177V636.723C12410.5 617.393 12426.2 601.723 12445.5 601.723H12742V481.814H12410.8C12385.6 481.814 12365.3 461.45 12365.3 436.331C12365.3 411.212 12385.6 390.849 12410.8 390.849H12501.7Z" fill="#F28EC0"/>
<path d="M13321.7 390.849V30.6406H13351.7V386.226C13351.7 405.602 13336 421.291 13316.6 421.226L13225.6 420.916C13217.4 420.888 13210.8 427.502 13210.8 435.669C13210.8 443.81 13217.4 450.412 13225.5 450.423L13557.3 450.839C13576.6 450.864 13592.2 466.526 13592.2 485.839V596.188C13592.2 615.517 13576.5 631.188 13557.2 631.188H13261.1V841.258H13320.7V756.039C13320.7 736.709 13336.4 721.039 13355.7 721.039H13497.3C13516.7 721.039 13532.3 736.709 13532.3 756.039V916.576C13532.3 924.769 13539 931.411 13547.2 931.411C13555.4 931.411 13562 924.769 13562 916.576V786.271C13562 766.941 13577.7 751.271 13597 751.271H13756.1C13775.4 751.271 13791.1 766.941 13791.1 786.271V991.164H13910.5V1020.64H13795.8C13776.5 1020.64 13760.8 1004.97 13760.8 985.641V781.121H13592.6V915.193C13592.6 940.276 13572.3 960.61 13547.2 960.61C13522.1 960.61 13501.8 940.276 13501.8 915.193V750.697H13351.7V835.177C13351.7 854.507 13336.1 870.177 13316.7 870.177H13265.5C13246.2 870.177 13230.5 854.507 13230.5 835.177V636.723C13230.5 617.393 13246.2 601.723 13265.5 601.723H13562V481.814H13225.8C13200.6 481.814 13180.3 461.45 13180.3 436.331C13180.3 411.212 13200.6 390.849 13225.8 390.849H13321.7Z" fill="#F28EC0"/>
<path d="M14141.7 390.849V30.6406H14171.7V386.229C14171.7 405.604 14156 421.293 14136.6 421.229L14041.6 420.915C14033.4 420.888 14026.8 427.501 14026.8 435.669C14026.8 443.81 14033.4 450.412 14041.5 450.422L14377.3 450.84C14396.6 450.864 14412.2 466.527 14412.2 485.84V596.188C14412.2 615.517 14396.5 631.188 14377.2 631.188H14081.1V841.258H14140.7V756.039C14140.7 736.709 14156.4 721.039 14175.7 721.039H14317.3C14336.7 721.039 14352.3 736.709 14352.3 756.039V916.576C14352.3 924.769 14359 931.411 14367.2 931.411C14375.4 931.411 14382 924.769 14382 916.576V786.271C14382 766.941 14397.7 751.271 14417 751.271H14582.1C14601.4 751.271 14617.1 766.941 14617.1 786.271V991.164H14730.5V1020.64H14621.8C14602.5 1020.64 14586.8 1004.97 14586.8 985.641V781.121H14412.6V915.193C14412.6 940.276 14392.3 960.61 14367.2 960.61C14342.1 960.61 14321.8 940.276 14321.8 915.193V750.697H14171.7V835.177C14171.7 854.507 14156.1 870.177 14136.7 870.177H14085.5C14066.2 870.177 14050.5 854.507 14050.5 835.177V636.723C14050.5 617.393 14066.2 601.723 14085.5 601.723H14382V481.814H14041.8C14016.6 481.814 13996.3 461.45 13996.3 436.331C13996.3 411.212 14016.6 390.849 14041.8 390.849H14141.7Z" fill="#F28EC0"/>
<path d="M14961.7 390.849V30.6406H14991.7V386.233C14991.7 405.607 14976 421.295 14956.6 421.233L14856.6 420.913C14848.4 420.887 14841.8 427.501 14841.8 435.668C14841.8 443.809 14848.4 450.412 14856.5 450.422L15197.3 450.84C15216.6 450.864 15232.2 466.527 15232.2 485.84V596.188C15232.2 615.517 15216.5 631.188 15197.2 631.188H14901.1V841.258H14960.7V756.039C14960.7 736.709 14976.4 721.039 14995.7 721.039H15137.3C15156.7 721.039 15172.3 736.709 15172.3 756.039V916.576C15172.3 924.769 15179 931.411 15187.2 931.411C15195.4 931.411 15202 924.769 15202 916.576V786.271C15202 766.941 15217.7 751.271 15237 751.271H15407.1C15426.4 751.271 15442.1 766.941 15442.1 786.271V991.164H15550.5V1020.64H15446.8C15427.5 1020.64 15411.8 1004.97 15411.8 985.641V781.121H15232.6V915.193C15232.6 940.276 15212.3 960.61 15187.2 960.61C15162.1 960.61 15141.8 940.276 15141.8 915.193V750.697H14991.7V835.177C14991.7 854.507 14976.1 870.177 14956.7 870.177H14905.5C14886.2 870.177 14870.5 854.507 14870.5 835.177V636.723C14870.5 617.393 14886.2 601.723 14905.5 601.723H15202V481.814H14856.8C14831.6 481.814 14811.3 461.45 14811.3 436.331C14811.3 411.212 14831.6 390.849 14856.8 390.849H14961.7Z" fill="#F28EC0"/>
<path d="M15781.7 390.849V30.6406H15811.7V386.237C15811.7 405.609 15796 421.297 15776.6 421.237L15670.6 420.911C15662.4 420.886 15655.8 427.5 15655.8 435.667C15655.8 443.809 15662.4 450.412 15670.5 450.422L16017.3 450.841C16036.6 450.864 16052.2 466.527 16052.2 485.841V596.188C16052.2 615.517 16036.5 631.188 16017.2 631.188H15721.1V841.258H15780.7V756.039C15780.7 736.709 15796.4 721.039 15815.7 721.039H15957.3C15976.7 721.039 15992.3 736.709 15992.3 756.039V916.576C15992.3 924.769 15999 931.411 16007.2 931.411C16015.4 931.411 16022 924.769 16022 916.576V786.271C16022 766.941 16037.7 751.271 16057 751.271H16232.1C16251.4 751.271 16267.1 766.941 16267.1 786.271V991.164H16370.5V1020.64H16271.8C16252.5 1020.64 16236.8 1004.97 16236.8 985.641V781.121H16052.6V915.193C16052.6 940.276 16032.3 960.61 16007.2 960.61C15982.1 960.61 15961.8 940.276 15961.8 915.193V750.697H15811.7V835.177C15811.7 854.507 15796.1 870.177 15776.7 870.177H15725.5C15706.2 870.177 15690.5 854.507 15690.5 835.177V636.723C15690.5 617.393 15706.2 601.723 15725.5 601.723H16022V481.814H15670.8C15645.6 481.814 15625.3 461.45 15625.3 436.331C15625.3 411.212 15645.6 390.849 15670.8 390.849H15781.7Z" fill="#F28EC0"/>
</svg>
