<svg width="143" height="216" viewBox="0 0 143 216" fill="none" xmlns="http://www.w3.org/2000/svg">
<path d="M99 215.719H137.5C140.538 215.719 143 213.256 143 210.219C143 207.181 140.538 204.719 137.5 204.719H99V171.719C99 165.644 94.0751 160.719 88 160.719H16.5C13.4624 160.719 11 158.256 11 155.219C11 152.181 13.4624 149.719 16.5 149.719H110C116.075 149.719 121 144.794 121 138.719V116.719C121 110.644 116.075 105.719 110 105.719H55V72.7188C55 66.6436 50.0751 61.7188 44 61.7188H22V0.253906H11V61.7188C11 67.794 15.9249 72.7188 22 72.7188H44V105.719C44 111.794 48.9249 116.719 55 116.719H110V138.719H16.5C7.3873 138.719 0 146.106 0 155.219C0 164.332 7.3873 171.719 16.5 171.719H88V204.719C88 210.794 92.9249 215.719 99 215.719Z" fill="#A4DDD4"/>
</svg>
