<svg width="186" height="159" viewBox="0 0 186 159" fill="none" xmlns="http://www.w3.org/2000/svg">
<path d="M11.1222 100.979V153.069C11.1222 155.904 8.82395 158.202 5.98885 158.202C3.15376 158.202 0.855469 155.904 0.855469 153.069V100.979C0.855469 92.4741 7.75036 85.5792 16.2556 85.5792C24.7609 85.5792 31.6558 92.4741 31.6558 100.979V126.646H52.1893V75.0457C52.1893 69.5229 56.6665 65.0457 62.1893 65.0457H175.391V0.0214844H185.657V65.3125C185.657 70.8353 181.18 75.3125 175.657 75.3125H62.4561V126.913C62.4561 132.436 57.979 136.913 52.4561 136.913H31.389C25.8662 136.913 21.389 132.436 21.389 126.913V100.979C21.389 98.1443 19.0907 95.846 16.2556 95.846C13.4205 95.846 11.1222 98.1443 11.1222 100.979Z" fill="#A4DDD4"/>
</svg>
