<svg width="86" height="121" viewBox="0 0 86 121" fill="none" xmlns="http://www.w3.org/2000/svg">
<path d="M15.0839 41.3617V113.095C15.0839 116.999 11.9188 120.164 8.01459 120.164C4.11034 120.164 0.945312 116.999 0.945312 113.095V41.3617C0.945312 29.6489 10.4404 20.1538 22.1532 20.1538C33.8659 20.1538 43.361 29.6489 43.361 41.3617V76.7081H71.6381V0.078125H85.7767V76.8466C85.7767 84.5786 79.5087 90.8466 71.7767 90.8466H43.2224C35.4904 90.8466 29.2224 84.5786 29.2224 76.8466V41.3617C29.2224 37.4574 26.0574 34.2924 22.1532 34.2924C18.2489 34.2924 15.0839 37.4574 15.0839 41.3617Z" fill="#A4DDD4"/>
</svg>
