<svg width="134" height="158" viewBox="0 0 134 158" fill="none" xmlns="http://www.w3.org/2000/svg">
<path d="M113.458 136.648V152.618C113.458 155.453 111.16 157.751 108.325 157.751C105.489 157.751 103.191 155.453 103.191 152.618V136.915H41.3238C35.8009 136.915 31.3238 132.438 31.3238 126.915V105.848C31.3238 100.325 35.8009 95.8477 41.3238 95.8477H118.591C121.426 95.8477 123.725 93.5494 123.725 90.7143C123.725 87.8792 121.426 85.5809 118.591 85.5809H10.5234C5.00059 85.5809 0.523438 81.1038 0.523438 75.581V0.0214844H10.7902V75.3141H118.591C127.097 75.3141 133.991 82.209 133.991 90.7143C133.991 99.2196 127.097 106.114 118.591 106.114H41.5905V126.648H103.458C108.981 126.648 113.458 131.125 113.458 136.648Z" fill="#A4DDD4"/>
</svg>
