<svg width="66" height="107" viewBox="0 0 66 107" fill="none" xmlns="http://www.w3.org/2000/svg">
<path d="M11 57.2192V101.219C11 104.257 8.53757 106.719 5.5 106.719C2.46243 106.719 0 104.257 0 101.219V57.2192C0 48.1065 7.3873 40.7192 16.5 40.7192C25.6127 40.7192 33 48.1065 33 57.2192V73.7192H55V0.720703H66V73.7192C66 79.7944 61.0751 84.7192 55 84.7192H33C26.9249 84.7192 22 79.7944 22 73.7192V57.2192C22 54.1817 19.5376 51.7192 16.5 51.7192C13.4624 51.7192 11 54.1817 11 57.2192Z" fill="#A4DDD4"/>
</svg>
