<svg width="132" height="228" viewBox="0 0 132 228" fill="none" xmlns="http://www.w3.org/2000/svg">
<path d="M99 172.718V222.218C99 225.255 96.5376 227.718 93.5 227.718C90.4624 227.718 88 225.255 88 222.218V172.718H55C48.9249 172.718 44 167.793 44 161.718V139.718C44 133.643 48.9249 128.718 55 128.718H104.5C107.538 128.718 110 126.255 110 123.218C110 120.18 107.538 117.718 104.5 117.718H11C4.92487 117.718 0 112.793 0 106.718V40.7178C0 34.6426 4.92487 29.7178 11 29.7178H33C39.0751 29.7178 44 34.6426 44 40.7178V62.7178H121V0.867188H132V62.7175C132 68.7927 127.075 73.7175 121 73.7175H44C37.9249 73.7175 33 68.7927 33 62.7175V40.7175H11V106.718H104.5C113.613 106.718 121 114.105 121 123.218C121 132.33 113.613 139.718 104.5 139.718H55V161.718H88C94.0751 161.718 99 166.642 99 172.718Z" fill="#A4DDD4"/>
</svg>
