<svg width="245" height="354" viewBox="0 0 245 354" fill="none" xmlns="http://www.w3.org/2000/svg">
<path d="M244.999 99.7188V6.21875C244.999 3.18118 242.536 0.71875 239.499 0.71875C236.461 0.71875 233.999 3.18119 233.999 6.21875V99.7188H211.999V50.2188C211.999 41.1061 204.611 33.7188 195.499 33.7188C186.386 33.7188 178.999 41.1061 178.999 50.2188V132.719H123.999V23.8853C123.999 17.8102 119.074 12.8853 112.999 12.8853H90.9986C84.9235 12.8853 79.9986 17.8102 79.9986 23.8853V176.719H35.9986C29.9235 176.719 24.9986 181.644 24.9986 187.719V209.719C24.9986 215.794 29.9235 220.719 35.9986 220.719H140.499C143.536 220.719 145.999 223.181 145.999 226.219C145.999 229.256 143.536 231.719 140.499 231.719H90.9986C84.9235 231.719 79.9986 236.644 79.9986 242.719V286.719H11.2612C5.19652 286.719 0.275972 291.627 0.261265 297.692L0.151741 342.855C0.136983 348.94 5.06616 353.882 11.1517 353.882H11.2879V339.581V297.719H79.9986C86.0737 297.719 90.9986 292.794 90.9986 286.719V242.719H140.499C149.611 242.719 156.999 235.331 156.999 226.219C156.999 217.106 149.611 209.719 140.499 209.719H35.9986V187.719H79.9986C86.0737 187.719 90.9986 182.794 90.9986 176.719V23.8853H112.999V132.719C112.999 138.794 117.923 143.719 123.999 143.719H178.999C185.074 143.719 189.999 138.794 189.999 132.719V50.2188C189.999 47.1812 192.461 44.7188 195.499 44.7188C198.536 44.7188 200.999 47.1812 200.999 50.2188V99.7188C200.999 105.794 205.923 110.719 211.999 110.719H233.999C240.074 110.719 244.999 105.794 244.999 99.7188Z" fill="#A4DDD4"/>
</svg>
