<svg width="222" height="186" viewBox="0 0 222 186" fill="none" xmlns="http://www.w3.org/2000/svg">
<path d="M42.1204 67.1139L42.1199 5.73296C42.1199 2.89788 39.8216 0.599609 36.9865 0.599609C34.1514 0.599609 31.8531 2.89793 31.8531 5.73304L31.8535 67.1142C31.8536 75.6193 38.7483 82.514 47.2534 82.514C55.7586 82.514 62.6534 75.6192 62.6534 67.1141V46.5803C62.6534 43.7452 64.9517 41.4469 67.7868 41.4469C70.6219 41.4469 72.9202 43.7452 72.9202 46.5803V103.314C72.9202 108.837 77.3973 113.314 82.9201 113.314H103.987C109.51 113.314 113.987 108.837 113.987 103.314V31.8471H211.603V51.7138H148.371C142.848 51.7138 138.371 56.191 138.371 61.7138V133.848H47.2538C38.7485 133.848 31.8536 140.743 31.8536 149.248C31.8536 157.753 38.7485 164.648 47.2538 164.648H108.854C111.689 164.648 113.987 166.946 113.987 169.782C113.987 172.617 111.689 174.915 108.854 174.915H0V185.182H108.854C117.36 185.182 124.255 178.287 124.255 169.782C124.255 161.276 117.36 154.381 108.854 154.381H47.2538C44.4187 154.381 42.1204 152.083 42.1204 149.248C42.1204 146.413 44.4187 144.115 47.2538 144.115L138.638 144.115C144.16 144.115 148.638 139.638 148.638 134.115V61.9806H211.87C217.393 61.9806 221.87 57.5035 221.87 51.9806V31.5804C221.87 26.0575 217.393 21.5804 211.87 21.5804H113.721C108.198 21.5804 103.721 26.0575 103.721 31.5803V103.048H83.1875V46.5803C83.1875 38.075 76.2926 31.1801 67.7873 31.1801C59.2821 31.1801 52.3872 38.075 52.3872 46.5803V67.1138C52.3872 69.9489 50.0889 72.2472 47.2538 72.2472C44.4187 72.2472 42.1204 69.949 42.1204 67.1139Z" fill="#A4DDD4"/>
</svg>
