<svg width="129" height="279" viewBox="0 0 129 279" fill="none" xmlns="http://www.w3.org/2000/svg">
<path d="M80.7823 20.4843H85.7237H124C126.761 20.4843 129 18.2457 129 15.4843V3.18943C129 1.82491 127.894 0.71875 126.529 0.71875C125.165 0.71875 124.059 1.82491 124.059 3.18943V15.5429H90.6651H80.841C78.0796 15.5429 75.841 17.7815 75.841 20.5429V60.0153H60.2084V11.1842C60.2084 8.42275 57.9698 6.18418 55.2084 6.18418H45.443C42.6816 6.18418 40.443 8.42275 40.443 11.1842V79.7809H10.0163C7.25491 79.7809 5.01633 82.0194 5.01633 84.7809V94.5464C5.01633 97.3078 7.25491 99.5464 10.0163 99.5464H108.72C110.084 99.5464 111.19 100.653 111.19 102.017C111.19 103.382 110.084 104.488 108.72 104.488H70.9198C68.1585 104.488 65.92 106.726 65.9198 109.487L65.9177 141.163L5.18417 140.777C2.41036 140.76 0.152387 143.004 0.15244 145.777L0.15487 273.146C0.154922 275.875 2.36728 278.087 5.09635 278.087L5.09373 145.687L65.8277 146.072C68.6014 146.09 70.8593 143.846 70.8594 141.073L70.8615 109.429H108.72C112.813 109.429 116.132 106.111 116.132 102.017C116.132 97.9235 112.813 94.605 108.72 94.605H9.95773V84.7222H40.3844C43.1458 84.7222 45.3844 82.4837 45.3844 79.7222V11.1256H55.267V59.9567C55.267 62.7181 57.5056 64.9567 60.267 64.9567H75.7823C78.5438 64.9567 80.7823 62.7181 80.7823 59.9567V20.4843Z" fill="#A4DDD4"/>
</svg>
