<svg width="306" height="228" viewBox="0 0 306 228" fill="none" xmlns="http://www.w3.org/2000/svg">
<path d="M58.0047 64.6822L58.0041 7.88171C58.004 3.97748 54.839 0.8125 50.9348 0.8125C47.0305 0.8125 43.8655 3.97757 43.8655 7.88185L43.866 64.6826C43.8661 76.3952 53.361 85.89 65.0736 85.89C76.7862 85.89 86.2811 76.3951 86.2811 64.6824V36.4051C86.2811 32.5008 89.4461 29.3358 93.3504 29.3358C97.2546 29.3358 100.42 32.5008 100.42 36.405V114.306C100.42 122.038 106.688 128.306 114.42 128.306H142.974C150.706 128.306 156.974 122.038 156.974 114.306V43.4743H291.402V70.8331H204.553C196.821 70.8331 190.553 77.1012 190.553 84.8332V156.583H65.074C53.3613 156.583 43.8662 166.078 43.8662 177.791C43.8662 189.503 53.3613 198.998 65.074 198.998H149.905C153.809 198.998 156.974 202.163 156.974 206.068C156.974 209.972 153.809 213.137 149.905 213.137H0V227.276H149.905C161.618 227.276 171.113 217.781 171.113 206.068C171.113 194.355 161.618 184.86 149.905 184.86H65.074C61.1698 184.86 58.0048 181.695 58.0048 177.791C58.0048 173.886 61.1698 170.721 65.0741 170.721L190.692 170.722C198.424 170.722 204.692 164.454 204.692 156.722V84.9717H291.542C299.274 84.9717 305.542 78.7036 305.542 70.9717V43.3358C305.542 35.6038 299.274 29.3358 291.542 29.3358H156.836C149.104 29.3358 142.836 35.6038 142.836 43.3358V114.167H114.559V36.4051C114.559 24.6923 105.064 15.1972 93.3512 15.1972C81.6384 15.1972 72.1433 24.6923 72.1433 36.4051V64.6821C72.1433 68.5864 68.9783 71.7514 65.074 71.7514C61.1698 71.7514 58.0047 68.5865 58.0047 64.6822Z" fill="#A4DDD4"/>
</svg>
