<svg width="122" height="136" viewBox="0 0 122 136" fill="none" xmlns="http://www.w3.org/2000/svg">
<path d="M45.1992 33.2188V60.7188H5.19922V50.7188H30.1992C32.9606 50.7188 35.1992 48.4802 35.1992 45.7188V3.21875C35.1992 1.83804 34.0799 0.71875 32.6992 0.71875C31.3185 0.71875 30.1992 1.83804 30.1992 3.21875V45.7188H5.19922C2.4378 45.7188 0.199219 47.9573 0.199219 50.7188V60.7188C0.199219 63.4802 2.4378 65.7188 5.19922 65.7188H45.1992C47.9606 65.7188 50.1992 63.4802 50.1992 60.7188V33.2149C50.1992 31.8363 51.3168 30.7188 52.6954 30.7188C54.077 30.7188 55.1958 31.841 55.1916 33.2225L55 96.0206H37.5483C33.4895 96.0206 30.1992 99.3109 30.1992 103.37C30.1992 107.428 33.4895 110.719 37.5483 110.719H60.1992V130.719C60.1992 133.48 62.4378 135.719 65.1992 135.719H121.497V130.719H65.1992L65.8319 111.293C65.9238 108.469 63.6597 106.13 60.8345 106.13H37.7057C36.2114 106.13 35 104.919 35 103.424C35 101.93 36.2114 100.719 37.7057 100.719H55.1992C57.9606 100.719 60.1992 98.4802 60.1992 95.7188V33.2188C60.1992 29.0766 56.8414 25.7188 52.6992 25.7188C48.5571 25.7188 45.1992 29.0766 45.1992 33.2188Z" fill="#A4DDD4"/>
</svg>
