<svg width="304" height="298" viewBox="0 0 304 298" fill="none" xmlns="http://www.w3.org/2000/svg">
<path d="M110 72.2188V132.719H33V110.719H66C72.0751 110.719 77 105.794 77 99.7188V66.7188C77 60.6436 72.0751 55.7188 66 55.7188H11V33.7188H88C94.0751 33.7188 99 28.7939 99 22.7188V6.21875C99 3.18118 96.5376 0.71875 93.5 0.71875C90.4624 0.71875 88 3.18118 88 6.21875V22.7188H11C4.92487 22.7188 0 27.6436 0 33.7188V55.7188C0 61.7939 4.92487 66.7188 11 66.7188H66V99.7188H33C26.9249 99.7188 22 104.644 22 110.719V132.719C22 138.794 26.9249 143.719 33 143.719H110C116.075 143.719 121 138.794 121 132.719V72.2188C121 69.1812 123.462 66.7188 126.5 66.7188C129.538 66.7188 132 69.1812 132 72.2188V209.719C132 215.794 136.925 220.719 143 220.719H209V242.719H165C158.925 242.719 154 247.644 154 253.719V286.719C154 292.794 158.925 297.719 165 297.719H304V286.719H165V253.719H209C215.075 253.719 220 248.794 220 242.719V220.719C220 214.644 215.075 209.719 209 209.719H143V72.2188C143 63.1061 135.613 55.7188 126.5 55.7188C117.387 55.7188 110 63.1061 110 72.2188Z" fill="#A4DDD4"/>
</svg>
