<svg width="388" height="186" viewBox="0 0 388 186" fill="none" xmlns="http://www.w3.org/2000/svg">
<path d="M10.9999 111.974L10.9999 175.021V185.288H10.6102C5.09623 185.288 0.622752 180.825 0.610246 175.311L0.468045 112.614C0.455498 107.082 4.93633 102.591 10.468 102.591H154.452V46.2807C154.452 37.5721 161.512 30.5124 170.221 30.5124C178.929 30.5124 185.989 37.5721 185.989 46.2807V71.3359L240.076 71.3358V18.754C240.076 13.2311 244.553 8.75397 250.076 8.75397H271.64C277.163 8.75397 281.64 13.2311 281.64 18.754V92.2313L326.317 92.2313V40.5124C326.317 34.9895 330.794 30.5124 336.317 30.5124H377.782V4.92909C377.782 2.25645 379.948 0.0898438 382.621 0.0898438C385.294 0.0898438 387.46 2.25645 387.46 4.9291V31.5004C387.46 37.0232 382.983 41.5004 377.46 41.5004H336.619V92.5913C336.619 98.1141 332.142 102.591 326.619 102.591L281.249 102.591C275.726 102.591 271.249 98.1141 271.249 92.5913V92.2313V20.0356H250.467V71.3358V71.6958C250.467 77.2186 245.99 81.6958 240.467 81.6958L186.043 81.6958C180.52 81.6958 176.043 77.2187 176.043 71.6958V45.8888C176.043 42.8745 173.599 40.431 170.585 40.431C167.571 40.431 165.127 42.8745 165.127 45.8888V101.974C165.127 107.497 160.65 111.974 155.127 111.974H10.9999Z" fill="#A4DDD4"/>
</svg>
