<svg width="534" height="200" viewBox="0 0 534 200" fill="none" xmlns="http://www.w3.org/2000/svg">
<path d="M47.8129 199.525H14.7362C7.0243 199.525 0.764653 193.289 0.736287 185.577L0.580982 143.355C0.552468 135.603 6.82879 129.303 14.5809 129.303H212.615V51.7569C212.615 39.7641 222.337 30.042 234.33 30.042C246.323 30.042 256.045 39.7641 256.045 51.7569V86.2608L330.529 86.2607V14.0781C330.529 6.34614 336.797 0.078125 344.529 0.078125H373.767C381.499 0.078125 387.767 6.34612 387.767 14.0781V115.036L449.293 115.036V44.042C449.293 36.3101 455.561 30.042 463.293 30.042H520.166V20.1626C520.166 16.482 523.15 13.4983 526.83 13.4983C530.511 13.4983 533.494 16.482 533.494 20.1626V31.1738C533.494 38.9058 527.226 45.1738 519.494 45.1738H463.481V115.303C463.481 123.035 457.213 129.303 449.481 129.303L387.458 129.303C379.726 129.303 373.458 123.035 373.458 115.303V115.036V15.6143H344.839V86.2607V86.5276C344.839 94.2596 338.571 100.528 330.839 100.528L256.348 100.528C248.616 100.528 242.348 94.2597 242.348 86.5277V51.2172C242.348 47.0662 238.983 43.7012 234.832 43.7012C230.681 43.7012 227.316 47.0662 227.316 51.2172V128.224C227.316 135.956 221.048 142.224 213.316 142.224H15.0642V185.387H47.8129C51.7172 185.387 54.8822 188.552 54.8822 192.456C54.8822 196.36 51.7172 199.525 47.8129 199.525Z" fill="#A4DDD4"/>
</svg>
