<svg width="485" height="206" viewBox="0 0 485 206" fill="none" xmlns="http://www.w3.org/2000/svg">
<path d="M260.727 19.448H210.128H199.861V165.295C199.861 170.818 195.384 175.295 189.861 175.295H78.5295C73.0066 175.295 68.5295 170.818 68.5295 165.295V128.847C68.5295 126.012 66.2312 123.714 63.3961 123.714C60.561 123.714 58.2627 126.012 58.2627 128.847V195.465C58.2627 200.988 53.7856 205.465 48.2627 205.465H10.3984C4.87559 205.465 0.398438 200.988 0.398438 195.465V106.787C0.398438 103.805 2.81602 101.387 5.79825 101.387C8.78048 101.387 11.1981 103.805 11.1981 106.787V195.198H47.9959V128.848C47.9959 120.342 54.8908 113.447 63.3961 113.447C71.9014 113.447 78.7963 120.342 78.7963 128.847V165.028H189.594V19.1812C189.594 13.6583 194.071 9.18118 199.594 9.18118H210.128H260.994C266.517 9.18118 270.994 13.6583 270.994 19.1812V40.2483C270.994 45.7711 266.517 50.2483 260.994 50.2483H235.06C232.225 50.2483 229.927 52.5466 229.927 55.3817C229.927 58.2168 232.225 60.515 235.06 60.515H322.328V10.5527C322.328 5.02989 326.805 0.552734 332.328 0.552734H363.65C369.177 0.552734 373.656 5.03709 373.65 10.5646L373.579 70.7818L484.706 70.7818V81.0486H373.395C367.872 81.0486 363.395 76.5714 363.395 71.0486V10.8195H332.595V60.7818C332.595 66.3047 328.118 70.7818 322.595 70.7818H235.06C226.555 70.7818 219.66 63.8869 219.66 55.3817C219.66 46.8764 226.555 39.9815 235.06 39.9815H260.727V19.448Z" fill="#A4DDD4"/>
</svg>
