<svg width="160" height="211" viewBox="0 0 160 211" fill="none" xmlns="http://www.w3.org/2000/svg">
<path d="M22 11.7188H5.5C2.46243 11.7188 0 9.25632 0 6.21875C0 3.18118 2.46243 0.71875 5.5 0.71875H22C28.0751 0.71875 33 5.64362 33 11.7188V110.719H55V39.2188C55 30.1061 62.3873 22.7188 71.5 22.7188C80.6127 22.7188 88 30.1061 88 39.2188V199.906H159.061V210.906H88C81.9249 210.906 77 205.981 77 199.906V39.2188C77 36.1812 74.5376 33.7188 71.5 33.7188C68.4624 33.7188 66 36.1812 66 39.2188V110.719C66 116.794 61.0751 121.719 55 121.719H33C26.9249 121.719 22 116.794 22 110.719V11.7188Z" fill="#A4DDD4"/>
</svg>
