<svg width="668" height="256" viewBox="0 0 668 256" fill="none" xmlns="http://www.w3.org/2000/svg">
<path d="M359.15 26.0541H289.468H275.33V212.133C275.33 219.865 269.062 226.133 261.33 226.133H108.471C100.739 226.133 94.471 219.865 94.471 212.133V190.439C94.471 186.534 91.306 183.369 87.4017 183.369C83.4974 183.369 80.3324 186.534 80.3324 190.439V241.506C80.3324 249.238 74.0644 255.506 66.3324 255.506H14.6465C6.91448 255.506 0.646484 249.238 0.646484 241.506V145.15C0.646484 141.043 3.97577 137.714 8.08266 137.714C12.1895 137.714 15.5188 141.043 15.5188 145.15V241.367H66.1939V190.439C66.1939 178.726 75.6889 169.231 87.4017 169.231C99.1145 169.231 108.61 178.726 108.61 190.439V211.995H261.191V25.9156C261.191 18.1836 267.459 11.9156 275.191 11.9156H289.468H359.289C367.021 11.9156 373.289 18.1836 373.289 25.9156V54.4698C373.289 62.2018 367.021 68.4698 359.289 68.4698H323.804C319.899 68.4698 316.734 71.6349 316.734 75.5391C316.734 79.4434 319.899 82.6084 323.804 82.6084H443.981V14.0332C443.981 6.30122 450.249 0.0332031 457.981 0.0332031H500.651C508.392 0.0332031 514.664 6.31516 514.651 14.0561L514.56 70.0311L667.596 70.0311V84.1697H514.536C506.804 84.1697 500.536 77.9016 500.536 70.1697V14.1718H458.12V82.7469C458.12 90.4789 451.852 96.7469 444.12 96.7469H323.804C312.091 96.7469 302.596 87.2519 302.596 75.5391C302.596 63.8263 312.091 54.3313 323.804 54.3313H359.15V26.0541Z" fill="#A4DDD4"/>
</svg>
