<svg width="199" height="71" viewBox="0 0 199 71" fill="none" xmlns="http://www.w3.org/2000/svg">
<path fill-rule="evenodd" clip-rule="evenodd" d="M138.419 0.660156C132.018 0.660156 126.828 5.84964 126.828 12.2512V66.8673C126.828 68.9813 128.542 70.6951 130.656 70.6951V70.6951C132.77 70.6951 134.484 68.9813 134.484 66.8673V39.5055H157.167V66.5837C157.167 68.8544 159.008 70.6951 161.279 70.6951V70.6951C163.549 70.6951 165.39 68.8544 165.39 66.5837V39.5055V39.5055C165.39 34.9931 161.732 31.3351 157.22 31.3351H150.01V12.2512C150.01 5.84964 144.821 0.660156 138.419 0.660156V0.660156ZM134.484 31.3351V11.7136C134.484 9.7064 136.111 8.0792 138.118 8.0792V8.0792C140.125 8.0792 141.753 9.7064 141.753 11.7136V31.3351H134.484Z" fill="black"/>
<path fill-rule="evenodd" clip-rule="evenodd" d="M95.1467 65.8898V31.0498H110.671V65.8898C110.671 68.0332 112.408 69.7708 114.552 69.7708C116.695 69.7708 118.433 68.0332 118.433 65.8898V7.7639C118.433 3.4771 114.957 0.00195312 110.671 0.00195312H95.1467C90.8599 0.00195312 87.3848 3.4771 87.3848 7.7639V65.8898C87.3848 68.0332 89.1223 69.7708 91.2657 69.7708C93.4091 69.7708 95.1467 68.0332 95.1467 65.8898ZM95.1467 23.2878V7.7639H110.671V23.2878H95.1467Z" fill="black"/>
<path d="M56.9277 8.10113L44.6063 8.10122C42.4603 8.10123 40.7207 6.3616 40.7207 4.21565C40.7207 2.06971 42.4603 0.330078 44.6063 0.330078H75.9975C78.1434 0.330078 79.8831 2.06971 79.8831 4.21565C79.8831 6.3616 78.1434 8.10123 75.9975 8.10122L64.6988 8.10113V66.3849C64.6988 68.5308 62.9592 70.2705 60.8133 70.2705C58.6673 70.2705 56.9277 68.5308 56.9277 66.3849V8.10113Z" fill="black"/>
<path d="M175.664 8.10113L163.343 8.10122C161.197 8.10123 159.457 6.3616 159.457 4.21565C159.457 2.06971 161.197 0.330078 163.343 0.330078H194.734C196.88 0.330078 198.619 2.06971 198.619 4.21565C198.619 6.3616 196.88 8.10123 194.734 8.10122L183.435 8.10113V66.3849C183.435 68.5308 181.696 70.2705 179.55 70.2705C177.404 70.2705 175.664 68.5308 175.664 66.3849V8.10113Z" fill="black"/>
<path d="M25.1769 62.4994L25.1776 39.1859H8.45151C4.15961 39.1859 0.680339 35.7067 0.680339 31.4148V8.10125C0.680339 3.80935 4.15961 0.330078 8.45151 0.330078H29.0631C31.2091 0.330078 32.9487 2.06971 32.9487 4.21566C32.9487 6.36161 31.2091 8.10125 29.0631 8.10125H8.45151V31.4148H25.1776C29.4694 31.4148 32.9487 34.8941 32.9486 39.1859L32.9482 62.4994C32.9481 66.791 29.4691 70.2706 25.1776 70.2706H4.56527C2.41932 70.2706 0.679688 68.531 0.679688 66.385C0.679688 64.2391 2.41933 62.4994 4.56528 62.4994H25.1769Z" fill="black"/>
</svg>
