<svg width="4401" height="400" viewBox="0 0 4401 400" fill="none" xmlns="http://www.w3.org/2000/svg">
<path d="M90.631 180H140.631V110V40H110.631V20H140.631C151.677 20 160.631 28.9543 160.631 40V110V180C160.631 191.046 151.677 200 140.631 200H90.631C85.1082 200 80.631 204.477 80.631 210V210.299C80.631 215.657 84.9745 220 90.3324 220C106.406 220 119.436 233.03 119.436 249.104V250C119.436 266.569 106.005 280 89.4363 280H40.631V360H200.631V380H40.631C29.5853 380 20.631 371.046 20.631 360V280C20.631 268.954 29.5854 260 40.6311 260H89.4363C94.9591 260 99.4363 255.523 99.4363 250V249.701C99.4363 244.343 95.0929 240 89.735 240C73.6613 240 60.631 226.97 60.631 210.896V210C60.631 193.431 74.0625 180 90.631 180Z" fill="#F28EC0"/>
<path d="M310.631 180H360.631V110V40H330.631V20H360.631C371.677 20 380.631 28.9543 380.631 40V110V180C380.631 191.046 371.677 200 360.631 200H310.631C305.108 200 300.631 204.477 300.631 210C300.631 215.523 305.108 220 310.631 220H312.436C329.005 220 342.436 233.431 342.436 250C342.436 266.569 329.005 280 312.436 280H260.631V360H420.631V380H260.631C249.585 380 240.631 371.046 240.631 360V280C240.631 268.954 249.585 260 260.631 260H312.436C317.959 260 322.436 255.523 322.436 250C322.436 244.477 317.959 240 312.436 240H310.631C294.062 240 280.631 226.569 280.631 210C280.631 193.431 294.062 180 310.631 180Z" fill="#F28EC0"/>
<path d="M530.631 180H580.631V110V40H550.631V20H580.631C591.677 20 600.631 28.9543 600.631 40V110V180C600.631 191.046 591.677 200 580.631 200H530.631C525.108 200 520.631 204.477 520.631 210C520.631 215.523 525.108 220 530.631 220H535.436C552.005 220 565.436 233.431 565.436 250C565.436 266.569 552.005 280 535.436 280H480.631V360H640.631V380H480.631C469.585 380 460.631 371.046 460.631 360V280C460.631 268.954 469.585 260 480.631 260H535.436C540.959 260 545.436 255.523 545.436 250C545.436 244.477 540.959 240 535.436 240H530.631C514.063 240 500.631 226.569 500.631 210C500.631 193.431 514.063 180 530.631 180Z" fill="#F28EC0"/>
<path d="M750.631 180H800.631V110V40H770.631V20H800.631C811.677 20 820.631 28.9543 820.631 40V110V180C820.631 191.046 811.677 200 800.631 200H750.631C745.108 200 740.631 204.477 740.631 210C740.631 215.523 745.108 220 750.631 220H758.436C775.005 220 788.436 233.431 788.436 250C788.436 266.569 775.005 280 758.436 280H700.631V360H860.631V380H700.631C689.585 380 680.631 371.046 680.631 360V280C680.631 268.954 689.585 260 700.631 260H758.436C763.959 260 768.436 255.523 768.436 250C768.436 244.477 763.959 240 758.436 240H750.631C734.063 240 720.631 226.569 720.631 210C720.631 193.431 734.063 180 750.631 180Z" fill="#F28EC0"/>
<path d="M970.631 180H1020.63V110V40H990.631V20H1020.63C1031.68 20 1040.63 28.9543 1040.63 40V110V180C1040.63 191.046 1031.68 200 1020.63 200H970.631C965.108 200 960.631 204.477 960.631 210C960.631 215.523 965.108 220 970.631 220H981.436C998.005 220 1011.44 233.431 1011.44 250C1011.44 266.569 998.005 280 981.436 280H920.631V360H1080.63V380H920.631C909.585 380 900.631 371.046 900.631 360V280C900.631 268.954 909.585 260 920.631 260H981.436C986.959 260 991.436 255.523 991.436 250C991.436 244.477 986.959 240 981.436 240H970.631C954.063 240 940.631 226.569 940.631 210C940.631 193.431 954.063 180 970.631 180Z" fill="#F28EC0"/>
<path d="M1190.63 180H1240.63V110V40H1210.63V20H1240.63C1251.68 20 1260.63 28.9543 1260.63 40V110V180C1260.63 191.046 1251.68 200 1240.63 200H1190.63C1185.11 200 1180.63 204.477 1180.63 210C1180.63 215.523 1185.11 220 1190.63 220H1204.44C1221 220 1234.44 233.431 1234.44 250C1234.44 266.569 1221 280 1204.44 280H1140.63V360H1300.63V380H1140.63C1129.59 380 1120.63 371.046 1120.63 360V280C1120.63 268.954 1129.59 260 1140.63 260H1204.44C1209.96 260 1214.44 255.523 1214.44 250C1214.44 244.477 1209.96 240 1204.44 240H1190.63C1174.06 240 1160.63 226.569 1160.63 210C1160.63 193.431 1174.06 180 1190.63 180Z" fill="#F28EC0"/>
<path d="M1410.63 180H1460.63V110V40H1430.63V20H1460.63C1471.68 20 1480.63 28.9543 1480.63 40V110V180C1480.63 191.046 1471.68 200 1460.63 200H1410.63C1405.11 200 1400.63 204.477 1400.63 210C1400.63 215.523 1405.11 220 1410.63 220H1427.44C1444 220 1457.44 233.431 1457.44 250C1457.44 266.569 1444 280 1427.44 280H1360.63V360H1520.63V380H1360.63C1349.59 380 1340.63 371.046 1340.63 360V280C1340.63 268.954 1349.59 260 1360.63 260H1427.44C1432.96 260 1437.44 255.523 1437.44 250C1437.44 244.477 1432.96 240 1427.44 240H1410.63C1394.06 240 1380.63 226.569 1380.63 210C1380.63 193.431 1394.06 180 1410.63 180Z" fill="#F28EC0"/>
<path d="M1630.63 180H1680.63V110V40H1650.63V20H1680.63C1691.68 20 1700.63 28.9543 1700.63 40V110V180C1700.63 191.046 1691.68 200 1680.63 200H1630.63C1625.11 200 1620.63 204.477 1620.63 210C1620.63 215.523 1625.11 220 1630.63 220H1650.44C1667 220 1680.44 233.431 1680.44 250C1680.44 266.569 1667 280 1650.44 280H1580.63V360H1740.63V380H1580.63C1569.59 380 1560.63 371.046 1560.63 360V280C1560.63 268.954 1569.59 260 1580.63 260H1650.44C1655.96 260 1660.44 255.523 1660.44 250C1660.44 244.477 1655.96 240 1650.44 240H1630.63C1614.06 240 1600.63 226.569 1600.63 210C1600.63 193.431 1614.06 180 1630.63 180Z" fill="#F28EC0"/>
<path d="M1850.63 180H1900.63V110V40H1870.63V20H1900.63C1911.68 20 1920.63 28.9543 1920.63 40V110V180C1920.63 191.046 1911.68 200 1900.63 200H1850.63C1845.11 200 1840.63 204.477 1840.63 210C1840.63 215.523 1845.11 220 1850.63 220H1873.44C1890 220 1903.44 233.431 1903.44 250C1903.44 266.569 1890 280 1873.44 280H1800.63V360H1960.63V380H1800.63C1789.59 380 1780.63 371.046 1780.63 360V280C1780.63 268.954 1789.59 260 1800.63 260H1873.44C1878.96 260 1883.44 255.523 1883.44 250C1883.44 244.477 1878.96 240 1873.44 240H1850.63C1834.06 240 1820.63 226.569 1820.63 210C1820.63 193.431 1834.06 180 1850.63 180Z" fill="#F28EC0"/>
<path d="M2070.63 180H2120.63V110V40H2090.63V20H2120.63C2131.68 20 2140.63 28.9543 2140.63 40V110V180C2140.63 191.046 2131.68 200 2120.63 200H2070.63C2065.11 200 2060.63 204.477 2060.63 210C2060.63 215.523 2065.11 220 2070.63 220H2096.44C2113 220 2126.44 233.431 2126.44 250C2126.44 266.569 2113 280 2096.44 280H2020.63V360H2180.63V380H2020.63C2009.59 380 2000.63 371.046 2000.63 360V280C2000.63 268.954 2009.59 260 2020.63 260H2096.44C2101.96 260 2106.44 255.523 2106.44 250C2106.44 244.477 2101.96 240 2096.44 240H2070.63C2054.06 240 2040.63 226.569 2040.63 210C2040.63 193.431 2054.06 180 2070.63 180Z" fill="#F28EC0"/>
<path d="M2290.63 180H2340.63V110V40H2310.63V20H2340.63C2351.68 20 2360.63 28.9543 2360.63 40V110V180C2360.63 191.046 2351.68 200 2340.63 200H2290.63C2285.11 200 2280.63 204.477 2280.63 210C2280.63 215.523 2285.11 220 2290.63 220H2319.44C2336 220 2349.44 233.431 2349.44 250C2349.44 266.569 2336 280 2319.44 280H2240.63V360H2400.63V380H2240.63C2229.59 380 2220.63 371.046 2220.63 360V280C2220.63 268.954 2229.59 260 2240.63 260H2319.44C2324.96 260 2329.44 255.523 2329.44 250C2329.44 244.477 2324.96 240 2319.44 240H2290.63C2274.06 240 2260.63 226.569 2260.63 210C2260.63 193.431 2274.06 180 2290.63 180Z" fill="#F28EC0"/>
<path d="M2510.63 180H2560.63V110V40H2530.63V20H2560.63C2571.68 20 2580.63 28.9543 2580.63 40V110V180C2580.63 191.046 2571.68 200 2560.63 200H2510.63C2505.11 200 2500.63 204.477 2500.63 210C2500.63 215.523 2505.11 220 2510.63 220H2542.44C2559 220 2572.44 233.431 2572.44 250C2572.44 266.569 2559 280 2542.44 280H2460.63V360H2620.63V380H2460.63C2449.59 380 2440.63 371.046 2440.63 360V280C2440.63 268.954 2449.59 260 2460.63 260H2542.44C2547.96 260 2552.44 255.523 2552.44 250C2552.44 244.477 2547.96 240 2542.44 240H2510.63C2494.06 240 2480.63 226.569 2480.63 210C2480.63 193.431 2494.06 180 2510.63 180Z" fill="#F28EC0"/>
<path d="M2730.63 180H2780.63V110V40H2750.63V20H2780.63C2791.68 20 2800.63 28.9543 2800.63 40V110V180C2800.63 191.046 2791.68 200 2780.63 200H2730.63C2725.11 200 2720.63 204.477 2720.63 210C2720.63 215.523 2725.11 220 2730.63 220H2765.44C2782 220 2795.44 233.431 2795.44 250C2795.44 266.569 2782 280 2765.44 280H2680.63V360H2840.63V380H2680.63C2669.59 380 2660.63 371.046 2660.63 360V280C2660.63 268.954 2669.59 260 2680.63 260H2765.44C2770.96 260 2775.44 255.523 2775.44 250C2775.44 244.477 2770.96 240 2765.44 240H2730.63C2714.06 240 2700.63 226.569 2700.63 210C2700.63 193.431 2714.06 180 2730.63 180Z" fill="#F28EC0"/>
<path d="M2950.63 180H3000.63V110V40H2970.63V20H3000.63C3011.68 20 3020.63 28.9543 3020.63 40V110V180C3020.63 191.046 3011.68 200 3000.63 200H2950.63C2945.11 200 2940.63 204.477 2940.63 210C2940.63 215.523 2945.11 220 2950.63 220H2988.44C3005 220 3018.44 233.431 3018.44 250C3018.44 266.569 3005 280 2988.44 280H2900.63V360H3060.63V380H2900.63C2889.59 380 2880.63 371.046 2880.63 360V280C2880.63 268.954 2889.59 260 2900.63 260H2988.44C2993.96 260 2998.44 255.523 2998.44 250C2998.44 244.477 2993.96 240 2988.44 240H2950.63C2934.06 240 2920.63 226.569 2920.63 210C2920.63 193.431 2934.06 180 2950.63 180Z" fill="#F28EC0"/>
<path d="M3170.63 180H3220.63V110V40H3190.63V20H3220.63C3231.68 20 3240.63 28.9543 3240.63 40V110V180C3240.63 191.046 3231.68 200 3220.63 200H3170.63C3165.11 200 3160.63 204.477 3160.63 210C3160.63 215.523 3165.11 220 3170.63 220H3211.44C3228 220 3241.44 233.431 3241.44 250C3241.44 266.569 3228 280 3211.44 280H3120.63V360H3280.63V380H3120.63C3109.59 380 3100.63 371.046 3100.63 360V280C3100.63 268.954 3109.59 260 3120.63 260H3211.44C3216.96 260 3221.44 255.523 3221.44 250C3221.44 244.477 3216.96 240 3211.44 240H3170.63C3154.06 240 3140.63 226.569 3140.63 210C3140.63 193.431 3154.06 180 3170.63 180Z" fill="#F28EC0"/>
<path d="M3390.63 180H3440.63V110V40H3410.63V20H3440.63C3451.68 20 3460.63 28.9543 3460.63 40V110V180C3460.63 191.046 3451.68 200 3440.63 200H3390.63C3385.11 200 3380.63 204.477 3380.63 210C3380.63 215.523 3385.11 220 3390.63 220H3434.44C3451 220 3464.44 233.431 3464.44 250C3464.44 266.569 3451 280 3434.44 280H3340.63V360H3500.63V380H3340.63C3329.59 380 3320.63 371.046 3320.63 360V280C3320.63 268.954 3329.59 260 3340.63 260H3434.44C3439.96 260 3444.44 255.523 3444.44 250C3444.44 244.477 3439.96 240 3434.44 240H3390.63C3374.06 240 3360.63 226.569 3360.63 210C3360.63 193.431 3374.06 180 3390.63 180Z" fill="#F28EC0"/>
<path d="M3610.63 180H3660.63V110V40H3630.63V20H3660.63C3671.68 20 3680.63 28.9543 3680.63 40V110V180C3680.63 191.046 3671.68 200 3660.63 200H3610.63C3605.11 200 3600.63 204.477 3600.63 210C3600.63 215.523 3605.11 220 3610.63 220H3657.44C3674 220 3687.44 233.431 3687.44 250C3687.44 266.569 3674 280 3657.44 280H3560.63V360H3720.63V380H3560.63C3549.59 380 3540.63 371.046 3540.63 360V280C3540.63 268.954 3549.59 260 3560.63 260H3657.44C3662.96 260 3667.44 255.523 3667.44 250C3667.44 244.477 3662.96 240 3657.44 240H3610.63C3594.06 240 3580.63 226.569 3580.63 210C3580.63 193.431 3594.06 180 3610.63 180Z" fill="#F28EC0"/>
<path d="M3830.63 180H3880.63V110V40H3850.63V20H3880.63C3891.68 20 3900.63 28.9543 3900.63 40V110V180C3900.63 191.046 3891.68 200 3880.63 200H3830.63C3825.11 200 3820.63 204.477 3820.63 210C3820.63 215.523 3825.11 220 3830.63 220H3880.44C3897 220 3910.44 233.431 3910.44 250C3910.44 266.569 3897 280 3880.44 280H3780.63V360H3940.63V380H3780.63C3769.59 380 3760.63 371.046 3760.63 360V280C3760.63 268.954 3769.59 260 3780.63 260H3880.44C3885.96 260 3890.44 255.523 3890.44 250C3890.44 244.477 3885.96 240 3880.44 240H3830.63C3814.06 240 3800.63 226.569 3800.63 210C3800.63 193.431 3814.06 180 3830.63 180Z" fill="#F28EC0"/>
<path d="M4050.63 180H4100.63V110V40H4070.63V20H4100.63C4111.68 20 4120.63 28.9543 4120.63 40V110V180C4120.63 191.046 4111.68 200 4100.63 200H4050.63C4045.11 200 4040.63 204.477 4040.63 210C4040.63 215.523 4045.11 220 4050.63 220H4103.44C4120 220 4133.44 233.431 4133.44 250C4133.44 266.569 4120 280 4103.44 280H4000.63V360H4160.63V380H4000.63C3989.59 380 3980.63 371.046 3980.63 360V280C3980.63 268.954 3989.59 260 4000.63 260H4103.44C4108.96 260 4113.44 255.523 4113.44 250C4113.44 244.477 4108.96 240 4103.44 240H4050.63C4034.06 240 4020.63 226.569 4020.63 210C4020.63 193.431 4034.06 180 4050.63 180Z" fill="#F28EC0"/>
<path d="M4270.63 180H4320.63V110V40H4290.63V20H4320.63C4331.68 20 4340.63 28.9543 4340.63 40V110V180C4340.63 191.046 4331.68 200 4320.63 200H4270.63C4265.11 200 4260.63 204.477 4260.63 210C4260.63 215.523 4265.11 220 4270.63 220H4326.44C4343 220 4356.44 233.431 4356.44 250C4356.44 266.569 4343 280 4326.44 280H4220.63V360H4380.63V380H4220.63C4209.59 380 4200.63 371.046 4200.63 360V280C4200.63 268.954 4209.59 260 4220.63 260H4326.44C4331.96 260 4336.44 255.523 4336.44 250C4336.44 244.477 4331.96 240 4326.44 240H4270.63C4254.06 240 4240.63 226.569 4240.63 210C4240.63 193.431 4254.06 180 4270.63 180Z" fill="#F28EC0"/>
</svg>
