<svg width="5600" height="220" viewBox="0 0 5600 220" fill="none" xmlns="http://www.w3.org/2000/svg">
<path d="M140 80H61.9462C45.3777 80 31.9462 66.5685 31.9462 50C31.9462 33.4315 45.3777 20 61.9462 20H180C191.046 20 200 28.9543 200 40V130C200 135.523 204.477 140 210 140C215.523 140 220 135.523 220 130V60C220 48.9543 228.954 40 240 40H270.28V60H240V130C240 146.569 226.569 160 210 160C193.431 160 180 146.569 180 130V40H61.9462C56.4234 40 51.9462 44.4772 51.9462 50C51.9462 55.5228 56.4234 60 61.9462 60H140C151.046 60 160 68.9543 160 80V180C160 191.046 151.046 200 140 200H20V180H140V80Z" fill="#F28EC0"/>
<path d="M420 80H344.946C328.378 80 314.946 66.5685 314.946 50C314.946 33.4315 328.378 20 344.946 20H460C471.046 20 480 28.9543 480 40V130C480 135.523 484.477 140 490 140C495.523 140 500 135.523 500 130V60C500 48.9543 508.954 40 520 40H550.28V60H520V130C520 146.569 506.569 160 490 160C473.431 160 460 146.569 460 130V40H344.946C339.423 40 334.946 44.4772 334.946 50C334.946 55.5228 339.423 60 344.946 60H420C431.046 60 440 68.9543 440 80V180C440 191.046 431.046 200 420 200H300V180H420V80Z" fill="#F28EC0"/>
<path d="M700 80H627.946C611.378 80 597.946 66.5685 597.946 50C597.946 33.4315 611.378 20 627.946 20H740C751.046 20 760 28.9543 760 40V130C760 135.523 764.477 140 770 140C775.523 140 780 135.523 780 130V60C780 48.9543 788.955 40 800 40H830.281V60H800V130C800 146.569 786.569 160 770 160C753.432 160 740 146.569 740 130V40H627.946C622.424 40 617.946 44.4772 617.946 50C617.946 55.5228 622.424 60 627.946 60H700C711.046 60 720 68.9543 720 80V180C720 191.046 711.046 200 700 200H580V180H700V80Z" fill="#F28EC0"/>
<path d="M980 80H910.946C894.378 80 880.946 66.5685 880.946 50C880.946 33.4315 894.378 20 910.946 20H1020C1031.05 20 1040 28.9543 1040 40V130C1040 135.523 1044.48 140 1050 140C1055.52 140 1060 135.523 1060 130V60C1060 48.9543 1068.95 40 1080 40H1110.28V60H1080V130C1080 146.569 1066.57 160 1050 160C1033.43 160 1020 146.569 1020 130V40H910.946C905.423 40 900.946 44.4772 900.946 50C900.946 55.5228 905.423 60 910.946 60H980C991.046 60 1000 68.9543 1000 80V180C1000 191.046 991.046 200 980 200H860V180H980V80Z" fill="#F28EC0"/>
<path d="M1260 80H1193.95C1177.38 80 1163.95 66.5685 1163.95 50C1163.95 33.4315 1177.38 20 1193.95 20H1300C1311.05 20 1320 28.9543 1320 40V130C1320 135.523 1324.48 140 1330 140C1335.52 140 1340 135.523 1340 130V60C1340 48.9543 1348.95 40 1360 40H1390.28V60H1360V130C1360 146.569 1346.57 160 1330 160C1313.43 160 1300 146.569 1300 130V40H1193.95C1188.42 40 1183.95 44.4772 1183.95 50C1183.95 55.5228 1188.42 60 1193.95 60H1260C1271.05 60 1280 68.9543 1280 80V180C1280 191.046 1271.05 200 1260 200H1140V180H1260V80Z" fill="#F28EC0"/>
<path d="M1540 80H1476.95C1460.38 80 1446.95 66.5685 1446.95 50C1446.95 33.4315 1460.38 20 1476.95 20H1580C1591.05 20 1600 28.9543 1600 40V130C1600 135.523 1604.48 140 1610 140C1615.52 140 1620 135.523 1620 130V60C1620 48.9543 1628.95 40 1640 40H1670.28V60H1640V130C1640 146.569 1626.57 160 1610 160C1593.43 160 1580 146.569 1580 130V40H1476.95C1471.42 40 1466.95 44.4772 1466.95 50C1466.95 55.5228 1471.42 60 1476.95 60H1540C1551.05 60 1560 68.9543 1560 80V180C1560 191.046 1551.05 200 1540 200H1420V180H1540V80Z" fill="#F28EC0"/>
<path d="M1820 80H1759.95C1743.38 80 1729.95 66.5685 1729.95 50C1729.95 33.4315 1743.38 20 1759.95 20H1860C1871.05 20 1880 28.9543 1880 40V130C1880 135.523 1884.48 140 1890 140C1895.52 140 1900 135.523 1900 130V60C1900 48.9543 1908.95 40 1920 40H1950.28V60H1920V130C1920 146.569 1906.57 160 1890 160C1873.43 160 1860 146.569 1860 130V40H1759.95C1754.42 40 1749.95 44.4772 1749.95 50C1749.95 55.5228 1754.42 60 1759.95 60H1820C1831.05 60 1840 68.9543 1840 80V180C1840 191.046 1831.05 200 1820 200H1700V180H1820V80Z" fill="#F28EC0"/>
<path d="M2100 80H2042.95C2026.38 80 2012.95 66.5685 2012.95 50C2012.95 33.4315 2026.38 20 2042.95 20H2140C2151.05 20 2160 28.9543 2160 40V130C2160 135.523 2164.48 140 2170 140C2175.52 140 2180 135.523 2180 130V60C2180 48.9543 2188.95 40 2200 40H2230.28V60H2200V130C2200 146.569 2186.57 160 2170 160C2153.43 160 2140 146.569 2140 130V40H2042.95C2037.42 40 2032.95 44.4772 2032.95 50C2032.95 55.5228 2037.42 60 2042.95 60H2100C2111.05 60 2120 68.9543 2120 80V180C2120 191.046 2111.05 200 2100 200H1980V180H2100V80Z" fill="#F28EC0"/>
<path d="M2380 80H2325.95C2309.38 80 2295.95 66.5685 2295.95 50C2295.95 33.4315 2309.38 20 2325.95 20H2420C2431.05 20 2440 28.9543 2440 40V130C2440 135.523 2444.48 140 2450 140C2455.52 140 2460 135.523 2460 130V60C2460 48.9543 2468.95 40 2480 40H2510.28V60H2480V130C2480 146.569 2466.57 160 2450 160C2433.43 160 2420 146.569 2420 130V40H2325.95C2320.42 40 2315.95 44.4772 2315.95 50C2315.95 55.5228 2320.42 60 2325.95 60H2380C2391.05 60 2400 68.9543 2400 80V180C2400 191.046 2391.05 200 2380 200H2260V180H2380V80Z" fill="#F28EC0"/>
<path d="M2660 80H2608.95C2592.38 80 2578.95 66.5685 2578.95 50C2578.95 33.4315 2592.38 20 2608.95 20H2700C2711.05 20 2720 28.9543 2720 40V130C2720 135.523 2724.48 140 2730 140C2735.52 140 2740 135.523 2740 130V60C2740 48.9543 2748.95 40 2760 40H2790.28V60H2760V130C2760 146.569 2746.57 160 2730 160C2713.43 160 2700 146.569 2700 130V40H2608.95C2603.42 40 2598.95 44.4772 2598.95 50C2598.95 55.5228 2603.42 60 2608.95 60H2660C2671.05 60 2680 68.9543 2680 80V180C2680 191.046 2671.05 200 2660 200H2540V180H2660V80Z" fill="#F28EC0"/>
<path d="M2940 80H2891.95C2875.38 80 2861.95 66.5685 2861.95 50C2861.95 33.4315 2875.38 20 2891.95 20H2980C2991.05 20 3000 28.9543 3000 40V130C3000 135.523 3004.48 140 3010 140C3015.52 140 3020 135.523 3020 130V60C3020 48.9543 3028.95 40 3040 40H3070.28V60H3040V130C3040 146.569 3026.57 160 3010 160C2993.43 160 2980 146.569 2980 130V40H2891.95C2886.42 40 2881.95 44.4772 2881.95 50C2881.95 55.5228 2886.42 60 2891.95 60H2940C2951.05 60 2960 68.9543 2960 80V180C2960 191.046 2951.05 200 2940 200H2820V180H2940V80Z" fill="#F28EC0"/>
<path d="M3220 80H3174.95C3158.38 80 3144.95 66.5685 3144.95 50C3144.95 33.4315 3158.38 20 3174.95 20H3260C3271.05 20 3280 28.9543 3280 40V130C3280 135.523 3284.48 140 3290 140C3295.52 140 3300 135.523 3300 130V60C3300 48.9543 3308.95 40 3320 40H3350.28V60H3320V130C3320 146.569 3306.57 160 3290 160C3273.43 160 3260 146.569 3260 130V40H3174.95C3169.42 40 3164.95 44.4772 3164.95 50C3164.95 55.5228 3169.42 60 3174.95 60H3220C3231.05 60 3240 68.9543 3240 80V180C3240 191.046 3231.05 200 3220 200H3100V180H3220V80Z" fill="#F28EC0"/>
<path d="M3500 80H3457.95C3441.38 80 3427.95 66.5685 3427.95 50C3427.95 33.4315 3441.38 20 3457.95 20H3540C3551.05 20 3560 28.9543 3560 40V130C3560 135.523 3564.48 140 3570 140C3575.52 140 3580 135.523 3580 130V60C3580 48.9543 3588.95 40 3600 40H3630.28V60H3600V130C3600 146.569 3586.57 160 3570 160C3553.43 160 3540 146.569 3540 130V40H3457.95C3452.42 40 3447.95 44.4772 3447.95 50C3447.95 55.5228 3452.42 60 3457.95 60H3500C3511.05 60 3520 68.9543 3520 80V180C3520 191.046 3511.05 200 3500 200H3380V180H3500V80Z" fill="#F28EC0"/>
<path d="M3780 80H3740.95C3724.38 80 3710.95 66.5685 3710.95 50C3710.95 33.4315 3724.38 20 3740.95 20H3820C3831.05 20 3840 28.9543 3840 40V130C3840 135.523 3844.48 140 3850 140C3855.52 140 3860 135.523 3860 130V60C3860 48.9543 3868.95 40 3880 40H3910.28V60H3880V130C3880 146.569 3866.57 160 3850 160C3833.43 160 3820 146.569 3820 130V40H3740.95C3735.42 40 3730.95 44.4772 3730.95 50C3730.95 55.5228 3735.42 60 3740.95 60H3780C3791.05 60 3800 68.9543 3800 80V180C3800 191.046 3791.05 200 3780 200H3660V180H3780V80Z" fill="#F28EC0"/>
<path d="M4060 80H4024.95C4008.38 80 3994.95 66.5685 3994.95 50C3994.95 33.4315 4008.38 20 4024.95 20H4100C4111.05 20 4120 28.9543 4120 40V130C4120 135.523 4124.48 140 4130 140C4135.52 140 4140 135.523 4140 130V60C4140 48.9543 4148.96 40 4160 40H4190.28V60H4160V130C4160 146.569 4146.57 160 4130 160C4113.43 160 4100 146.569 4100 130V40H4024.95C4019.42 40 4014.95 44.4772 4014.95 50C4014.95 55.5228 4019.42 60 4024.95 60H4060C4071.05 60 4080 68.9543 4080 80V180C4080 191.046 4071.05 200 4060 200H3940V180H4060V80Z" fill="#F28EC0"/>
<path d="M4340 80H4307.95C4291.38 80 4277.95 66.5685 4277.95 50C4277.95 33.4315 4291.38 20 4307.95 20H4380C4391.05 20 4400 28.9543 4400 40V130C4400 135.523 4404.48 140 4410 140C4415.52 140 4420 135.523 4420 130V60C4420 48.9543 4428.95 40 4440 40H4470.28V60H4440V130C4440 146.569 4426.57 160 4410 160C4393.43 160 4380 146.569 4380 130V40H4307.95C4302.42 40 4297.95 44.4772 4297.95 50C4297.95 55.5228 4302.42 60 4307.95 60H4340C4351.05 60 4360 68.9543 4360 80V180C4360 191.046 4351.05 200 4340 200H4220V180H4340V80Z" fill="#F28EC0"/>
<path d="M4620 80H4590.95C4574.38 80 4560.95 66.5685 4560.95 50C4560.95 33.4315 4574.38 20 4590.95 20H4660C4671.05 20 4680 28.9543 4680 40V130C4680 135.523 4684.48 140 4690 140C4695.52 140 4700 135.523 4700 130V60C4700 48.9543 4708.95 40 4720 40H4750.28V60H4720V130C4720 146.569 4706.57 160 4690 160C4673.43 160 4660 146.569 4660 130V40H4590.95C4585.42 40 4580.95 44.4772 4580.95 50C4580.95 55.5228 4585.42 60 4590.95 60H4620C4631.05 60 4640 68.9543 4640 80V180C4640 191.046 4631.05 200 4620 200H4500V180H4620V80Z" fill="#F28EC0"/>
<path d="M4900 80H4873.95C4857.38 80 4843.95 66.5685 4843.95 50C4843.95 33.4315 4857.38 20 4873.95 20H4940C4951.05 20 4960 28.9543 4960 40V130C4960 135.523 4964.48 140 4970 140C4975.52 140 4980 135.523 4980 130V60C4980 48.9543 4988.95 40 5000 40H5030.28V60H5000V130C5000 146.569 4986.57 160 4970 160C4953.43 160 4940 146.569 4940 130V40H4873.95C4868.42 40 4863.95 44.4772 4863.95 50C4863.95 55.5228 4868.42 60 4873.95 60H4900C4911.05 60 4920 68.9543 4920 80V180C4920 191.046 4911.05 200 4900 200H4780V180H4900V80Z" fill="#F28EC0"/>
<path d="M5180 80H5156.95C5140.38 80 5126.95 66.5685 5126.95 50C5126.95 33.4315 5140.38 20 5156.95 20H5220C5231.05 20 5240 28.9543 5240 40V130C5240 135.523 5244.48 140 5250 140C5255.52 140 5260 135.523 5260 130V60C5260 48.9543 5268.95 40 5280 40H5310.28V60H5280V130C5280 146.569 5266.57 160 5250 160C5233.43 160 5220 146.569 5220 130V40H5156.95C5151.42 40 5146.95 44.4772 5146.95 50C5146.95 55.5228 5151.42 60 5156.95 60H5180C5191.05 60 5200 68.9543 5200 80V180C5200 191.046 5191.05 200 5180 200H5060V180H5180V80Z" fill="#F28EC0"/>
<path d="M5460 80H5439.95C5423.38 80 5409.95 66.5685 5409.95 50C5409.95 33.4315 5423.38 20 5439.95 20H5500C5511.05 20 5520 28.9543 5520 40V130C5520 135.523 5524.48 140 5530 140C5535.52 140 5540 135.523 5540 130V60C5540 48.9543 5548.95 40 5560 40H5590.28V60H5560V130C5560 146.569 5546.57 160 5530 160C5513.43 160 5500 146.569 5500 130V40H5439.95C5434.42 40 5429.95 44.4772 5429.95 50C5429.95 55.5228 5434.42 60 5439.95 60H5460C5471.05 60 5480 68.9543 5480 80V180C5480 191.046 5471.05 200 5460 200H5340V180H5460V130V80Z" fill="#F28EC0"/>
</svg>
