<svg width="10800" height="420" viewBox="0 0 10800 420" fill="none" xmlns="http://www.w3.org/2000/svg">
<path d="M243.07 119.638H109.045C84.2919 119.638 64.2258 99.5718 64.2258 74.8189C64.2258 50.0661 84.2919 30 109.045 30H298.744C318.074 30 333.744 45.67 333.744 65V300.167H510V329.945L338.605 329.81C319.286 329.794 303.633 314.129 303.633 294.81V60.4071H108.651C100.2 60.4071 93.3495 67.2577 93.3495 75.7084C93.3495 84.159 100.2 91.0097 108.651 91.0097H237.534C256.864 91.0097 272.534 106.68 272.534 126.01V355C272.534 374.33 256.864 390 237.534 390H30V360.385H243.07V119.638Z" fill="#F28EC0"/>
<path d="M783.07 119.638H654.045C629.292 119.638 609.226 99.5718 609.226 74.8189C609.226 50.0661 629.292 30 654.045 30H838.744C858.074 30 873.744 45.67 873.744 65V300.167H1050V329.945L878.605 329.81C859.286 329.794 843.633 314.129 843.633 294.81V60.4071H653.651C645.2 60.4071 638.35 67.2577 638.35 75.7084C638.35 84.159 645.2 91.0097 653.651 91.0097H777.534C796.864 91.0097 812.534 106.68 812.534 126.01V355C812.534 374.33 796.864 390 777.534 390H570V360.385H783.07V119.638Z" fill="#F28EC0"/>
<path d="M1323.07 119.638H1200.04C1175.29 119.638 1155.23 99.5718 1155.23 74.8189C1155.23 50.0661 1175.29 30 1200.04 30H1378.74C1398.07 30 1413.74 45.67 1413.74 65V300.167H1590V329.945L1418.6 329.81C1399.29 329.794 1383.63 314.129 1383.63 294.81V60.4071H1199.65C1191.2 60.4071 1184.35 67.2577 1184.35 75.7084C1184.35 84.159 1191.2 91.0097 1199.65 91.0097H1317.53C1336.86 91.0097 1352.53 106.68 1352.53 126.01V355C1352.53 374.33 1336.86 390 1317.53 390H1110V360.385H1323.07V119.638Z" fill="#F28EC0"/>
<path d="M1863.07 119.638H1745.04C1720.29 119.638 1700.23 99.5718 1700.23 74.8189C1700.23 50.0661 1720.29 30 1745.04 30H1918.74C1938.07 30 1953.74 45.67 1953.74 65V300.167H2130V329.945L1958.6 329.81C1939.29 329.794 1923.63 314.129 1923.63 294.81V60.4071H1744.65C1736.2 60.4071 1729.35 67.2577 1729.35 75.7084C1729.35 84.159 1736.2 91.0097 1744.65 91.0097H1857.53C1876.86 91.0097 1892.53 106.68 1892.53 126.01V355C1892.53 374.33 1876.86 390 1857.53 390H1650V360.385H1863.07V119.638Z" fill="#F28EC0"/>
<path d="M2403.07 119.638H2290.04C2265.29 119.638 2245.23 99.5718 2245.23 74.8189C2245.23 50.0661 2265.29 30 2290.04 30H2458.74C2478.07 30 2493.74 45.67 2493.74 65V300.167H2670V329.945L2498.6 329.81C2479.29 329.794 2463.63 314.129 2463.63 294.81V60.4071H2289.65C2281.2 60.4071 2274.35 67.2577 2274.35 75.7084C2274.35 84.159 2281.2 91.0097 2289.65 91.0097H2397.53C2416.86 91.0097 2432.53 106.68 2432.53 126.01V355C2432.53 374.33 2416.86 390 2397.53 390H2190V360.385H2403.07V119.638Z" fill="#F28EC0"/>
<path d="M2943.07 119.638H2835.04C2810.29 119.638 2790.23 99.5718 2790.23 74.8189C2790.23 50.0661 2810.29 30 2835.04 30H2998.74C3018.07 30 3033.74 45.67 3033.74 65V300.167H3210V329.945L3038.6 329.81C3019.29 329.794 3003.63 314.129 3003.63 294.81V60.4071H2834.65C2826.2 60.4071 2819.35 67.2577 2819.35 75.7084C2819.35 84.159 2826.2 91.0097 2834.65 91.0097H2937.53C2956.86 91.0097 2972.53 106.68 2972.53 126.01V355C2972.53 374.33 2956.86 390 2937.53 390H2730V360.385H2943.07V119.638Z" fill="#F28EC0"/>
<path d="M3483.07 119.638H3380.04C3355.29 119.638 3335.23 99.5718 3335.23 74.8189C3335.23 50.0661 3355.29 30 3380.04 30H3538.74C3558.07 30 3573.74 45.67 3573.74 65V300.167H3750V329.945L3578.6 329.81C3559.29 329.794 3543.63 314.129 3543.63 294.81V60.4071H3379.65C3371.2 60.4071 3364.35 67.2577 3364.35 75.7084C3364.35 84.159 3371.2 91.0097 3379.65 91.0097H3477.53C3496.86 91.0097 3512.53 106.68 3512.53 126.01V355C3512.53 374.33 3496.86 390 3477.53 390H3270V360.385H3483.07V119.638Z" fill="#F28EC0"/>
<path d="M4023.07 119.638H3925.04C3900.29 119.638 3880.23 99.5718 3880.23 74.8189C3880.23 50.0661 3900.29 30 3925.04 30H4078.74C4098.07 30 4113.74 45.67 4113.74 65V300.167H4290V329.945L4118.6 329.81C4099.29 329.794 4083.63 314.129 4083.63 294.81V60.4071H3924.65C3916.2 60.4071 3909.35 67.2577 3909.35 75.7084C3909.35 84.159 3916.2 91.0097 3924.65 91.0097H4017.53C4036.86 91.0097 4052.53 106.68 4052.53 126.01V355C4052.53 374.33 4036.86 390 4017.53 390H3810V360.385H4023.07V119.638Z" fill="#F28EC0"/>
<path d="M4563.07 119.638H4471.04C4446.29 119.638 4426.23 99.5718 4426.23 74.8189C4426.23 50.0661 4446.29 30 4471.04 30H4618.74C4638.07 30 4653.74 45.67 4653.74 65V300.167H4830V329.945L4658.6 329.81C4639.29 329.794 4623.63 314.129 4623.63 294.81V60.4071H4470.65C4462.2 60.4071 4455.35 67.2577 4455.35 75.7084C4455.35 84.159 4462.2 91.0097 4470.65 91.0097H4557.53C4576.86 91.0097 4592.53 106.68 4592.53 126.01V355C4592.53 374.33 4576.86 390 4557.53 390H4350V360.385H4563.07V119.638Z" fill="#F28EC0"/>
<path d="M5103.07 119.638H5015.04C4990.29 119.638 4970.23 99.5718 4970.23 74.8189C4970.23 50.0661 4990.29 30 5015.04 30H5158.74C5178.07 30 5193.74 45.67 5193.74 65V300.167H5370V329.945L5198.6 329.81C5179.29 329.794 5163.63 314.129 5163.63 294.81V60.4071H5014.65C5006.2 60.4071 4999.35 67.2577 4999.35 75.7084C4999.35 84.159 5006.2 91.0097 5014.65 91.0097H5097.53C5116.86 91.0097 5132.53 106.68 5132.53 126.01V355C5132.53 374.33 5116.86 390 5097.53 390H4890V360.385H5103.07V119.638Z" fill="#F28EC0"/>
<path d="M5643.07 119.638H5560.04C5535.29 119.638 5515.23 99.5718 5515.23 74.8189C5515.23 50.0661 5535.29 30 5560.04 30H5698.74C5718.07 30 5733.74 45.67 5733.74 65V300.167H5910V329.945L5738.6 329.81C5719.29 329.794 5703.63 314.129 5703.63 294.81V60.4071H5559.65C5551.2 60.4071 5544.35 67.2577 5544.35 75.7084C5544.35 84.159 5551.2 91.0097 5559.65 91.0097H5637.53C5656.86 91.0097 5672.53 106.68 5672.53 126.01V355C5672.53 374.33 5656.86 390 5637.53 390H5430V360.385H5643.07V119.638Z" fill="#F28EC0"/>
<path d="M6183.07 119.638H6105.04C6080.29 119.638 6060.23 99.5718 6060.23 74.8189C6060.23 50.0661 6080.29 30 6105.04 30H6238.74C6258.07 30 6273.74 45.67 6273.74 65V300.167H6450V329.945L6278.6 329.81C6259.29 329.794 6243.63 314.129 6243.63 294.81V60.4071H6104.65C6096.2 60.4071 6089.35 67.2577 6089.35 75.7084C6089.35 84.159 6096.2 91.0097 6104.65 91.0097H6177.53C6196.86 91.0097 6212.53 106.68 6212.53 126.01V355C6212.53 374.33 6196.86 390 6177.53 390H5970V360.385H6183.07V119.638Z" fill="#F28EC0"/>
<path d="M6723.07 119.638H6650.04C6625.29 119.638 6605.23 99.5718 6605.23 74.8189C6605.23 50.0661 6625.29 30 6650.04 30H6778.74C6798.07 30 6813.74 45.67 6813.74 65V300.167H6990V329.945L6818.6 329.81C6799.29 329.794 6783.63 314.129 6783.63 294.81V60.4071H6649.65C6641.2 60.4071 6634.35 67.2577 6634.35 75.7084C6634.35 84.159 6641.2 91.0097 6649.65 91.0097H6717.53C6736.86 91.0097 6752.53 106.68 6752.53 126.01V355C6752.53 374.33 6736.86 390 6717.53 390H6510V360.385H6723.07V119.638Z" fill="#F28EC0"/>
<path d="M7263.07 119.638H7195.04C7170.29 119.638 7150.23 99.5718 7150.23 74.8189C7150.23 50.0661 7170.29 30 7195.04 30H7318.74C7338.07 30 7353.74 45.67 7353.74 65V300.167H7530V329.945L7358.6 329.81C7339.29 329.794 7323.63 314.129 7323.63 294.81V60.4071H7194.65C7186.2 60.4071 7179.35 67.2577 7179.35 75.7084C7179.35 84.159 7186.2 91.0097 7194.65 91.0097H7257.53C7276.86 91.0097 7292.53 106.68 7292.53 126.01V355C7292.53 374.33 7276.86 390 7257.53 390H7050V360.385H7263.07V119.638Z" fill="#F28EC0"/>
<path d="M7803.07 119.638H7740.04C7715.29 119.638 7695.23 99.5718 7695.23 74.8189C7695.23 50.0661 7715.29 30 7740.04 30H7858.74C7878.07 30 7893.74 45.67 7893.74 65V300.167H8070V329.945L7898.6 329.81C7879.29 329.794 7863.63 314.129 7863.63 294.81V60.4071H7739.65C7731.2 60.4071 7724.35 67.2577 7724.35 75.7084C7724.35 84.159 7731.2 91.0097 7739.65 91.0097H7797.53C7816.86 91.0097 7832.53 106.68 7832.53 126.01V355C7832.53 374.33 7816.86 390 7797.53 390H7590V360.385H7803.07V119.638Z" fill="#F28EC0"/>
<path d="M8343.07 119.638H8285.04C8260.29 119.638 8240.23 99.5718 8240.23 74.8189C8240.23 50.0661 8260.29 30 8285.04 30H8398.74C8418.07 30 8433.74 45.67 8433.74 65V300.167H8610V329.945L8438.6 329.81C8419.29 329.794 8403.63 314.129 8403.63 294.81V60.4071H8284.65C8276.2 60.4071 8269.35 67.2577 8269.35 75.7084C8269.35 84.159 8276.2 91.0097 8284.65 91.0097H8337.53C8356.86 91.0097 8372.53 106.68 8372.53 126.01V355C8372.53 374.33 8356.86 390 8337.53 390H8130V360.385H8343.07V119.638Z" fill="#F28EC0"/>
<path d="M8883.07 119.638H8831.04C8806.29 119.638 8786.23 99.5718 8786.23 74.8189C8786.23 50.0661 8806.29 30 8831.04 30H8938.74C8958.07 30 8973.74 45.67 8973.74 65V300.167H9150V329.945L8978.6 329.81C8959.29 329.794 8943.63 314.129 8943.63 294.81V60.4071H8830.65C8822.2 60.4071 8815.35 67.2577 8815.35 75.7084C8815.35 84.159 8822.2 91.0097 8830.65 91.0097H8877.53C8896.86 91.0097 8912.53 106.68 8912.53 126.01V355C8912.53 374.33 8896.86 390 8877.53 390H8670V360.385H8883.07V119.638Z" fill="#F28EC0"/>
<path d="M9423.07 119.638H9376.04C9351.29 119.638 9331.23 99.5718 9331.23 74.8189C9331.23 50.0661 9351.29 30 9376.04 30H9478.74C9498.07 30 9513.74 45.67 9513.74 65V300.167H9690V329.945L9518.6 329.81C9499.29 329.794 9483.63 314.129 9483.63 294.81V60.4071H9375.65C9367.2 60.4071 9360.35 67.2577 9360.35 75.7084C9360.35 84.159 9367.2 91.0097 9375.65 91.0097H9417.53C9436.86 91.0097 9452.53 106.68 9452.53 126.01V355C9452.53 374.33 9436.86 390 9417.53 390H9210V360.385H9423.07V119.638Z" fill="#F28EC0"/>
<path d="M9963.07 119.638H9921.04C9896.29 119.638 9876.23 99.5718 9876.23 74.8189C9876.23 50.0661 9896.29 30 9921.04 30H10018.7C10038.1 30 10053.7 45.67 10053.7 65V300.167H10230V329.945L10058.6 329.81C10039.3 329.794 10023.6 314.129 10023.6 294.81V60.4071H9920.65C9912.2 60.4071 9905.35 67.2577 9905.35 75.7084C9905.35 84.159 9912.2 91.0097 9920.65 91.0097H9957.53C9976.86 91.0097 9992.53 106.68 9992.53 126.01V355C9992.53 374.33 9976.86 390 9957.53 390H9750V360.385H9963.07V119.638Z" fill="#F28EC0"/>
<path d="M10503.1 119.638H10465C10440.3 119.638 10420.2 99.5718 10420.2 74.8189C10420.2 50.0661 10440.3 30 10465 30H10558.7C10578.1 30 10593.7 45.67 10593.7 65V300.167H10770V329.945L10598.6 329.81C10579.3 329.794 10563.6 314.129 10563.6 294.81V60.4071H10464.7C10456.2 60.4071 10449.3 67.2577 10449.3 75.7084C10449.3 84.159 10456.2 91.0097 10464.7 91.0097H10497.5C10516.9 91.0097 10532.5 106.68 10532.5 126.01V355C10532.5 374.33 10516.9 390 10497.5 390H10290V360.385H10503.1V119.638Z" fill="#F28EC0"/>
</svg>
