<svg width="8800" height="600" viewBox="0 0 8800 600" fill="none" xmlns="http://www.w3.org/2000/svg">
<path d="M292.154 75.017V120.904H80.3482V150.686L287.554 150.826C306.894 150.839 322.578 135.165 322.578 115.826V75.7109C322.578 67.1376 329.528 60.1876 338.101 60.1876C346.675 60.1876 353.625 67.1377 353.625 75.7109V240.602H74.9977C50.1461 240.602 30 260.748 30 285.6C30 310.451 50.1461 330.597 74.9977 330.597H155.799C163.778 330.597 170.247 337.066 170.247 345.045C170.247 353.024 163.778 359.492 155.799 359.492H94.456C75.1261 359.492 59.456 375.162 59.456 394.492V535C59.456 554.33 75.1261 570 94.456 570H410V540.519H88.7132V390.394H156.028C180.684 390.394 200.671 370.406 200.671 345.75C200.671 321.095 180.684 301.107 156.028 301.107H75.1785C66.4339 301.107 59.3451 294.018 59.3451 285.273C59.3451 276.529 66.4339 269.44 75.1784 269.44H347.188C366.518 269.44 382.188 253.77 382.188 234.44V75.017C382.188 50.1548 362.033 30 337.171 30C312.308 30 292.154 50.1548 292.154 75.017Z" fill="#F28EC0"/>
<path d="M732.154 75.017V120.904H520.348V150.686L727.554 150.826C746.894 150.839 762.578 135.165 762.578 115.826V75.7109C762.578 67.1376 769.528 60.1876 778.101 60.1876C786.675 60.1876 793.625 67.1377 793.625 75.7109V240.602H514.998C490.146 240.602 470 260.748 470 285.6C470 310.451 490.146 330.597 514.998 330.597H600.799C608.778 330.597 615.247 337.066 615.247 345.045C615.247 353.024 608.778 359.492 600.799 359.492H534.456C515.126 359.492 499.456 375.162 499.456 394.492V535C499.456 554.33 515.126 570 534.456 570H850V540.519H528.713V390.394H601.028C625.684 390.394 645.671 370.406 645.671 345.75C645.671 321.095 625.684 301.107 601.028 301.107H515.178C506.434 301.107 499.345 294.018 499.345 285.273C499.345 276.529 506.434 269.44 515.178 269.44H787.188C806.518 269.44 822.188 253.77 822.188 234.44V75.017C822.188 50.1548 802.033 30 777.171 30C752.308 30 732.154 50.1548 732.154 75.017Z" fill="#F28EC0"/>
<path d="M1172.15 75.017V120.904H960.348V150.686L1167.55 150.826C1186.89 150.839 1202.58 135.165 1202.58 115.826V75.7109C1202.58 67.1376 1209.53 60.1876 1218.1 60.1876C1226.67 60.1876 1233.62 67.1377 1233.62 75.7109V240.602H954.998C930.146 240.602 910 260.748 910 285.6C910 310.451 930.146 330.597 954.998 330.597H1046.8C1054.78 330.597 1061.25 337.066 1061.25 345.045C1061.25 353.024 1054.78 359.492 1046.8 359.492H974.456C955.126 359.492 939.456 375.162 939.456 394.492V535C939.456 554.33 955.126 570 974.456 570H1290V540.519H968.713V390.394H1047.03C1071.68 390.394 1091.67 370.406 1091.67 345.75C1091.67 321.095 1071.68 301.107 1047.03 301.107H955.178C946.434 301.107 939.345 294.018 939.345 285.273C939.345 276.529 946.434 269.44 955.178 269.44H1227.19C1246.52 269.44 1262.19 253.77 1262.19 234.44V75.017C1262.19 50.1548 1242.03 30 1217.17 30C1192.31 30 1172.15 50.1548 1172.15 75.017Z" fill="#F28EC0"/>
<path d="M1612.15 75.017V120.904H1400.35V150.686L1607.55 150.826C1626.89 150.839 1642.58 135.165 1642.58 115.826V75.7109C1642.58 67.1376 1649.53 60.1876 1658.1 60.1876C1666.67 60.1876 1673.62 67.1377 1673.62 75.7109V240.602H1395C1370.15 240.602 1350 260.748 1350 285.6C1350 310.451 1370.15 330.597 1395 330.597H1491.8C1499.78 330.597 1506.25 337.066 1506.25 345.045C1506.25 353.024 1499.78 359.492 1491.8 359.492H1414.46C1395.13 359.492 1379.46 375.162 1379.46 394.492V535C1379.46 554.33 1395.13 570 1414.46 570H1730V540.519H1408.71V390.394H1492.03C1516.68 390.394 1536.67 370.406 1536.67 345.75C1536.67 321.095 1516.68 301.107 1492.03 301.107H1395.18C1386.43 301.107 1379.35 294.018 1379.35 285.273C1379.35 276.529 1386.43 269.44 1395.18 269.44H1667.19C1686.52 269.44 1702.19 253.77 1702.19 234.44V75.017C1702.19 50.1548 1682.03 30 1657.17 30C1632.31 30 1612.15 50.1548 1612.15 75.017Z" fill="#F28EC0"/>
<path d="M2052.15 75.017V120.904H1840.35V150.686L2047.55 150.826C2066.89 150.839 2082.58 135.165 2082.58 115.826V75.7109C2082.58 67.1376 2089.53 60.1876 2098.1 60.1876C2106.67 60.1876 2113.62 67.1377 2113.62 75.7109V240.602H1835C1810.15 240.602 1790 260.748 1790 285.6C1790 310.451 1810.15 330.597 1835 330.597H1936.8C1944.78 330.597 1951.25 337.066 1951.25 345.045C1951.25 353.024 1944.78 359.492 1936.8 359.492H1854.46C1835.13 359.492 1819.46 375.162 1819.46 394.492V535C1819.46 554.33 1835.13 570 1854.46 570H2170V540.519H1848.71V390.394H1937.03C1961.68 390.394 1981.67 370.406 1981.67 345.75C1981.67 321.095 1961.68 301.107 1937.03 301.107H1835.18C1826.43 301.107 1819.35 294.018 1819.35 285.273C1819.35 276.529 1826.43 269.44 1835.18 269.44H2107.19C2126.52 269.44 2142.19 253.77 2142.19 234.44V75.017C2142.19 50.1548 2122.03 30 2097.17 30C2072.31 30 2052.15 50.1548 2052.15 75.017Z" fill="#F28EC0"/>
<path d="M2492.15 75.017V120.904H2280.35V150.686L2487.55 150.826C2506.89 150.839 2522.58 135.165 2522.58 115.826V75.7109C2522.58 67.1376 2529.53 60.1876 2538.1 60.1876C2546.67 60.1876 2553.62 67.1377 2553.62 75.7109V240.602H2275C2250.15 240.602 2230 260.748 2230 285.6C2230 310.451 2250.15 330.597 2275 330.597H2380.8C2388.78 330.597 2395.25 337.066 2395.25 345.045C2395.25 353.024 2388.78 359.492 2380.8 359.492H2294.46C2275.13 359.492 2259.46 375.162 2259.46 394.492V535C2259.46 554.33 2275.13 570 2294.46 570H2610V540.519H2288.71V390.394H2381.03C2405.68 390.394 2425.67 370.406 2425.67 345.75C2425.67 321.095 2405.68 301.107 2381.03 301.107H2275.18C2266.43 301.107 2259.35 294.018 2259.35 285.273C2259.35 276.529 2266.43 269.44 2275.18 269.44H2547.19C2566.52 269.44 2582.19 253.77 2582.19 234.44V75.017C2582.19 50.1548 2562.03 30 2537.17 30C2512.31 30 2492.15 50.1548 2492.15 75.017Z" fill="#F28EC0"/>
<path d="M2932.15 75.017V120.904H2720.35V150.686L2927.55 150.826C2946.89 150.839 2962.58 135.165 2962.58 115.826V75.7109C2962.58 67.1376 2969.53 60.1876 2978.1 60.1876C2986.67 60.1876 2993.62 67.1377 2993.62 75.7109V240.602H2715C2690.15 240.602 2670 260.748 2670 285.6C2670 310.451 2690.15 330.597 2715 330.597H2824.8C2832.78 330.597 2839.25 337.066 2839.25 345.045C2839.25 353.024 2832.78 359.492 2824.8 359.492H2734.46C2715.13 359.492 2699.46 375.162 2699.46 394.492V535C2699.46 554.33 2715.13 570 2734.46 570H3050V540.519H2728.71V390.394H2825.03C2849.68 390.394 2869.67 370.406 2869.67 345.75C2869.67 321.095 2849.68 301.107 2825.03 301.107H2715.18C2706.43 301.107 2699.35 294.018 2699.35 285.273C2699.35 276.529 2706.43 269.44 2715.18 269.44H2987.19C3006.52 269.44 3022.19 253.77 3022.19 234.44V75.017C3022.19 50.1548 3002.03 30 2977.17 30C2952.31 30 2932.15 50.1548 2932.15 75.017Z" fill="#F28EC0"/>
<path d="M3372.15 75.017V120.904H3160.35V150.686L3367.55 150.826C3386.89 150.839 3402.58 135.165 3402.58 115.826V75.7109C3402.58 67.1376 3409.53 60.1876 3418.1 60.1876C3426.67 60.1876 3433.62 67.1377 3433.62 75.7109V240.602H3155C3130.15 240.602 3110 260.748 3110 285.6C3110 310.451 3130.15 330.597 3155 330.597H3269.8C3277.78 330.597 3284.25 337.066 3284.25 345.045C3284.25 353.024 3277.78 359.492 3269.8 359.492H3174.46C3155.13 359.492 3139.46 375.162 3139.46 394.492V535C3139.46 554.33 3155.13 570 3174.46 570H3490V540.519H3168.71V390.394H3270.03C3294.68 390.394 3314.67 370.406 3314.67 345.75C3314.67 321.095 3294.68 301.107 3270.03 301.107H3155.18C3146.43 301.107 3139.35 294.018 3139.35 285.273C3139.35 276.529 3146.43 269.44 3155.18 269.44H3427.19C3446.52 269.44 3462.19 253.77 3462.19 234.44V75.017C3462.19 50.1548 3442.03 30 3417.17 30C3392.31 30 3372.15 50.1548 3372.15 75.017Z" fill="#F28EC0"/>
<path d="M3812.15 75.017V120.904H3600.35V150.686L3807.55 150.826C3826.89 150.839 3842.58 135.165 3842.58 115.826V75.7109C3842.58 67.1376 3849.53 60.1876 3858.1 60.1876C3866.67 60.1876 3873.62 67.1377 3873.62 75.7109V240.602H3595C3570.15 240.602 3550 260.748 3550 285.6C3550 310.451 3570.15 330.597 3595 330.597H3714.8C3722.78 330.597 3729.25 337.066 3729.25 345.045C3729.25 353.024 3722.78 359.492 3714.8 359.492H3614.46C3595.13 359.492 3579.46 375.162 3579.46 394.492V535C3579.46 554.33 3595.13 570 3614.46 570H3930V540.519H3608.71V390.394H3715.03C3739.68 390.394 3759.67 370.406 3759.67 345.75C3759.67 321.095 3739.68 301.107 3715.03 301.107H3595.18C3586.43 301.107 3579.35 294.018 3579.35 285.273C3579.35 276.529 3586.43 269.44 3595.18 269.44H3867.19C3886.52 269.44 3902.19 253.77 3902.19 234.44V75.017C3902.19 50.1548 3882.03 30 3857.17 30C3832.31 30 3812.15 50.1548 3812.15 75.017Z" fill="#F28EC0"/>
<path d="M4252.15 75.017V120.904H4040.35V150.686L4247.55 150.826C4266.89 150.839 4282.58 135.165 4282.58 115.826V75.7109C4282.58 67.1376 4289.53 60.1876 4298.1 60.1876C4306.67 60.1876 4313.62 67.1377 4313.62 75.7109V240.602H4035C4010.15 240.602 3990 260.748 3990 285.6C3990 310.451 4010.15 330.597 4035 330.597H4159.8C4167.78 330.597 4174.25 337.066 4174.25 345.045C4174.25 353.024 4167.78 359.492 4159.8 359.492H4054.46C4035.13 359.492 4019.46 375.162 4019.46 394.492V535C4019.46 554.33 4035.13 570 4054.46 570H4370V540.519H4048.71V390.394H4160.03C4184.68 390.394 4204.67 370.406 4204.67 345.75C4204.67 321.095 4184.68 301.107 4160.03 301.107H4035.18C4026.43 301.107 4019.35 294.018 4019.35 285.273C4019.35 276.529 4026.43 269.44 4035.18 269.44H4307.19C4326.52 269.44 4342.19 253.77 4342.19 234.44V75.017C4342.19 50.1548 4322.03 30 4297.17 30C4272.31 30 4252.15 50.1548 4252.15 75.017Z" fill="#F28EC0"/>
<path d="M4692.15 75.017V120.904H4480.35V150.686L4687.55 150.826C4706.89 150.839 4722.58 135.165 4722.58 115.826V75.7109C4722.58 67.1376 4729.53 60.1876 4738.1 60.1876C4746.67 60.1876 4753.62 67.1377 4753.62 75.7109V240.602H4475C4450.15 240.602 4430 260.748 4430 285.6C4430 310.451 4450.15 330.597 4475 330.597H4604.8C4612.78 330.597 4619.25 337.066 4619.25 345.045C4619.25 353.024 4612.78 359.492 4604.8 359.492H4494.46C4475.13 359.492 4459.46 375.162 4459.46 394.492V535C4459.46 554.33 4475.13 570 4494.46 570H4810V540.519H4488.71V390.394H4605.03C4629.68 390.394 4649.67 370.406 4649.67 345.75C4649.67 321.095 4629.68 301.107 4605.03 301.107H4475.18C4466.43 301.107 4459.35 294.018 4459.35 285.273C4459.35 276.529 4466.43 269.44 4475.18 269.44H4747.19C4766.52 269.44 4782.19 253.77 4782.19 234.44V75.017C4782.19 50.1548 4762.03 30 4737.17 30C4712.31 30 4692.15 50.1548 4692.15 75.017Z" fill="#F28EC0"/>
<path d="M5132.15 75.017V120.904H4920.35V150.686L5127.55 150.826C5146.89 150.839 5162.58 135.165 5162.58 115.826V75.7109C5162.58 67.1376 5169.53 60.1876 5178.1 60.1876C5186.67 60.1876 5193.62 67.1377 5193.62 75.7109V240.602H4915C4890.15 240.602 4870 260.748 4870 285.6C4870 310.451 4890.15 330.597 4915 330.597H5050.8C5058.78 330.597 5065.25 337.066 5065.25 345.045C5065.25 353.024 5058.78 359.492 5050.8 359.492H4934.46C4915.13 359.492 4899.46 375.162 4899.46 394.492V535C4899.46 554.33 4915.13 570 4934.46 570H5250V540.519H4928.71V390.394H5051.03C5075.68 390.394 5095.67 370.406 5095.67 345.75C5095.67 321.095 5075.68 301.107 5051.03 301.107H4915.18C4906.43 301.107 4899.35 294.018 4899.35 285.273C4899.35 276.529 4906.43 269.44 4915.18 269.44H5187.19C5206.52 269.44 5222.19 253.77 5222.19 234.44V75.017C5222.19 50.1548 5202.03 30 5177.17 30C5152.31 30 5132.15 50.1548 5132.15 75.017Z" fill="#F28EC0"/>
<path d="M5572.15 75.017V120.904H5360.35V150.686L5567.55 150.826C5586.89 150.839 5602.58 135.165 5602.58 115.826V75.7109C5602.58 67.1376 5609.53 60.1876 5618.1 60.1876C5626.67 60.1876 5633.62 67.1377 5633.62 75.7109V240.602H5355C5330.15 240.602 5310 260.748 5310 285.6C5310 310.451 5330.15 330.597 5355 330.597H5495.8C5503.78 330.597 5510.25 337.066 5510.25 345.045C5510.25 353.024 5503.78 359.492 5495.8 359.492H5374.46C5355.13 359.492 5339.46 375.162 5339.46 394.492V535C5339.46 554.33 5355.13 570 5374.46 570H5690V540.519H5368.71V390.394H5496.03C5520.68 390.394 5540.67 370.406 5540.67 345.75C5540.67 321.095 5520.68 301.107 5496.03 301.107H5355.18C5346.43 301.107 5339.35 294.018 5339.35 285.273C5339.35 276.529 5346.43 269.44 5355.18 269.44H5627.19C5646.52 269.44 5662.19 253.77 5662.19 234.44V75.017C5662.19 50.1548 5642.03 30 5617.17 30C5592.31 30 5572.15 50.1548 5572.15 75.017Z" fill="#F28EC0"/>
<path d="M6012.15 75.017V120.904H5800.35V150.686L6007.55 150.826C6026.89 150.839 6042.58 135.165 6042.58 115.826V75.7109C6042.58 67.1376 6049.53 60.1876 6058.1 60.1876C6066.67 60.1876 6073.62 67.1377 6073.62 75.7109V240.602H5795C5770.15 240.602 5750 260.748 5750 285.6C5750 310.451 5770.15 330.597 5795 330.597H5941.8C5949.78 330.597 5956.25 337.066 5956.25 345.045C5956.25 353.024 5949.78 359.492 5941.8 359.492H5814.46C5795.13 359.492 5779.46 375.162 5779.46 394.492V535C5779.46 554.33 5795.13 570 5814.46 570H6130V540.519H5808.71V390.394H5942.03C5966.68 390.394 5986.67 370.406 5986.67 345.75C5986.67 321.095 5966.68 301.107 5942.03 301.107H5795.18C5786.43 301.107 5779.35 294.018 5779.35 285.273C5779.35 276.529 5786.43 269.44 5795.18 269.44H6067.19C6086.52 269.44 6102.19 253.77 6102.19 234.44V75.017C6102.19 50.1548 6082.03 30 6057.17 30C6032.31 30 6012.15 50.1548 6012.15 75.017Z" fill="#F28EC0"/>
<path d="M6452.15 75.017V120.904H6240.35V150.686L6447.55 150.826C6466.89 150.839 6482.58 135.165 6482.58 115.826V75.7109C6482.58 67.1376 6489.53 60.1876 6498.1 60.1876C6506.67 60.1876 6513.62 67.1377 6513.62 75.7109V240.602H6235C6210.15 240.602 6190 260.748 6190 285.6C6190 310.451 6210.15 330.597 6235 330.597H6385.8C6393.78 330.597 6400.25 337.066 6400.25 345.045C6400.25 353.024 6393.78 359.492 6385.8 359.492H6254.46C6235.13 359.492 6219.46 375.162 6219.46 394.492V535C6219.46 554.33 6235.13 570 6254.46 570H6570V540.519H6248.71V390.394H6386.03C6410.68 390.394 6430.67 370.406 6430.67 345.75C6430.67 321.095 6410.68 301.107 6386.03 301.107H6235.18C6226.43 301.107 6219.35 294.018 6219.35 285.273C6219.35 276.529 6226.43 269.44 6235.18 269.44H6507.19C6526.52 269.44 6542.19 253.77 6542.19 234.44V75.017C6542.19 50.1548 6522.03 30 6497.17 30C6472.31 30 6452.15 50.1548 6452.15 75.017Z" fill="#F28EC0"/>
<path d="M6892.15 75.017V120.904H6680.35V150.686L6887.55 150.826C6906.89 150.839 6922.58 135.165 6922.58 115.826V75.7109C6922.58 67.1376 6929.53 60.1876 6938.1 60.1876C6946.67 60.1876 6953.62 67.1377 6953.62 75.7109V240.602H6675C6650.15 240.602 6630 260.748 6630 285.6C6630 310.451 6650.15 330.597 6675 330.597H6830.8C6838.78 330.597 6845.25 337.066 6845.25 345.045C6845.25 353.024 6838.78 359.492 6830.8 359.492H6694.46C6675.13 359.492 6659.46 375.162 6659.46 394.492V535C6659.46 554.33 6675.13 570 6694.46 570H7010V540.519H6688.71V390.394H6831.03C6855.68 390.394 6875.67 370.406 6875.67 345.75C6875.67 321.095 6855.68 301.107 6831.03 301.107H6675.18C6666.43 301.107 6659.35 294.018 6659.35 285.273C6659.35 276.529 6666.43 269.44 6675.18 269.44H6947.19C6966.52 269.44 6982.19 253.77 6982.19 234.44V75.017C6982.19 50.1548 6962.03 30 6937.17 30C6912.31 30 6892.15 50.1548 6892.15 75.017Z" fill="#F28EC0"/>
<path d="M7332.15 75.017V120.904H7120.35V150.686L7327.55 150.826C7346.89 150.839 7362.58 135.165 7362.58 115.826V75.7109C7362.58 67.1376 7369.53 60.1876 7378.1 60.1876C7386.67 60.1876 7393.62 67.1377 7393.62 75.7109V240.602H7115C7090.15 240.602 7070 260.748 7070 285.6C7070 310.451 7090.15 330.597 7115 330.597H7275.8C7283.78 330.597 7290.25 337.066 7290.25 345.045C7290.25 353.024 7283.78 359.492 7275.8 359.492H7134.46C7115.13 359.492 7099.46 375.162 7099.46 394.492V535C7099.46 554.33 7115.13 570 7134.46 570H7450V540.519H7128.71V390.394H7276.03C7300.68 390.394 7320.67 370.406 7320.67 345.75C7320.67 321.095 7300.68 301.107 7276.03 301.107H7115.18C7106.43 301.107 7099.35 294.018 7099.35 285.273C7099.35 276.529 7106.43 269.44 7115.18 269.44H7387.19C7406.52 269.44 7422.19 253.77 7422.19 234.44V75.017C7422.19 50.1548 7402.03 30 7377.17 30C7352.31 30 7332.15 50.1548 7332.15 75.017Z" fill="#F28EC0"/>
<path d="M7772.15 75.017V120.904H7560.35V150.686L7767.55 150.826C7786.89 150.839 7802.58 135.165 7802.58 115.826V75.7109C7802.58 67.1376 7809.53 60.1876 7818.1 60.1876C7826.67 60.1876 7833.62 67.1377 7833.62 75.7109V240.602H7555C7530.15 240.602 7510 260.748 7510 285.6C7510 310.451 7530.15 330.597 7555 330.597H7720.8C7728.78 330.597 7735.25 337.066 7735.25 345.045C7735.25 353.024 7728.78 359.492 7720.8 359.492H7574.46C7555.13 359.492 7539.46 375.162 7539.46 394.492V535C7539.46 554.33 7555.13 570 7574.46 570H7890V540.519H7568.71V390.394H7721.03C7745.68 390.394 7765.67 370.406 7765.67 345.75C7765.67 321.095 7745.68 301.107 7721.03 301.107H7555.18C7546.43 301.107 7539.35 294.018 7539.35 285.273C7539.35 276.529 7546.43 269.44 7555.18 269.44H7827.19C7846.52 269.44 7862.19 253.77 7862.19 234.44V75.017C7862.19 50.1548 7842.03 30 7817.17 30C7792.31 30 7772.15 50.1548 7772.15 75.017Z" fill="#F28EC0"/>
<path d="M8212.15 75.017V120.904H8000.35V150.686L8207.55 150.826C8226.89 150.839 8242.58 135.165 8242.58 115.826V75.7109C8242.58 67.1376 8249.53 60.1876 8258.1 60.1876C8266.67 60.1876 8273.62 67.1377 8273.62 75.7109V240.602H7995C7970.15 240.602 7950 260.748 7950 285.6C7950 310.451 7970.15 330.597 7995 330.597H8165.8C8173.78 330.597 8180.25 337.066 8180.25 345.045C8180.25 353.024 8173.78 359.492 8165.8 359.492H8014.46C7995.13 359.492 7979.46 375.162 7979.46 394.492V535C7979.46 554.33 7995.13 570 8014.46 570H8330V540.519H8008.71V390.394H8166.03C8190.68 390.394 8210.67 370.406 8210.67 345.75C8210.67 321.095 8190.68 301.107 8166.03 301.107H7995.18C7986.43 301.107 7979.35 294.018 7979.35 285.273C7979.35 276.529 7986.43 269.44 7995.18 269.44H8267.19C8286.52 269.44 8302.19 253.77 8302.19 234.44V75.017C8302.19 50.1548 8282.03 30 8257.17 30C8232.31 30 8212.15 50.1548 8212.15 75.017Z" fill="#F28EC0"/>
<path d="M8652.15 75.017V120.904H8440.35V150.686L8647.55 150.826C8666.89 150.839 8682.58 135.165 8682.58 115.826V75.7109C8682.58 67.1376 8689.53 60.1876 8698.1 60.1876C8706.67 60.1876 8713.62 67.1377 8713.62 75.7109V240.602H8435C8410.15 240.602 8390 260.748 8390 285.6C8390 310.451 8410.15 330.597 8435 330.597H8610.8C8618.78 330.597 8625.25 337.066 8625.25 345.045C8625.25 353.024 8618.78 359.492 8610.8 359.492H8454.46C8435.13 359.492 8419.46 375.162 8419.46 394.492V535C8419.46 554.33 8435.13 570 8454.46 570H8770V540.519H8448.71V390.394H8611.03C8635.68 390.394 8655.67 370.406 8655.67 345.75C8655.67 321.095 8635.68 301.107 8611.03 301.107H8435.18C8426.43 301.107 8419.35 294.018 8419.35 285.273C8419.35 276.529 8426.43 269.44 8435.18 269.44H8707.19C8726.52 269.44 8742.19 253.77 8742.19 234.44V75.017C8742.19 50.1548 8722.03 30 8697.17 30C8672.31 30 8652.15 50.1548 8652.15 75.017Z" fill="#F28EC0"/>
</svg>
