<svg width="15200" height="720" viewBox="0 0 15200 720" fill="none" xmlns="http://www.w3.org/2000/svg">
<path d="M14520.5 80V240H14440L14440.5 280L14520.5 280C14542.6 280 14560.5 262.091 14560.5 240V79.9996H14680.5V620C14680.5 653.137 14707.3 680 14740.5 680C14773.6 680 14800.5 653.137 14800.5 620V160H15120.5V240H14880.5C14858.4 240 14840.5 257.908 14840.5 280V520C14840.5 542.091 14858.4 560 14880.5 560H15200V520H14880.5V280H15120.5C15142.6 280 15160.5 262.091 15160.5 240V160C15160.5 137.908 15142.6 120 15120.5 120H14800.5C14778.4 120 14760.5 137.908 14760.5 160V620.079C14760.5 631.125 14751.5 640.079 14740.5 640.079C14729.4 640.079 14720.5 631.125 14720.5 620.079V80C14720.5 57.9086 14702.6 40 14680.5 40H14560.5C14538.4 40 14520.5 57.9087 14520.5 80Z" fill="#F28EC0"/>
<path d="M13760.5 80V240H13680L13680.5 280L13760.5 280C13782.6 280 13800.5 262.091 13800.5 240V79.9996H13920.5V620C13920.5 653.137 13947.3 680 13980.5 680C14013.6 680 14040.5 653.137 14040.5 620V160H14350.1V240H14120.5C14098.4 240 14080.5 257.908 14080.5 280V520C14080.5 542.091 14098.4 560 14120.5 560H14440V520H14120.5V280H14350.1C14372.2 280 14390.1 262.091 14390.1 240V160C14390.1 137.908 14372.2 120 14350.1 120H14040.5C14018.4 120 14000.5 137.908 14000.5 160V620.079C14000.5 631.125 13991.5 640.079 13980.5 640.079C13969.4 640.079 13960.5 631.125 13960.5 620.079V80C13960.5 57.9086 13942.6 40 13920.5 40H13800.5C13778.4 40 13760.5 57.9087 13760.5 80Z" fill="#F28EC0"/>
<path d="M13000.5 80V240H12920L12920.5 280L13000.5 280C13022.6 280 13040.5 262.091 13040.5 240V79.9996H13160.5V620C13160.5 653.137 13187.3 680 13220.5 680C13253.6 680 13280.5 653.137 13280.5 620V160H13580V240H13360.5C13338.4 240 13320.5 257.908 13320.5 280V520C13320.5 542.091 13338.4 560 13360.5 560H13680V520H13360.5V280H13580C13602.1 280 13620 262.091 13620 240V160C13620 137.908 13602.1 120 13580 120H13280.5C13258.4 120 13240.5 137.908 13240.5 160V620.079C13240.5 631.125 13231.5 640.079 13220.5 640.079C13209.4 640.079 13200.5 631.125 13200.5 620.079V80C13200.5 57.9086 13182.6 40 13160.5 40H13040.5C13018.4 40 13000.5 57.9087 13000.5 80Z" fill="#F28EC0"/>
<path d="M12240.5 80V240H12160L12160.5 280L12240.5 280C12262.6 280 12280.5 262.091 12280.5 240V79.9996H12400.5V620C12400.5 653.137 12427.3 680 12460.5 680C12493.6 680 12520.5 653.137 12520.5 620V160H12809.9V240H12600.5C12578.4 240 12560.5 257.908 12560.5 280V520C12560.5 542.091 12578.4 560 12600.5 560H12920V520H12600.5V280H12809.9C12832 280 12849.9 262.091 12849.9 240V160C12849.9 137.908 12832 120 12809.9 120H12520.5C12498.4 120 12480.5 137.908 12480.5 160V620.079C12480.5 631.125 12471.5 640.079 12460.5 640.079C12449.4 640.079 12440.5 631.125 12440.5 620.079V80C12440.5 57.9086 12422.6 40 12400.5 40H12280.5C12258.4 40 12240.5 57.9087 12240.5 80Z" fill="#F28EC0"/>
<path d="M11480.5 80V240H11400L11400.5 280L11480.5 280C11502.6 280 11520.5 262.091 11520.5 240V79.9996H11640.5V620C11640.5 653.137 11667.3 680 11700.5 680C11733.6 680 11760.5 653.137 11760.5 620V160H12040V240H11840.5C11818.4 240 11800.5 257.908 11800.5 280V520C11800.5 542.091 11818.4 560 11840.5 560H12160V520H11840.5V280H12040C12062.1 280 12080 262.091 12080 240V160C12080 137.908 12062.1 120 12040 120H11760.5C11738.4 120 11720.5 137.908 11720.5 160V620.079C11720.5 631.125 11711.5 640.079 11700.5 640.079C11689.4 640.079 11680.5 631.125 11680.5 620.079V80C11680.5 57.9086 11662.6 40 11640.5 40H11520.5C11498.4 40 11480.5 57.9087 11480.5 80Z" fill="#F28EC0"/>
<path d="M10720.5 80V240H10640L10640.5 280L10720.5 280C10742.6 280 10760.5 262.091 10760.5 240V79.9996H10880.5V620C10880.5 653.137 10907.3 680 10940.5 680C10973.6 680 11000.5 653.137 11000.5 620V160H11270.8V240H11080.5C11058.4 240 11040.5 257.908 11040.5 280V520C11040.5 542.091 11058.4 560 11080.5 560H11400V520H11080.5V280H11270.8C11292.9 280 11310.8 262.091 11310.8 240V160C11310.8 137.908 11292.9 120 11270.8 120H11000.5C10978.4 120 10960.5 137.908 10960.5 160V620.079C10960.5 631.125 10951.5 640.079 10940.5 640.079C10929.4 640.079 10920.5 631.125 10920.5 620.079V80C10920.5 57.9086 10902.6 40 10880.5 40H10760.5C10738.4 40 10720.5 57.9087 10720.5 80Z" fill="#F28EC0"/>
<path d="M9960.48 80V240H9880L9880.49 280L9960.48 280C9982.58 280 10000.5 262.091 10000.5 240V79.9996H10120.5V620C10120.5 653.137 10147.3 680 10180.5 680C10213.6 680 10240.5 653.137 10240.5 620V160H10499.9V240H10320.5C10298.4 240 10280.5 257.908 10280.5 280V520C10280.5 542.091 10298.4 560 10320.5 560H10640V520H10320.5V280H10499.9C10522 280 10539.9 262.091 10539.9 240V160C10539.9 137.908 10522 120 10499.9 120H10240.5C10218.4 120 10200.5 137.908 10200.5 160V620.079C10200.5 631.125 10191.5 640.079 10180.5 640.079C10169.4 640.079 10160.5 631.125 10160.5 620.079V80C10160.5 57.9086 10142.6 40 10120.5 40H10000.5C9978.39 40 9960.48 57.9087 9960.48 80Z" fill="#F28EC0"/>
<path d="M9200.48 80V240H9120L9120.49 280L9200.48 280C9222.58 280 9240.48 262.091 9240.48 240V79.9996H9360.48V620C9360.48 653.137 9387.35 680 9420.48 680C9453.62 680 9480.48 653.137 9480.48 620V160H9729.97V240H9560.48C9538.39 240 9520.48 257.908 9520.48 280V520C9520.48 542.091 9538.39 560 9560.48 560H9880V520H9560.48V280H9729.97C9752.06 280 9769.97 262.091 9769.97 240V160C9769.97 137.908 9752.06 120 9729.97 120H9480.48C9458.39 120 9440.48 137.908 9440.48 160V620.079C9440.48 631.125 9431.53 640.079 9420.48 640.079C9409.44 640.079 9400.48 631.125 9400.48 620.079V80C9400.48 57.9086 9382.58 40 9360.48 40H9240.48C9218.39 40 9200.48 57.9087 9200.48 80Z" fill="#F28EC0"/>
<path d="M8440.48 80V240H8360L8360.49 280L8440.48 280C8462.58 280 8480.48 262.091 8480.48 240V79.9996H8600.48V620C8600.48 653.137 8627.35 680 8660.48 680C8693.62 680 8720.48 653.137 8720.48 620V160H8960.17V240H8800.48C8778.39 240 8760.48 257.908 8760.48 280V520C8760.48 542.091 8778.39 560 8800.48 560H9120V520H8800.48V280H8960.17C8982.26 280 9000.17 262.091 9000.17 240V160C9000.17 137.908 8982.26 120 8960.17 120H8720.48C8698.39 120 8680.48 137.908 8680.48 160V620.079C8680.48 631.125 8671.53 640.079 8660.48 640.079C8649.44 640.079 8640.48 631.125 8640.48 620.079V80C8640.48 57.9086 8622.58 40 8600.48 40H8480.48C8458.39 40 8440.48 57.9087 8440.48 80Z" fill="#F28EC0"/>
<path d="M7680.48 80V240H7600L7600.49 280L7680.48 280C7702.58 280 7720.48 262.091 7720.48 240V79.9996H7840.48V620C7840.48 653.137 7867.35 680 7900.48 680C7933.62 680 7960.48 653.137 7960.48 620V160H8190V240H8040.48C8018.39 240 8000.48 257.908 8000.48 280V520C8000.48 542.091 8018.39 560 8040.48 560H8360V520H8040.48V280H8190C8212.09 280 8230 262.091 8230 240V160C8230 137.908 8212.09 120 8190 120H7960.48C7938.39 120 7920.48 137.908 7920.48 160V620.079C7920.48 631.125 7911.53 640.079 7900.48 640.079C7889.44 640.079 7880.48 631.125 7880.48 620.079V80C7880.48 57.9086 7862.58 40 7840.48 40H7720.48C7698.39 40 7680.48 57.9087 7680.48 80Z" fill="#F28EC0"/>
<path d="M6920.48 80V240H6840L6840.49 280L6920.48 280C6942.58 280 6960.48 262.091 6960.48 240V79.9996H7080.48V620C7080.48 653.137 7107.35 680 7140.48 680C7173.62 680 7200.48 653.137 7200.48 620V160H7419.73V240H7280.48C7258.39 240 7240.48 257.908 7240.48 280V520C7240.48 542.091 7258.39 560 7280.48 560H7600V520H7280.48V280H7419.73C7441.83 280 7459.73 262.091 7459.73 240V160C7459.73 137.908 7441.83 120 7419.73 120H7200.48C7178.39 120 7160.48 137.908 7160.48 160V620.079C7160.48 631.125 7151.53 640.079 7140.48 640.079C7129.44 640.079 7120.48 631.125 7120.48 620.079V80C7120.48 57.9086 7102.58 40 7080.48 40H6960.48C6938.39 40 6920.48 57.9087 6920.48 80Z" fill="#F28EC0"/>
<path d="M6160.48 80V240H6080L6080.49 280L6160.48 280C6182.58 280 6200.48 262.091 6200.48 240V79.9996H6320.48V620C6320.48 653.137 6347.35 680 6380.48 680C6413.62 680 6440.48 653.137 6440.48 620V160H6649.71V240H6520.48C6498.39 240 6480.48 257.908 6480.48 280V520C6480.48 542.091 6498.39 560 6520.48 560H6840V520H6520.48V280H6649.71C6671.8 280 6689.71 262.091 6689.71 240V160C6689.71 137.908 6671.8 120 6649.71 120H6440.48C6418.39 120 6400.48 137.908 6400.48 160V620.079C6400.48 631.125 6391.53 640.079 6380.48 640.079C6369.44 640.079 6360.48 631.125 6360.48 620.079V80C6360.48 57.9086 6342.58 40 6320.48 40H6200.48C6178.39 40 6160.48 57.9087 6160.48 80Z" fill="#F28EC0"/>
<path d="M5400.48 80V240H5320L5320.49 280L5400.48 280C5422.58 280 5440.48 262.091 5440.48 240V79.9996H5560.48V620C5560.48 653.137 5587.35 680 5620.48 680C5653.62 680 5680.48 653.137 5680.48 620V160H5880.18V240H5760.48C5738.39 240 5720.48 257.908 5720.48 280V520C5720.48 542.091 5738.39 560 5760.48 560H6080V520H5760.48V280H5880.18C5902.28 280 5920.18 262.091 5920.18 240V160C5920.18 137.908 5902.28 120 5880.18 120H5680.48C5658.39 120 5640.48 137.908 5640.48 160V620.079C5640.48 631.125 5631.53 640.079 5620.48 640.079C5609.44 640.079 5600.48 631.125 5600.48 620.079V80C5600.48 57.9086 5582.58 40 5560.48 40H5440.48C5418.39 40 5400.48 57.9087 5400.48 80Z" fill="#F28EC0"/>
<path d="M4640.48 80V240H4560L4560.49 280L4640.48 280C4662.58 280 4680.48 262.091 4680.48 240V79.9996H4800.48V620C4800.48 653.137 4827.35 680 4860.48 680C4893.62 680 4920.48 653.137 4920.48 620V160H5110.41V240H5000.48C4978.39 240 4960.48 257.908 4960.48 280V520C4960.48 542.091 4978.39 560 5000.48 560H5320V520H5000.48V280H5110.41C5132.5 280 5150.41 262.091 5150.41 240V160C5150.41 137.908 5132.5 120 5110.41 120H4920.48C4898.39 120 4880.48 137.908 4880.48 160V620.079C4880.48 631.125 4871.53 640.079 4860.48 640.079C4849.44 640.079 4840.48 631.125 4840.48 620.079V80C4840.48 57.9086 4822.58 40 4800.48 40H4680.48C4658.39 40 4640.48 57.9087 4640.48 80Z" fill="#F28EC0"/>
<path d="M3880.48 80V240H3800L3800.49 280L3880.48 280C3902.58 280 3920.48 262.091 3920.48 240V79.9996H4040.48V620C4040.48 653.137 4067.35 680 4100.48 680C4133.62 680 4160.48 653.137 4160.48 620V160H4339.92V240H4240.48C4218.39 240 4200.48 257.908 4200.48 280V520C4200.48 542.091 4218.39 560 4240.48 560H4560V520H4240.48V280H4339.92C4362.01 280 4379.92 262.091 4379.92 240V160C4379.92 137.908 4362.01 120 4339.92 120H4160.48C4138.39 120 4120.48 137.908 4120.48 160V620.079C4120.48 631.125 4111.53 640.079 4100.48 640.079C4089.44 640.079 4080.48 631.125 4080.48 620.079V80C4080.48 57.9086 4062.58 40 4040.48 40H3920.48C3898.39 40 3880.48 57.9087 3880.48 80Z" fill="#F28EC0"/>
<path d="M3120.48 80V240H3040L3040.49 280L3120.48 280C3142.58 280 3160.48 262.091 3160.48 240V79.9996H3280.48V620C3280.48 653.137 3307.35 680 3340.48 680C3373.62 680 3400.48 653.137 3400.48 620V160H3570.18V240H3480.48C3458.39 240 3440.48 257.908 3440.48 280V520C3440.48 542.091 3458.39 560 3480.48 560H3800V520H3480.48V280H3570.18C3592.27 280 3610.18 262.091 3610.18 240V160C3610.18 137.908 3592.27 120 3570.18 120H3400.48C3378.39 120 3360.48 137.908 3360.48 160V620.079C3360.48 631.125 3351.53 640.079 3340.48 640.079C3329.44 640.079 3320.48 631.125 3320.48 620.079V80C3320.48 57.9086 3302.58 40 3280.48 40H3160.48C3138.39 40 3120.48 57.9087 3120.48 80Z" fill="#F28EC0"/>
<path d="M2360.48 80V240H2280L2280.49 280L2360.48 280C2382.58 280 2400.48 262.091 2400.48 240V79.9996H2520.48V620C2520.48 653.137 2547.35 680 2580.48 680C2613.62 680 2640.48 653.137 2640.48 620V160H2799.87V240H2720.48C2698.39 240 2680.48 257.908 2680.48 280V520C2680.48 542.091 2698.39 560 2720.48 560H3040V520H2720.48V280H2799.87C2821.96 280 2839.87 262.091 2839.87 240V160C2839.87 137.908 2821.96 120 2799.87 120H2640.48C2618.39 120 2600.48 137.908 2600.48 160V620.079C2600.48 631.125 2591.53 640.079 2580.48 640.079C2569.44 640.079 2560.48 631.125 2560.48 620.079V80C2560.48 57.9086 2542.58 40 2520.48 40H2400.48C2378.39 40 2360.48 57.9087 2360.48 80Z" fill="#F28EC0"/>
<path d="M1600.48 80V240H1520L1520.49 280L1600.48 280C1622.58 280 1640.48 262.091 1640.48 240V79.9996H1760.48V620C1760.48 653.137 1787.35 680 1820.48 680C1853.62 680 1880.48 653.137 1880.48 620V160H2030.41V240H1960.48C1938.39 240 1920.48 257.908 1920.48 280V520C1920.48 542.091 1938.39 560 1960.48 560H2280V520H1960.48V280H2030.41C2052.5 280 2070.41 262.091 2070.41 240V160C2070.41 137.908 2052.5 120 2030.41 120H1880.48C1858.39 120 1840.48 137.908 1840.48 160V620.079C1840.48 631.125 1831.53 640.079 1820.48 640.079C1809.44 640.079 1800.48 631.125 1800.48 620.079V80C1800.48 57.9086 1782.58 40 1760.48 40H1640.48C1618.39 40 1600.48 57.9087 1600.48 80Z" fill="#F28EC0"/>
<path d="M840.484 80V240H760L760.485 280L840.484 280C862.575 280 880.484 262.091 880.484 240V79.9996H1000.48V620C1000.48 653.137 1027.35 680 1060.48 680C1093.62 680 1120.48 653.137 1120.48 620V160H1260.86V240H1200.48C1178.39 240 1160.48 257.908 1160.48 280V520C1160.48 542.091 1178.39 560 1200.48 560H1520V520H1200.48V280H1260.86C1282.96 280 1300.86 262.091 1300.86 240V160C1300.86 137.908 1282.96 120 1260.86 120H1120.48C1098.39 120 1080.48 137.908 1080.48 160V620.079C1080.48 631.125 1071.53 640.079 1060.48 640.079C1049.44 640.079 1040.48 631.125 1040.48 620.079V80C1040.48 57.9086 1022.58 40 1000.48 40H880.484C858.392 40 840.484 57.9087 840.484 80Z" fill="#F28EC0"/>
<path d="M80.4836 80V240H0L0.485352 280L80.4837 280C102.575 280 120.484 262.091 120.484 240V79.9996H240.484V620C240.484 653.137 267.347 680 300.484 680C333.621 680 360.484 653.137 360.484 620V160H489.78V240H440.484C418.392 240 400.484 257.908 400.484 280V520C400.484 542.091 418.392 560 440.484 560H760.001V520H440.484V280H489.78C511.872 280 529.78 262.091 529.78 240V160C529.78 137.908 511.872 120 489.78 120H360.484C338.392 120 320.484 137.908 320.484 160V620.079C320.484 631.125 311.529 640.079 300.484 640.079C289.438 640.079 280.484 631.125 280.484 620.079V80C280.484 57.9086 262.575 40 240.484 40H120.484C98.3922 40 80.4836 57.9087 80.4836 80Z" fill="#F28EC0"/>
</svg>
