<svg width="14401" height="390" viewBox="0 0 14401 390" fill="none" xmlns="http://www.w3.org/2000/svg">
<path d="M371.046 119.366H165.953C141.276 119.366 121.27 99.3608 121.27 74.6831C121.27 50.0053 141.276 30 165.953 30H426.664C445.994 30 461.664 45.67 461.664 65V270.439H690.859V300.125L466.55 299.986C447.228 299.974 431.571 284.308 431.571 264.986V60.3149H165.631C157.206 60.3149 150.376 67.1447 150.376 75.5698C150.376 83.9948 157.206 90.8247 165.631 90.8247H365.493C384.823 90.8247 400.493 106.495 400.493 125.825V325C400.493 344.33 384.823 360 365.493 360H30.8594V330.474H371.046V119.366Z" fill="#F28EC0"/>
<path d="M1091.05 119.366H890.953C866.276 119.366 846.27 99.3608 846.27 74.6831C846.27 50.0053 866.276 30 890.953 30H1146.66C1165.99 30 1181.66 45.67 1181.66 65V270.439H1410.86V300.125L1186.55 299.986C1167.23 299.974 1151.57 284.308 1151.57 264.986V60.3149H890.631C882.206 60.3149 875.376 67.1447 875.376 75.5698C875.376 83.9948 882.206 90.8247 890.631 90.8247H1085.49C1104.82 90.8247 1120.49 106.495 1120.49 125.825V325C1120.49 344.33 1104.82 360 1085.49 360H750.859V330.474H1091.05V119.366Z" fill="#F28EC0"/>
<path d="M1811.05 119.366H1616.95C1592.28 119.366 1572.27 99.3608 1572.27 74.6831C1572.27 50.0053 1592.28 30 1616.95 30H1866.66C1885.99 30 1901.66 45.67 1901.66 65V270.439H2130.86V300.125L1906.55 299.986C1887.23 299.974 1871.57 284.308 1871.57 264.986V60.3149H1616.63C1608.21 60.3149 1601.38 67.1447 1601.38 75.5698C1601.38 83.9948 1608.21 90.8247 1616.63 90.8247H1805.49C1824.82 90.8247 1840.49 106.495 1840.49 125.825V325C1840.49 344.33 1824.82 360 1805.49 360H1470.86V330.474H1811.05V119.366Z" fill="#F28EC0"/>
<path d="M2531.05 119.366H2341.95C2317.28 119.366 2297.27 99.3608 2297.27 74.6831C2297.27 50.0053 2317.28 30 2341.95 30H2586.66C2605.99 30 2621.66 45.67 2621.66 65V270.439H2850.86V300.125L2626.55 299.986C2607.23 299.974 2591.57 284.308 2591.57 264.986V60.3149H2341.63C2333.21 60.3149 2326.38 67.1447 2326.38 75.5698C2326.38 83.9948 2333.21 90.8247 2341.63 90.8247H2525.49C2544.82 90.8247 2560.49 106.495 2560.49 125.825V325C2560.49 344.33 2544.82 360 2525.49 360H2190.86V330.474H2531.05V119.366Z" fill="#F28EC0"/>
<path d="M3251.05 119.366H3066.95C3042.28 119.366 3022.27 99.3608 3022.27 74.6831C3022.27 50.0053 3042.28 30 3066.95 30H3306.66C3325.99 30 3341.66 45.67 3341.66 65V270.439H3570.86V300.125L3346.55 299.986C3327.23 299.974 3311.57 284.308 3311.57 264.986V60.3149H3066.63C3058.21 60.3149 3051.38 67.1447 3051.38 75.5698C3051.38 83.9948 3058.21 90.8247 3066.63 90.8247H3245.49C3264.82 90.8247 3280.49 106.495 3280.49 125.825V325C3280.49 344.33 3264.82 360 3245.49 360H2910.86V330.474H3251.05V119.366Z" fill="#F28EC0"/>
<path d="M3971.05 119.366H3791.95C3767.28 119.366 3747.27 99.3608 3747.27 74.6831C3747.27 50.0053 3767.28 30 3791.95 30H4026.66C4045.99 30 4061.66 45.67 4061.66 65V270.439H4290.86V300.125L4066.55 299.986C4047.23 299.974 4031.57 284.308 4031.57 264.986V60.3149H3791.63C3783.21 60.3149 3776.38 67.1447 3776.38 75.5698C3776.38 83.9948 3783.21 90.8247 3791.63 90.8247H3965.49C3984.82 90.8247 4000.49 106.495 4000.49 125.825V325C4000.49 344.33 3984.82 360 3965.49 360H3630.86V330.474H3971.05V119.366Z" fill="#F28EC0"/>
<path d="M4691.05 119.366H4516.95C4492.28 119.366 4472.27 99.3608 4472.27 74.6831C4472.27 50.0053 4492.28 30 4516.95 30H4746.66C4765.99 30 4781.66 45.67 4781.66 65V270.439H5010.86V300.125L4786.55 299.986C4767.23 299.974 4751.57 284.308 4751.57 264.986V60.3149H4516.63C4508.21 60.3149 4501.38 67.1447 4501.38 75.5698C4501.38 83.9948 4508.21 90.8247 4516.63 90.8247H4685.49C4704.82 90.8247 4720.49 106.495 4720.49 125.825V325C4720.49 344.33 4704.82 360 4685.49 360H4350.86V330.474H4691.05V119.366Z" fill="#F28EC0"/>
<path d="M5411.05 119.366H5241.95C5217.28 119.366 5197.27 99.3608 5197.27 74.6831C5197.27 50.0053 5217.28 30 5241.95 30H5466.66C5485.99 30 5501.66 45.67 5501.66 65V270.439H5730.86V300.125L5506.55 299.986C5487.23 299.974 5471.57 284.308 5471.57 264.986V60.3149H5241.63C5233.21 60.3149 5226.38 67.1447 5226.38 75.5698C5226.38 83.9948 5233.21 90.8247 5241.63 90.8247H5405.49C5424.82 90.8247 5440.49 106.495 5440.49 125.825V325C5440.49 344.33 5424.82 360 5405.49 360H5070.86V330.474H5411.05V119.366Z" fill="#F28EC0"/>
<path d="M6131.05 119.366H5966.95C5942.28 119.366 5922.27 99.3608 5922.27 74.6831C5922.27 50.0053 5942.28 30 5966.95 30H6186.66C6205.99 30 6221.66 45.67 6221.66 65V270.439H6450.86V300.125L6226.55 299.986C6207.23 299.974 6191.57 284.308 6191.57 264.986V60.3149H5966.63C5958.21 60.3149 5951.38 67.1447 5951.38 75.5698C5951.38 83.9948 5958.21 90.8247 5966.63 90.8247H6125.49C6144.82 90.8247 6160.49 106.495 6160.49 125.825V325C6160.49 344.33 6144.82 360 6125.49 360H5790.86V330.474H6131.05V119.366Z" fill="#F28EC0"/>
<path d="M6851.05 119.366H6691.95C6667.28 119.366 6647.27 99.3608 6647.27 74.6831C6647.27 50.0053 6667.28 30 6691.95 30H6906.66C6925.99 30 6941.66 45.67 6941.66 65V270.439H7170.86V300.125L6946.55 299.986C6927.23 299.974 6911.57 284.308 6911.57 264.986V60.3149H6691.63C6683.21 60.3149 6676.38 67.1447 6676.38 75.5698C6676.38 83.9948 6683.21 90.8247 6691.63 90.8247H6845.49C6864.82 90.8247 6880.49 106.495 6880.49 125.825V325C6880.49 344.33 6864.82 360 6845.49 360H6510.86V330.474H6851.05V119.366Z" fill="#F28EC0"/>
<path d="M7571.05 119.366H7416.95C7392.28 119.366 7372.27 99.3608 7372.27 74.6831C7372.27 50.0053 7392.28 30 7416.95 30H7626.66C7645.99 30 7661.66 45.67 7661.66 65V270.439H7890.86V300.125L7666.55 299.986C7647.23 299.974 7631.57 284.308 7631.57 264.986V60.3149H7416.63C7408.21 60.3149 7401.38 67.1447 7401.38 75.5698C7401.38 83.9948 7408.21 90.8247 7416.63 90.8247H7565.49C7584.82 90.8247 7600.49 106.495 7600.49 125.825V325C7600.49 344.33 7584.82 360 7565.49 360H7230.86V330.474H7571.05V119.366Z" fill="#F28EC0"/>
<path d="M8291.05 119.366H8141.95C8117.28 119.366 8097.27 99.3608 8097.27 74.6831C8097.27 50.0053 8117.28 30 8141.95 30H8346.66C8365.99 30 8381.66 45.67 8381.66 65V270.439H8610.86V300.125L8386.55 299.986C8367.23 299.974 8351.57 284.308 8351.57 264.986V60.3149H8141.63C8133.21 60.3149 8126.38 67.1447 8126.38 75.5698C8126.38 83.9948 8133.21 90.8247 8141.63 90.8247H8285.49C8304.82 90.8247 8320.49 106.495 8320.49 125.825V325C8320.49 344.33 8304.82 360 8285.49 360H7950.86V330.474H8291.05V119.366Z" fill="#F28EC0"/>
<path d="M9011.05 119.366H8866.95C8842.28 119.366 8822.27 99.3608 8822.27 74.6831C8822.27 50.0053 8842.28 30 8866.95 30H9066.66C9085.99 30 9101.66 45.67 9101.66 65V270.439H9330.86V300.125L9106.55 299.986C9087.23 299.974 9071.57 284.308 9071.57 264.986V60.3149H8866.63C8858.21 60.3149 8851.38 67.1447 8851.38 75.5698C8851.38 83.9948 8858.21 90.8247 8866.63 90.8247H9005.49C9024.82 90.8247 9040.49 106.495 9040.49 125.825V325C9040.49 344.33 9024.82 360 9005.49 360H8670.86V330.474H9011.05V119.366Z" fill="#F28EC0"/>
<path d="M9731.05 119.366H9592.95C9568.28 119.366 9548.27 99.3608 9548.27 74.6831C9548.27 50.0053 9568.28 30 9592.95 30H9786.66C9805.99 30 9821.66 45.67 9821.66 65V270.439H10050.9V300.125L9826.55 299.986C9807.23 299.974 9791.57 284.308 9791.57 264.986V60.3149H9592.63C9584.21 60.3149 9577.38 67.1447 9577.38 75.5698C9577.38 83.9948 9584.21 90.8247 9592.63 90.8247H9725.49C9744.82 90.8247 9760.49 106.495 9760.49 125.825V325C9760.49 344.33 9744.82 360 9725.49 360H9390.86V330.474H9731.05V119.366Z" fill="#F28EC0"/>
<path d="M10451 119.366H10316C10291.3 119.366 10271.3 99.3608 10271.3 74.6831C10271.3 50.0053 10291.3 30 10316 30H10506.7C10526 30 10541.7 45.67 10541.7 65V270.439H10770.9V300.125L10546.5 299.986C10527.2 299.974 10511.6 284.308 10511.6 264.986V60.3149H10315.6C10307.2 60.3149 10300.4 67.1447 10300.4 75.5698C10300.4 83.9948 10307.2 90.8247 10315.6 90.8247H10445.5C10464.8 90.8247 10480.5 106.495 10480.5 125.825V325C10480.5 344.33 10464.8 360 10445.5 360H10110.9V330.474H10451V119.366Z" fill="#F28EC0"/>
<path d="M11171 119.366H11041C11016.3 119.366 10996.3 99.3608 10996.3 74.6831C10996.3 50.0053 11016.3 30 11041 30H11226.7C11246 30 11261.7 45.67 11261.7 65V270.439H11490.9V300.125L11266.5 299.986C11247.2 299.974 11231.6 284.308 11231.6 264.986V60.3149H11040.6C11032.2 60.3149 11025.4 67.1447 11025.4 75.5698C11025.4 83.9948 11032.2 90.8247 11040.6 90.8247H11165.5C11184.8 90.8247 11200.5 106.495 11200.5 125.825V325C11200.5 344.33 11184.8 360 11165.5 360H10830.9V330.474H11171V119.366Z" fill="#F28EC0"/>
<path d="M11891 119.366H11766C11741.3 119.366 11721.3 99.3608 11721.3 74.6831C11721.3 50.0053 11741.3 30 11766 30H11946.7C11966 30 11981.7 45.67 11981.7 65V270.439H12210.9V300.125L11986.5 299.986C11967.2 299.974 11951.6 284.308 11951.6 264.986V60.3149H11765.6C11757.2 60.3149 11750.4 67.1447 11750.4 75.5698C11750.4 83.9948 11757.2 90.8247 11765.6 90.8247H11885.5C11904.8 90.8247 11920.5 106.495 11920.5 125.825V325C11920.5 344.33 11904.8 360 11885.5 360H11550.9V330.474H11891V119.366Z" fill="#F28EC0"/>
<path d="M12611 119.366H12492C12467.3 119.366 12447.3 99.3608 12447.3 74.6831C12447.3 50.0053 12467.3 30 12492 30H12666.7C12686 30 12701.7 45.67 12701.7 65V270.439H12930.9V300.125L12706.5 299.986C12687.2 299.974 12671.6 284.308 12671.6 264.986V60.3149H12491.6C12483.2 60.3149 12476.4 67.1447 12476.4 75.5698C12476.4 83.9948 12483.2 90.8247 12491.6 90.8247H12605.5C12624.8 90.8247 12640.5 106.495 12640.5 125.825V325C12640.5 344.33 12624.8 360 12605.5 360H12270.9V330.474H12611V119.366Z" fill="#F28EC0"/>
<path d="M13331 119.366H13217C13192.3 119.366 13172.3 99.3608 13172.3 74.6831C13172.3 50.0053 13192.3 30 13217 30H13386.7C13406 30 13421.7 45.67 13421.7 65V270.439H13650.9V300.125L13426.5 299.986C13407.2 299.974 13391.6 284.308 13391.6 264.986V60.3149H13216.6C13208.2 60.3149 13201.4 67.1447 13201.4 75.5698C13201.4 83.9948 13208.2 90.8247 13216.6 90.8247H13325.5C13344.8 90.8247 13360.5 106.495 13360.5 125.825V325C13360.5 344.33 13344.8 360 13325.5 360H12990.9V330.474H13331V119.366Z" fill="#F28EC0"/>
<path d="M14051 119.366H13942C13917.3 119.366 13897.3 99.3608 13897.3 74.6831C13897.3 50.0053 13917.3 30 13942 30H14106.7C14126 30 14141.7 45.67 14141.7 65V270.439H14370.9V300.125L14146.5 299.986C14127.2 299.974 14111.6 284.308 14111.6 264.986V60.3149H13941.6C13933.2 60.3149 13926.4 67.1447 13926.4 75.5698C13926.4 83.9948 13933.2 90.8247 13941.6 90.8247H14045.5C14064.8 90.8247 14080.5 106.495 14080.5 125.825V325C14080.5 344.33 14064.8 360 14045.5 360H13710.9V330.474H14051V119.366Z" fill="#F28EC0"/>
</svg>
