<svg width="12920" height="721" viewBox="0 0 12920 721" fill="none" xmlns="http://www.w3.org/2000/svg">
<path d="M399.999 560.195H0V600.195H399.999C422.09 600.195 439.999 582.287 439.999 560.195V400.195C439.999 378.104 422.09 360.195 399.999 360.195L99.9815 360.195C88.9358 360.195 79.9815 351.241 79.9815 340.195C79.9815 329.149 88.9358 320.195 99.9815 320.195L399.999 320.195C422.09 320.195 439.999 302.287 439.999 280.195V140.275C439.999 129.229 448.953 120.275 459.999 120.275C471.044 120.275 479.999 129.229 479.999 140.275V280.195C479.999 302.287 497.907 320.195 519.999 320.195H559.999L559.574 600.213C559.541 622.328 577.459 640.273 599.574 640.273H680V600.195H599.028V320.195C599.028 298.104 581.12 280.195 559.028 280.195H519.999V140.273C519.999 107.136 493.136 80.2734 459.999 80.2734C426.862 80.2734 399.999 107.136 399.999 140.273V280.195L99.9814 280.195C66.8443 280.195 39.9815 307.058 39.9815 340.195C39.9815 373.332 66.8442 400.195 99.9812 400.195L399.999 400.195V560.195Z" fill="#F28EC0"/>
<path d="M1160 560.195H760V600.195H1160C1182.09 600.195 1200 582.287 1200 560.195V400.195C1200 378.104 1182.09 360.195 1160 360.195L869.847 360.195C858.802 360.195 849.847 351.241 849.847 340.195C849.847 329.149 858.802 320.195 869.847 320.195L1160 320.195C1182.09 320.195 1200 302.287 1200 280.195V140.275C1200 129.229 1208.95 120.275 1220 120.275C1231.04 120.275 1240 129.229 1240 140.275V280.195C1240 302.287 1257.91 320.195 1280 320.195H1320L1319.57 600.213C1319.54 622.328 1337.46 640.273 1359.57 640.273H1440V600.195H1359.03V320.195C1359.03 298.104 1341.12 280.195 1319.03 280.195H1280V140.273C1280 107.136 1253.14 80.2734 1220 80.2734C1186.86 80.2734 1160 107.136 1160 140.273V280.195L869.847 280.195C836.71 280.195 809.847 307.058 809.847 340.195C809.847 373.332 836.71 400.195 869.847 400.195L1160 400.195V560.195Z" fill="#F28EC0"/>
<path d="M1920 560.195H1520V600.195H1920C1942.09 600.195 1960 582.287 1960 560.195V400.195C1960 378.104 1942.09 360.195 1920 360.195L1639.91 360.195C1628.86 360.195 1619.91 351.241 1619.91 340.195C1619.91 329.149 1628.86 320.195 1639.91 320.195L1920 320.195C1942.09 320.195 1960 302.287 1960 280.195V140.275C1960 129.229 1968.95 120.275 1980 120.275C1991.04 120.275 2000 129.229 2000 140.275V280.195C2000 302.287 2017.91 320.195 2040 320.195H2080L2079.57 600.213C2079.54 622.328 2097.46 640.273 2119.57 640.273H2200V600.195H2119.03V320.195C2119.03 298.104 2101.12 280.195 2079.03 280.195H2040V140.273C2040 107.136 2013.14 80.2734 1980 80.2734C1946.86 80.2734 1920 107.136 1920 140.273V280.195L1639.91 280.195C1606.77 280.195 1579.91 307.058 1579.91 340.195C1579.91 373.332 1606.77 400.195 1639.91 400.195L1920 400.195V560.195Z" fill="#F28EC0"/>
<path d="M2680 560.195H2280V600.195H2680C2702.09 600.195 2720 582.287 2720 560.195V400.195C2720 378.104 2702.09 360.195 2680 360.195L2409.98 360.195C2398.93 360.195 2389.98 351.241 2389.98 340.195C2389.98 329.149 2398.93 320.195 2409.98 320.195L2680 320.195C2702.09 320.195 2720 302.287 2720 280.195V140.275C2720 129.229 2728.95 120.275 2740 120.275C2751.04 120.275 2760 129.229 2760 140.275V280.195C2760 302.287 2777.91 320.195 2800 320.195H2840L2839.57 600.213C2839.54 622.328 2857.46 640.273 2879.57 640.273H2960V600.195H2879.03V320.195C2879.03 298.104 2861.12 280.195 2839.03 280.195H2800V140.273C2800 107.136 2773.14 80.2734 2740 80.2734C2706.86 80.2734 2680 107.136 2680 140.273V280.195L2409.98 280.195C2376.84 280.195 2349.98 307.058 2349.98 340.195C2349.98 373.332 2376.84 400.195 2409.98 400.195L2680 400.195V560.195Z" fill="#F28EC0"/>
<path d="M3440 560.195H3040V600.195H3440C3462.09 600.195 3480 582.287 3480 560.195V400.195C3480 378.104 3462.09 360.195 3440 360.195L3180.56 360.195C3169.52 360.195 3160.56 351.241 3160.56 340.195C3160.56 329.149 3169.52 320.195 3180.56 320.195L3440 320.195C3462.09 320.195 3480 302.287 3480 280.195V140.275C3480 129.229 3488.95 120.275 3500 120.275C3511.04 120.275 3520 129.229 3520 140.275V280.195C3520 302.287 3537.91 320.195 3560 320.195H3600L3599.57 600.213C3599.54 622.328 3617.46 640.273 3639.57 640.273H3720V600.195H3639.03V320.195C3639.03 298.104 3621.12 280.195 3599.03 280.195H3560V140.273C3560 107.136 3533.14 80.2734 3500 80.2734C3466.86 80.2734 3440 107.136 3440 140.273V280.195L3180.56 280.195C3147.43 280.195 3120.56 307.058 3120.56 340.195C3120.56 373.332 3147.43 400.195 3180.56 400.195L3440 400.195V560.195Z" fill="#F28EC0"/>
<path d="M4200 560.195H3800V600.195H4200C4222.09 600.195 4240 582.287 4240 560.195V400.195C4240 378.104 4222.09 360.195 4200 360.195L3949.22 360.195C3938.17 360.195 3929.22 351.241 3929.22 340.195C3929.22 329.149 3938.17 320.195 3949.22 320.195L4200 320.195C4222.09 320.195 4240 302.287 4240 280.195V140.275C4240 129.229 4248.95 120.275 4260 120.275C4271.04 120.275 4280 129.229 4280 140.275V280.195C4280 302.287 4297.91 320.195 4320 320.195H4360L4359.57 600.213C4359.54 622.328 4377.46 640.273 4399.57 640.273H4480V600.195H4399.03V320.195C4399.03 298.104 4381.12 280.195 4359.03 280.195H4320V140.273C4320 107.136 4293.14 80.2734 4260 80.2734C4226.86 80.2734 4200 107.136 4200 140.273V280.195L3949.22 280.195C3916.08 280.195 3889.22 307.058 3889.22 340.195C3889.22 373.332 3916.08 400.195 3949.22 400.195L4200 400.195V560.195Z" fill="#F28EC0"/>
<path d="M4960 560.195H4560V600.195H4960C4982.09 600.195 5000 582.287 5000 560.195V400.195C5000 378.104 4982.09 360.195 4960 360.195L4720.38 360.195C4709.33 360.195 4700.38 351.241 4700.38 340.195C4700.38 329.149 4709.33 320.195 4720.38 320.195L4960 320.195C4982.09 320.195 5000 302.287 5000 280.195V140.275C5000 129.229 5008.95 120.275 5020 120.275C5031.04 120.275 5040 129.229 5040 140.275V280.195C5040 302.287 5057.91 320.195 5080 320.195H5120L5119.57 600.213C5119.54 622.328 5137.46 640.273 5159.57 640.273H5240V600.195H5159.03V320.195C5159.03 298.104 5141.12 280.195 5119.03 280.195H5080V140.273C5080 107.136 5053.14 80.2734 5020 80.2734C4986.86 80.2734 4960 107.136 4960 140.273V280.195L4720.38 280.195C4687.24 280.195 4660.38 307.058 4660.38 340.195C4660.38 373.332 4687.24 400.195 4720.38 400.195L4960 400.195V560.195Z" fill="#F28EC0"/>
<path d="M5720 560.195H5320V600.195H5720C5742.09 600.195 5760 582.287 5760 560.195V400.195C5760 378.104 5742.09 360.195 5720 360.195L5490.2 360.195C5479.16 360.195 5470.2 351.241 5470.2 340.195C5470.2 329.149 5479.16 320.195 5490.2 320.195L5720 320.195C5742.09 320.195 5760 302.287 5760 280.195V140.275C5760 129.229 5768.95 120.275 5780 120.275C5791.04 120.275 5800 129.229 5800 140.275V280.195C5800 302.287 5817.91 320.195 5840 320.195H5880L5879.57 600.213C5879.54 622.328 5897.46 640.273 5919.57 640.273H6000V600.195H5919.03V320.195C5919.03 298.104 5901.12 280.195 5879.03 280.195H5840V140.273C5840 107.136 5813.14 80.2734 5780 80.2734C5746.86 80.2734 5720 107.136 5720 140.273V280.195L5490.2 280.195C5457.06 280.195 5430.2 307.058 5430.2 340.195C5430.2 373.332 5457.06 400.195 5490.2 400.195L5720 400.195V560.195Z" fill="#F28EC0"/>
<path d="M6480 560.195H6080V600.195H6480C6502.09 600.195 6520 582.287 6520 560.195V400.195C6520 378.104 6502.09 360.195 6480 360.195L6259.88 360.195C6248.84 360.195 6239.88 351.241 6239.88 340.195C6239.88 329.149 6248.84 320.195 6259.88 320.195L6480 320.195C6502.09 320.195 6520 302.287 6520 280.195V140.275C6520 129.229 6528.95 120.275 6540 120.275C6551.04 120.275 6560 129.229 6560 140.275V280.195C6560 302.287 6577.91 320.195 6600 320.195H6640L6639.57 600.213C6639.54 622.328 6657.46 640.273 6679.57 640.273H6760V600.195H6679.03V320.195C6679.03 298.104 6661.12 280.195 6639.03 280.195H6600V140.273C6600 107.136 6573.14 80.2734 6540 80.2734C6506.86 80.2734 6480 107.136 6480 140.273V280.195L6259.88 280.195C6226.75 280.195 6199.88 307.058 6199.88 340.195C6199.88 373.332 6226.75 400.195 6259.88 400.195L6480 400.195V560.195Z" fill="#F28EC0"/>
<path d="M7240 560.195H6840V600.195H7240C7262.09 600.195 7280 582.287 7280 560.195V400.195C7280 378.104 7262.09 360.195 7240 360.195L7030.73 360.195C7019.68 360.195 7010.73 351.241 7010.73 340.195C7010.73 329.149 7019.68 320.195 7030.73 320.195L7240 320.195C7262.09 320.195 7280 302.287 7280 280.195V140.275C7280 129.229 7288.95 120.275 7300 120.275C7311.04 120.275 7320 129.229 7320 140.275V280.195C7320 302.287 7337.91 320.195 7360 320.195H7400L7399.57 600.213C7399.54 622.328 7417.46 640.273 7439.57 640.273H7520V600.195H7439.03V320.195C7439.03 298.104 7421.12 280.195 7399.03 280.195H7360V140.273C7360 107.136 7333.14 80.2734 7300 80.2734C7266.86 80.2734 7240 107.136 7240 140.273V280.195L7030.73 280.195C6997.59 280.195 6970.73 307.058 6970.73 340.195C6970.73 373.332 6997.59 400.195 7030.73 400.195L7240 400.195V560.195Z" fill="#F28EC0"/>
<path d="M8000 560.195H7600V600.195H8000C8022.09 600.195 8040 582.287 8040 560.195V400.195C8040 378.104 8022.09 360.195 8000 360.195L7800.6 360.195C7789.55 360.195 7780.6 351.241 7780.6 340.195C7780.6 329.149 7789.55 320.195 7800.6 320.195L8000 320.195C8022.09 320.195 8040 302.287 8040 280.195V140.275C8040 129.229 8048.95 120.275 8060 120.275C8071.04 120.275 8080 129.229 8080 140.275V280.195C8080 302.287 8097.91 320.195 8120 320.195H8160L8159.57 600.213C8159.54 622.328 8177.46 640.273 8199.57 640.273H8280V600.195H8199.03V320.195C8199.03 298.104 8181.12 280.195 8159.03 280.195H8120V140.273C8120 107.136 8093.14 80.2734 8060 80.2734C8026.86 80.2734 8000 107.136 8000 140.273V280.195L7800.6 280.195C7767.46 280.195 7740.6 307.058 7740.6 340.195C7740.6 373.332 7767.46 400.195 7800.6 400.195L8000 400.195V560.195Z" fill="#F28EC0"/>
<path d="M8760 560.195H8360V600.195H8760C8782.09 600.195 8800 582.287 8800 560.195V400.195C8800 378.104 8782.09 360.195 8760 360.195L8569.85 360.195C8558.8 360.195 8549.85 351.241 8549.85 340.195C8549.85 329.149 8558.8 320.195 8569.85 320.195L8760 320.195C8782.09 320.195 8800 302.287 8800 280.195V140.275C8800 129.229 8808.95 120.275 8820 120.275C8831.04 120.275 8840 129.229 8840 140.275V280.195C8840 302.287 8857.91 320.195 8880 320.195H8920L8919.57 600.213C8919.54 622.328 8937.46 640.273 8959.57 640.273H9040V600.195H8959.03V320.195C8959.03 298.104 8941.12 280.195 8919.03 280.195H8880V140.273C8880 107.136 8853.14 80.2734 8820 80.2734C8786.86 80.2734 8760 107.136 8760 140.273V280.195L8569.85 280.195C8536.71 280.195 8509.85 307.058 8509.85 340.195C8509.85 373.332 8536.71 400.195 8569.85 400.195L8760 400.195V560.195Z" fill="#F28EC0"/>
<path d="M9520 560.195H9120V600.195H9520C9542.09 600.195 9560 582.287 9560 560.195V400.195C9560 378.104 9542.09 360.195 9520 360.195L9340.16 360.195C9329.12 360.195 9320.16 351.241 9320.16 340.195C9320.16 329.149 9329.12 320.195 9340.16 320.195L9520 320.195C9542.09 320.195 9560 302.287 9560 280.195V140.275C9560 129.229 9568.95 120.275 9580 120.275C9591.04 120.275 9600 129.229 9600 140.275V280.195C9600 302.287 9617.91 320.195 9640 320.195H9680L9679.57 600.213C9679.54 622.328 9697.46 640.273 9719.57 640.273H9800V600.195H9719.03V320.195C9719.03 298.104 9701.12 280.195 9679.03 280.195H9640V140.273C9640 107.136 9613.14 80.2734 9580 80.2734C9546.86 80.2734 9520 107.136 9520 140.273V280.195L9340.16 280.195C9307.03 280.195 9280.16 307.058 9280.16 340.195C9280.16 373.332 9307.03 400.195 9340.16 400.195L9520 400.195V560.195Z" fill="#F28EC0"/>
<path d="M10280 560.195H9880V600.195H10280C10302.1 600.195 10320 582.287 10320 560.195V400.195C10320 378.104 10302.1 360.195 10280 360.195L10109.6 360.195C10098.6 360.195 10089.6 351.241 10089.6 340.195C10089.6 329.149 10098.6 320.195 10109.6 320.195L10280 320.195C10302.1 320.195 10320 302.287 10320 280.195V140.275C10320 129.229 10329 120.275 10340 120.275C10351 120.275 10360 129.229 10360 140.275V280.195C10360 302.287 10377.9 320.195 10400 320.195H10440L10439.6 600.213C10439.5 622.328 10457.5 640.273 10479.6 640.273H10560V600.195H10479V320.195C10479 298.104 10461.1 280.195 10439 280.195H10400V140.273C10400 107.136 10373.1 80.2734 10340 80.2734C10306.9 80.2734 10280 107.136 10280 140.273V280.195L10109.6 280.195C10076.5 280.195 10049.6 307.058 10049.6 340.195C10049.6 373.332 10076.5 400.195 10109.6 400.195L10280 400.195V560.195Z" fill="#F28EC0"/>
<path d="M11040 560.195H10640V600.195H11040C11062.1 600.195 11080 582.287 11080 560.195V400.195C11080 378.104 11062.1 360.195 11040 360.195L10880.1 360.195C10869.1 360.195 10860.1 351.241 10860.1 340.195C10860.1 329.149 10869.1 320.195 10880.1 320.195L11040 320.195C11062.1 320.195 11080 302.287 11080 280.195V140.275C11080 129.229 11089 120.275 11100 120.275C11111 120.275 11120 129.229 11120 140.275V280.195C11120 302.287 11137.9 320.195 11160 320.195H11200L11199.6 600.213C11199.5 622.328 11217.5 640.273 11239.6 640.273H11320V600.195H11239V320.195C11239 298.104 11221.1 280.195 11199 280.195H11160V140.273C11160 107.136 11133.1 80.2734 11100 80.2734C11066.9 80.2734 11040 107.136 11040 140.273V280.195L10880.1 280.195C10847 280.195 10820.1 307.058 10820.1 340.195C10820.1 373.332 10847 400.195 10880.1 400.195L11040 400.195V560.195Z" fill="#F28EC0"/>
<path d="M11800 560.195H11400V600.195H11800C11822.1 600.195 11840 582.287 11840 560.195V400.195C11840 378.104 11822.1 360.195 11800 360.195L11650.1 360.195C11639 360.195 11630.1 351.241 11630.1 340.195C11630.1 329.149 11639 320.195 11650.1 320.195L11800 320.195C11822.1 320.195 11840 302.287 11840 280.195V140.275C11840 129.229 11849 120.275 11860 120.275C11871 120.275 11880 129.229 11880 140.275V280.195C11880 302.287 11897.9 320.195 11920 320.195H11960L11959.6 600.213C11959.5 622.328 11977.5 640.273 11999.6 640.273H12080V600.195H11999V320.195C11999 298.104 11981.1 280.195 11959 280.195H11920V140.273C11920 107.136 11893.1 80.2734 11860 80.2734C11826.9 80.2734 11800 107.136 11800 140.273V280.195L11650.1 280.195C11616.9 280.195 11590.1 307.058 11590.1 340.195C11590.1 373.332 11616.9 400.195 11650.1 400.195L11800 400.195V560.195Z" fill="#F28EC0"/>
<path d="M12560 560.195H12160V600.195H12560C12582.1 600.195 12600 582.287 12600 560.195V400.195C12600 378.104 12582.1 360.195 12560 360.195L12420.1 360.195C12409.1 360.195 12400.1 351.241 12400.1 340.195C12400.1 329.149 12409.1 320.195 12420.1 320.195L12560 320.195C12582.1 320.195 12600 302.287 12600 280.195V140.275C12600 129.229 12609 120.275 12620 120.275C12631 120.275 12640 129.229 12640 140.275V280.195C12640 302.287 12657.9 320.195 12680 320.195H12720L12719.6 600.213C12719.5 622.328 12737.5 640.273 12759.6 640.273H12840V600.195H12759V320.195C12759 298.104 12741.1 280.195 12719 280.195H12680V140.273C12680 107.136 12653.1 80.2734 12620 80.2734C12586.9 80.2734 12560 107.136 12560 140.273V280.195L12420.1 280.195C12387 280.195 12360.1 307.058 12360.1 340.195C12360.1 373.332 12387 400.195 12420.1 400.195L12560 400.195V560.195Z" fill="#F28EC0"/>
</svg>
