<svg width="14400" height="721" viewBox="0 0 14400 721" fill="none" xmlns="http://www.w3.org/2000/svg">
<path d="M399.999 560.195H0V600.195H399.999C422.09 600.195 439.999 582.287 439.999 560.195V400.195C439.999 378.104 422.09 360.195 399.999 360.195L99.9815 360.195C88.9358 360.195 79.9815 351.241 79.9815 340.195C79.9815 329.149 88.9358 320.195 99.9815 320.195L399.999 320.195C422.09 320.195 439.999 302.287 439.999 280.195V140.275C439.999 129.229 448.953 120.275 459.999 120.275C471.044 120.275 479.999 129.229 479.999 140.275V280.195C479.999 302.287 497.907 320.195 519.999 320.195H559.999L559.574 600.213C559.541 622.328 577.459 640.273 599.574 640.273H680V600.195H599.028V320.195C599.028 298.104 581.12 280.195 559.028 280.195H519.999V140.273C519.999 107.136 493.136 80.2734 459.999 80.2734C426.862 80.2734 399.999 107.136 399.999 140.273V280.195L99.9814 280.195C66.8443 280.195 39.9815 307.058 39.9815 340.195C39.9815 373.332 66.8442 400.195 99.9812 400.195L399.999 400.195V560.195Z" fill="#F28EC0"/>
<path d="M1120 560.195H720V600.195H1120C1142.09 600.195 1160 582.287 1160 560.195V400.195C1160 378.104 1142.09 360.195 1120 360.195L829.847 360.195C818.802 360.195 809.847 351.241 809.847 340.195C809.847 329.149 818.802 320.195 829.847 320.195L1120 320.195C1142.09 320.195 1160 302.287 1160 280.195V140.275C1160 129.229 1168.95 120.275 1180 120.275C1191.04 120.275 1200 129.229 1200 140.275V280.195C1200 302.287 1217.91 320.195 1240 320.195H1280L1279.57 600.213C1279.54 622.328 1297.46 640.273 1319.57 640.273H1400V600.195H1319.03V320.195C1319.03 298.104 1301.12 280.195 1279.03 280.195H1240V140.273C1240 107.136 1213.14 80.2734 1180 80.2734C1146.86 80.2734 1120 107.136 1120 140.273V280.195L829.847 280.195C796.71 280.195 769.847 307.058 769.847 340.195C769.847 373.332 796.71 400.195 829.847 400.195L1120 400.195V560.195Z" fill="#F28EC0"/>
<path d="M1840 560.195H1440V600.195H1840C1862.09 600.195 1880 582.287 1880 560.195V400.195C1880 378.104 1862.09 360.195 1840 360.195L1559.91 360.195C1548.86 360.195 1539.91 351.241 1539.91 340.195C1539.91 329.149 1548.86 320.195 1559.91 320.195L1840 320.195C1862.09 320.195 1880 302.287 1880 280.195V140.275C1880 129.229 1888.95 120.275 1900 120.275C1911.04 120.275 1920 129.229 1920 140.275V280.195C1920 302.287 1937.91 320.195 1960 320.195H2000L1999.57 600.213C1999.54 622.328 2017.46 640.273 2039.57 640.273H2120V600.195H2039.03V320.195C2039.03 298.104 2021.12 280.195 1999.03 280.195H1960V140.273C1960 107.136 1933.14 80.2734 1900 80.2734C1866.86 80.2734 1840 107.136 1840 140.273V280.195L1559.91 280.195C1526.77 280.195 1499.91 307.058 1499.91 340.195C1499.91 373.332 1526.77 400.195 1559.91 400.195L1840 400.195V560.195Z" fill="#F28EC0"/>
<path d="M2560 560.195H2160V600.195H2560C2582.09 600.195 2600 582.287 2600 560.195V400.195C2600 378.104 2582.09 360.195 2560 360.195L2289.98 360.195C2278.93 360.195 2269.98 351.241 2269.98 340.195C2269.98 329.149 2278.93 320.195 2289.98 320.195L2560 320.195C2582.09 320.195 2600 302.287 2600 280.195V140.275C2600 129.229 2608.95 120.275 2620 120.275C2631.04 120.275 2640 129.229 2640 140.275V280.195C2640 302.287 2657.91 320.195 2680 320.195H2720L2719.57 600.213C2719.54 622.328 2737.46 640.273 2759.57 640.273H2840V600.195H2759.03V320.195C2759.03 298.104 2741.12 280.195 2719.03 280.195H2680V140.273C2680 107.136 2653.14 80.2734 2620 80.2734C2586.86 80.2734 2560 107.136 2560 140.273V280.195L2289.98 280.195C2256.84 280.195 2229.98 307.058 2229.98 340.195C2229.98 373.332 2256.84 400.195 2289.98 400.195L2560 400.195V560.195Z" fill="#F28EC0"/>
<path d="M3280 560.195H2880V600.195H3280C3302.09 600.195 3320 582.287 3320 560.195V400.195C3320 378.104 3302.09 360.195 3280 360.195L3020.56 360.195C3009.52 360.195 3000.56 351.241 3000.56 340.195C3000.56 329.149 3009.52 320.195 3020.56 320.195L3280 320.195C3302.09 320.195 3320 302.287 3320 280.195V140.275C3320 129.229 3328.95 120.275 3340 120.275C3351.04 120.275 3360 129.229 3360 140.275V280.195C3360 302.287 3377.91 320.195 3400 320.195H3440L3439.57 600.213C3439.54 622.328 3457.46 640.273 3479.57 640.273H3560V600.195H3479.03V320.195C3479.03 298.104 3461.12 280.195 3439.03 280.195H3400V140.273C3400 107.136 3373.14 80.2734 3340 80.2734C3306.86 80.2734 3280 107.136 3280 140.273V280.195L3020.56 280.195C2987.43 280.195 2960.56 307.058 2960.56 340.195C2960.56 373.332 2987.43 400.195 3020.56 400.195L3280 400.195V560.195Z" fill="#F28EC0"/>
<path d="M4000 560.195H3600V600.195H4000C4022.09 600.195 4040 582.287 4040 560.195V400.195C4040 378.104 4022.09 360.195 4000 360.195L3749.22 360.195C3738.17 360.195 3729.22 351.241 3729.22 340.195C3729.22 329.149 3738.17 320.195 3749.22 320.195L4000 320.195C4022.09 320.195 4040 302.287 4040 280.195V140.275C4040 129.229 4048.95 120.275 4060 120.275C4071.04 120.275 4080 129.229 4080 140.275V280.195C4080 302.287 4097.91 320.195 4120 320.195H4160L4159.57 600.213C4159.54 622.328 4177.46 640.273 4199.57 640.273H4280V600.195H4199.03V320.195C4199.03 298.104 4181.12 280.195 4159.03 280.195H4120V140.273C4120 107.136 4093.14 80.2734 4060 80.2734C4026.86 80.2734 4000 107.136 4000 140.273V280.195L3749.22 280.195C3716.08 280.195 3689.22 307.058 3689.22 340.195C3689.22 373.332 3716.08 400.195 3749.22 400.195L4000 400.195V560.195Z" fill="#F28EC0"/>
<path d="M4720 560.195H4320V600.195H4720C4742.09 600.195 4760 582.287 4760 560.195V400.195C4760 378.104 4742.09 360.195 4720 360.195L4480.38 360.195C4469.33 360.195 4460.38 351.241 4460.38 340.195C4460.38 329.149 4469.33 320.195 4480.38 320.195L4720 320.195C4742.09 320.195 4760 302.287 4760 280.195V140.275C4760 129.229 4768.95 120.275 4780 120.275C4791.04 120.275 4800 129.229 4800 140.275V280.195C4800 302.287 4817.91 320.195 4840 320.195H4880L4879.57 600.213C4879.54 622.328 4897.46 640.273 4919.57 640.273H5000V600.195H4919.03V320.195C4919.03 298.104 4901.12 280.195 4879.03 280.195H4840V140.273C4840 107.136 4813.14 80.2734 4780 80.2734C4746.86 80.2734 4720 107.136 4720 140.273V280.195L4480.38 280.195C4447.24 280.195 4420.38 307.058 4420.38 340.195C4420.38 373.332 4447.24 400.195 4480.38 400.195L4720 400.195V560.195Z" fill="#F28EC0"/>
<path d="M5440 560.195H5040V600.195H5440C5462.09 600.195 5480 582.287 5480 560.195V400.195C5480 378.104 5462.09 360.195 5440 360.195L5210.2 360.195C5199.16 360.195 5190.2 351.241 5190.2 340.195C5190.2 329.149 5199.16 320.195 5210.2 320.195L5440 320.195C5462.09 320.195 5480 302.287 5480 280.195V140.275C5480 129.229 5488.95 120.275 5500 120.275C5511.04 120.275 5520 129.229 5520 140.275V280.195C5520 302.287 5537.91 320.195 5560 320.195H5600L5599.57 600.213C5599.54 622.328 5617.46 640.273 5639.57 640.273H5720V600.195H5639.03V320.195C5639.03 298.104 5621.12 280.195 5599.03 280.195H5560V140.273C5560 107.136 5533.14 80.2734 5500 80.2734C5466.86 80.2734 5440 107.136 5440 140.273V280.195L5210.2 280.195C5177.06 280.195 5150.2 307.058 5150.2 340.195C5150.2 373.332 5177.06 400.195 5210.2 400.195L5440 400.195V560.195Z" fill="#F28EC0"/>
<path d="M6160 560.195H5760V600.195H6160C6182.09 600.195 6200 582.287 6200 560.195V400.195C6200 378.104 6182.09 360.195 6160 360.195L5939.88 360.195C5928.84 360.195 5919.88 351.241 5919.88 340.195C5919.88 329.149 5928.84 320.195 5939.88 320.195L6160 320.195C6182.09 320.195 6200 302.287 6200 280.195V140.275C6200 129.229 6208.95 120.275 6220 120.275C6231.04 120.275 6240 129.229 6240 140.275V280.195C6240 302.287 6257.91 320.195 6280 320.195H6320L6319.57 600.213C6319.54 622.328 6337.46 640.273 6359.57 640.273H6440V600.195H6359.03V320.195C6359.03 298.104 6341.12 280.195 6319.03 280.195H6280V140.273C6280 107.136 6253.14 80.2734 6220 80.2734C6186.86 80.2734 6160 107.136 6160 140.273V280.195L5939.88 280.195C5906.75 280.195 5879.88 307.058 5879.88 340.195C5879.88 373.332 5906.75 400.195 5939.88 400.195L6160 400.195V560.195Z" fill="#F28EC0"/>
<path d="M6880 560.195H6480V600.195H6880C6902.09 600.195 6920 582.287 6920 560.195V400.195C6920 378.104 6902.09 360.195 6880 360.195L6670.73 360.195C6659.68 360.195 6650.73 351.241 6650.73 340.195C6650.73 329.149 6659.68 320.195 6670.73 320.195L6880 320.195C6902.09 320.195 6920 302.287 6920 280.195V140.275C6920 129.229 6928.95 120.275 6940 120.275C6951.04 120.275 6960 129.229 6960 140.275V280.195C6960 302.287 6977.91 320.195 7000 320.195H7040L7039.57 600.213C7039.54 622.328 7057.46 640.273 7079.57 640.273H7160V600.195H7079.03V320.195C7079.03 298.104 7061.12 280.195 7039.03 280.195H7000V140.273C7000 107.136 6973.14 80.2734 6940 80.2734C6906.86 80.2734 6880 107.136 6880 140.273V280.195L6670.73 280.195C6637.59 280.195 6610.73 307.058 6610.73 340.195C6610.73 373.332 6637.59 400.195 6670.73 400.195L6880 400.195V560.195Z" fill="#F28EC0"/>
<path d="M7600 560.195H7200V600.195H7600C7622.09 600.195 7640 582.287 7640 560.195V400.195C7640 378.104 7622.09 360.195 7600 360.195L7400.6 360.195C7389.55 360.195 7380.6 351.241 7380.6 340.195C7380.6 329.149 7389.55 320.195 7400.6 320.195L7600 320.195C7622.09 320.195 7640 302.287 7640 280.195V140.275C7640 129.229 7648.95 120.275 7660 120.275C7671.04 120.275 7680 129.229 7680 140.275V280.195C7680 302.287 7697.91 320.195 7720 320.195H7760L7759.57 600.213C7759.54 622.328 7777.46 640.273 7799.57 640.273H7880V600.195H7799.03V320.195C7799.03 298.104 7781.12 280.195 7759.03 280.195H7720V140.273C7720 107.136 7693.14 80.2734 7660 80.2734C7626.86 80.2734 7600 107.136 7600 140.273V280.195L7400.6 280.195C7367.46 280.195 7340.6 307.058 7340.6 340.195C7340.6 373.332 7367.46 400.195 7400.6 400.195L7600 400.195V560.195Z" fill="#F28EC0"/>
<path d="M8320 560.195H7920V600.195H8320C8342.09 600.195 8360 582.287 8360 560.195V400.195C8360 378.104 8342.09 360.195 8320 360.195L8129.85 360.195C8118.8 360.195 8109.85 351.241 8109.85 340.195C8109.85 329.149 8118.8 320.195 8129.85 320.195L8320 320.195C8342.09 320.195 8360 302.287 8360 280.195V140.275C8360 129.229 8368.95 120.275 8380 120.275C8391.04 120.275 8400 129.229 8400 140.275V280.195C8400 302.287 8417.91 320.195 8440 320.195H8480L8479.57 600.213C8479.54 622.328 8497.46 640.273 8519.57 640.273H8600V600.195H8519.03V320.195C8519.03 298.104 8501.12 280.195 8479.03 280.195H8440V140.273C8440 107.136 8413.14 80.2734 8380 80.2734C8346.86 80.2734 8320 107.136 8320 140.273V280.195L8129.85 280.195C8096.71 280.195 8069.85 307.058 8069.85 340.195C8069.85 373.332 8096.71 400.195 8129.85 400.195L8320 400.195V560.195Z" fill="#F28EC0"/>
<path d="M9040 560.195H8640V600.195H9040C9062.09 600.195 9080 582.287 9080 560.195V400.195C9080 378.104 9062.09 360.195 9040 360.195L8860.16 360.195C8849.12 360.195 8840.16 351.241 8840.16 340.195C8840.16 329.149 8849.12 320.195 8860.16 320.195L9040 320.195C9062.09 320.195 9080 302.287 9080 280.195V140.275C9080 129.229 9088.95 120.275 9100 120.275C9111.04 120.275 9120 129.229 9120 140.275V280.195C9120 302.287 9137.91 320.195 9160 320.195H9200L9199.57 600.213C9199.54 622.328 9217.46 640.273 9239.57 640.273H9320V600.195H9239.03V320.195C9239.03 298.104 9221.12 280.195 9199.03 280.195H9160V140.273C9160 107.136 9133.14 80.2734 9100 80.2734C9066.86 80.2734 9040 107.136 9040 140.273V280.195L8860.16 280.195C8827.03 280.195 8800.16 307.058 8800.16 340.195C8800.16 373.332 8827.03 400.195 8860.16 400.195L9040 400.195V560.195Z" fill="#F28EC0"/>
<path d="M9760 560.195H9360V600.195H9760C9782.09 600.195 9800 582.287 9800 560.195V400.195C9800 378.104 9782.09 360.195 9760 360.195L9589.65 360.195C9578.6 360.195 9569.65 351.241 9569.65 340.195C9569.65 329.149 9578.6 320.195 9589.65 320.195L9760 320.195C9782.09 320.195 9800 302.287 9800 280.195V140.275C9800 129.229 9808.95 120.275 9820 120.275C9831.04 120.275 9840 129.229 9840 140.275V280.195C9840 302.287 9857.91 320.195 9880 320.195H9920L9919.57 600.213C9919.54 622.328 9937.46 640.273 9959.57 640.273H10040V600.195H9959.03V320.195C9959.03 298.104 9941.12 280.195 9919.03 280.195H9880V140.273C9880 107.136 9853.14 80.2734 9820 80.2734C9786.86 80.2734 9760 107.136 9760 140.273V280.195L9589.65 280.195C9556.51 280.195 9529.65 307.058 9529.65 340.195C9529.65 373.332 9556.51 400.195 9589.65 400.195L9760 400.195V560.195Z" fill="#F28EC0"/>
<path d="M10480 560.195H10080V600.195H10480C10502.1 600.195 10520 582.287 10520 560.195V400.195C10520 378.104 10502.1 360.195 10480 360.195L10320.1 360.195C10309.1 360.195 10300.1 351.241 10300.1 340.195C10300.1 329.149 10309.1 320.195 10320.1 320.195L10480 320.195C10502.1 320.195 10520 302.287 10520 280.195V140.275C10520 129.229 10529 120.275 10540 120.275C10551 120.275 10560 129.229 10560 140.275V280.195C10560 302.287 10577.9 320.195 10600 320.195H10640L10639.6 600.213C10639.5 622.328 10657.5 640.273 10679.6 640.273H10760V600.195H10679V320.195C10679 298.104 10661.1 280.195 10639 280.195H10600V140.273C10600 107.136 10573.1 80.2734 10540 80.2734C10506.9 80.2734 10480 107.136 10480 140.273V280.195L10320.1 280.195C10287 280.195 10260.1 307.058 10260.1 340.195C10260.1 373.332 10287 400.195 10320.1 400.195L10480 400.195V560.195Z" fill="#F28EC0"/>
<path d="M11200 560.195H10800V600.195H11200C11222.1 600.195 11240 582.287 11240 560.195V400.195C11240 378.104 11222.1 360.195 11200 360.195L11050.1 360.195C11039 360.195 11030.1 351.241 11030.1 340.195C11030.1 329.149 11039 320.195 11050.1 320.195L11200 320.195C11222.1 320.195 11240 302.287 11240 280.195V140.275C11240 129.229 11249 120.275 11260 120.275C11271 120.275 11280 129.229 11280 140.275V280.195C11280 302.287 11297.9 320.195 11320 320.195H11360L11359.6 600.213C11359.5 622.328 11377.5 640.273 11399.6 640.273H11480V600.195H11399V320.195C11399 298.104 11381.1 280.195 11359 280.195H11320V140.273C11320 107.136 11293.1 80.2734 11260 80.2734C11226.9 80.2734 11200 107.136 11200 140.273V280.195L11050.1 280.195C11016.9 280.195 10990.1 307.058 10990.1 340.195C10990.1 373.332 11016.9 400.195 11050.1 400.195L11200 400.195V560.195Z" fill="#F28EC0"/>
<path d="M11920 560.195H11520V600.195H11920C11942.1 600.195 11960 582.287 11960 560.195V400.195C11960 378.104 11942.1 360.195 11920 360.195L11780.1 360.195C11769.1 360.195 11760.1 351.241 11760.1 340.195C11760.1 329.149 11769.1 320.195 11780.1 320.195L11920 320.195C11942.1 320.195 11960 302.287 11960 280.195V140.275C11960 129.229 11969 120.275 11980 120.275C11991 120.275 12000 129.229 12000 140.275V280.195C12000 302.287 12017.9 320.195 12040 320.195H12080L12079.6 600.213C12079.5 622.328 12097.5 640.273 12119.6 640.273H12200V600.195H12119V320.195C12119 298.104 12101.1 280.195 12079 280.195H12040V140.273C12040 107.136 12013.1 80.2734 11980 80.2734C11946.9 80.2734 11920 107.136 11920 140.273V280.195L11780.1 280.195C11747 280.195 11720.1 307.058 11720.1 340.195C11720.1 373.332 11747 400.195 11780.1 400.195L11920 400.195V560.195Z" fill="#F28EC0"/>
<path d="M12640 560.195H12240V600.195H12640C12662.1 600.195 12680 582.287 12680 560.195V400.195C12680 378.104 12662.1 360.195 12640 360.195L12509.5 360.195C12498.5 360.195 12489.5 351.241 12489.5 340.195C12489.5 329.149 12498.5 320.195 12509.5 320.195L12640 320.195C12662.1 320.195 12680 302.287 12680 280.195V140.275C12680 129.229 12689 120.275 12700 120.275C12711 120.275 12720 129.229 12720 140.275V280.195C12720 302.287 12737.9 320.195 12760 320.195H12800L12799.6 600.213C12799.5 622.328 12817.5 640.273 12839.6 640.273H12920V600.195H12839V320.195C12839 298.104 12821.1 280.195 12799 280.195H12760V140.273C12760 107.136 12733.1 80.2734 12700 80.2734C12666.9 80.2734 12640 107.136 12640 140.273V280.195L12509.5 280.195C12476.4 280.195 12449.5 307.058 12449.5 340.195C12449.5 373.332 12476.4 400.195 12509.5 400.195L12640 400.195V560.195Z" fill="#F28EC0"/>
<path d="M13360 560.195H12960V600.195H13360C13382.1 600.195 13400 582.287 13400 560.195V400.195C13400 378.104 13382.1 360.195 13360 360.195L13240.8 360.195C13229.8 360.195 13220.8 351.241 13220.8 340.195C13220.8 329.149 13229.8 320.195 13240.8 320.195L13360 320.195C13382.1 320.195 13400 302.287 13400 280.195V140.275C13400 129.229 13409 120.275 13420 120.275C13431 120.275 13440 129.229 13440 140.275V280.195C13440 302.287 13457.9 320.195 13480 320.195H13520L13519.6 600.213C13519.5 622.328 13537.5 640.273 13559.6 640.273H13640V600.195H13559V320.195C13559 298.104 13541.1 280.195 13519 280.195H13480V140.273C13480 107.136 13453.1 80.2734 13420 80.2734C13386.9 80.2734 13360 107.136 13360 140.273V280.195L13240.8 280.195C13207.7 280.195 13180.8 307.058 13180.8 340.195C13180.8 373.332 13207.7 400.195 13240.8 400.195L13360 400.195V560.195Z" fill="#F28EC0"/>
<path d="M14080 560.195H13680V600.195H14080C14102.1 600.195 14120 582.287 14120 560.195V400.195C14120 378.104 14102.1 360.195 14080 360.195L13969.3 360.195C13958.3 360.195 13949.3 351.241 13949.3 340.195C13949.3 329.149 13958.3 320.195 13969.3 320.195L14080 320.195C14102.1 320.195 14120 302.287 14120 280.195V140.275C14120 129.229 14129 120.275 14140 120.275C14151 120.275 14160 129.229 14160 140.275V280.195C14160 302.287 14177.9 320.195 14200 320.195H14240L14239.6 600.213C14239.5 622.328 14257.5 640.273 14279.6 640.273H14360V600.195H14279V320.195C14279 298.104 14261.1 280.195 14239 280.195H14200V140.273C14200 107.136 14173.1 80.2734 14140 80.2734C14106.9 80.2734 14080 107.136 14080 140.273V280.195L13969.3 280.195C13936.2 280.195 13909.3 307.058 13909.3 340.195C13909.3 373.332 13936.2 400.195 13969.3 400.195L14080 400.195V560.195Z" fill="#F28EC0"/>
</svg>
