<svg width="11400" height="600" viewBox="0 0 11400 600" fill="none" xmlns="http://www.w3.org/2000/svg">
<path d="M414.59 75.1496V120.904H130.084V150.683L410.086 150.831C429.423 150.841 445.104 135.168 445.104 115.831V75.7567C445.104 67.1581 452.075 60.1876 460.673 60.1876C469.272 60.1876 476.242 67.1581 476.242 75.7567V240.602H74.9977C50.1462 240.602 30 260.748 30 285.6C30 310.451 50.1461 330.597 74.9977 330.597H194.776C202.755 330.597 209.224 337.066 209.224 345.045C209.224 353.024 202.755 359.492 194.776 359.492H126.43C107.1 359.492 91.4301 375.162 91.4301 394.492V535C91.4301 554.33 107.1 570 126.43 570H540V540.519H120.773V390.394H195.094C219.75 390.394 239.738 370.406 239.738 345.75C239.738 321.094 219.75 301.107 195.094 301.107H75.2649C66.5204 301.107 59.4315 294.018 59.4315 285.273C59.4315 276.529 66.5204 269.44 75.2649 269.44H469.889C489.219 269.44 504.889 253.77 504.889 234.44V75.1496C504.889 50.2142 484.675 30 459.74 30C434.804 30 414.59 50.2142 414.59 75.1496Z" fill="#F28EC0"/>
<path d="M984.59 75.1496V120.904H700.084V150.683L980.086 150.831C999.423 150.841 1015.1 135.168 1015.1 115.831V75.7567C1015.1 67.1581 1022.07 60.1876 1030.67 60.1876C1039.27 60.1876 1046.24 67.1581 1046.24 75.7567V240.602H644.998C620.146 240.602 600 260.748 600 285.6C600 310.451 620.146 330.597 644.998 330.597H770.776C778.755 330.597 785.224 337.066 785.224 345.045C785.224 353.024 778.755 359.492 770.776 359.492H696.43C677.1 359.492 661.43 375.162 661.43 394.492V535C661.43 554.33 677.1 570 696.43 570H1110V540.519H690.773V390.394H771.094C795.75 390.394 815.738 370.406 815.738 345.75C815.738 321.094 795.75 301.107 771.094 301.107H645.265C636.52 301.107 629.432 294.018 629.432 285.273C629.432 276.529 636.52 269.44 645.265 269.44H1039.89C1059.22 269.44 1074.89 253.77 1074.89 234.44V75.1496C1074.89 50.2142 1054.68 30 1029.74 30C1004.8 30 984.59 50.2142 984.59 75.1496Z" fill="#F28EC0"/>
<path d="M1554.59 75.1496V120.904H1270.08V150.683L1550.09 150.831C1569.42 150.841 1585.1 135.168 1585.1 115.831V75.7567C1585.1 67.1581 1592.07 60.1876 1600.67 60.1876C1609.27 60.1876 1616.24 67.1581 1616.24 75.7567V240.602H1215C1190.15 240.602 1170 260.748 1170 285.6C1170 310.451 1190.15 330.597 1215 330.597H1345.78C1353.76 330.597 1360.22 337.066 1360.22 345.045C1360.22 353.024 1353.76 359.492 1345.78 359.492H1266.43C1247.1 359.492 1231.43 375.162 1231.43 394.492V535C1231.43 554.33 1247.1 570 1266.43 570H1680V540.519H1260.77V390.394H1346.09C1370.75 390.394 1390.74 370.406 1390.74 345.75C1390.74 321.094 1370.75 301.107 1346.09 301.107H1215.26C1206.52 301.107 1199.43 294.018 1199.43 285.273C1199.43 276.529 1206.52 269.44 1215.26 269.44H1609.89C1629.22 269.44 1644.89 253.77 1644.89 234.44V75.1496C1644.89 50.2142 1624.68 30 1599.74 30C1574.8 30 1554.59 50.2142 1554.59 75.1496Z" fill="#F28EC0"/>
<path d="M2124.59 75.1496V120.904H1840.08V150.683L2120.09 150.831C2139.42 150.841 2155.1 135.168 2155.1 115.831V75.7567C2155.1 67.1581 2162.07 60.1876 2170.67 60.1876C2179.27 60.1876 2186.24 67.1581 2186.24 75.7567V240.602H1785C1760.15 240.602 1740 260.748 1740 285.6C1740 310.451 1760.15 330.597 1785 330.597H1920.78C1928.76 330.597 1935.22 337.066 1935.22 345.045C1935.22 353.024 1928.76 359.492 1920.78 359.492H1836.43C1817.1 359.492 1801.43 375.162 1801.43 394.492V535C1801.43 554.33 1817.1 570 1836.43 570H2250V540.519H1830.77V390.394H1921.09C1945.75 390.394 1965.74 370.406 1965.74 345.75C1965.74 321.094 1945.75 301.107 1921.09 301.107H1785.26C1776.52 301.107 1769.43 294.018 1769.43 285.273C1769.43 276.529 1776.52 269.44 1785.26 269.44H2179.89C2199.22 269.44 2214.89 253.77 2214.89 234.44V75.1496C2214.89 50.2142 2194.68 30 2169.74 30C2144.8 30 2124.59 50.2142 2124.59 75.1496Z" fill="#F28EC0"/>
<path d="M2694.59 75.1496V120.904H2410.08V150.683L2690.09 150.831C2709.42 150.841 2725.1 135.168 2725.1 115.831V75.7567C2725.1 67.1581 2732.07 60.1876 2740.67 60.1876C2749.27 60.1876 2756.24 67.1581 2756.24 75.7567V240.602H2355C2330.15 240.602 2310 260.748 2310 285.6C2310 310.451 2330.15 330.597 2355 330.597H2495.78C2503.76 330.597 2510.22 337.066 2510.22 345.045C2510.22 353.024 2503.76 359.492 2495.78 359.492H2406.43C2387.1 359.492 2371.43 375.162 2371.43 394.492V535C2371.43 554.33 2387.1 570 2406.43 570H2820V540.519H2400.77V390.394H2496.09C2520.75 390.394 2540.74 370.406 2540.74 345.75C2540.74 321.094 2520.75 301.107 2496.09 301.107H2355.26C2346.52 301.107 2339.43 294.018 2339.43 285.273C2339.43 276.529 2346.52 269.44 2355.26 269.44H2749.89C2769.22 269.44 2784.89 253.77 2784.89 234.44V75.1496C2784.89 50.2142 2764.68 30 2739.74 30C2714.8 30 2694.59 50.2142 2694.59 75.1496Z" fill="#F28EC0"/>
<path d="M3264.59 75.1496V120.904H2980.08V150.683L3260.09 150.831C3279.42 150.841 3295.1 135.168 3295.1 115.831V75.7567C3295.1 67.1581 3302.07 60.1876 3310.67 60.1876C3319.27 60.1876 3326.24 67.1581 3326.24 75.7567V240.602H2925C2900.15 240.602 2880 260.748 2880 285.6C2880 310.451 2900.15 330.597 2925 330.597H3070.78C3078.76 330.597 3085.22 337.066 3085.22 345.045C3085.22 353.024 3078.76 359.492 3070.78 359.492H2976.43C2957.1 359.492 2941.43 375.162 2941.43 394.492V535C2941.43 554.33 2957.1 570 2976.43 570H3390V540.519H2970.77V390.394H3071.09C3095.75 390.394 3115.74 370.406 3115.74 345.75C3115.74 321.094 3095.75 301.107 3071.09 301.107H2925.26C2916.52 301.107 2909.43 294.018 2909.43 285.273C2909.43 276.529 2916.52 269.44 2925.26 269.44H3319.89C3339.22 269.44 3354.89 253.77 3354.89 234.44V75.1496C3354.89 50.2142 3334.68 30 3309.74 30C3284.8 30 3264.59 50.2142 3264.59 75.1496Z" fill="#F28EC0"/>
<path d="M3834.59 75.1496V120.904H3550.08V150.683L3830.09 150.831C3849.42 150.841 3865.1 135.168 3865.1 115.831V75.7567C3865.1 67.1581 3872.07 60.1876 3880.67 60.1876C3889.27 60.1876 3896.24 67.1581 3896.24 75.7567V240.602H3495C3470.15 240.602 3450 260.748 3450 285.6C3450 310.451 3470.15 330.597 3495 330.597H3645.78C3653.76 330.597 3660.22 337.066 3660.22 345.045C3660.22 353.024 3653.76 359.492 3645.78 359.492H3546.43C3527.1 359.492 3511.43 375.162 3511.43 394.492V535C3511.43 554.33 3527.1 570 3546.43 570H3960V540.519H3540.77V390.394H3646.09C3670.75 390.394 3690.74 370.406 3690.74 345.75C3690.74 321.094 3670.75 301.107 3646.09 301.107H3495.26C3486.52 301.107 3479.43 294.018 3479.43 285.273C3479.43 276.529 3486.52 269.44 3495.26 269.44H3889.89C3909.22 269.44 3924.89 253.77 3924.89 234.44V75.1496C3924.89 50.2142 3904.68 30 3879.74 30C3854.8 30 3834.59 50.2142 3834.59 75.1496Z" fill="#F28EC0"/>
<path d="M4404.59 75.1496V120.904H4120.08V150.683L4400.09 150.831C4419.42 150.841 4435.1 135.168 4435.1 115.831V75.7567C4435.1 67.1581 4442.07 60.1876 4450.67 60.1876C4459.27 60.1876 4466.24 67.1581 4466.24 75.7567V240.602H4065C4040.15 240.602 4020 260.748 4020 285.6C4020 310.451 4040.15 330.597 4065 330.597H4220.78C4228.76 330.597 4235.22 337.066 4235.22 345.045C4235.22 353.024 4228.76 359.492 4220.78 359.492H4116.43C4097.1 359.492 4081.43 375.162 4081.43 394.492V535C4081.43 554.33 4097.1 570 4116.43 570H4530V540.519H4110.77V390.394H4221.09C4245.75 390.394 4265.74 370.406 4265.74 345.75C4265.74 321.094 4245.75 301.107 4221.09 301.107H4065.26C4056.52 301.107 4049.43 294.018 4049.43 285.273C4049.43 276.529 4056.52 269.44 4065.26 269.44H4459.89C4479.22 269.44 4494.89 253.77 4494.89 234.44V75.1496C4494.89 50.2142 4474.68 30 4449.74 30C4424.8 30 4404.59 50.2142 4404.59 75.1496Z" fill="#F28EC0"/>
<path d="M4974.59 75.1496V120.904H4690.08V150.683L4970.09 150.831C4989.42 150.841 5005.1 135.168 5005.1 115.831V75.7567C5005.1 67.1581 5012.07 60.1876 5020.67 60.1876C5029.27 60.1876 5036.24 67.1581 5036.24 75.7567V240.602H4635C4610.15 240.602 4590 260.748 4590 285.6C4590 310.451 4610.15 330.597 4635 330.597H4795.78C4803.76 330.597 4810.22 337.066 4810.22 345.045C4810.22 353.024 4803.76 359.492 4795.78 359.492H4686.43C4667.1 359.492 4651.43 375.162 4651.43 394.492V535C4651.43 554.33 4667.1 570 4686.43 570H5100V540.519H4680.77V390.394H4796.09C4820.75 390.394 4840.74 370.406 4840.74 345.75C4840.74 321.094 4820.75 301.107 4796.09 301.107H4635.26C4626.52 301.107 4619.43 294.018 4619.43 285.273C4619.43 276.529 4626.52 269.44 4635.26 269.44H5029.89C5049.22 269.44 5064.89 253.77 5064.89 234.44V75.1496C5064.89 50.2142 5044.68 30 5019.74 30C4994.8 30 4974.59 50.2142 4974.59 75.1496Z" fill="#F28EC0"/>
<path d="M5544.59 75.1496V120.904H5260.08V150.683L5540.09 150.831C5559.42 150.841 5575.1 135.168 5575.1 115.831V75.7567C5575.1 67.1581 5582.07 60.1876 5590.67 60.1876C5599.27 60.1876 5606.24 67.1581 5606.24 75.7567V240.602H5205C5180.15 240.602 5160 260.748 5160 285.6C5160 310.451 5180.15 330.597 5205 330.597H5370.78C5378.76 330.597 5385.22 337.066 5385.22 345.045C5385.22 353.024 5378.76 359.492 5370.78 359.492H5256.43C5237.1 359.492 5221.43 375.162 5221.43 394.492V535C5221.43 554.33 5237.1 570 5256.43 570H5670V540.519H5250.77V390.394H5371.09C5395.75 390.394 5415.74 370.406 5415.74 345.75C5415.74 321.094 5395.75 301.107 5371.09 301.107H5205.26C5196.52 301.107 5189.43 294.018 5189.43 285.273C5189.43 276.529 5196.52 269.44 5205.26 269.44H5599.89C5619.22 269.44 5634.89 253.77 5634.89 234.44V75.1496C5634.89 50.2142 5614.68 30 5589.74 30C5564.8 30 5544.59 50.2142 5544.59 75.1496Z" fill="#F28EC0"/>
<path d="M6114.59 75.1496V120.904H5830.08V150.683L6110.09 150.831C6129.42 150.841 6145.1 135.168 6145.1 115.831V75.7567C6145.1 67.1581 6152.07 60.1876 6160.67 60.1876C6169.27 60.1876 6176.24 67.1581 6176.24 75.7567V240.602H5775C5750.15 240.602 5730 260.748 5730 285.6C5730 310.451 5750.15 330.597 5775 330.597H5945.78C5953.76 330.597 5960.22 337.066 5960.22 345.045C5960.22 353.024 5953.76 359.492 5945.78 359.492H5826.43C5807.1 359.492 5791.43 375.162 5791.43 394.492V535C5791.43 554.33 5807.1 570 5826.43 570H6240V540.519H5820.77V390.394H5946.09C5970.75 390.394 5990.74 370.406 5990.74 345.75C5990.74 321.094 5970.75 301.107 5946.09 301.107H5775.26C5766.52 301.107 5759.43 294.018 5759.43 285.273C5759.43 276.529 5766.52 269.44 5775.26 269.44H6169.89C6189.22 269.44 6204.89 253.77 6204.89 234.44V75.1496C6204.89 50.2142 6184.68 30 6159.74 30C6134.8 30 6114.59 50.2142 6114.59 75.1496Z" fill="#F28EC0"/>
<path d="M6684.59 75.1496V120.904H6400.08V150.683L6680.09 150.831C6699.42 150.841 6715.1 135.168 6715.1 115.831V75.7567C6715.1 67.1581 6722.07 60.1876 6730.67 60.1876C6739.27 60.1876 6746.24 67.1581 6746.24 75.7567V240.602H6345C6320.15 240.602 6300 260.748 6300 285.6C6300 310.451 6320.15 330.597 6345 330.597H6520.78C6528.76 330.597 6535.22 337.066 6535.22 345.045C6535.22 353.024 6528.76 359.492 6520.78 359.492H6396.43C6377.1 359.492 6361.43 375.162 6361.43 394.492V535C6361.43 554.33 6377.1 570 6396.43 570H6810V540.519H6390.77V390.394H6521.09C6545.75 390.394 6565.74 370.406 6565.74 345.75C6565.74 321.094 6545.75 301.107 6521.09 301.107H6345.26C6336.52 301.107 6329.43 294.018 6329.43 285.273C6329.43 276.529 6336.52 269.44 6345.26 269.44H6739.89C6759.22 269.44 6774.89 253.77 6774.89 234.44V75.1496C6774.89 50.2142 6754.68 30 6729.74 30C6704.8 30 6684.59 50.2142 6684.59 75.1496Z" fill="#F28EC0"/>
<path d="M7254.59 75.1496V120.904H6970.08V150.683L7250.09 150.831C7269.42 150.841 7285.1 135.168 7285.1 115.831V75.7567C7285.1 67.1581 7292.07 60.1876 7300.67 60.1876C7309.27 60.1876 7316.24 67.1581 7316.24 75.7567V240.602H6915C6890.15 240.602 6870 260.748 6870 285.6C6870 310.451 6890.15 330.597 6915 330.597H7095.78C7103.76 330.597 7110.22 337.066 7110.22 345.045C7110.22 353.024 7103.76 359.492 7095.78 359.492H6966.43C6947.1 359.492 6931.43 375.162 6931.43 394.492V535C6931.43 554.33 6947.1 570 6966.43 570H7380V540.519H6960.77V390.394H7096.09C7120.75 390.394 7140.74 370.406 7140.74 345.75C7140.74 321.094 7120.75 301.107 7096.09 301.107H6915.26C6906.52 301.107 6899.43 294.018 6899.43 285.273C6899.43 276.529 6906.52 269.44 6915.26 269.44H7309.89C7329.22 269.44 7344.89 253.77 7344.89 234.44V75.1496C7344.89 50.2142 7324.68 30 7299.74 30C7274.8 30 7254.59 50.2142 7254.59 75.1496Z" fill="#F28EC0"/>
<path d="M7824.59 75.1496V120.904H7540.08V150.683L7820.09 150.831C7839.42 150.841 7855.1 135.168 7855.1 115.831V75.7567C7855.1 67.1581 7862.07 60.1876 7870.67 60.1876C7879.27 60.1876 7886.24 67.1581 7886.24 75.7567V240.602H7485C7460.15 240.602 7440 260.748 7440 285.6C7440 310.451 7460.15 330.597 7485 330.597H7670.78C7678.76 330.597 7685.22 337.066 7685.22 345.045C7685.22 353.024 7678.76 359.492 7670.78 359.492H7536.43C7517.1 359.492 7501.43 375.162 7501.43 394.492V535C7501.43 554.33 7517.1 570 7536.43 570H7950V540.519H7530.77V390.394H7671.09C7695.75 390.394 7715.74 370.406 7715.74 345.75C7715.74 321.094 7695.75 301.107 7671.09 301.107H7485.26C7476.52 301.107 7469.43 294.018 7469.43 285.273C7469.43 276.529 7476.52 269.44 7485.26 269.44H7879.89C7899.22 269.44 7914.89 253.77 7914.89 234.44V75.1496C7914.89 50.2142 7894.68 30 7869.74 30C7844.8 30 7824.59 50.2142 7824.59 75.1496Z" fill="#F28EC0"/>
<path d="M8394.59 75.1496V120.904H8110.08V150.683L8390.09 150.831C8409.42 150.841 8425.1 135.168 8425.1 115.831V75.7567C8425.1 67.1581 8432.07 60.1876 8440.67 60.1876C8449.27 60.1876 8456.24 67.1581 8456.24 75.7567V240.602H8055C8030.15 240.602 8010 260.748 8010 285.6C8010 310.451 8030.15 330.597 8055 330.597H8245.78C8253.76 330.597 8260.22 337.066 8260.22 345.045C8260.22 353.024 8253.76 359.492 8245.78 359.492H8106.43C8087.1 359.492 8071.43 375.162 8071.43 394.492V535C8071.43 554.33 8087.1 570 8106.43 570H8520V540.519H8100.77V390.394H8246.09C8270.75 390.394 8290.74 370.406 8290.74 345.75C8290.74 321.094 8270.75 301.107 8246.09 301.107H8055.26C8046.52 301.107 8039.43 294.018 8039.43 285.273C8039.43 276.529 8046.52 269.44 8055.26 269.44H8449.89C8469.22 269.44 8484.89 253.77 8484.89 234.44V75.1496C8484.89 50.2142 8464.68 30 8439.74 30C8414.8 30 8394.59 50.2142 8394.59 75.1496Z" fill="#F28EC0"/>
<path d="M8964.59 75.1496V120.904H8680.08V150.683L8960.09 150.831C8979.42 150.841 8995.1 135.168 8995.1 115.831V75.7567C8995.1 67.1581 9002.07 60.1876 9010.67 60.1876C9019.27 60.1876 9026.24 67.1581 9026.24 75.7567V240.602H8625C8600.15 240.602 8580 260.748 8580 285.6C8580 310.451 8600.15 330.597 8625 330.597H8820.78C8828.76 330.597 8835.22 337.066 8835.22 345.045C8835.22 353.024 8828.76 359.492 8820.78 359.492H8676.43C8657.1 359.492 8641.43 375.162 8641.43 394.492V535C8641.43 554.33 8657.1 570 8676.43 570H9090V540.519H8670.77V390.394H8821.09C8845.75 390.394 8865.74 370.406 8865.74 345.75C8865.74 321.094 8845.75 301.107 8821.09 301.107H8625.26C8616.52 301.107 8609.43 294.018 8609.43 285.273C8609.43 276.529 8616.52 269.44 8625.26 269.44H9019.89C9039.22 269.44 9054.89 253.77 9054.89 234.44V75.1496C9054.89 50.2142 9034.68 30 9009.74 30C8984.8 30 8964.59 50.2142 8964.59 75.1496Z" fill="#F28EC0"/>
<path d="M9534.59 75.1496V120.904H9250.08V150.683L9530.09 150.831C9549.42 150.841 9565.1 135.168 9565.1 115.831V75.7567C9565.1 67.1581 9572.07 60.1876 9580.67 60.1876C9589.27 60.1876 9596.24 67.1581 9596.24 75.7567V240.602H9195C9170.15 240.602 9150 260.748 9150 285.6C9150 310.451 9170.15 330.597 9195 330.597H9395.78C9403.76 330.597 9410.22 337.066 9410.22 345.045C9410.22 353.024 9403.76 359.492 9395.78 359.492H9246.43C9227.1 359.492 9211.43 375.162 9211.43 394.492V535C9211.43 554.33 9227.1 570 9246.43 570H9660V540.519H9240.77V390.394H9396.09C9420.75 390.394 9440.74 370.406 9440.74 345.75C9440.74 321.094 9420.75 301.107 9396.09 301.107H9195.26C9186.52 301.107 9179.43 294.018 9179.43 285.273C9179.43 276.529 9186.52 269.44 9195.26 269.44H9589.89C9609.22 269.44 9624.89 253.77 9624.89 234.44V75.1496C9624.89 50.2142 9604.68 30 9579.74 30C9554.8 30 9534.59 50.2142 9534.59 75.1496Z" fill="#F28EC0"/>
<path d="M10104.6 75.1496V120.904H9820.08V150.683L10100.1 150.831C10119.4 150.841 10135.1 135.168 10135.1 115.831V75.7567C10135.1 67.1581 10142.1 60.1876 10150.7 60.1876C10159.3 60.1876 10166.2 67.1581 10166.2 75.7567V240.602H9765C9740.15 240.602 9720 260.748 9720 285.6C9720 310.451 9740.15 330.597 9765 330.597H9970.78C9978.76 330.597 9985.22 337.066 9985.22 345.045C9985.22 353.024 9978.76 359.492 9970.78 359.492H9816.43C9797.1 359.492 9781.43 375.162 9781.43 394.492V535C9781.43 554.33 9797.1 570 9816.43 570H10230V540.519H9810.77V390.394H9971.09C9995.75 390.394 10015.7 370.406 10015.7 345.75C10015.7 321.094 9995.75 301.107 9971.09 301.107H9765.26C9756.52 301.107 9749.43 294.018 9749.43 285.273C9749.43 276.529 9756.52 269.44 9765.26 269.44H10159.9C10179.2 269.44 10194.9 253.77 10194.9 234.44V75.1496C10194.9 50.2142 10174.7 30 10149.7 30C10124.8 30 10104.6 50.2142 10104.6 75.1496Z" fill="#F28EC0"/>
<path d="M10674.6 75.1496V120.904H10390.1V150.683L10670.1 150.831C10689.4 150.841 10705.1 135.168 10705.1 115.831V75.7567C10705.1 67.1581 10712.1 60.1876 10720.7 60.1876C10729.3 60.1876 10736.2 67.1581 10736.2 75.7567V240.602H10335C10310.1 240.602 10290 260.748 10290 285.6C10290 310.451 10310.1 330.597 10335 330.597H10545.8C10553.8 330.597 10560.2 337.066 10560.2 345.045C10560.2 353.024 10553.8 359.492 10545.8 359.492H10386.4C10367.1 359.492 10351.4 375.162 10351.4 394.492V535C10351.4 554.33 10367.1 570 10386.4 570H10800V540.519H10380.8V390.394H10546.1C10570.8 390.394 10590.7 370.406 10590.7 345.75C10590.7 321.094 10570.8 301.107 10546.1 301.107H10335.3C10326.5 301.107 10319.4 294.018 10319.4 285.273C10319.4 276.529 10326.5 269.44 10335.3 269.44H10729.9C10749.2 269.44 10764.9 253.77 10764.9 234.44V75.1496C10764.9 50.2142 10744.7 30 10719.7 30C10694.8 30 10674.6 50.2142 10674.6 75.1496Z" fill="#F28EC0"/>
<path d="M11244.6 75.1496V120.904H10960.1V150.683L11240.1 150.831C11259.4 150.841 11275.1 135.168 11275.1 115.831V75.7567C11275.1 67.1581 11282.1 60.1876 11290.7 60.1876C11299.3 60.1876 11306.2 67.1581 11306.2 75.7567V240.602H10905C10880.1 240.602 10860 260.748 10860 285.6C10860 310.451 10880.1 330.597 10905 330.597H11120.8C11128.8 330.597 11135.2 337.066 11135.2 345.045C11135.2 353.024 11128.8 359.492 11120.8 359.492H10956.4C10937.1 359.492 10921.4 375.162 10921.4 394.492V535C10921.4 554.33 10937.1 570 10956.4 570H11370V540.519H10950.8V390.394H11121.1C11145.8 390.394 11165.7 370.406 11165.7 345.75C11165.7 321.094 11145.8 301.107 11121.1 301.107H10905.3C10896.5 301.107 10889.4 294.018 10889.4 285.273C10889.4 276.529 10896.5 269.44 10905.3 269.44H11299.9C11319.2 269.44 11334.9 253.77 11334.9 234.44V75.1496C11334.9 50.2142 11314.7 30 11289.7 30C11264.8 30 11244.6 50.2142 11244.6 75.1496Z" fill="#F28EC0"/>
</svg>
