<svg width="15201" height="720" viewBox="0 0 15201 720" fill="none" xmlns="http://www.w3.org/2000/svg">
<path d="M14560.7 80V240H14480.2L14480.7 280L14560.7 280C14582.8 280 14600.7 262.091 14600.7 240V79.9996H14681V620C14681 653.137 14707.9 680 14741 680C14774.1 680 14801 653.137 14801 620V160H15081V240H14881C14858.9 240 14841 257.908 14841 280V520C14841 542.091 14858.9 560 14881 560H15160.5V520H14881V280H15081C15103.1 280 15121 262.091 15121 240V160C15121 137.908 15103.1 120 15081 120H14801C14778.9 120 14761 137.908 14761 160V620.079C14761 631.125 14752.1 640.079 14741 640.079C14730 640.079 14721 631.125 14721 620.079V80C14721 57.9086 14703.1 40 14681 40H14600.7C14578.6 40 14560.7 57.9087 14560.7 80Z" fill="#F28EC0"/>
<path d="M13801 80V240H13720.5V280L13801 280C13823.1 280 13841 262.091 13841 240V79.9996H13921V620C13921 653.137 13947.9 680 13981 680C14014.1 680 14041 653.137 14041 620V160H14310.7V240H14121C14098.9 240 14081 257.908 14081 280V520C14081 542.091 14098.9 560 14121 560H14400.6V520H14121V280H14310.7C14332.8 280 14350.7 262.091 14350.7 240V160C14350.7 137.908 14332.8 120 14310.7 120H14041C14018.9 120 14001 137.908 14001 160V620.079C14001 631.125 13992.1 640.079 13981 640.079C13970 640.079 13961 631.125 13961 620.079V80C13961 57.9086 13943.1 40 13921 40H13841C13818.9 40 13801 57.9087 13801 80Z" fill="#F28EC0"/>
<path d="M13040.5 80V240H12960.5V280L13040.5 280C13062.6 280 13080.5 262.091 13080.5 240V79.9996H13161V620C13161 653.137 13187.9 680 13221 680C13254.1 680 13281 653.137 13281 620V160H13540.5V240H13361C13338.9 240 13321 257.908 13321 280V520C13321 542.091 13338.9 560 13361 560H13640.5V520H13361V280H13540.5C13562.6 280 13580.5 262.091 13580.5 240V160C13580.5 137.908 13562.6 120 13540.5 120H13281C13258.9 120 13241 137.908 13241 160V620.079C13241 631.125 13232.1 640.079 13221 640.079C13210 640.079 13201 631.125 13201 620.079V80C13201 57.9086 13183.1 40 13161 40H13080.5C13058.4 40 13040.5 57.9087 13040.5 80Z" fill="#F28EC0"/>
<path d="M12281.2 80V240H12200.7L12201.2 280L12281.2 280C12303.3 280 12321.2 262.091 12321.2 240V79.9996H12401V620C12401 653.137 12427.9 680 12461 680C12494.1 680 12521 653.137 12521 620V160H12770.9V240H12601C12578.9 240 12561 257.908 12561 280V520C12561 542.091 12578.9 560 12601 560H12881V520H12601V280H12770.9C12793 280 12810.9 262.091 12810.9 240V160C12810.9 137.908 12793 120 12770.9 120H12521C12498.9 120 12481 137.908 12481 160V620.079C12481 631.125 12472.1 640.079 12461 640.079C12450 640.079 12441 631.125 12441 620.079V80C12441 57.9086 12423.1 40 12401 40H12321.2C12299.1 40 12281.2 57.9087 12281.2 80Z" fill="#F28EC0"/>
<path d="M11520.9 80V240H11440.4L11440.9 280L11520.9 280C11543 280 11560.9 262.091 11560.9 240V79.9996H11641V620C11641 653.137 11667.9 680 11701 680C11734.1 680 11761 653.137 11761 620V160H12000.7V240H11841C11818.9 240 11801 257.908 11801 280V520C11801 542.091 11818.9 560 11841 560H12120.7V520H11841V280H12000.7C12022.8 280 12040.7 262.091 12040.7 240V160C12040.7 137.908 12022.8 120 12000.7 120H11761C11738.9 120 11721 137.908 11721 160V620.079C11721 631.125 11712.1 640.079 11701 640.079C11690 640.079 11681 631.125 11681 620.079V80C11681 57.9086 11663.1 40 11641 40H11560.9C11538.8 40 11520.9 57.9087 11520.9 80Z" fill="#F28EC0"/>
<path d="M10760.8 80.0005V240H10680.3L10680.8 280L10760.8 280C10782.9 280 10800.8 262.091 10800.8 240V79.9996L10881 80.0013V620.002C10881 653.139 10907.9 680.002 10941 680.002C10974.1 680.002 11001 653.139 11001 620.002V160.001H11231.2V240.001H11081C11058.9 240.001 11041 257.91 11041 280.001V520.001C11041 542.093 11058.9 560.001 11081 560.001H11360.4V520.001H11081V280.001H11231.2C11253.3 280.001 11271.2 262.093 11271.2 240.001V160.001C11271.2 137.91 11253.3 120.001 11231.2 120.001H11001C10978.9 120.001 10961 137.91 10961 160.001V620.081C10961 631.127 10952.1 640.081 10941 640.081C10930 640.081 10921 631.126 10921 620.081V80.0013C10921 57.9101 10903.1 40.0015 10881 40.0013L10800.8 40.0004C10778.7 40.0002 10760.8 57.9089 10760.8 80.0005Z" fill="#F28EC0"/>
<path d="M10000.2 80V240H9919.71L9920.19 280L10000.2 280C10022.3 280 10040.2 262.091 10040.2 240V79.9996H10121V620C10121 653.137 10147.9 680 10181 680C10214.1 680 10241 653.137 10241 620V160H10460.5V240H10321C10298.9 240 10281 257.908 10281 280V520C10281 542.091 10298.9 560 10321 560H10600.6V520H10321V280H10460.5C10482.6 280 10500.5 262.091 10500.5 240V160C10500.5 137.908 10482.6 120 10460.5 120H10241C10218.9 120 10201 137.908 10201 160V620.079C10201 631.125 10192.1 640.079 10181 640.079C10170 640.079 10161 631.125 10161 620.079V80C10161 57.9086 10143.1 40 10121 40H10040.2C10018.1 40 10000.2 57.9087 10000.2 80Z" fill="#F28EC0"/>
<path d="M9240.69 80V240H9160.21L9160.69 280L9240.69 280C9262.78 280 9280.69 262.091 9280.69 240V79.9996H9361.01V620C9361.01 653.137 9387.87 680 9421.01 680C9454.15 680 9481.01 653.137 9481.01 620V160H9691.01V240H9561.01C9538.92 240 9521.01 257.908 9521.01 280V520C9521.01 542.091 9538.92 560 9561.01 560H9841.04V520H9561.01V280H9691.01C9713.1 280 9731.01 262.091 9731.01 240V160C9731.01 137.908 9713.1 120 9691.01 120H9481.01C9458.92 120 9441.01 137.908 9441.01 160V620.079C9441.01 631.125 9432.06 640.079 9421.01 640.079C9409.97 640.079 9401.01 631.125 9401.01 620.079V80C9401.01 57.9086 9383.1 40 9361.01 40H9280.69C9258.6 40 9240.69 57.9087 9240.69 80Z" fill="#F28EC0"/>
<path d="M8481.28 80V240H8400.79L8401.28 280L8481.28 280C8503.37 280 8521.28 262.091 8521.28 240V79.9996H8601.01V620C8601.01 653.137 8627.87 680 8661.01 680C8694.14 680 8721.01 653.137 8721.01 620V160H8921.16V240H8801.01C8778.91 240 8761.01 257.908 8761.01 280V520C8761.01 542.091 8778.91 560 8801.01 560H9080.99V520H8801.01V280H8921.16C8943.25 280 8961.16 262.091 8961.16 240V160C8961.16 137.908 8943.25 120 8921.16 120H8721.01C8698.91 120 8681.01 137.908 8681.01 160V620.079C8681.01 631.125 8672.05 640.079 8661.01 640.079C8649.96 640.079 8641.01 631.125 8641.01 620.079V80C8641.01 57.9086 8623.1 40 8601.01 40H8521.28C8499.19 40 8481.28 57.9087 8481.28 80Z" fill="#F28EC0"/>
<path d="M7721.01 80V240H7640.52L7641.01 280L7721.01 280C7743.1 280 7761.01 262.091 7761.01 240V79.9996H7841.01V620C7841.01 653.137 7867.87 680 7901.01 680C7934.14 680 7961.01 653.137 7961.01 620V160L8150.54 160V240L8041.01 240C8018.91 240 8001.01 257.908 8001.01 280V520C8001.01 542.091 8018.91 560 8041.01 560L8320.54 560V520L8041.01 520V280L8150.54 280C8172.63 280 8190.54 262.091 8190.54 240V160C8190.54 137.909 8172.63 120 8150.54 120L7961.01 120C7938.91 120 7921.01 137.908 7921.01 160V620.079C7921.01 631.125 7912.05 640.079 7901.01 640.079C7889.96 640.079 7881.01 631.125 7881.01 620.079V80C7881.01 57.9086 7863.1 40 7841.01 40H7761.01C7738.92 40 7721.01 57.9087 7721.01 80Z" fill="#F28EC0"/>
<path d="M6961.21 80V240H6880.73L6881.21 280L6961.21 280C6983.3 280 7001.21 262.091 7001.21 240V79.9996H7081.01V620C7081.01 653.137 7107.87 680 7141.01 680C7174.14 680 7201.01 653.137 7201.01 620V160H7380.36V240H7281.01C7258.91 240 7241.01 257.908 7241.01 280V520C7241.01 542.091 7258.91 560 7281.01 560H7560.62V520H7281.01V280H7380.35C7402.45 280 7420.35 262.091 7420.35 240V160C7420.35 137.908 7402.45 120 7380.35 120H7201.01C7178.91 120 7161.01 137.908 7161.01 160V620.079C7161.01 631.125 7152.05 640.079 7141.01 640.079C7129.96 640.079 7121.01 631.125 7121.01 620.079V80C7121.01 57.9086 7103.1 40 7081.01 40H7001.21C6979.12 40 6961.21 57.9087 6961.21 80Z" fill="#F28EC0"/>
<path d="M6200.52 80V240H6120.04L6120.52 280L6200.52 280C6222.61 280 6240.52 262.091 6240.52 240V79.9996H6321.01V620C6321.01 653.137 6347.87 680 6381.01 680C6414.14 680 6441.01 653.137 6441.01 620V160H6610.74V240H6521.01C6498.92 240 6481.01 257.908 6481.01 280V520C6481.01 542.091 6498.92 560 6521.01 560H6801.04V520H6521.01V280H6610.74C6632.83 280 6650.74 262.091 6650.74 240V160C6650.74 137.908 6632.83 120 6610.74 120H6441.01C6418.92 120 6401.01 137.908 6401.01 160V620.079C6401.01 631.125 6392.05 640.079 6381.01 640.079C6369.96 640.079 6361.01 631.125 6361.01 620.079V80C6361.01 57.9086 6343.1 40 6321.01 40H6240.52C6218.43 40 6200.52 57.9087 6200.52 80Z" fill="#F28EC0"/>
<path d="M5440.6 80V240H5360.12L5360.6 280L5440.6 280C5462.69 280 5480.6 262.091 5480.6 240V79.9996H5561.01V620C5561.01 653.137 5587.87 680 5621.01 680C5654.14 680 5681.01 653.137 5681.01 620V160H5840.92V240H5761.01C5738.92 240 5721.01 257.908 5721.01 280V520C5721.01 542.091 5738.92 560 5761.01 560H6040.74V520H5761.01V280H5840.92C5863.01 280 5880.92 262.091 5880.92 240V160C5880.92 137.908 5863.01 120 5840.92 120H5681.01C5658.92 120 5641.01 137.908 5641.01 160V620.079C5641.01 631.125 5632.05 640.079 5621.01 640.079C5609.96 640.079 5601.01 631.125 5601.01 620.079V80C5601.01 57.9086 5583.1 40 5561.01 40H5480.6C5458.51 40 5440.6 57.9087 5440.6 80Z" fill="#F28EC0"/>
<path d="M4681.6 80V240H4601.12L4601.6 280L4681.6 280C4703.69 280 4721.6 262.091 4721.6 240V79.9996H4801.01V620C4801.01 653.137 4827.87 680 4861.01 680C4894.15 680 4921.01 653.137 4921.01 620V160L5071.01 160V240L5001.01 240C4978.92 240 4961.01 257.908 4961.01 280V520C4961.01 542.091 4978.92 560 5001.01 560L5280.6 560V520L5001.01 520V280L5071.01 280C5093.1 280 5111.01 262.091 5111.01 240V160C5111.01 137.909 5093.1 120 5071.01 120L4921.01 120C4898.92 120 4881.01 137.908 4881.01 160V620.079C4881.01 631.125 4872.05 640.079 4861.01 640.079C4849.96 640.079 4841.01 631.125 4841.01 620.079V80C4841.01 57.9086 4823.1 40 4801.01 40H4721.6C4699.51 40 4681.6 57.9087 4681.6 80Z" fill="#F28EC0"/>
<path d="M3920.71 80V240H3840.23L3840.72 280L3920.71 280C3942.81 280 3960.71 262.091 3960.71 240V79.9996H4041.01V620C4041.01 653.137 4067.87 680 4101.01 680C4134.14 680 4161.01 653.137 4161.01 620V160H4300.52V240H4241.01C4218.92 240 4201.01 257.908 4201.01 280V520C4201.01 542.091 4218.92 560 4241.01 560H4520.61V520H4241.01V280H4300.52C4322.62 280 4340.52 262.091 4340.52 240V160C4340.52 137.908 4322.62 120 4300.52 120H4161.01C4138.92 120 4121.01 137.908 4121.01 160V620.079C4121.01 631.125 4112.05 640.079 4101.01 640.079C4089.96 640.079 4081.01 631.125 4081.01 620.079V80C4081.01 57.9086 4063.1 40 4041.01 40H3960.71C3938.62 40 3920.71 57.9087 3920.71 80Z" fill="#F28EC0"/>
<path d="M3160.73 80V240H3080.25L3080.73 280L3160.73 280C3182.82 280 3200.73 262.091 3200.73 240V79.9996H3281.01V620C3281.01 653.137 3307.87 680 3341.01 680C3374.14 680 3401.01 653.137 3401.01 620V160H3531.01V240H3481.01C3458.91 240 3441.01 257.908 3441.01 280V520C3441.01 542.091 3458.91 560 3481.01 560H3760.82V520H3481.01V280H3531.01C3553.1 280 3571.01 262.091 3571.01 240V160C3571.01 137.908 3553.1 120 3531.01 120H3401.01C3378.91 120 3361.01 137.908 3361.01 160V620.079C3361.01 631.125 3352.05 640.079 3341.01 640.079C3329.96 640.079 3321.01 631.125 3321.01 620.079V80C3321.01 57.9086 3303.1 40 3281.01 40H3200.73C3178.64 40 3160.73 57.9087 3160.73 80Z" fill="#F28EC0"/>
<path d="M2402.12 80V240H2321.63L2322.12 280L2402.12 280C2424.21 280 2442.12 262.091 2442.12 240V79.9996H2521.01V620C2521.01 653.137 2547.87 680 2581.01 680C2614.14 680 2641.01 653.137 2641.01 620V160H2761.01V240H2721.01C2698.92 240 2681.01 257.908 2681.01 280V520C2681.01 542.091 2698.92 560 2721.01 560H3001.14V520H2721.01V280H2761.01C2783.1 280 2801.01 262.091 2801.01 240V160C2801.01 137.908 2783.1 120 2761.01 120H2641.01C2618.92 120 2601.01 137.908 2601.01 160V620.079C2601.01 631.125 2592.05 640.079 2581.01 640.079C2569.96 640.079 2561.01 631.125 2561.01 620.079V80C2561.01 57.9086 2543.1 40 2521.01 40H2442.12C2420.03 40 2402.12 57.9087 2402.12 80Z" fill="#F28EC0"/>
<path d="M1640.52 80.0001V240H1560.04L1560.53 280L1640.52 280C1662.62 280 1680.52 262.091 1680.52 240V79.9997L1761.01 79.9996V620C1761.01 653.137 1787.87 680 1821.01 680C1854.14 680 1881.01 653.137 1881.01 620V160H1992.13V240H1961.01C1938.92 240 1921.01 257.908 1921.01 280V520C1921.01 542.091 1938.92 560 1961.01 560H2241.72V520H1961.01V280H1992.13C2014.22 280 2032.13 262.091 2032.13 240V160C2032.13 137.908 2014.22 120 1992.13 120H1881.01C1858.92 120 1841.01 137.908 1841.01 160V620.079C1841.01 631.125 1832.05 640.079 1821.01 640.079C1809.96 640.079 1801.01 631.125 1801.01 620.079V80C1801.01 57.9086 1783.1 40 1761.01 40L1680.52 40C1658.43 40.0001 1640.52 57.9087 1640.52 80.0001Z" fill="#F28EC0"/>
<path d="M881.374 80V240H800.891L801.376 280L881.374 280C903.466 280 921.374 262.091 921.374 240V79.9996H1001.01V620C1001.01 653.137 1027.87 680 1061.01 680C1094.15 680 1121.01 653.137 1121.01 620V160L1221.29 160V240L1201.01 240C1178.92 240 1161.01 257.909 1161.01 280V520C1161.01 542.091 1178.92 560 1201.01 560L1480.43 560V520L1201.01 520V280L1221.29 280C1243.38 280 1261.29 262.091 1261.29 240V160C1261.29 137.909 1243.38 120 1221.29 120L1121.01 120C1098.92 120 1081.01 137.908 1081.01 160V620.079C1081.01 631.125 1072.05 640.079 1061.01 640.079C1049.96 640.079 1041.01 631.125 1041.01 620.079V80C1041.01 57.9086 1023.1 40 1001.01 40H921.374C899.283 40 881.374 57.9087 881.374 80Z" fill="#F28EC0"/>
<path d="M121.138 80V240H40.6543L41.1396 280L121.138 280C143.229 280 161.138 262.091 161.138 240V79.9996H241.007V620C241.007 653.137 267.87 680 301.007 680C334.144 680 361.007 653.137 361.007 620V160L450.646 160V240L441.007 240C418.916 240 401.007 257.908 401.007 280V520C401.007 542.091 418.916 560 441.007 560L720.866 560V520L441.007 520V280L450.645 280C472.737 280 490.646 262.091 490.646 240V160C490.646 137.908 472.737 120 450.646 120L361.007 120C338.916 120 321.007 137.908 321.007 160V620.079C321.007 631.125 312.053 640.079 301.007 640.079C289.962 640.079 281.007 631.125 281.007 620.079V80C281.007 57.9086 263.099 40 241.007 40H161.138C139.047 40 121.138 57.9087 121.138 80Z" fill="#F28EC0"/>
</svg>
