<svg width="14401" height="721" viewBox="0 0 14401 721" fill="none" xmlns="http://www.w3.org/2000/svg">
<g clip-path="url(#clip0)">
<path d="M400.522 560.197H80.5234V600.197H400.522C422.613 600.197 440.522 582.288 440.522 560.197V400.197C440.522 378.105 422.613 360.197 400.522 360.197L180.505 360.197C169.459 360.197 160.505 351.242 160.505 340.197C160.505 329.151 169.459 320.197 180.505 320.197L400.522 320.197C422.613 320.197 440.522 302.288 440.522 280.197V180.275C440.522 169.229 449.476 160.275 460.522 160.275C471.568 160.275 480.522 169.229 480.522 180.275V280.197C480.522 302.288 498.431 320.197 520.522 320.197H560.522L560.098 600.214C560.064 622.329 577.983 640.275 600.098 640.275L720.629 640.273V600.195L599.551 600.197V320.197C599.551 298.106 581.643 280.197 559.551 280.197H520.522V180.273C520.522 147.136 493.659 120.273 460.522 120.273C427.385 120.273 400.522 147.136 400.522 180.273V280.197L180.505 280.197C147.368 280.197 120.505 307.06 120.505 340.197C120.505 373.334 147.368 400.197 180.505 400.197L400.522 400.197V560.197Z" fill="#F28EC0"/>
<path d="M1120.52 560.193L800.443 560.273V600.273L1120.53 600.202C1142.62 600.198 1160.52 582.29 1160.52 560.202V400.205C1160.52 378.109 1142.61 360.199 1120.51 360.205L910.296 360.267C899.248 360.271 890.291 351.315 890.291 340.267C890.291 329.224 899.241 320.271 910.285 320.267L1120.53 320.205C1142.62 320.199 1160.52 302.292 1160.52 280.205V180.271C1160.52 169.225 1169.48 160.271 1180.52 160.271C1191.57 160.271 1200.52 169.225 1200.52 180.271V280.193C1200.52 302.285 1218.43 320.193 1240.52 320.193H1280.52L1280.1 600.211C1280.06 622.326 1297.98 640.272 1320.1 640.272H1440.5V600.194H1319.55V320.194C1319.55 298.102 1301.64 280.194 1279.55 280.194H1240.52V180.27C1240.52 147.132 1213.66 120.27 1180.52 120.27C1147.38 120.27 1120.52 147.132 1120.52 180.27V280.194L910.273 280.256C877.143 280.265 850.291 307.125 850.291 340.256C850.291 373.399 877.164 400.265 910.308 400.255L1120.52 400.193V560.193Z" fill="#F28EC0"/>
<path d="M1840.52 560.194H1520.9V600.194H1840.52C1862.61 600.194 1880.52 582.286 1880.52 560.194V400.194C1880.52 378.103 1862.61 360.194 1840.52 360.194L1640.81 360.194C1629.77 360.194 1620.81 351.24 1620.81 340.194C1620.81 329.148 1629.77 320.194 1640.81 320.194L1840.52 320.194C1862.61 320.194 1880.52 302.285 1880.52 280.194V180.533C1880.52 169.487 1889.48 160.533 1900.52 160.533C1911.57 160.533 1920.52 169.487 1920.52 180.533V280.194C1920.52 302.285 1938.43 320.194 1960.52 320.194H2000.52L2000.1 600.212C2000.06 622.327 2017.98 640.272 2040.1 640.272H2160.86V600.194H2039.55V320.194C2039.55 298.103 2021.64 280.194 1999.55 280.194H1960.52V180.531C1960.52 147.394 1933.66 120.531 1900.52 120.531C1867.39 120.531 1840.52 147.394 1840.52 180.531V280.194L1640.81 280.194C1607.68 280.194 1580.81 307.057 1580.81 340.194C1580.81 373.331 1607.68 400.194 1640.81 400.194L1840.52 400.194V560.194Z" fill="#F28EC0"/>
<path d="M2560.52 560.193L2240.68 560.273V600.273L2560.53 600.202C2582.62 600.197 2600.52 582.29 2600.52 560.202V400.206C2600.52 378.11 2582.6 360.199 2560.51 360.206L2370.66 360.267C2359.62 360.27 2350.66 351.315 2350.66 340.267C2350.66 329.224 2359.61 320.27 2370.65 320.267L2560.53 320.206C2582.62 320.199 2600.52 302.293 2600.52 280.206V180.423C2600.52 169.377 2609.47 160.423 2620.52 160.423C2631.57 160.423 2640.52 169.377 2640.52 180.423V280.193C2640.52 302.285 2658.43 320.193 2680.52 320.193H2720.52L2720.1 600.211C2720.06 622.326 2737.98 640.272 2760.1 640.272H2881.04V600.193H2759.55V320.194C2759.55 298.102 2741.64 280.194 2719.55 280.194H2680.52V180.422C2680.52 147.285 2653.66 120.422 2620.52 120.422C2587.38 120.422 2560.52 147.285 2560.52 180.422V280.194L2370.64 280.254C2337.51 280.265 2310.66 307.125 2310.66 340.254C2310.66 373.399 2337.53 400.265 2370.68 400.254L2560.52 400.193V560.193Z" fill="#F28EC0"/>
<path d="M3280.52 560.197H2960.52V600.197H3280.52C3302.61 600.197 3320.52 582.288 3320.52 560.197V400.197C3320.52 378.105 3302.61 360.197 3280.52 360.197L3101.09 360.197C3090.04 360.197 3081.09 351.242 3081.09 340.197C3081.09 329.151 3090.04 320.197 3101.09 320.197L3280.52 320.197C3302.61 320.197 3320.52 302.288 3320.52 280.197V180.275C3320.52 169.229 3329.48 160.275 3340.52 160.275C3351.57 160.275 3360.52 169.229 3360.52 180.275V280.197C3360.52 302.288 3378.43 320.197 3400.52 320.197H3440.52L3440.1 600.214C3440.06 622.329 3457.98 640.275 3480.1 640.275H3600.66V600.197H3479.55V320.197C3479.55 298.105 3461.64 280.197 3439.55 280.197H3400.52V180.273C3400.52 147.136 3373.66 120.273 3340.52 120.273C3307.38 120.273 3280.52 147.136 3280.52 180.273V280.197L3101.09 280.197C3067.95 280.197 3041.09 307.06 3041.09 340.197C3041.09 373.334 3067.95 400.196 3101.09 400.197L3280.52 400.197V560.197Z" fill="#F28EC0"/>
<path d="M4000.52 560.196H3681.05V600.196H4000.52C4022.61 600.196 4040.52 582.288 4040.52 560.196V400.196C4040.52 378.105 4022.61 360.196 4000.52 360.196L3830.27 360.196C3819.23 360.196 3810.27 351.242 3810.27 340.196C3810.27 329.151 3819.23 320.196 3830.27 320.196L4000.52 320.196C4022.61 320.196 4040.52 302.288 4040.52 280.196V180.275C4040.52 169.229 4049.48 160.275 4060.52 160.275C4071.57 160.275 4080.52 169.229 4080.52 180.275V280.196C4080.52 302.288 4098.43 320.196 4120.52 320.196H4160.52L4160.1 600.214C4160.07 622.329 4177.98 640.275 4200.1 640.275H4320.97V600.196H4199.55V320.196C4199.55 298.105 4181.64 280.196 4159.55 280.196H4120.52V180.273C4120.52 147.136 4093.66 120.273 4060.52 120.273C4027.39 120.273 4000.52 147.136 4000.52 180.273V280.196L3830.27 280.196C3797.14 280.196 3770.27 307.059 3770.27 340.196C3770.27 373.333 3797.14 400.196 3830.27 400.196L4000.52 400.196V560.196Z" fill="#F28EC0"/>
<path d="M4720.53 560.196L4400.79 560.273V600.273L4720.54 600.205C4742.62 600.2 4760.53 582.293 4760.53 560.205V400.21C4760.53 378.113 4742.61 360.203 4720.51 360.21L4561.18 360.266C4550.13 360.27 4541.17 351.315 4541.17 340.266C4541.17 329.223 4550.12 320.27 4561.16 320.266L4720.54 320.21C4742.63 320.203 4760.53 302.296 4760.53 280.21V180.275C4760.53 169.229 4769.48 160.275 4780.53 160.275C4791.57 160.275 4800.53 169.229 4800.53 180.275V280.196C4800.53 302.288 4818.44 320.196 4840.53 320.196H4880.53L4880.1 600.214C4880.07 622.329 4897.99 640.275 4920.1 640.275H5040.88V600.196H4919.56V320.196C4919.56 298.105 4901.65 280.196 4879.56 280.196H4840.53V180.273C4840.53 147.136 4813.66 120.273 4780.53 120.273C4747.39 120.273 4720.53 147.136 4720.53 180.273V280.196L4561.15 280.252C4528.02 280.264 4501.17 307.123 4501.17 340.252C4501.17 373.397 4528.05 400.264 4561.19 400.252L4720.53 400.196V560.196Z" fill="#F28EC0"/>
<path d="M5440.53 560.195L5120.32 560.196V600.196L5440.53 600.196C5462.62 600.196 5480.53 582.287 5480.53 560.196V400.195C5480.53 378.104 5462.62 360.196 5440.53 360.196L5290.53 360.195C5279.48 360.195 5270.53 351.241 5270.53 340.195C5270.53 329.15 5279.48 320.196 5290.53 320.196H5440.53C5462.62 320.196 5480.53 302.286 5480.53 280.194L5480.52 181.178C5480.52 170.132 5489.48 161.177 5500.52 161.177C5511.57 161.177 5520.52 170.131 5520.52 181.177L5520.53 280.197C5520.53 302.288 5538.44 320.195 5560.53 320.195H5600.53L5600.1 600.213C5600.07 622.328 5617.99 640.274 5640.1 640.274H5760.28V600.196H5639.56V320.196C5639.56 298.104 5621.65 280.196 5599.56 280.196H5560.53L5560.53 181.174C5560.52 148.038 5533.66 121.176 5500.53 121.176C5467.39 121.176 5440.52 148.04 5440.53 181.177L5440.53 280.196L5290.52 280.196C5257.39 280.196 5230.53 307.059 5230.53 340.196C5230.53 373.333 5257.39 400.195 5290.52 400.195L5440.53 400.195V560.195Z" fill="#F28EC0"/>
<path d="M6160.52 560.197H5841.28V600.197H6160.52C6182.61 600.197 6200.52 582.288 6200.52 560.197V400.197C6200.52 378.105 6182.61 360.197 6160.52 360.197L6021.17 360.197C6010.12 360.197 6001.17 351.242 6001.17 340.197C6001.17 329.151 6010.12 320.197 6021.17 320.197L6160.52 320.197C6182.61 320.197 6200.52 302.288 6200.52 280.197V180.275C6200.52 169.229 6209.48 160.275 6220.52 160.275C6231.57 160.275 6240.52 169.229 6240.52 180.275V280.197C6240.52 302.288 6258.43 320.197 6280.52 320.197H6320.52L6320.1 600.214C6320.06 622.329 6337.98 640.275 6360.1 640.275H6480.75V600.197H6359.55V320.197C6359.55 298.106 6341.64 280.197 6319.55 280.197H6280.52V180.273C6280.52 147.136 6253.66 120.273 6220.52 120.273C6187.39 120.273 6160.52 147.136 6160.52 180.273V280.197L6021.17 280.197C5988.03 280.197 5961.17 307.06 5961.17 340.197C5961.17 373.334 5988.03 400.197 6021.17 400.197L6160.52 400.197V560.197Z" fill="#F28EC0"/>
<path d="M6880.52 560.197L6560.79 560.197V600.197L6880.52 600.197C6902.61 600.197 6920.52 582.288 6920.52 560.197V400.197C6920.52 378.105 6902.61 360.197 6880.52 360.197L6751.52 360.197C6740.48 360.197 6731.52 351.243 6731.52 340.197C6731.52 329.151 6740.48 320.197 6751.52 320.197L6880.52 320.197C6902.61 320.197 6920.52 302.288 6920.52 280.197V180.275C6920.52 169.229 6929.47 160.275 6940.52 160.275C6951.57 160.275 6960.52 169.229 6960.52 180.275V280.197C6960.52 302.288 6978.43 320.197 7000.52 320.197H7040.52L7040.1 600.214C7040.06 622.329 7057.98 640.275 7080.1 640.275H7200.72V600.197H7079.55V320.197C7079.55 298.106 7061.64 280.197 7039.55 280.197H7000.52V180.273C7000.52 147.136 6973.66 120.273 6940.52 120.273C6907.38 120.273 6880.52 147.136 6880.52 180.273V280.197L6751.52 280.197C6718.39 280.197 6691.52 307.06 6691.52 340.197C6691.52 373.334 6718.39 400.197 6751.52 400.197H6880.52V560.197Z" fill="#F28EC0"/>
<path d="M7600.52 560.195H7281.91V600.195H7600.52C7622.61 600.195 7640.52 582.287 7640.52 560.195V400.195C7640.52 378.104 7622.61 360.195 7600.52 360.195L7482.51 360.195C7471.46 360.195 7462.51 351.241 7462.51 340.195C7462.51 329.149 7471.46 320.195 7482.51 320.195L7600.52 320.195C7622.61 320.195 7640.52 302.286 7640.52 280.195V180.275C7640.52 169.229 7649.48 160.275 7660.52 160.275C7671.57 160.275 7680.52 169.229 7680.52 180.275V280.195C7680.52 302.286 7698.43 320.195 7720.52 320.195H7760.52L7760.1 600.213C7760.06 622.328 7777.98 640.273 7800.1 640.273H7920.46V600.195H7799.55V320.195C7799.55 298.104 7781.64 280.195 7759.55 280.195H7720.52V180.273C7720.52 147.136 7693.66 120.273 7660.52 120.273C7627.38 120.273 7600.52 147.136 7600.52 180.273V280.195L7482.51 280.195C7449.37 280.195 7422.51 307.058 7422.51 340.195C7422.51 373.332 7449.37 400.195 7482.51 400.195L7600.52 400.195V560.195Z" fill="#F28EC0"/>
<path d="M8320.52 560.195L8000.67 560.195V600.195L8320.52 600.195C8342.61 600.195 8360.52 582.287 8360.52 560.195V400.195C8360.52 378.104 8342.61 360.195 8320.52 360.195L8210.52 360.195C8199.48 360.195 8190.52 351.241 8190.52 340.195C8190.52 329.15 8199.48 320.195 8210.52 320.195H8320.52C8342.61 320.195 8360.52 302.287 8360.52 280.195V180.275C8360.52 169.229 8369.47 160.275 8380.52 160.275C8391.56 160.275 8400.52 169.229 8400.52 180.275V280.195C8400.52 302.287 8418.43 320.195 8440.52 320.195H8480.52L8480.09 600.213C8480.06 622.328 8497.98 640.273 8520.09 640.273H8640.52V600.195H8519.55V320.195C8519.55 298.104 8501.64 280.195 8479.55 280.195H8440.52V180.273C8440.52 147.136 8413.66 120.273 8380.52 120.273C8347.38 120.273 8320.52 147.136 8320.52 180.273V280.195L8210.52 280.195C8177.39 280.195 8150.52 307.058 8150.52 340.195C8150.52 373.332 8177.39 400.195 8210.52 400.195L8320.52 400.195V560.195Z" fill="#F28EC0"/>
<path d="M9040.52 560.195H8720.56V600.195H9040.52C9062.62 600.195 9080.52 582.286 9080.52 560.195V400.195C9080.52 378.104 9062.62 360.195 9040.52 360.195L8940.72 360.195C8929.68 360.195 8920.72 351.241 8920.72 340.195C8920.72 329.149 8929.68 320.195 8940.72 320.195L9040.52 320.195C9062.62 320.195 9080.52 302.286 9080.52 280.195V180.275C9080.52 169.229 9089.48 160.275 9100.52 160.275C9111.57 160.275 9120.52 169.229 9120.52 180.275V280.195C9120.52 302.286 9138.43 320.195 9160.52 320.195H9200.52L9200.1 600.212C9200.07 622.327 9217.98 640.273 9240.1 640.273H9360.41V600.195H9239.55V320.195C9239.55 298.104 9221.64 280.195 9199.55 280.195H9160.52V180.273C9160.52 147.136 9133.66 120.273 9100.52 120.273C9067.39 120.273 9040.52 147.136 9040.52 180.273V280.195L8940.72 280.195C8907.58 280.195 8880.72 307.058 8880.72 340.195C8880.72 373.332 8907.58 400.195 8940.72 400.195L9040.52 400.195V560.195Z" fill="#F28EC0"/>
<path d="M9760.52 560.196H9440.28V600.196H9760.52C9782.61 600.196 9800.52 582.288 9800.52 560.196V400.196C9800.52 378.105 9782.61 360.196 9760.52 360.196L9669.93 360.196C9658.88 360.196 9649.93 351.242 9649.93 340.196C9649.93 329.151 9658.88 320.196 9669.93 320.196L9760.52 320.196C9782.61 320.196 9800.52 302.288 9800.52 280.196V180.275C9800.52 169.229 9809.47 160.275 9820.52 160.275C9831.56 160.275 9840.52 169.229 9840.52 180.275V280.196C9840.52 302.288 9858.43 320.196 9880.52 320.196H9920.52L9920.09 600.214C9920.06 622.329 9937.98 640.274 9960.09 640.274H10081V600.196H9959.55V320.196C9959.55 298.105 9941.64 280.196 9919.55 280.196H9880.52V180.273C9880.52 147.136 9853.65 120.273 9820.52 120.273C9787.38 120.273 9760.52 147.136 9760.52 180.273V280.196L9669.93 280.196C9636.79 280.196 9609.93 307.059 9609.93 340.196C9609.93 373.333 9636.79 400.196 9669.93 400.196L9760.52 400.196V560.196Z" fill="#F28EC0"/>
<path d="M10480.5 560.197H10161.1V600.197H10480.5C10502.6 600.197 10520.5 582.288 10520.5 560.197V400.197C10520.5 378.105 10502.6 360.197 10480.5 360.197L10401.2 360.197C10390.2 360.197 10381.2 351.242 10381.2 340.197C10381.2 329.151 10390.2 320.197 10401.2 320.197L10480.5 320.197C10502.6 320.197 10520.5 302.288 10520.5 280.197V180.275C10520.5 169.229 10529.5 160.275 10540.5 160.275C10551.6 160.275 10560.5 169.229 10560.5 180.275V280.197C10560.5 302.288 10578.4 320.197 10600.5 320.197H10640.5L10640.1 600.214C10640.1 622.329 10658 640.275 10680.1 640.275H10801.1V600.197H10679.5V320.197C10679.5 298.106 10661.6 280.197 10639.5 280.197H10600.5V180.273C10600.5 147.136 10573.7 120.273 10540.5 120.273C10507.4 120.273 10480.5 147.136 10480.5 180.273V280.197L10401.2 280.197C10368.1 280.197 10341.2 307.06 10341.2 340.197C10341.2 373.334 10368.1 400.197 10401.2 400.197L10480.5 400.197V560.197Z" fill="#F28EC0"/>
<path d="M11200.5 560.194H10880.5V600.194H11200.5C11222.6 600.194 11240.5 582.286 11240.5 560.194V400.194C11240.5 378.103 11222.6 360.194 11200.5 360.194L11130.5 360.194C11119.5 360.194 11110.5 351.24 11110.5 340.194C11110.5 329.149 11119.5 320.194 11130.5 320.194L11200.5 320.194C11222.6 320.194 11240.5 302.286 11240.5 280.194V180.275C11240.5 169.229 11249.5 160.275 11260.5 160.275C11271.6 160.275 11280.5 169.229 11280.5 180.275V280.194C11280.5 302.286 11298.4 320.194 11320.5 320.194H11360.5L11360.1 600.212C11360.1 622.327 11378 640.273 11400.1 640.273H11520.1V600.194H11399.6V320.195C11399.6 298.103 11381.6 280.195 11359.6 280.195H11320.5V180.273C11320.5 147.136 11293.7 120.273 11260.5 120.273C11227.4 120.273 11200.5 147.136 11200.5 180.273V280.195L11130.5 280.195C11097.4 280.194 11070.5 307.057 11070.5 340.194C11070.5 373.331 11097.4 400.194 11130.5 400.194L11200.5 400.194V560.194Z" fill="#F28EC0"/>
<path d="M11920.5 560.194H11600.1V600.195H11920.5C11942.6 600.195 11960.5 582.286 11960.5 560.195V400.194C11960.5 378.103 11942.6 360.195 11920.5 360.195L11860.2 360.194C11849.2 360.194 11840.2 351.24 11840.2 340.194C11840.2 329.149 11849.2 320.195 11860.2 320.195L11920.5 320.195C11942.6 320.195 11960.5 302.286 11960.5 280.195V180.275C11960.5 169.229 11969.5 160.275 11980.5 160.275C11991.6 160.275 12000.5 169.229 12000.5 180.275V280.195C12000.5 302.286 12018.4 320.195 12040.5 320.195H12080.5L12080.1 600.232C12080.1 622.339 12098 640.282 12120.1 640.292L12240.7 640.352V600.273L12119.6 600.195V320.195C12119.6 298.103 12101.6 280.195 12079.6 280.195H12040.5V180.273C12040.5 147.136 12013.7 120.273 11980.5 120.273C11947.4 120.273 11920.5 147.136 11920.5 180.273V280.195L11860.2 280.195C11827.1 280.195 11800.2 307.057 11800.2 340.195C11800.2 373.332 11827.1 400.194 11860.2 400.194L11920.5 400.194V560.194Z" fill="#F28EC0"/>
<path d="M12640.5 560.196H12320.5V600.197H12640.5C12662.6 600.197 12680.5 582.288 12680.5 560.197V400.196C12680.5 378.105 12662.6 360.196 12640.5 360.196L12590 360.196C12579 360.196 12570 351.242 12570 340.196C12570 329.151 12579 320.196 12590 320.196L12640.5 320.196C12662.6 320.197 12680.5 302.288 12680.5 280.197V180.275C12680.5 169.229 12689.5 160.275 12700.5 160.275C12711.6 160.275 12720.5 169.229 12720.5 180.275V280.197C12720.5 302.288 12738.4 320.196 12760.5 320.196H12800.5L12800.1 600.214C12800.1 622.329 12818 640.275 12840.1 640.275H12960.5V600.197H12839.5V320.197C12839.5 298.105 12821.6 280.197 12799.5 280.197H12760.5V180.273C12760.5 147.136 12733.7 120.273 12700.5 120.273C12667.4 120.273 12640.5 147.136 12640.5 180.273V280.197L12590 280.197C12556.9 280.197 12530 307.059 12530 340.197C12530 373.334 12556.9 400.196 12590 400.196L12640.5 400.196V560.196Z" fill="#F28EC0"/>
<path d="M13360.5 560.197L13041.2 560.197V600.197L13360.5 600.197C13382.6 600.197 13400.5 582.288 13400.5 560.197V400.197C13400.5 378.105 13382.6 360.197 13360.5 360.197L13322 360.197C13310.9 360.197 13302 351.242 13302 340.197C13302 329.151 13310.9 320.197 13322 320.197L13360.5 320.197C13382.6 320.197 13400.5 302.288 13400.5 280.197V180.275C13400.5 169.229 13409.5 160.275 13420.5 160.275C13431.6 160.275 13440.5 169.229 13440.5 180.275V280.197C13440.5 302.288 13458.4 320.197 13480.5 320.197H13520.5L13520.1 600.214C13520.1 622.329 13538 640.275 13560.1 640.275H13681.3V600.197H13559.6V320.197C13559.6 298.105 13541.6 280.197 13519.6 280.197H13480.5V180.273C13480.5 147.136 13453.7 120.273 13420.5 120.273C13387.4 120.273 13360.5 147.136 13360.5 180.273V280.197H13322C13288.8 280.197 13262 307.06 13262 340.197C13262 373.334 13288.8 400.197 13322 400.197H13360.5V560.197Z" fill="#F28EC0"/>
<path d="M14080.5 560.194H13760.6V600.194H14080.5C14102.6 600.194 14120.5 582.285 14120.5 560.194V400.194C14120.5 378.102 14102.6 360.194 14080.5 360.194L14049.9 360.194C14038.8 360.193 14029.9 351.239 14029.9 340.194C14029.9 329.148 14038.8 320.194 14049.9 320.194L14080.5 320.194C14102.6 320.194 14120.5 302.285 14120.5 280.194V180.275C14120.5 169.229 14129.5 160.275 14140.5 160.275C14151.6 160.275 14160.5 169.229 14160.5 180.275V280.194C14160.5 302.285 14178.4 320.194 14200.5 320.194H14240.5L14240.1 600.231C14240.1 622.338 14258 640.281 14280.1 640.292L14400.3 640.352V600.273L14279.6 600.194V320.194C14279.6 298.102 14261.6 280.194 14239.6 280.194H14200.5V180.273C14200.5 147.136 14173.7 120.273 14140.5 120.273C14107.4 120.273 14080.5 147.136 14080.5 180.273V280.194L14049.9 280.194C14016.8 280.194 13989.9 307.057 13989.9 340.194C13989.9 373.331 14016.8 400.193 14049.9 400.194L14080.5 400.194V560.194Z" fill="#F28EC0"/>
</g>
<defs>
<clipPath id="clip0">
<rect width="14400" height="720" fill="white" transform="translate(0.523438 0.273438)"/>
</clipPath>
</defs>
</svg>
