<svg width="418" height="129" viewBox="0 0 418 129" fill="none" xmlns="http://www.w3.org/2000/svg">
<path d="M121.484 21.547V120.158C121.484 124.049 118.33 127.203 114.439 127.203C110.549 127.203 107.395 124.049 107.395 120.158V21.547C107.395 9.8745 116.857 0.412109 128.529 0.412109C140.202 0.412109 149.664 9.8745 149.664 21.547V106.069C149.664 109.959 152.818 113.114 156.709 113.114C160.6 113.114 163.754 109.959 163.754 106.069V21.547C163.754 9.8745 173.217 0.412109 184.889 0.412109C196.561 0.412109 206.024 9.8745 206.024 21.547V120.158C206.024 124.049 202.87 127.203 198.979 127.203C195.088 127.203 191.934 124.049 191.934 120.158V21.547C191.934 17.6561 188.78 14.502 184.889 14.502C180.998 14.502 177.844 17.6561 177.844 21.547V106.069C177.844 117.741 168.382 127.203 156.709 127.203C145.037 127.203 135.574 117.741 135.574 106.069V21.547C135.574 17.6561 132.42 14.502 128.529 14.502C124.639 14.502 121.484 17.6561 121.484 21.547Z" fill="black"/>
<path d="M325.22 14.5021L283.096 14.502C279.205 14.502 276.051 11.3479 276.051 7.45707C276.051 3.56625 279.205 0.412116 283.096 0.412124L325.346 0.412215C337.076 0.41224 346.585 9.92143 346.585 21.6516C346.585 33.3818 337.076 42.891 325.346 42.891H311.36C307.469 42.891 304.315 46.0451 304.315 49.9359C304.315 53.8267 307.469 56.9809 311.36 56.9809H326.585C337.631 56.9809 346.585 65.9352 346.585 76.9809V114.756C346.585 121.936 340.765 127.756 333.585 127.756L283.801 127.756C279.911 127.756 276.756 124.602 276.756 120.711C276.756 116.82 279.911 113.666 283.801 113.666L332.495 113.666V71.322H311.36C299.688 71.322 290.225 61.8596 290.225 50.1871C290.225 38.5147 299.688 29.0523 311.36 29.0523H325.22C329.238 29.0523 332.495 25.7951 332.495 21.7772C332.495 17.7593 329.238 14.5021 325.22 14.5021Z" fill="black"/>
<path d="M375.176 14.502L375.176 121.255C375.176 125.145 372.022 128.3 368.131 128.3C364.24 128.3 361.086 125.145 361.086 121.255L361.086 13.4121C361.086 6.2324 366.906 0.412109 374.086 0.412109H410.499C414.39 0.412109 417.544 3.56624 417.544 7.45706C417.544 11.3479 414.39 14.502 410.499 14.502H375.176Z" fill="black"/>
<path fill-rule="evenodd" clip-rule="evenodd" d="M241.658 0.308594C229.986 0.308594 220.523 9.77099 220.523 21.4434V106.097C220.523 117.77 229.986 127.232 241.658 127.232V127.232C253.331 127.232 262.793 117.77 262.793 106.097V21.4434C262.793 9.77099 253.331 0.308594 241.658 0.308594V0.308594ZM241.658 113.142C237.767 113.142 234.613 109.988 234.613 106.097V21.4434C234.613 17.5526 237.767 14.3985 241.658 14.3985V14.3985C245.549 14.3985 248.703 17.5526 248.703 21.4434V106.097C248.703 109.988 245.549 113.142 241.658 113.142V113.142Z" fill="black"/>
<path fill-rule="evenodd" clip-rule="evenodd" d="M56.9279 127.289H14.6583C6.87662 127.289 0.568359 120.98 0.568359 113.199L0.568359 21.4434C0.568359 9.77099 10.0308 0.308594 21.7032 0.308594C33.3756 0.308594 42.838 9.77099 42.838 21.4434V56.6682H56.9279C64.7096 56.6682 71.0178 62.9764 71.0178 70.7581V113.199C71.0178 120.98 64.7096 127.289 56.9279 127.289ZM28.7481 56.6682V21.4434C28.7481 17.5526 25.594 14.3985 21.7032 14.3985V14.3985C17.8124 14.3985 14.6583 17.5526 14.6583 21.4434V56.6682H28.7481ZM14.6583 113.199V70.7581H56.9279V113.199H14.6583Z" fill="black"/>
</svg>
