<svg width="792" height="128" viewBox="0 0 792 128" fill="none" xmlns="http://www.w3.org/2000/svg">
<path fill-rule="evenodd" clip-rule="evenodd" d="M324.889 120.333V56.9461H353.133V120.333C353.133 124.232 356.294 127.394 360.194 127.394C364.093 127.394 367.255 124.232 367.255 120.333V14.5808C367.255 6.78152 360.932 0.458984 353.133 0.458984H324.889C317.09 0.458984 310.768 6.78152 310.768 14.5808V120.333C310.768 124.232 313.929 127.394 317.828 127.394C321.728 127.394 324.889 124.232 324.889 120.333ZM324.889 42.8243V14.5808H353.133V42.8243H324.889Z" fill="black"/>
<path fill-rule="evenodd" clip-rule="evenodd" d="M594.046 120.333V56.9461H622.289V120.333C622.289 124.232 625.45 127.394 629.35 127.394C633.25 127.394 636.411 124.232 636.411 120.333V14.5808C636.411 6.78152 630.088 0.458984 622.289 0.458984H594.046C586.246 0.458984 579.924 6.78152 579.924 14.5808V120.333C579.924 124.232 583.085 127.394 586.985 127.394C590.884 127.394 594.046 124.232 594.046 120.333ZM594.046 42.8243V14.5808H622.289V42.8243H594.046Z" fill="black"/>
<path fill-rule="evenodd" clip-rule="evenodd" d="M106.843 0.458984C95.144 0.458984 85.6602 9.94279 85.6602 21.6417V106.487C85.6602 118.186 95.144 127.67 106.843 127.67V127.67C118.542 127.67 128.025 118.186 128.025 106.487V21.6417C128.025 9.94281 118.542 0.458984 106.843 0.458984V0.458984ZM106.843 113.548C102.943 113.548 99.7819 110.386 99.7819 106.487V21.6417C99.7819 17.742 102.943 14.5808 106.843 14.5808V14.5808C110.742 14.5808 113.904 17.742 113.904 21.6416V106.487C113.904 110.386 110.742 113.548 106.843 113.548V113.548Z" fill="black"/>
<path fill-rule="evenodd" clip-rule="evenodd" d="M459.886 0.458984C448.187 0.458984 438.703 9.94279 438.703 21.6417V106.487C438.703 118.186 448.187 127.67 459.886 127.67V127.67C471.585 127.67 481.068 118.186 481.068 106.487V21.6417C481.068 9.94281 471.585 0.458984 459.886 0.458984V0.458984ZM459.886 113.548C455.986 113.548 452.825 110.386 452.825 106.487V21.6417C452.825 17.742 455.986 14.5808 459.886 14.5808V14.5808C463.785 14.5808 466.947 17.742 466.947 21.6416V106.487C466.947 110.386 463.785 113.548 459.886 113.548V113.548Z" fill="black"/>
<path d="M71.5386 13.459V120.445C71.5386 124.345 68.3773 127.506 64.4777 127.506C60.5781 127.506 57.4168 124.345 57.4168 120.445V14.5808H15.0515V120.445C15.0515 124.345 11.8902 127.506 7.99058 127.506C4.09096 127.506 0.929688 124.345 0.929688 120.445V13.459C0.929688 6.27928 6.74998 0.458984 13.9297 0.458984H58.5386C65.7183 0.458984 71.5386 6.27929 71.5386 13.459Z" fill="black"/>
<path d="M185.632 127.555H149.205C145.306 127.555 142.145 124.394 142.145 120.494C142.145 116.594 145.306 113.433 149.205 113.433H184.51V14.5808H149.205C145.306 14.5808 142.145 11.4195 142.145 7.51987C142.145 3.62025 145.306 0.458984 149.205 0.458984H185.632C192.811 0.458984 198.632 6.2793 198.632 13.459V56.9461H212.753V21.6416C212.753 17.742 215.915 14.5808 219.814 14.5808C223.714 14.5808 226.875 17.742 226.875 21.6416V56.9461H240.997V13.459C240.997 6.27928 246.817 0.458984 253.997 0.458984H290.423C294.323 0.458984 297.484 3.62025 297.484 7.51987C297.484 11.4195 294.323 14.5808 290.423 14.5808H255.119V113.433H290.423C294.323 113.433 297.484 116.594 297.484 120.494C297.484 124.394 294.323 127.555 290.423 127.555H253.997C246.817 127.555 240.997 121.735 240.997 114.555V71.0679H226.875V106.372C226.875 110.272 223.714 113.433 219.814 113.433C215.915 113.433 212.753 110.272 212.753 106.372V71.0679H198.632V114.555C198.632 121.735 192.811 127.555 185.632 127.555Z" fill="black"/>
<path d="M396.337 21.6416L396.337 120.382C396.337 124.281 393.175 127.443 389.276 127.443C385.376 127.443 382.215 124.281 382.215 120.382L382.215 21.6416C382.215 9.94273 391.699 0.458984 403.398 0.458984C415.097 0.458984 424.581 9.94283 424.581 21.6417L424.58 120.382C424.58 124.281 421.419 127.443 417.519 127.443C413.62 127.443 410.458 124.281 410.458 120.382L410.459 21.6417C410.459 17.7421 407.298 14.5808 403.398 14.5808C399.498 14.5808 396.337 17.742 396.337 21.6416Z" fill="black"/>
<path fill-rule="evenodd" clip-rule="evenodd" d="M551.675 127.726H509.309C501.51 127.726 495.188 121.404 495.188 113.605L495.188 21.6417C495.188 9.94279 504.671 0.458984 516.37 0.458984C528.069 0.458984 537.553 9.94279 537.553 21.6417V56.9461H551.675C559.474 56.9461 565.796 63.2686 565.796 71.0679V113.605C565.796 121.404 559.474 127.726 551.675 127.726ZM523.431 56.9461V21.6416C523.431 17.742 520.27 14.5808 516.37 14.5808V14.5808C512.471 14.5808 509.309 17.742 509.309 21.6416V56.9461H523.431ZM509.309 113.605V71.0679H551.675V113.605H509.309Z" fill="black"/>
<path d="M692.055 14.5808V120.406C692.055 124.305 688.894 127.466 684.994 127.466C681.094 127.466 677.933 124.305 677.933 120.406V14.5808H656.75C652.851 14.5808 649.689 11.4195 649.689 7.51987C649.689 3.62025 652.851 0.458984 656.75 0.458984H713.237C717.137 0.458984 720.298 3.62025 720.298 7.51987C720.298 11.4195 717.137 14.5808 713.237 14.5808H692.055Z" fill="black"/>
<path fill-rule="evenodd" clip-rule="evenodd" d="M735.26 7.62534L735.258 113.272C735.258 121.071 741.58 127.394 749.38 127.394H777.623C785.422 127.394 791.745 121.071 791.745 113.272V70.9064C791.745 63.1072 785.422 56.7846 777.623 56.7846H749.38L749.382 7.62534C749.382 3.72572 746.22 0.564453 742.321 0.564453C738.421 0.564453 735.26 3.72572 735.26 7.62534ZM749.38 113.272V70.9064H777.623V113.272H749.38Z" fill="black"/>
</svg>
