<svg width="249" height="134" viewBox="0 0 249 134" fill="none" xmlns="http://www.w3.org/2000/svg">
<path d="M0.361328 113.318V20.3184C0.361328 9.27266 9.31563 0.318359 20.3613 0.318359H228.361C239.407 0.318359 248.361 9.27267 248.361 20.3184V113.318C248.361 124.364 239.407 133.318 228.361 133.318H20.3613C9.31563 133.318 0.361328 124.364 0.361328 113.318Z" fill="#71B4A9"/>
<path d="M4.36133 100.229V20.2285C4.36133 9.18282 13.3156 0.228516 24.3613 0.228516H224.361C235.407 0.228516 244.361 9.18282 244.361 20.2285V100.229C244.361 111.274 235.407 120.229 224.361 120.229H24.3613C13.3156 120.229 4.36133 111.274 4.36133 100.229Z" fill="#A4DDD4"/>
<path d="M4.36133 100.229V20.2285C4.36133 9.18282 13.3156 0.228516 24.3613 0.228516H224.361C235.407 0.228516 244.361 9.18282 244.361 20.2285V100.229C244.361 111.274 235.407 120.229 224.361 120.229H24.3613C13.3156 120.229 4.36133 111.274 4.36133 100.229Z" fill="url(#paint0_linear)"/>
<defs>
<linearGradient id="paint0_linear" x1="124.361" y1="0.228516" x2="124.361" y2="120.229" gradientUnits="userSpaceOnUse">
<stop stop-color="white" stop-opacity="0.2"/>
<stop offset="1" stop-color="white" stop-opacity="0"/>
</linearGradient>
</defs>
</svg>
