<svg width="769" height="454" viewBox="0 0 769 454" fill="none" xmlns="http://www.w3.org/2000/svg">
<path d="M90.5 423.995H0.5V453.995H90.5C107.069 453.995 120.5 440.563 120.5 423.995L120.5 360.168C120.5 343.599 107.068 330.168 90.5 330.168H75.4999C67.2157 330.168 60.4999 323.452 60.4999 315.168C60.4999 306.884 67.2157 300.168 75.4999 300.168H90.4999C107.068 300.168 120.5 286.737 120.5 270.168V120.168H420.5V210.168C420.5 226.737 433.931 240.168 450.5 240.168H598.175C614.744 240.168 628.175 226.737 628.175 210.168V30.168H768.5V0.167969H628.175C611.607 0.167969 598.175 13.5994 598.175 30.168V210.168H450.5V120.168C450.5 103.599 437.068 90.168 420.5 90.168H120.5C103.931 90.168 90.4999 103.599 90.4999 120.168V270.168H75.4999C50.6471 270.168 30.4999 290.315 30.4999 315.168C30.4999 340.021 50.6471 360.168 75.4999 360.168H90.4999L90.5 423.995Z" fill="#F28EC0"/>
</svg>
