<svg width="28800" height="601" viewBox="0 0 28800 601" fill="none" xmlns="http://www.w3.org/2000/svg">
<g clip-path="url(#clip0)">
<path d="M279.719 520.332H-0.28125V560.332H279.719C301.81 560.332 319.719 542.423 319.719 520.332V440.332C319.719 418.241 301.81 400.332 279.719 400.332H221.139C210.093 400.332 201.139 391.378 201.139 380.332C201.139 369.286 210.093 360.332 221.139 360.332H319.719C341.81 360.332 359.719 342.423 359.719 320.332V160.332H799.719V240.332C799.719 262.423 817.627 280.332 839.719 280.332H1060.48C1082.57 280.332 1100.48 262.423 1100.48 240.332V80.332H1439.72V40.332H1100.48C1078.39 40.332 1060.48 58.2406 1060.48 80.332V240.332H839.719V160.332C839.719 138.241 821.81 120.332 799.719 120.332H359.719C337.627 120.332 319.719 138.241 319.719 160.332V320.332H221.139C188.002 320.332 161.139 347.195 161.139 380.332C161.139 413.469 188.002 440.332 221.139 440.332H279.719V520.332Z" fill="#F28EC0"/>
<path d="M1719.72 520.332H1439.72V560.332H1719.72C1741.81 560.332 1759.72 542.423 1759.72 520.332V440.332C1759.72 418.241 1741.81 400.332 1719.72 400.332H1655.33C1644.28 400.332 1635.33 391.378 1635.33 380.332C1635.33 369.286 1644.28 360.332 1655.33 360.332H1759.72C1781.81 360.332 1799.72 342.423 1799.72 320.332V160.332H2239.72V240.332C2239.72 262.423 2257.63 280.332 2279.72 280.332H2504.92C2527.01 280.332 2544.92 262.423 2544.92 240.332V80.332H2879.72V40.332H2544.92C2522.83 40.332 2504.92 58.2406 2504.92 80.332V240.332H2279.72V160.332C2279.72 138.241 2261.81 120.332 2239.72 120.332H1799.72C1777.63 120.332 1759.72 138.241 1759.72 160.332V320.332H1655.33C1622.19 320.332 1595.33 347.195 1595.33 380.332C1595.33 413.469 1622.19 440.332 1655.33 440.332H1719.72V520.332Z" fill="#F28EC0"/>
<path d="M3160 520.332H2880V560.332H3160C3182.09 560.332 3200 542.423 3200 520.332V440.332C3200 418.241 3182.09 400.332 3160 400.332H3090.57C3079.52 400.332 3070.57 391.378 3070.57 380.332C3070.57 369.286 3079.52 360.332 3090.57 360.332H3200C3222.09 360.332 3240 342.423 3240 320.332V160.332H3680V240.332C3680 262.423 3697.91 280.332 3720 280.332H3950.31C3972.41 280.332 3990.31 262.423 3990.31 240.332V80.332H4320V40.332H3990.31C3968.22 40.332 3950.31 58.2406 3950.31 80.332V240.332H3720V160.332C3720 138.241 3702.09 120.332 3680 120.332H3240C3217.91 120.332 3200 138.241 3200 160.332V320.332H3090.57C3057.43 320.332 3030.57 347.195 3030.57 380.332C3030.57 413.469 3057.43 440.332 3090.57 440.332H3160V520.332Z" fill="#F28EC0"/>
<path d="M4600 520.332H4320V560.332H4600C4622.09 560.332 4640 542.423 4640 520.332V440.332C4640 418.241 4622.09 400.332 4600 400.332H4525.72C4514.67 400.332 4505.72 391.378 4505.72 380.332C4505.72 369.286 4514.67 360.332 4525.72 360.332H4640C4662.09 360.332 4680 342.423 4680 320.332V160.332H5120V240.332C5120 262.423 5137.91 280.332 5160 280.332H5395C5417.09 280.332 5435 262.423 5435 240.332V80.332H5760V40.332H5435C5412.91 40.332 5395 58.2406 5395 80.332V240.332H5160V160.332C5160 138.241 5142.09 120.332 5120 120.332H4680C4657.91 120.332 4640 138.241 4640 160.332V320.332H4525.72C4492.58 320.332 4465.72 347.195 4465.72 380.332C4465.72 413.469 4492.58 440.332 4525.72 440.332H4600V520.332Z" fill="#F28EC0"/>
<path d="M6040 520.332H5760V560.332H6040C6062.09 560.332 6080 542.423 6080 520.332V440.332C6080 418.241 6062.09 400.332 6040 400.332H5960.36C5949.31 400.332 5940.36 391.378 5940.36 380.332C5940.36 369.286 5949.31 360.332 5960.36 360.332H6080C6102.09 360.332 6120 342.423 6120 320.332V160.332H6560V240.332C6560 262.423 6577.91 280.332 6600 280.332H6840.58C6862.67 280.332 6880.58 262.423 6880.58 240.332V80.332H7200V40.332H6880.58C6858.48 40.332 6840.58 58.2406 6840.58 80.332V240.332H6600V160.332C6600 138.241 6582.09 120.332 6560 120.332H6120C6097.91 120.332 6080 138.241 6080 160.332V320.332H5960.36C5927.22 320.332 5900.36 347.195 5900.36 380.332C5900.36 413.469 5927.22 440.332 5960.36 440.332H6040V520.332Z" fill="#F28EC0"/>
<path d="M7480 520.333H7200V560.333H7480C7502.09 560.333 7520 542.424 7520 520.333V440.333C7520 418.241 7502.09 400.333 7480 400.333H7395.47C7384.42 400.333 7375.47 391.378 7375.47 380.333C7375.47 369.287 7384.42 360.333 7395.47 360.333H7520C7542.09 360.333 7560 342.424 7560 320.333V160.333H8000V240.333C8000 262.424 8017.91 280.333 8040 280.333L8284.71 280.332C8306.8 280.332 8324.71 262.423 8324.71 240.332V80.332L8640 80.3328V40.3328L8324.71 40.3321C8302.61 40.3321 8284.71 58.2407 8284.71 80.3321V240.332L8040 240.333V160.333C8040 138.241 8022.09 120.333 8000 120.333H7560C7537.91 120.333 7520 138.241 7520 160.333V320.333H7395.47C7362.33 320.333 7335.47 347.196 7335.47 380.333C7335.47 413.47 7362.33 440.333 7395.47 440.333H7480V520.333Z" fill="#F28EC0"/>
<path d="M8920 520.332H8640V560.332H8920C8942.09 560.332 8960 542.423 8960 520.332V440.332C8960 418.241 8942.09 400.332 8920 400.332H8830.08C8819.04 400.332 8810.08 391.378 8810.08 380.332C8810.08 369.286 8819.04 360.332 8830.08 360.332H8960C8982.09 360.332 9000 342.423 9000 320.332V160.332H9440V240.332C9440 262.423 9457.91 280.332 9480 280.332H9729.86C9751.95 280.332 9769.86 262.423 9769.86 240.332V80.332H10080V40.332H9769.86C9747.77 40.332 9729.86 58.2406 9729.86 80.332V240.332H9480V160.332C9480 138.241 9462.09 120.332 9440 120.332H9000C8977.91 120.332 8960 138.241 8960 160.332V320.332H8830.08C8796.94 320.332 8770.08 347.195 8770.08 380.332C8770.08 413.469 8796.94 440.332 8830.08 440.332H8920V520.332Z" fill="#F28EC0"/>
<path d="M10360 520.332H10080V560.332H10360C10382.1 560.332 10400 542.423 10400 520.332V440.332C10400 418.241 10382.1 400.332 10360 400.332H10265.4C10254.4 400.332 10245.4 391.378 10245.4 380.332C10245.4 369.286 10254.4 360.332 10265.4 360.332H10400C10422.1 360.332 10440 342.423 10440 320.332V160.332H10880V240.332C10880 262.423 10897.9 280.332 10920 280.332H11174.6C11196.7 280.332 11214.6 262.423 11214.6 240.332V80.332H11520V40.332H11214.6C11192.5 40.332 11174.6 58.2406 11174.6 80.332V240.332H10920V160.332C10920 138.241 10902.1 120.332 10880 120.332H10440C10417.9 120.332 10400 138.241 10400 160.332V320.332H10265.4C10232.3 320.332 10205.4 347.195 10205.4 380.332C10205.4 413.469 10232.3 440.332 10265.4 440.332H10360V520.332Z" fill="#F28EC0"/>
<path d="M11800 520.332H11520V560.332H11800C11822.1 560.332 11840 542.423 11840 520.332V440.332C11840 418.241 11822.1 400.332 11800 400.332H11700.6C11689.5 400.332 11680.6 391.378 11680.6 380.332C11680.6 369.286 11689.5 360.332 11700.6 360.332H11840C11862.1 360.332 11880 342.423 11880 320.332V160.332H12320V240.332C12320 262.423 12337.9 280.332 12360 280.332H12620.1C12642.2 280.332 12660.1 262.423 12660.1 240.332V80.332H12960V40.332H12660.1C12638 40.332 12620.1 58.2406 12620.1 80.332V240.332H12360V160.332C12360 138.241 12342.1 120.332 12320 120.332H11880C11857.9 120.332 11840 138.241 11840 160.332V320.332H11700.6C11667.4 320.332 11640.6 347.195 11640.6 380.332C11640.6 413.469 11667.4 440.332 11700.6 440.332H11800V520.332Z" fill="#F28EC0"/>
<path d="M13240 520.332H12960V560.332H13240C13262.1 560.332 13280 542.423 13280 520.332V440.332C13280 418.241 13262.1 400.332 13240 400.332H13134.8C13123.8 400.332 13114.8 391.378 13114.8 380.332C13114.8 369.286 13123.8 360.332 13134.8 360.332H13280C13302.1 360.332 13320 342.423 13320 320.332V160.332H13760V240.332C13760 262.423 13777.9 280.332 13800 280.332H14065.3C14087.4 280.332 14105.3 262.423 14105.3 240.332V80.332H14400V40.332H14105.3C14083.3 40.332 14065.3 58.2406 14065.3 80.332V240.332H13800V160.332C13800 138.241 13782.1 120.332 13760 120.332H13320C13297.9 120.332 13280 138.241 13280 160.332V320.332H13134.8C13101.7 320.332 13074.8 347.195 13074.8 380.332C13074.8 413.469 13101.7 440.332 13134.8 440.332H13240V520.332Z" fill="#F28EC0"/>
<path d="M14680 520.332H14400V560.332H14680C14702.1 560.332 14720 542.423 14720 520.332V440.332C14720 418.241 14702.1 400.332 14680 400.332H14570.8C14559.7 400.332 14550.8 391.378 14550.8 380.332C14550.8 369.286 14559.7 360.332 14570.8 360.332H14720C14742.1 360.332 14760 342.423 14760 320.332V160.332H15200V240.332C15200 262.423 15217.9 280.332 15240 280.332L15509.7 280.332C15531.8 280.332 15549.7 262.423 15549.7 240.332V80.332H15840V40.332H15549.7C15527.6 40.332 15509.7 58.2406 15509.7 80.332V240.332L15240 240.332V160.332C15240 138.241 15222.1 120.332 15200 120.332H14760C14737.9 120.332 14720 138.241 14720 160.332V320.332H14570.8C14537.7 320.332 14510.8 347.195 14510.8 380.332C14510.8 413.469 14537.7 440.332 14570.8 440.332H14680V520.332Z" fill="#F28EC0"/>
<path d="M16120 520.332H15840V560.332H16120C16142.1 560.332 16160 542.423 16160 520.332V440.332C16160 418.241 16142.1 400.332 16120 400.332H16005C15993.9 400.332 15985 391.378 15985 380.332C15985 369.286 15993.9 360.332 16005 360.332H16160C16182.1 360.332 16200 342.423 16200 320.332V160.332H16640V240.332C16640 262.423 16657.9 280.332 16680 280.332L16949.7 280.332C16971.8 280.332 16989.7 262.423 16989.7 240.332V80.332H17280V40.332H16989.7C16967.6 40.332 16949.7 58.2406 16949.7 80.332V240.332L16680 240.332V160.332C16680 138.241 16662.1 120.332 16640 120.332H16200C16177.9 120.332 16160 138.241 16160 160.332V320.332H16005C15971.8 320.332 15945 347.195 15945 380.332C15945 413.469 15971.8 440.332 16005 440.332H16120V520.332Z" fill="#F28EC0"/>
<path d="M17560 520.332H17280V560.332H17560C17582.1 560.332 17600 542.423 17600 520.332V440.332C17600 418.241 17582.1 400.332 17560 400.332H17440.4C17429.3 400.332 17420.4 391.378 17420.4 380.332C17420.4 369.286 17429.3 360.332 17440.4 360.332H17600C17622.1 360.332 17640 342.423 17640 320.332V160.332H18080V240.332C18080 262.423 18097.9 280.332 18120 280.332L18400.6 280.332C18422.7 280.332 18440.6 262.423 18440.6 240.332V80.332H18720V40.332H18440.6C18418.5 40.332 18400.6 58.2406 18400.6 80.332V240.332L18120 240.332V160.332C18120 138.241 18102.1 120.332 18080 120.332H17640C17617.9 120.332 17600 138.241 17600 160.332V320.332H17440.4C17407.2 320.332 17380.4 347.195 17380.4 380.332C17380.4 413.469 17407.2 440.332 17440.4 440.332H17560V520.332Z" fill="#F28EC0"/>
<path d="M19000 520.332H18720V560.332H19000C19022.1 560.332 19040 542.423 19040 520.332V440.332C19040 418.241 19022.1 400.332 19000 400.332H18875.4C18864.3 400.332 18855.4 391.378 18855.4 380.332C18855.4 369.286 18864.3 360.332 18875.4 360.332H19040C19062.1 360.332 19080 342.423 19080 320.332V160.332H19520V240.332C19520 262.423 19537.9 280.332 19560 280.332L19844.9 280.332C19866.9 280.332 19884.9 262.423 19884.9 240.332V80.332H20160V40.332H19884.9C19862.8 40.332 19844.9 58.2406 19844.9 80.332V240.332L19560 240.332V160.332C19560 138.241 19542.1 120.332 19520 120.332H19080C19057.9 120.332 19040 138.241 19040 160.332V320.332H18875.4C18842.2 320.332 18815.4 347.195 18815.4 380.332C18815.4 413.469 18842.2 440.332 18875.4 440.332H19000V520.332Z" fill="#F28EC0"/>
<path d="M20440 520.332H20160V560.332H20440C20462.1 560.332 20480 542.423 20480 520.332V440.332C20480 418.241 20462.1 400.332 20440 400.332H20309.6C20298.6 400.332 20289.6 391.378 20289.6 380.332C20289.6 369.286 20298.6 360.332 20309.6 360.332H20480C20502.1 360.332 20520 342.423 20520 320.332V160.332H20960V240.332C20960 262.423 20977.9 280.332 21000 280.332L21289.9 280.332C21312 280.332 21329.9 262.423 21329.9 240.332V80.332H21600V40.332H21329.9C21307.8 40.332 21289.9 58.2406 21289.9 80.332V240.332L21000 240.332V160.332C21000 138.241 20982.1 120.332 20960 120.332H20520C20497.9 120.332 20480 138.241 20480 160.332V320.332H20309.6C20276.5 320.332 20249.6 347.195 20249.6 380.332C20249.6 413.469 20276.5 440.332 20309.6 440.332H20440V520.332Z" fill="#F28EC0"/>
<path d="M21880 520.332H21600V560.332H21880C21902.1 560.332 21920 542.423 21920 520.332V440.332C21920 418.241 21902.1 400.332 21880 400.332H21745.1C21734.1 400.332 21725.1 391.378 21725.1 380.332C21725.1 369.286 21734.1 360.332 21745.1 360.332H21920C21942.1 360.332 21960 342.423 21960 320.332V160.332H22400V240.332C22400 262.423 22417.9 280.332 22440 280.332L22735.4 280.332C22757.5 280.332 22775.4 262.423 22775.4 240.332V80.332H23040V40.332H22775.4C22753.3 40.332 22735.4 58.2406 22735.4 80.332V240.332L22440 240.332V160.332C22440 138.241 22422.1 120.332 22400 120.332H21960C21937.9 120.332 21920 138.241 21920 160.332V320.332H21745.1C21712 320.332 21685.1 347.195 21685.1 380.332C21685.1 413.469 21712 440.332 21745.1 440.332H21880V520.332Z" fill="#F28EC0"/>
<path d="M23320 520.333H23040V560.333H23320C23342.1 560.333 23360 542.424 23360 520.333V440.333C23360 418.242 23342.1 400.333 23320 400.333H23180.5C23169.5 400.333 23160.5 391.379 23160.5 380.333C23160.5 369.287 23169.5 360.333 23180.5 360.333H23360C23382.1 360.333 23400 342.424 23400 320.333V160.333H23840V240.333C23840 262.424 23857.9 280.333 23880 280.333L24179.6 280.332C24201.7 280.332 24219.6 262.423 24219.6 240.332V80.332L24480 80.333V40.333L24219.6 40.3322C24197.5 40.3321 24179.6 58.2407 24179.6 80.3321V240.332L23880 240.333V160.333C23880 138.242 23862.1 120.333 23840 120.333H23400C23377.9 120.333 23360 138.242 23360 160.333V320.333H23180.5C23147.4 320.333 23120.5 347.196 23120.5 380.333C23120.5 413.47 23147.4 440.333 23180.5 440.333H23320V520.333Z" fill="#F28EC0"/>
<path d="M24760 520.333H24480V560.333H24760C24782.1 560.333 24800 542.424 24800 520.333V440.333C24800 418.242 24782.1 400.333 24760 400.333H24614.9C24603.9 400.333 24594.9 391.379 24594.9 380.333C24594.9 369.287 24603.9 360.333 24614.9 360.333H24800C24822.1 360.333 24840 342.424 24840 320.333V160.333H25280V240.333C25280 262.424 25297.9 280.333 25320 280.333L25625.1 280.332C25647.2 280.332 25665.1 262.423 25665.1 240.332V80.332L25920 80.333V40.333L25665.1 40.3322C25643 40.3321 25625.1 58.2407 25625.1 80.3321V240.332L25320 240.333V160.333C25320 138.242 25302.1 120.333 25280 120.333H24840C24817.9 120.333 24800 138.242 24800 160.333V320.333H24614.9C24581.8 320.333 24554.9 347.196 24554.9 380.333C24554.9 413.47 24581.8 440.333 24614.9 440.333H24760V520.333Z" fill="#F28EC0"/>
<path d="M26200 520.333H25920V560.333H26200C26222.1 560.333 26240 542.424 26240 520.333V440.333C26240 418.242 26222.1 400.333 26200 400.333H26050.4C26039.4 400.333 26030.4 391.379 26030.4 380.333C26030.4 369.287 26039.4 360.333 26050.4 360.333H26240C26262.1 360.333 26280 342.424 26280 320.333V160.333H26720V240.333C26720 262.424 26737.9 280.333 26760 280.333L27070 280.332C27092.1 280.332 27110 262.423 27110 240.332V80.332L27360 80.333V40.333L27110 40.3322C27087.9 40.3321 27070 58.2407 27070 80.3322V240.332L26760 240.333V160.333C26760 138.242 26742.1 120.333 26720 120.333H26280C26257.9 120.333 26240 138.242 26240 160.333V320.333H26050.4C26017.3 320.333 25990.4 347.196 25990.4 380.333C25990.4 413.47 26017.3 440.333 26050.4 440.333H26200V520.333Z" fill="#F28EC0"/>
<path d="M27640 520.333H27360V560.333H27640C27662.1 560.333 27680 542.424 27680 520.333V440.333C27680 418.242 27662.1 400.333 27640 400.333H27485.3C27474.2 400.333 27465.3 391.379 27465.3 380.333C27465.3 369.287 27474.2 360.333 27485.3 360.333H27680C27702.1 360.333 27720 342.424 27720 320.333V160.333H28160V240.333C28160 262.424 28177.9 280.333 28200 280.333L28515.1 280.332C28537.2 280.332 28555.1 262.423 28555.1 240.332V80.332L28800 80.333V40.333L28555.1 40.3322C28533 40.3321 28515.1 58.2407 28515.1 80.3322V240.332L28200 240.333V160.333C28200 138.242 28182.1 120.333 28160 120.333H27720C27697.9 120.333 27680 138.242 27680 160.333V320.333H27485.3C27452.2 320.333 27425.3 347.196 27425.3 380.333C27425.3 413.47 27452.2 440.333 27485.3 440.333H27640V520.333Z" fill="#F28EC0"/>
</g>
<defs>
<clipPath id="clip0">
<rect width="28800" height="600" fill="white" transform="translate(0 0.332031)"/>
</clipPath>
</defs>
</svg>
