<svg width="25600" height="600" viewBox="0 0 25600 600" fill="none" xmlns="http://www.w3.org/2000/svg">
<path d="M200.112 520H0V560H200.106C222.198 560 240.106 542.091 240.106 520V440C240.106 417.909 222.198 400 200.107 400H100.13C89.0843 400 80.13 391.046 80.13 380C80.13 368.954 89.0843 360 100.13 360H240.101C262.192 360 280.101 342.091 280.101 320V160H720.036V240C720.036 262.091 737.945 280 760.036 280H1059.73C1081.82 280 1099.73 262.091 1099.73 240V80H1280V40H1099.73C1077.64 40 1059.73 57.9086 1059.73 80V240H760.03V160C760.03 137.909 742.122 120 720.03 120H280.106C258.015 120 240.106 137.909 240.106 160V320H100.136C66.9988 320 40.1359 346.863 40.1359 380C40.1359 413.137 66.9988 440 100.136 440H200.112V520Z" fill="#F28EC0"/>
<path d="M1480.11 520H1280V560H1480.11C1502.2 560 1520.11 542.091 1520.11 520V440C1520.11 417.909 1502.2 400 1480.11 400H1385.13C1374.08 400 1365.13 391.046 1365.13 380C1365.13 368.954 1374.08 360 1385.13 360H1520.1C1542.19 360 1560.1 342.091 1560.1 320V160H2000.04V240C2000.04 262.091 2017.94 280 2040.04 280H2334.73C2356.82 280 2374.73 262.091 2374.73 240V80H2560V40H2374.73C2352.64 40 2334.73 57.9086 2334.73 80V240H2040.03V160C2040.03 137.909 2022.12 120 2000.03 120H1560.11C1538.02 120 1520.11 137.909 1520.11 160V320H1385.14C1352 320 1325.14 346.863 1325.14 380C1325.14 413.137 1352 440 1385.14 440H1480.11V520Z" fill="#F28EC0"/>
<path d="M2760.11 520H2560V560H2760.11C2782.2 560 2800.11 542.091 2800.11 520V440C2800.11 417.909 2782.2 400 2760.11 400H2670.13C2659.08 400 2650.13 391.046 2650.13 380C2650.13 368.954 2659.08 360 2670.13 360H2800.1C2822.19 360 2840.1 342.091 2840.1 320V160H3280.04V240C3280.04 262.091 3297.94 280 3320.04 280H3609.73C3631.82 280 3649.73 262.091 3649.73 240V80H3840V40H3649.73C3627.64 40 3609.73 57.9086 3609.73 80V240H3320.03V160C3320.03 137.909 3302.12 120 3280.03 120H2840.11C2818.02 120 2800.11 137.909 2800.11 160V320H2670.14C2637 320 2610.14 346.863 2610.14 380C2610.14 413.137 2637 440 2670.14 440H2760.11V520Z" fill="#F28EC0"/>
<path d="M4040.11 520H3840V560H4040.11C4062.2 560 4080.11 542.091 4080.11 520V440C4080.11 417.909 4062.2 400 4040.11 400H3955.13C3944.08 400 3935.13 391.046 3935.13 380C3935.13 368.954 3944.08 360 3955.13 360H4080.1C4102.19 360 4120.1 342.091 4120.1 320V160H4560.04V240C4560.04 262.091 4577.94 280 4600.04 280H4884.73C4906.82 280 4924.73 262.091 4924.73 240V80H5120V40H4924.73C4902.64 40 4884.73 57.9086 4884.73 80V240H4600.03V160C4600.03 137.909 4582.12 120 4560.03 120H4120.11C4098.02 120 4080.11 137.909 4080.11 160V320H3955.14C3922 320 3895.14 346.863 3895.14 380C3895.14 413.137 3922 440 3955.14 440H4040.11V520Z" fill="#F28EC0"/>
<path d="M5320.11 520H5120V560H5320.11C5342.2 560 5360.11 542.091 5360.11 520V440C5360.11 417.909 5342.2 400 5320.11 400H5240.13C5229.08 400 5220.13 391.046 5220.13 380C5220.13 368.954 5229.08 360 5240.13 360H5360.1C5382.19 360 5400.1 342.091 5400.1 320V160H5840.04V240C5840.04 262.091 5857.94 280 5880.04 280H6159.73C6181.82 280 6199.73 262.091 6199.73 240V80H6400V40H6199.73C6177.64 40 6159.73 57.9086 6159.73 80V240H5880.03V160C5880.03 137.909 5862.12 120 5840.03 120H5400.11C5378.02 120 5360.11 137.909 5360.11 160V320H5240.14C5207 320 5180.14 346.863 5180.14 380C5180.14 413.137 5207 440 5240.14 440H5320.11V520Z" fill="#F28EC0"/>
<path d="M6600.11 520H6400V560H6600.11C6622.2 560 6640.11 542.091 6640.11 520V440C6640.11 417.909 6622.2 400 6600.11 400H6525.13C6514.08 400 6505.13 391.046 6505.13 380C6505.13 368.954 6514.08 360 6525.13 360H6640.1C6662.19 360 6680.1 342.091 6680.1 320V160H7120.04V240C7120.04 262.091 7137.94 280 7160.04 280H7434.73C7456.82 280 7474.73 262.091 7474.73 240V80H7680V40H7474.73C7452.64 40 7434.73 57.9086 7434.73 80V240H7160.03V160C7160.03 137.909 7142.12 120 7120.03 120H6680.11C6658.02 120 6640.11 137.909 6640.11 160V320H6525.14C6492 320 6465.14 346.863 6465.14 380C6465.14 413.137 6492 440 6525.14 440H6600.11V520Z" fill="#F28EC0"/>
<path d="M7880.11 520H7680V560H7880.11C7902.2 560 7920.11 542.091 7920.11 520V440C7920.11 417.909 7902.2 400 7880.11 400H7810.13C7799.08 400 7790.13 391.046 7790.13 380C7790.13 368.954 7799.08 360 7810.13 360H7920.1C7942.19 360 7960.1 342.091 7960.1 320V160H8400.04V240C8400.04 262.091 8417.94 280 8440.04 280H8710.73C8732.82 280 8750.73 262.091 8750.73 240V80H8960V40H8750.73C8728.64 40 8710.73 57.9086 8710.73 80V240H8440.03V160C8440.03 137.909 8422.12 120 8400.03 120H7960.11C7938.02 120 7920.11 137.909 7920.11 160V320H7810.14C7777 320 7750.14 346.863 7750.14 380C7750.14 413.137 7777 440 7810.14 440H7880.11V520Z" fill="#F28EC0"/>
<path d="M9160.11 520H8960V560H9160.11C9182.2 560 9200.11 542.091 9200.11 520V440C9200.11 417.909 9182.2 400 9160.11 400H9095.13C9084.08 400 9075.13 391.046 9075.13 380C9075.13 368.954 9084.08 360 9095.13 360H9200.1C9222.19 360 9240.1 342.091 9240.1 320V160H9680.04V240C9680.04 262.091 9697.94 280 9720.04 280H9985.73C10007.8 280 10025.7 262.091 10025.7 240V80H10240V40H10025.7C10003.6 40 9985.73 57.9086 9985.73 80V240H9720.03V160C9720.03 137.909 9702.12 120 9680.03 120H9240.11C9218.02 120 9200.11 137.909 9200.11 160V320H9095.14C9062 320 9035.14 346.863 9035.14 380C9035.14 413.137 9062 440 9095.14 440H9160.11V520Z" fill="#F28EC0"/>
<path d="M10440.1 520H10240V560H10440.1C10462.2 560 10480.1 542.091 10480.1 520V440C10480.1 417.909 10462.2 400 10440.1 400H10380.1C10369.1 400 10360.1 391.046 10360.1 380C10360.1 368.954 10369.1 360 10380.1 360H10480.1C10502.2 360 10520.1 342.091 10520.1 320V160H10960V240C10960 262.091 10977.9 280 11000 280H11260.7C11282.8 280 11300.7 262.091 11300.7 240V80H11520V40H11300.7C11278.6 40 11260.7 57.9086 11260.7 80V240H11000V160C11000 137.909 10982.1 120 10960 120H10520.1C10498 120 10480.1 137.909 10480.1 160V320H10380.1C10347 320 10320.1 346.863 10320.1 380C10320.1 413.137 10347 440 10380.1 440H10440.1V520Z" fill="#F28EC0"/>
<path d="M11720.1 520H11520V560H11720.1C11742.2 560 11760.1 542.091 11760.1 520V440C11760.1 417.909 11742.2 400 11720.1 400H11665.1C11654.1 400 11645.1 391.046 11645.1 380C11645.1 368.954 11654.1 360 11665.1 360H11760.1C11782.2 360 11800.1 342.091 11800.1 320V160H12240V240C12240 262.091 12257.9 280 12280 280H12535.7C12557.8 280 12575.7 262.091 12575.7 240V80H12800V40H12575.7C12553.6 40 12535.7 57.9086 12535.7 80V240H12280V160C12280 137.909 12262.1 120 12240 120H11800.1C11778 120 11760.1 137.909 11760.1 160V320H11665.1C11632 320 11605.1 346.863 11605.1 380C11605.1 413.137 11632 440 11665.1 440H11720.1V520Z" fill="#F28EC0"/>
<path d="M13000.1 520H12800V560H13000.1C13022.2 560 13040.1 542.091 13040.1 520V440C13040.1 417.909 13022.2 400 13000.1 400H12950.1C12939.1 400 12930.1 391.046 12930.1 380C12930.1 368.954 12939.1 360 12950.1 360H13040.1C13062.2 360 13080.1 342.091 13080.1 320V160H13520V240C13520 262.091 13537.9 280 13560 280H13810.7C13832.8 280 13850.7 262.091 13850.7 240V80H14080V40H13850.7C13828.6 40 13810.7 57.9086 13810.7 80V240H13560V160C13560 137.909 13542.1 120 13520 120H13080.1C13058 120 13040.1 137.909 13040.1 160V320H12950.1C12917 320 12890.1 346.863 12890.1 380C12890.1 413.137 12917 440 12950.1 440H13000.1V520Z" fill="#F28EC0"/>
<path d="M14280.1 520H14080V560H14280.1C14302.2 560 14320.1 542.091 14320.1 520V440C14320.1 417.909 14302.2 400 14280.1 400H14235.1C14224.1 400 14215.1 391.046 14215.1 380C14215.1 368.954 14224.1 360 14235.1 360H14320.1C14342.2 360 14360.1 342.091 14360.1 320V160H14800V240C14800 262.091 14817.9 280 14840 280H15084.7C15106.8 280 15124.7 262.091 15124.7 240V80H15360V40H15124.7C15102.6 40 15084.7 57.9086 15084.7 80V240H14840V160C14840 137.909 14822.1 120 14800 120H14360.1C14338 120 14320.1 137.909 14320.1 160V320H14235.1C14202 320 14175.1 346.863 14175.1 380C14175.1 413.137 14202 440 14235.1 440H14280.1V520Z" fill="#F28EC0"/>
<path d="M15560.1 520H15360V560H15560.1C15582.2 560 15600.1 542.091 15600.1 520V440C15600.1 417.909 15582.2 400 15560.1 400H15520.1C15509.1 400 15500.1 391.046 15500.1 380C15500.1 368.954 15509.1 360 15520.1 360H15600.1C15622.2 360 15640.1 342.091 15640.1 320V160H16080V240C16080 262.091 16097.9 280 16120 280H16360.7C16382.8 280 16400.7 262.091 16400.7 240V80H16640V40H16400.7C16378.6 40 16360.7 57.9086 16360.7 80V240H16120V160C16120 137.909 16102.1 120 16080 120H15640.1C15618 120 15600.1 137.909 15600.1 160V320H15520.1C15487 320 15460.1 346.863 15460.1 380C15460.1 413.137 15487 440 15520.1 440H15560.1V520Z" fill="#F28EC0"/>
<path d="M16840.1 520H16640V560H16840.1C16862.2 560 16880.1 542.091 16880.1 520V440C16880.1 417.909 16862.2 400 16840.1 400H16805.1C16794.1 400 16785.1 391.046 16785.1 380C16785.1 368.954 16794.1 360 16805.1 360H16880.1C16902.2 360 16920.1 342.091 16920.1 320V160H17360V240C17360 262.091 17377.9 280 17400 280H17634.7C17656.8 280 17674.7 262.091 17674.7 240V80H17920V40H17674.7C17652.6 40 17634.7 57.9086 17634.7 80V240H17400V160C17400 137.909 17382.1 120 17360 120H16920.1C16898 120 16880.1 137.909 16880.1 160V320H16805.1C16772 320 16745.1 346.863 16745.1 380C16745.1 413.137 16772 440 16805.1 440H16840.1V520Z" fill="#F28EC0"/>
<path d="M18120.1 520H17920V560H18120.1C18142.2 560 18160.1 542.091 18160.1 520V440C18160.1 417.909 18142.2 400 18120.1 400H18090.1C18079.1 400 18070.1 391.046 18070.1 380C18070.1 368.954 18079.1 360 18090.1 360H18160.1C18182.2 360 18200.1 342.091 18200.1 320V160H18640V240C18640 262.091 18657.9 280 18680 280H18910.5C18932.5 280 18950.5 262.091 18950.5 240V80H19200V40H18950.5C18928.4 40 18910.5 57.9086 18910.5 80V240H18680V160C18680 137.909 18662.1 120 18640 120H18200.1C18178 120 18160.1 137.909 18160.1 160V320H18090.1C18057 320 18030.1 346.863 18030.1 380C18030.1 413.137 18057 440 18090.1 440H18120.1V520Z" fill="#F28EC0"/>
<path d="M19400.1 520H19200V560H19400.1C19422.2 560 19440.1 542.091 19440.1 520V440C19440.1 417.909 19422.2 400 19400.1 400H19375.1C19364.1 400 19355.1 391.046 19355.1 380C19355.1 368.954 19364.1 360 19375.1 360H19440.1C19462.2 360 19480.1 342.091 19480.1 320V160H19920V240C19920 262.091 19937.9 280 19960 280H20185.5C20207.5 280 20225.5 262.091 20225.5 240V80H20480V40H20225.5C20203.4 40 20185.5 57.9086 20185.5 80V240H19960V160C19960 137.909 19942.1 120 19920 120H19480.1C19458 120 19440.1 137.909 19440.1 160V320H19375.1C19342 320 19315.1 346.863 19315.1 380C19315.1 413.137 19342 440 19375.1 440H19400.1V520Z" fill="#F28EC0"/>
<path d="M20680.1 520H20480V560H20680.1C20702.2 560 20720.1 542.091 20720.1 520V440C20720.1 417.909 20702.2 400 20680.1 400H20660.1C20649.1 400 20640.1 391.046 20640.1 380C20640.1 368.954 20649.1 360 20660.1 360H20720.1C20742.2 360 20760.1 342.091 20760.1 320V160H21200V240C21200 262.091 21217.9 280 21240 280H21460.5C21482.5 280 21500.5 262.091 21500.5 240V80H21760V40H21500.5C21478.4 40 21460.5 57.9086 21460.5 80V240H21240V160C21240 137.909 21222.1 120 21200 120H20760.1C20738 120 20720.1 137.909 20720.1 160V320H20660.1C20627 320 20600.1 346.863 20600.1 380C20600.1 413.137 20627 440 20660.1 440H20680.1V520Z" fill="#F28EC0"/>
<path d="M21960.1 520H21760V560H21960.1C21982.2 560 22000.1 542.091 22000.1 520V440C22000.1 417.909 21982.2 400 21960.1 400H21945.1C21934.1 400 21925.1 391.046 21925.1 380C21925.1 368.954 21934.1 360 21945.1 360H22000.1C22022.2 360 22040.1 342.091 22040.1 320V160H22480V240C22480 262.091 22497.9 280 22520 280H22735.5C22757.5 280 22775.5 262.091 22775.5 240V80H23040V40H22775.5C22753.4 40 22735.5 57.9086 22735.5 80V240H22520V160C22520 137.909 22502.1 120 22480 120H22040.1C22018 120 22000.1 137.909 22000.1 160V320H21945.1C21912 320 21885.1 346.863 21885.1 380C21885.1 413.137 21912 440 21945.1 440H21960.1V520Z" fill="#F28EC0"/>
<path d="M23240.1 520H23040V560H23240.1C23262.2 560 23280.1 542.091 23280.1 520V440C23280.1 417.909 23262.2 400 23240.1 400H23230.1C23219.1 400 23210.1 391.046 23210.1 380C23210.1 368.954 23219.1 360 23230.1 360H23280.1C23302.2 360 23320.1 342.091 23320.1 320V160H23760V240C23760 262.091 23777.9 280 23800 280H24010.5C24032.5 280 24050.5 262.091 24050.5 240V80H24320V40H24050.5C24028.4 40 24010.5 57.9086 24010.5 80V240H23800V160C23800 137.909 23782.1 120 23760 120H23320.1C23298 120 23280.1 137.909 23280.1 160V320H23230.1C23197 320 23170.1 346.863 23170.1 380C23170.1 413.137 23197 440 23230.1 440H23240.1V520Z" fill="#F28EC0"/>
<path d="M24520.1 520H24320V560H24520.1C24542.2 560 24560.1 542.091 24560.1 520V440C24560.1 417.909 24542.2 400 24520.1 400H24515.1C24504.1 400 24495.1 391.046 24495.1 380C24495.1 368.954 24504.1 360 24515.1 360H24560.1C24582.2 360 24600.1 342.091 24600.1 320V160H25040V240C25040 262.091 25057.9 280 25080 280H25285.5C25307.5 280 25325.5 262.091 25325.5 240V80H25600V40H25325.5C25303.4 40 25285.5 57.9086 25285.5 80V240H25080V160C25080 137.909 25062.1 120 25040 120H24600.1C24578 120 24560.1 137.909 24560.1 160V320H24515.1C24482 320 24455.1 346.863 24455.1 380C24455.1 413.137 24482 440 24515.1 440H24520.1V520Z" fill="#F28EC0"/>
</svg>
