<svg width="20600" height="510" viewBox="0 0 20600 510" fill="none" xmlns="http://www.w3.org/2000/svg">
<path d="M184.52 449.854H0V480H184.519C201.087 480 214.519 466.569 214.519 450L214.519 391.602C214.519 375.033 201.087 361.602 184.519 361.602H150.363C142.079 361.602 135.363 354.813 135.363 346.529C135.363 338.245 142.079 331.456 150.363 331.456H184.519C201.087 331.456 214.519 318.025 214.519 301.456V150.582H600.578V241.165C600.578 257.733 614.01 271.165 630.578 271.165H781.173C797.742 271.165 811.173 257.733 811.173 241.165V60.1456L1024 60.1456V30L811.175 30C794.606 30 781.175 43.4315 781.175 60V241.019H630.577V150.437C630.577 133.868 617.145 120.437 600.577 120.437H214.52C197.951 120.437 184.52 133.868 184.52 150.437V301.31H150.364C125.512 301.31 105.364 321.676 105.364 346.529C105.364 371.382 125.512 391.747 150.364 391.747H184.52L184.52 449.854Z" fill="#F28EC0"/>
<path d="M1214.52 449.854H1030V480H1214.52C1231.09 480 1244.52 466.569 1244.52 450L1244.52 391.602C1244.52 375.033 1231.09 361.602 1214.52 361.602H1175.36C1167.08 361.602 1160.36 354.813 1160.36 346.529C1160.36 338.245 1167.08 331.456 1175.36 331.456H1214.52C1231.09 331.456 1244.52 318.025 1244.52 301.456V150.582H1630.58V241.165C1630.58 257.733 1644.01 271.165 1660.58 271.165H1811.17C1827.74 271.165 1841.17 257.733 1841.17 241.165V60.1456L2054 60.1456V30L1841.17 30C1824.61 30 1811.17 43.4315 1811.17 60V241.019H1660.58V150.437C1660.58 133.868 1647.15 120.437 1630.58 120.437H1244.52C1227.95 120.437 1214.52 133.868 1214.52 150.437V301.31H1175.36C1150.51 301.31 1130.36 321.676 1130.36 346.529C1130.36 371.382 1150.51 391.747 1175.36 391.747H1214.52L1214.52 449.854Z" fill="#F28EC0"/>
<path d="M2244.52 449.854H2060V480H2244.52C2261.09 480 2274.52 466.569 2274.52 450L2274.52 391.602C2274.52 375.033 2261.09 361.602 2244.52 361.602H2200.36C2192.08 361.602 2185.36 354.813 2185.36 346.529C2185.36 338.245 2192.08 331.456 2200.36 331.456H2244.52C2261.09 331.456 2274.52 318.025 2274.52 301.456V150.582H2660.58V241.165C2660.58 257.733 2674.01 271.165 2690.58 271.165H2841.17C2857.74 271.165 2871.17 257.733 2871.17 241.165V60.1456L3084 60.1456V30L2871.17 30C2854.61 30 2841.17 43.4315 2841.17 60V241.019H2690.58V150.437C2690.58 133.868 2677.15 120.437 2660.58 120.437H2274.52C2257.95 120.437 2244.52 133.868 2244.52 150.437V301.31H2200.36C2175.51 301.31 2155.36 321.676 2155.36 346.529C2155.36 371.382 2175.51 391.747 2200.36 391.747H2244.52L2244.52 449.854Z" fill="#F28EC0"/>
<path d="M3274.52 449.854H3090V480H3274.52C3291.09 480 3304.52 466.569 3304.52 450L3304.52 391.602C3304.52 375.033 3291.09 361.602 3274.52 361.602H3225.36C3217.08 361.602 3210.36 354.813 3210.36 346.529C3210.36 338.245 3217.08 331.456 3225.36 331.456H3274.52C3291.09 331.456 3304.52 318.025 3304.52 301.456V150.582H3690.58V241.165C3690.58 257.733 3704.01 271.165 3720.58 271.165H3871.17C3887.74 271.165 3901.17 257.733 3901.17 241.165V60.1456L4114 60.1456V30L3901.17 30C3884.61 30 3871.17 43.4315 3871.17 60V241.019H3720.58V150.437C3720.58 133.868 3707.15 120.437 3690.58 120.437H3304.52C3287.95 120.437 3274.52 133.868 3274.52 150.437V301.31H3225.36C3200.51 301.31 3180.36 321.676 3180.36 346.529C3180.36 371.382 3200.51 391.747 3225.36 391.747H3274.52L3274.52 449.854Z" fill="#F28EC0"/>
<path d="M4304.52 449.854H4120V480H4304.52C4321.09 480 4334.52 466.569 4334.52 450L4334.52 391.602C4334.52 375.033 4321.09 361.602 4304.52 361.602H4250.36C4242.08 361.602 4235.36 354.813 4235.36 346.529C4235.36 338.245 4242.08 331.456 4250.36 331.456H4304.52C4321.09 331.456 4334.52 318.025 4334.52 301.456V150.582H4720.58V241.165C4720.58 257.733 4734.01 271.165 4750.58 271.165H4901.17C4917.74 271.165 4931.17 257.733 4931.17 241.165V60.1456L5144 60.1456V30L4931.17 30C4914.61 30 4901.17 43.4315 4901.17 60V241.019H4750.58V150.437C4750.58 133.868 4737.15 120.437 4720.58 120.437H4334.52C4317.95 120.437 4304.52 133.868 4304.52 150.437V301.31H4250.36C4225.51 301.31 4205.36 321.676 4205.36 346.529C4205.36 371.382 4225.51 391.747 4250.36 391.747H4304.52L4304.52 449.854Z" fill="#F28EC0"/>
<path d="M5334.52 449.854H5150V480H5334.52C5351.09 480 5364.52 466.569 5364.52 450L5364.52 391.602C5364.52 375.033 5351.09 361.602 5334.52 361.602H5275.36C5267.08 361.602 5260.36 354.813 5260.36 346.529C5260.36 338.245 5267.08 331.456 5275.36 331.456H5334.52C5351.09 331.456 5364.52 318.025 5364.52 301.456V150.582H5750.58V241.165C5750.58 257.733 5764.01 271.165 5780.58 271.165H5931.17C5947.74 271.165 5961.17 257.733 5961.17 241.165V60.1456L6174 60.1456V30L5961.17 30C5944.61 30 5931.17 43.4315 5931.17 60V241.019H5780.58V150.437C5780.58 133.868 5767.15 120.437 5750.58 120.437H5364.52C5347.95 120.437 5334.52 133.868 5334.52 150.437V301.31H5275.36C5250.51 301.31 5230.36 321.676 5230.36 346.529C5230.36 371.382 5250.51 391.747 5275.36 391.747H5334.52L5334.52 449.854Z" fill="#F28EC0"/>
<path d="M6364.52 449.854H6180V480H6364.52C6381.09 480 6394.52 466.569 6394.52 450L6394.52 391.602C6394.52 375.033 6381.09 361.602 6364.52 361.602H6300.36C6292.08 361.602 6285.36 354.813 6285.36 346.529C6285.36 338.245 6292.08 331.456 6300.36 331.456H6364.52C6381.09 331.456 6394.52 318.025 6394.52 301.456V150.582H6780.58V241.165C6780.58 257.733 6794.01 271.165 6810.58 271.165H6961.17C6977.74 271.165 6991.17 257.733 6991.17 241.165V60.1456L7204 60.1456V30L6991.17 30C6974.61 30 6961.17 43.4315 6961.17 60V241.019H6810.58V150.437C6810.58 133.868 6797.15 120.437 6780.58 120.437H6394.52C6377.95 120.437 6364.52 133.868 6364.52 150.437V301.31H6300.36C6275.51 301.31 6255.36 321.676 6255.36 346.529C6255.36 371.382 6275.51 391.747 6300.36 391.747H6364.52L6364.52 449.854Z" fill="#F28EC0"/>
<path d="M7394.52 449.854H7210V480H7394.52C7411.09 480 7424.52 466.569 7424.52 450L7424.52 391.602C7424.52 375.033 7411.09 361.602 7394.52 361.602H7325.36C7317.08 361.602 7310.36 354.813 7310.36 346.529C7310.36 338.245 7317.08 331.456 7325.36 331.456H7394.52C7411.09 331.456 7424.52 318.025 7424.52 301.456V150.582H7810.58V241.165C7810.58 257.733 7824.01 271.165 7840.58 271.165H7991.17C8007.74 271.165 8021.17 257.733 8021.17 241.165V60.1456L8234 60.1456V30L8021.17 30C8004.61 30 7991.17 43.4315 7991.17 60V241.019H7840.58V150.437C7840.58 133.868 7827.15 120.437 7810.58 120.437H7424.52C7407.95 120.437 7394.52 133.868 7394.52 150.437V301.31H7325.36C7300.51 301.31 7280.36 321.676 7280.36 346.529C7280.36 371.382 7300.51 391.747 7325.36 391.747H7394.52L7394.52 449.854Z" fill="#F28EC0"/>
<path d="M8424.52 449.854H8240V480H8424.52C8441.09 480 8454.52 466.569 8454.52 450L8454.52 391.602C8454.52 375.033 8441.09 361.602 8424.52 361.602H8350.36C8342.08 361.602 8335.36 354.813 8335.36 346.529C8335.36 338.245 8342.08 331.456 8350.36 331.456H8424.52C8441.09 331.456 8454.52 318.025 8454.52 301.456V150.582H8840.58V241.165C8840.58 257.733 8854.01 271.165 8870.58 271.165H9021.17C9037.74 271.165 9051.17 257.733 9051.17 241.165V60.1456L9264 60.1456V30L9051.17 30C9034.61 30 9021.17 43.4315 9021.17 60V241.019H8870.58V150.437C8870.58 133.868 8857.15 120.437 8840.58 120.437H8454.52C8437.95 120.437 8424.52 133.868 8424.52 150.437V301.31H8350.36C8325.51 301.31 8305.36 321.676 8305.36 346.529C8305.36 371.382 8325.51 391.747 8350.36 391.747H8424.52L8424.52 449.854Z" fill="#F28EC0"/>
<path d="M9454.52 449.854H9270V480H9454.52C9471.09 480 9484.52 466.569 9484.52 450L9484.52 391.602C9484.52 375.033 9471.09 361.602 9454.52 361.602H9375.36C9367.08 361.602 9360.36 354.813 9360.36 346.529C9360.36 338.245 9367.08 331.456 9375.36 331.456H9454.52C9471.09 331.456 9484.52 318.025 9484.52 301.456V150.582H9870.58V241.165C9870.58 257.733 9884.01 271.165 9900.58 271.165H10051.2C10067.7 271.165 10081.2 257.733 10081.2 241.165V60.1456L10294 60.1456V30L10081.2 30C10064.6 30 10051.2 43.4315 10051.2 60V241.019H9900.58V150.437C9900.58 133.868 9887.15 120.437 9870.58 120.437H9484.52C9467.95 120.437 9454.52 133.868 9454.52 150.437V301.31H9375.36C9350.51 301.31 9330.36 321.676 9330.36 346.529C9330.36 371.382 9350.51 391.747 9375.36 391.747H9454.52L9454.52 449.854Z" fill="#F28EC0"/>
<path d="M10484.5 449.854H10300V480H10484.5C10501.1 480 10514.5 466.569 10514.5 450L10514.5 391.602C10514.5 375.033 10501.1 361.602 10484.5 361.602H10400.4C10392.1 361.602 10385.4 354.813 10385.4 346.529C10385.4 338.245 10392.1 331.456 10400.4 331.456H10484.5C10501.1 331.456 10514.5 318.025 10514.5 301.456V150.582H10900.6V241.165C10900.6 257.733 10914 271.165 10930.6 271.165H11081.2C11097.7 271.165 11111.2 257.733 11111.2 241.165V60.1456L11324 60.1456V30L11111.2 30C11094.6 30 11081.2 43.4315 11081.2 60V241.019H10930.6V150.437C10930.6 133.868 10917.1 120.437 10900.6 120.437H10514.5C10498 120.437 10484.5 133.868 10484.5 150.437V301.31H10400.4C10375.5 301.31 10355.4 321.676 10355.4 346.529C10355.4 371.382 10375.5 391.747 10400.4 391.747H10484.5L10484.5 449.854Z" fill="#F28EC0"/>
<path d="M11514.5 449.854H11330V480H11514.5C11531.1 480 11544.5 466.569 11544.5 450L11544.5 391.602C11544.5 375.033 11531.1 361.602 11514.5 361.602H11425.4C11417.1 361.602 11410.4 354.813 11410.4 346.529C11410.4 338.245 11417.1 331.456 11425.4 331.456H11514.5C11531.1 331.456 11544.5 318.025 11544.5 301.456V150.582H11930.6V241.165C11930.6 257.733 11944 271.165 11960.6 271.165H12111.2C12127.7 271.165 12141.2 257.733 12141.2 241.165V60.1456L12354 60.1456V30L12141.2 30C12124.6 30 12111.2 43.4315 12111.2 60V241.019H11960.6V150.437C11960.6 133.868 11947.1 120.437 11930.6 120.437H11544.5C11528 120.437 11514.5 133.868 11514.5 150.437V301.31H11425.4C11400.5 301.31 11380.4 321.676 11380.4 346.529C11380.4 371.382 11400.5 391.747 11425.4 391.747H11514.5L11514.5 449.854Z" fill="#F28EC0"/>
<path d="M12544.5 449.854H12360V480H12544.5C12561.1 480 12574.5 466.569 12574.5 450L12574.5 391.602C12574.5 375.033 12561.1 361.602 12544.5 361.602H12450.4C12442.1 361.602 12435.4 354.813 12435.4 346.529C12435.4 338.245 12442.1 331.456 12450.4 331.456H12544.5C12561.1 331.456 12574.5 318.025 12574.5 301.456V150.582H12960.6V241.165C12960.6 257.733 12974 271.165 12990.6 271.165H13141.2C13157.7 271.165 13171.2 257.733 13171.2 241.165V60.1456L13384 60.1456V30L13171.2 30C13154.6 30 13141.2 43.4315 13141.2 60V241.019H12990.6V150.437C12990.6 133.868 12977.1 120.437 12960.6 120.437H12574.5C12558 120.437 12544.5 133.868 12544.5 150.437V301.31H12450.4C12425.5 301.31 12405.4 321.676 12405.4 346.529C12405.4 371.382 12425.5 391.747 12450.4 391.747H12544.5L12544.5 449.854Z" fill="#F28EC0"/>
<path d="M13574.5 449.854H13390V480H13574.5C13591.1 480 13604.5 466.569 13604.5 450L13604.5 391.602C13604.5 375.033 13591.1 361.602 13574.5 361.602H13475.4C13467.1 361.602 13460.4 354.813 13460.4 346.529C13460.4 338.245 13467.1 331.456 13475.4 331.456H13574.5C13591.1 331.456 13604.5 318.025 13604.5 301.456V150.582H13990.6V241.165C13990.6 257.733 14004 271.165 14020.6 271.165H14171.2C14187.7 271.165 14201.2 257.733 14201.2 241.165V60.1456L14414 60.1456V30L14201.2 30C14184.6 30 14171.2 43.4315 14171.2 60V241.019H14020.6V150.437C14020.6 133.868 14007.1 120.437 13990.6 120.437H13604.5C13588 120.437 13574.5 133.868 13574.5 150.437V301.31H13475.4C13450.5 301.31 13430.4 321.676 13430.4 346.529C13430.4 371.382 13450.5 391.747 13475.4 391.747H13574.5L13574.5 449.854Z" fill="#F28EC0"/>
<path d="M14604.5 449.854H14420V480H14604.5C14621.1 480 14634.5 466.569 14634.5 450L14634.5 391.602C14634.5 375.033 14621.1 361.602 14604.5 361.602H14500.4C14492.1 361.602 14485.4 354.813 14485.4 346.529C14485.4 338.245 14492.1 331.456 14500.4 331.456H14604.5C14621.1 331.456 14634.5 318.025 14634.5 301.456V150.582H15020.6V241.165C15020.6 257.733 15034 271.165 15050.6 271.165H15201.2C15217.7 271.165 15231.2 257.733 15231.2 241.165V60.1456L15444 60.1456V30L15231.2 30C15214.6 30 15201.2 43.4315 15201.2 60V241.019H15050.6V150.437C15050.6 133.868 15037.1 120.437 15020.6 120.437H14634.5C14618 120.437 14604.5 133.868 14604.5 150.437V301.31H14500.4C14475.5 301.31 14455.4 321.676 14455.4 346.529C14455.4 371.382 14475.5 391.747 14500.4 391.747H14604.5L14604.5 449.854Z" fill="#F28EC0"/>
<path d="M15634.5 449.854H15450V480H15634.5C15651.1 480 15664.5 466.569 15664.5 450L15664.5 391.602C15664.5 375.033 15651.1 361.602 15634.5 361.602H15526.4C15518.1 361.602 15511.4 354.813 15511.4 346.529C15511.4 338.245 15518.1 331.456 15526.4 331.456H15634.5C15651.1 331.456 15664.5 318.025 15664.5 301.456V150.582H16050.6V241.165C16050.6 257.733 16064 271.165 16080.6 271.165H16231.2C16247.7 271.165 16261.2 257.733 16261.2 241.165V60.1456L16474 60.1456V30L16261.2 30C16244.6 30 16231.2 43.4315 16231.2 60V241.019H16080.6V150.437C16080.6 133.868 16067.1 120.437 16050.6 120.437H15664.5C15648 120.437 15634.5 133.868 15634.5 150.437V301.31H15526.4C15501.5 301.31 15481.4 321.676 15481.4 346.529C15481.4 371.382 15501.5 391.747 15526.4 391.747H15634.5L15634.5 449.854Z" fill="#F28EC0"/>
<path d="M16664.5 449.854H16480V480H16664.5C16681.1 480 16694.5 466.569 16694.5 450L16694.5 391.602C16694.5 375.033 16681.1 361.602 16664.5 361.602H16550.4C16542.1 361.602 16535.4 354.813 16535.4 346.529C16535.4 338.245 16542.1 331.456 16550.4 331.456H16664.5C16681.1 331.456 16694.5 318.025 16694.5 301.456V150.582H17080.6V241.165C17080.6 257.733 17094 271.165 17110.6 271.165H17261.2C17277.7 271.165 17291.2 257.733 17291.2 241.165V60.1456L17504 60.1456V30L17291.2 30C17274.6 30 17261.2 43.4315 17261.2 60V241.019H17110.6V150.437C17110.6 133.868 17097.1 120.437 17080.6 120.437H16694.5C16678 120.437 16664.5 133.868 16664.5 150.437V301.31H16550.4C16525.5 301.31 16505.4 321.676 16505.4 346.529C16505.4 371.382 16525.5 391.747 16550.4 391.747H16664.5L16664.5 449.854Z" fill="#F28EC0"/>
<path d="M17694.5 449.854H17510V480H17694.5C17711.1 480 17724.5 466.569 17724.5 450L17724.5 391.602C17724.5 375.033 17711.1 361.602 17694.5 361.602H17575.4C17567.1 361.602 17560.4 354.813 17560.4 346.529C17560.4 338.245 17567.1 331.456 17575.4 331.456H17694.5C17711.1 331.456 17724.5 318.025 17724.5 301.456V150.582H18110.6V241.165C18110.6 257.733 18124 271.165 18140.6 271.165H18291.2C18307.7 271.165 18321.2 257.733 18321.2 241.165V60.1456L18534 60.1456V30L18321.2 30C18304.6 30 18291.2 43.4315 18291.2 60V241.019H18140.6V150.437C18140.6 133.868 18127.1 120.437 18110.6 120.437H17724.5C17708 120.437 17694.5 133.868 17694.5 150.437V301.31H17575.4C17550.5 301.31 17530.4 321.676 17530.4 346.529C17530.4 371.382 17550.5 391.747 17575.4 391.747H17694.5L17694.5 449.854Z" fill="#F28EC0"/>
<path d="M18724.5 449.854H18540V480H18724.5C18741.1 480 18754.5 466.569 18754.5 450L18754.5 391.602C18754.5 375.033 18741.1 361.602 18724.5 361.602H18601.4C18593.1 361.602 18586.4 354.813 18586.4 346.529C18586.4 338.245 18593.1 331.456 18601.4 331.456H18724.5C18741.1 331.456 18754.5 318.025 18754.5 301.456V150.582H19140.6V241.165C19140.6 257.733 19154 271.165 19170.6 271.165H19321.2C19337.7 271.165 19351.2 257.733 19351.2 241.165V60.1456L19564 60.1456V30L19351.2 30C19334.6 30 19321.2 43.4315 19321.2 60V241.019H19170.6V150.437C19170.6 133.868 19157.1 120.437 19140.6 120.437H18754.5C18738 120.437 18724.5 133.868 18724.5 150.437V301.31H18601.4C18576.5 301.31 18556.4 321.676 18556.4 346.529C18556.4 371.382 18576.5 391.747 18601.4 391.747H18724.5L18724.5 449.854Z" fill="#F28EC0"/>
<path d="M19754.5 449.854H19570V480H19754.5C19771.1 480 19784.5 466.569 19784.5 450L19784.5 391.602C19784.5 375.033 19771.1 361.602 19754.5 361.602H19626.4C19618.1 361.602 19611.4 354.813 19611.4 346.529C19611.4 338.245 19618.1 331.456 19626.4 331.456H19754.5C19771.1 331.456 19784.5 318.025 19784.5 301.456V150.582H20170.6V241.165C20170.6 257.733 20184 271.165 20200.6 271.165H20351.2C20367.7 271.165 20381.2 257.733 20381.2 241.165V60.1456L20594 60.1456V30L20381.2 30C20364.6 30 20351.2 43.4315 20351.2 60V241.019H20200.6V150.437C20200.6 133.868 20187.1 120.437 20170.6 120.437H19784.5C19768 120.437 19754.5 133.868 19754.5 150.437V301.31H19626.4C19601.5 301.31 19581.4 321.676 19581.4 346.529C19581.4 371.382 19601.5 391.747 19626.4 391.747H19754.5L19754.5 449.854Z" fill="#F28EC0"/>
</svg>
