<svg width="32768" height="587" viewBox="0 0 32768 587" fill="none" xmlns="http://www.w3.org/2000/svg">
<path d="M312.608 507.604H0V546.613H312.599C334.143 546.613 351.609 529.148 351.609 507.604V429.585C351.609 408.04 334.144 390.575 312.599 390.575H253.811C243.039 390.575 234.306 381.843 234.306 371.071C234.306 360.298 243.039 351.566 253.811 351.566H351.6C373.144 351.566 390.609 334.101 390.609 312.556V156.518L897.632 156.518V234.537C897.632 256.082 915.097 273.547 936.641 273.547H1287.78C1309.33 273.547 1326.79 256.082 1326.79 234.537V78.499L1638.4 78.4991V39.4896L1326.8 39.4895C1305.26 39.4895 1287.79 56.9547 1287.79 78.499V234.537H936.632V156.518C936.632 134.974 919.167 117.509 897.623 117.509L390.618 117.509C369.074 117.509 351.609 134.974 351.609 156.518V312.556H253.82C221.503 312.556 195.306 338.754 195.306 371.071C195.306 403.387 221.503 429.585 253.82 429.585H312.608V507.604Z" fill="#F28EC0"/>
<path d="M1951.01 507.604H1638.4V546.613H1951C1972.54 546.613 1990.01 529.148 1990.01 507.604V429.585C1990.01 408.04 1972.54 390.575 1951 390.575H1887.62C1876.85 390.575 1868.12 381.843 1868.12 371.071C1868.12 360.298 1876.85 351.566 1887.62 351.566H1990C2011.54 351.566 2029.01 334.101 2029.01 312.556V156.518L2540.6 156.518V234.537C2540.6 256.082 2558.06 273.547 2579.61 273.547H2926.18C2947.73 273.547 2965.19 256.082 2965.19 234.537V78.499L3276.8 78.4991V39.4896L2965.2 39.4895C2943.66 39.4895 2926.19 56.9547 2926.19 78.499V234.537H2579.6V156.518C2579.6 134.974 2562.13 117.509 2540.59 117.509L2029.02 117.509C2007.47 117.509 1990.01 134.974 1990.01 156.518V312.556H1887.63C1855.32 312.556 1829.12 338.754 1829.12 371.071C1829.12 403.387 1855.32 429.585 1887.63 429.585H1951.01V507.604Z" fill="#F28EC0"/>
<path d="M3589.41 507.604H3276.8V546.613H3589.4C3610.94 546.613 3628.41 529.148 3628.41 507.604V429.585C3628.41 408.04 3610.94 390.575 3589.4 390.575H3520.97C3510.2 390.575 3501.47 381.843 3501.47 371.071C3501.47 360.298 3510.2 351.566 3520.97 351.566H3628.4C3649.94 351.566 3667.41 334.101 3667.41 312.556V156.518L4183.78 156.518V234.537C4183.78 256.082 4201.24 273.547 4222.79 273.547H4564.58C4586.13 273.547 4603.59 256.082 4603.59 234.537V78.499L4915.2 78.4991V39.4896L4603.6 39.4895C4582.06 39.4895 4564.59 56.9547 4564.59 78.499V234.537H4222.78V156.518C4222.78 134.974 4205.31 117.509 4183.77 117.509L3667.42 117.509C3645.87 117.509 3628.41 134.974 3628.41 156.518V312.556H3520.98C3488.66 312.556 3462.47 338.754 3462.47 371.071C3462.47 403.387 3488.66 429.585 3520.98 429.585H3589.41V507.604Z" fill="#F28EC0"/>
<path d="M5227.81 507.604H4915.2V546.613H5227.8C5249.34 546.613 5266.81 529.148 5266.81 507.604V429.585C5266.81 408.04 5249.34 390.575 5227.8 390.575H5154.21C5143.44 390.575 5134.71 381.843 5134.71 371.071C5134.71 360.298 5143.44 351.566 5154.21 351.566H5266.8C5288.34 351.566 5305.81 334.101 5305.81 312.556V156.518L5826.67 156.518V234.537C5826.67 256.082 5844.13 273.547 5865.68 273.547H6202.98C6224.53 273.547 6241.99 256.082 6241.99 234.537V78.499L6553.6 78.4991V39.4896L6242 39.4895C6220.46 39.4895 6202.99 56.9547 6202.99 78.499V234.537H5865.67V156.518C5865.67 134.974 5848.2 117.509 5826.66 117.509L5305.82 117.509C5284.27 117.509 5266.81 134.974 5266.81 156.518V312.556H5154.22C5121.91 312.556 5095.71 338.754 5095.71 371.071C5095.71 403.387 5121.91 429.585 5154.22 429.585H5227.81V507.604Z" fill="#F28EC0"/>
<path d="M6866.21 507.604H6553.6V546.613H6866.2C6887.74 546.613 6905.21 529.148 6905.21 507.604V429.585C6905.21 408.04 6887.74 390.575 6866.2 390.575H6787.71C6776.93 390.575 6768.2 381.843 6768.2 371.071C6768.2 360.298 6776.93 351.566 6787.71 351.566H6905.2C6926.74 351.566 6944.21 334.101 6944.21 312.556V156.518L7470.53 156.518V234.537C7470.53 256.082 7487.99 273.547 7509.54 273.547H7841.38C7862.93 273.547 7880.39 256.082 7880.39 234.537V78.499L8192 78.4991V39.4896L7880.4 39.4895C7858.86 39.4895 7841.39 56.9547 7841.39 78.499V234.537H7509.53V156.518C7509.53 134.974 7492.06 117.509 7470.52 117.509L6944.22 117.509C6922.67 117.509 6905.21 134.974 6905.21 156.518V312.556H6787.71C6755.4 312.556 6729.2 338.754 6729.2 371.071C6729.2 403.387 6755.4 429.585 6787.71 429.585H6866.21V507.604Z" fill="#F28EC0"/>
<path d="M8504.61 507.604H8192V546.613H8504.6C8526.14 546.613 8543.61 529.148 8543.61 507.604V429.585C8543.61 408.04 8526.14 390.575 8504.6 390.575L8421.03 390.575C8410.26 390.575 8401.53 381.843 8401.53 371.07C8401.53 360.298 8410.26 351.566 8421.03 351.566L8543.6 351.566C8565.14 351.566 8582.61 334.101 8582.61 312.556V156.518L9113.38 156.518V234.537C9113.38 256.082 9130.85 273.547 9152.39 273.547H9479.78C9501.33 273.547 9518.79 256.082 9518.79 234.537V78.499L9830.4 78.4991V39.4896L9518.8 39.4895C9497.26 39.4895 9479.79 56.9547 9479.79 78.499V234.537H9152.38V156.518C9152.38 134.974 9134.92 117.509 9113.37 117.509L8582.62 117.509C8561.07 117.509 8543.61 134.974 8543.61 156.518V312.556L8421.04 312.556C8388.72 312.556 8362.53 338.754 8362.53 371.071C8362.53 403.387 8388.72 429.585 8421.04 429.585L8504.61 429.585V507.604Z" fill="#F28EC0"/>
<path d="M10143 507.604H9830.4V546.613H10143C10164.5 546.613 10182 529.148 10182 507.604V429.585C10182 408.04 10164.5 390.575 10143 390.575L10055.1 390.575C10044.3 390.575 10035.6 381.843 10035.6 371.07C10035.6 360.298 10044.3 351.566 10055.1 351.566L10182 351.566C10203.5 351.566 10221 334.101 10221 312.556V156.518L10756.9 156.518V234.537C10756.9 256.082 10774.3 273.547 10795.9 273.547H11118.2C11139.7 273.547 11157.2 256.082 11157.2 234.537V78.499L11468.8 78.4991V39.4896L11157.2 39.4895C11135.7 39.4895 11118.2 56.9547 11118.2 78.499V234.537H10795.9V156.518C10795.9 134.974 10778.4 117.509 10756.9 117.509L10221 117.509C10199.5 117.509 10182 134.974 10182 156.518V312.556L10055.1 312.556C10022.8 312.556 9996.57 338.754 9996.57 371.071C9996.57 403.387 10022.8 429.585 10055.1 429.585L10143 429.585V507.604Z" fill="#F28EC0"/>
<path d="M11781.4 507.604H11468.8V546.613H11781.4C11802.9 546.613 11820.4 529.148 11820.4 507.604V429.585C11820.4 408.04 11802.9 390.575 11781.4 390.575L11688.3 390.575C11677.5 390.575 11668.8 381.843 11668.8 371.07C11668.8 360.298 11677.5 351.566 11688.3 351.566L11820.4 351.566C11841.9 351.566 11859.4 334.101 11859.4 312.556V156.518L12400.4 156.518V234.537C12400.4 256.082 12417.9 273.547 12439.4 273.547H12756.6C12778.1 273.547 12795.6 256.082 12795.6 234.537V78.499L13107.2 78.4991V39.4896L12795.6 39.4895C12774.1 39.4895 12756.6 56.9547 12756.6 78.499V234.537H12439.4V156.518C12439.4 134.974 12422 117.509 12400.4 117.509L11859.4 117.509C11837.9 117.509 11820.4 134.974 11820.4 156.518V312.556L11688.3 312.556C11656 312.556 11629.8 338.754 11629.8 371.071C11629.8 403.387 11656 429.585 11688.3 429.585L11781.4 429.585V507.604Z" fill="#F28EC0"/>
<path d="M13419.8 507.604H13107.2V546.613H13419.8C13441.3 546.613 13458.8 529.148 13458.8 507.604V429.585C13458.8 408.04 13441.3 390.575 13419.8 390.575L13322.2 390.575C13311.4 390.575 13302.6 381.843 13302.6 371.07C13302.6 360.298 13311.4 351.566 13322.2 351.566L13458.8 351.566C13480.3 351.566 13497.8 334.101 13497.8 312.556V156.518L14042.9 156.518V234.537C14042.9 256.082 14060.4 273.547 14081.9 273.547H14395C14416.5 273.547 14434 256.082 14434 234.537V78.499L14745.6 78.4991V39.4896L14434 39.4895C14412.5 39.4895 14395 56.9547 14395 78.499V234.537H14081.9V156.518C14081.9 134.974 14064.5 117.509 14042.9 117.509L13497.8 117.509C13476.3 117.509 13458.8 134.974 13458.8 156.518V312.556L13322.2 312.556C13289.8 312.556 13263.6 338.754 13263.6 371.071C13263.6 403.387 13289.8 429.585 13322.2 429.585L13419.8 429.585V507.604Z" fill="#F28EC0"/>
<path d="M15058.2 507.604H14745.6V546.613H15058.2C15079.7 546.613 15097.2 529.148 15097.2 507.604V429.585C15097.2 408.04 15079.7 390.575 15058.2 390.575L14955.5 390.575C14944.7 390.575 14936 381.843 14936 371.07C14936 360.298 14944.7 351.566 14955.5 351.566L15097.2 351.566C15118.7 351.566 15136.2 334.101 15136.2 312.556V156.518L15686.9 156.518V234.537C15686.9 256.082 15704.4 273.547 15725.9 273.547H16033.4C16054.9 273.547 16072.4 256.082 16072.4 234.537V78.499L16384 78.4991V39.4896L16072.4 39.4895C16050.9 39.4895 16033.4 56.9547 16033.4 78.499V234.537H15725.9V156.518C15725.9 134.974 15708.5 117.509 15686.9 117.509L15136.2 117.509C15114.7 117.509 15097.2 134.974 15097.2 156.518V312.556L14955.5 312.556C14923.2 312.556 14897 338.754 14897 371.071C14897 403.387 14923.2 429.585 14955.5 429.585L15058.2 429.585V507.604Z" fill="#F28EC0"/>
<path d="M16696.6 507.604H16384V546.613H16696.6C16718.1 546.613 16735.6 529.148 16735.6 507.604V429.585C16735.6 408.04 16718.1 390.575 16696.6 390.575L16588.5 390.575C16577.7 390.575 16569 381.843 16569 371.07C16569 360.298 16577.7 351.566 16588.5 351.566L16735.6 351.566C16757.1 351.566 16774.6 334.101 16774.6 312.556V156.518L17330 156.518V234.537C17330 256.082 17347.5 273.547 17369.1 273.547H17671.8C17693.3 273.547 17710.8 256.082 17710.8 234.537V78.499L18022.4 78.4991V39.4896L17710.8 39.4895C17689.3 39.4895 17671.8 56.9547 17671.8 78.499V234.537H17369V156.518C17369 134.974 17351.6 117.509 17330 117.509L16774.6 117.509C16753.1 117.509 16735.6 134.974 16735.6 156.518V312.556L16588.5 312.556C16556.2 312.556 16530 338.754 16530 371.071C16530 403.387 16556.2 429.585 16588.5 429.585L16696.6 429.585V507.604Z" fill="#F28EC0"/>
<path d="M18335 507.604H18022.4V546.613H18335C18356.5 546.613 18374 529.148 18374 507.604V429.585C18374 408.04 18356.5 390.575 18335 390.575L18222.5 390.575C18211.7 390.575 18202.9 381.843 18202.9 371.07C18202.9 360.298 18211.7 351.566 18222.5 351.566L18374 351.566C18395.5 351.566 18413 334.101 18413 312.556V156.518L18972.8 156.518V234.537C18972.8 256.082 18990.3 273.547 19011.8 273.547H19310.2C19331.7 273.547 19349.2 256.082 19349.2 234.537V78.499L19660.8 78.4991V39.4896L19349.2 39.4895C19327.7 39.4895 19310.2 56.9547 19310.2 78.499V234.537H19011.8V156.518C19011.8 134.974 18994.4 117.509 18972.8 117.509L18413 117.509C18391.5 117.509 18374 134.974 18374 156.518V312.556L18222.5 312.556C18190.1 312.556 18163.9 338.754 18163.9 371.071C18163.9 403.387 18190.1 429.585 18222.5 429.585L18335 429.585V507.604Z" fill="#F28EC0"/>
<path d="M19973.4 507.604H19660.8V546.613H19973.4C19994.9 546.613 20012.4 529.148 20012.4 507.604V429.585C20012.4 408.04 19994.9 390.575 19973.4 390.575L19856.1 390.575C19845.3 390.575 19836.6 381.843 19836.6 371.07C19836.6 360.298 19845.3 351.566 19856.1 351.566L20012.4 351.566C20033.9 351.566 20051.4 334.101 20051.4 312.556V156.518L20616.3 156.518V234.537C20616.3 256.082 20633.8 273.547 20655.3 273.547H20948.6C20970.1 273.547 20987.6 256.082 20987.6 234.537V78.499L21299.2 78.4991V39.4896L20987.6 39.4895C20966.1 39.4895 20948.6 56.9547 20948.6 78.499V234.537H20655.3V156.518C20655.3 134.974 20637.9 117.509 20616.3 117.509L20051.4 117.509C20029.9 117.509 20012.4 134.974 20012.4 156.518V312.556L19856.1 312.556C19823.8 312.556 19797.6 338.754 19797.6 371.071C19797.6 403.387 19823.8 429.585 19856.1 429.585L19973.4 429.585V507.604Z" fill="#F28EC0"/>
<path d="M21611.8 507.604H21299.2V546.613H21611.8C21633.3 546.613 21650.8 529.148 21650.8 507.604V429.585C21650.8 408.04 21633.3 390.575 21611.8 390.575L21489.3 390.575C21478.6 390.575 21469.8 381.843 21469.8 371.07C21469.8 360.298 21478.6 351.566 21489.3 351.566L21650.8 351.566C21672.3 351.566 21689.8 334.101 21689.8 312.556V156.518L22259.8 156.518V234.537C22259.8 256.082 22277.3 273.547 22298.8 273.547H22587C22608.5 273.547 22626 256.082 22626 234.537V78.499L22937.6 78.4991V39.4896L22626 39.4895C22604.5 39.4895 22587 56.9547 22587 78.499V234.537H22298.8V156.518C22298.8 134.974 22281.3 117.509 22259.8 117.509L21689.8 117.509C21668.3 117.509 21650.8 134.974 21650.8 156.518V312.556L21489.4 312.556C21457 312.556 21430.8 338.754 21430.8 371.071C21430.8 403.387 21457 429.585 21489.4 429.585L21611.8 429.585V507.604Z" fill="#F28EC0"/>
<path d="M23250.2 507.604H22937.6V546.613H23250.2C23271.7 546.613 23289.2 529.148 23289.2 507.604V429.585C23289.2 408.04 23271.7 390.575 23250.2 390.575L23123.4 390.575C23112.7 390.575 23103.9 381.843 23103.9 371.07C23103.9 360.298 23112.7 351.566 23123.4 351.566L23289.2 351.566C23310.7 351.566 23328.2 334.101 23328.2 312.556V156.518L23903.1 156.518V234.537C23903.1 256.082 23920.5 273.547 23942.1 273.547H24225.4C24246.9 273.547 24264.4 256.082 24264.4 234.537V78.499L24576 78.4991V39.4896L24264.4 39.4895C24242.9 39.4895 24225.4 56.9547 24225.4 78.499V234.537H23942.1V156.518C23942.1 134.974 23924.6 117.509 23903.1 117.509L23328.2 117.509C23306.7 117.509 23289.2 134.974 23289.2 156.518V312.556L23123.5 312.556C23091.1 312.556 23064.9 338.754 23064.9 371.071C23064.9 403.387 23091.1 429.585 23123.5 429.585L23250.2 429.585V507.604Z" fill="#F28EC0"/>
<path d="M24888.6 507.604H24576V546.613H24888.6C24910.1 546.613 24927.6 529.148 24927.6 507.604V429.585C24927.6 408.04 24910.1 390.575 24888.6 390.575L24756.5 390.575C24745.7 390.575 24737 381.843 24737 371.07C24737 360.298 24745.7 351.566 24756.5 351.566L24927.6 351.566C24949.1 351.566 24966.6 334.101 24966.6 312.556V156.518L25545.7 156.518V234.537C25545.7 256.082 25563.1 273.547 25584.7 273.547H25863.8C25885.3 273.547 25902.8 256.082 25902.8 234.537V78.499L26214.4 78.4991V39.4896L25902.8 39.4895C25881.3 39.4895 25863.8 56.9547 25863.8 78.499V234.537H25584.7V156.518C25584.7 134.974 25567.2 117.509 25545.6 117.509L24966.6 117.509C24945.1 117.509 24927.6 134.974 24927.6 156.518V312.556L24756.5 312.556C24724.2 312.556 24698 338.754 24698 371.071C24698 403.387 24724.2 429.585 24756.5 429.585L24888.6 429.585V507.604Z" fill="#F28EC0"/>
<path d="M26527 507.604H26214.4V546.613H26527C26548.5 546.613 26566 529.148 26566 507.604V429.585C26566 408.04 26548.5 390.575 26527 390.575L26390.5 390.575C26379.7 390.575 26371 381.843 26371 371.07C26371 360.298 26379.7 351.566 26390.5 351.566L26566 351.566C26587.5 351.566 26605 334.101 26605 312.556V156.518L27189.5 156.518V234.537C27189.5 256.082 27207 273.547 27228.5 273.547H27502.2C27523.7 273.547 27541.2 256.082 27541.2 234.537V78.499L27852.8 78.4991V39.4896L27541.2 39.4895C27519.7 39.4895 27502.2 56.9547 27502.2 78.499V234.537H27228.5V156.518C27228.5 134.974 27211.1 117.509 27189.5 117.509L26605 117.509C26583.5 117.509 26566 134.974 26566 156.518V312.556L26390.5 312.556C26358.2 312.556 26332 338.754 26332 371.071C26332 403.387 26358.2 429.585 26390.5 429.585L26527 429.585V507.604Z" fill="#F28EC0"/>
<path d="M28165.4 507.604H27852.8V546.613H28165.4C28186.9 546.613 28204.4 529.148 28204.4 507.604V429.585C28204.4 408.04 28186.9 390.575 28165.4 390.575L28024.2 390.575C28013.4 390.575 28004.7 381.843 28004.7 371.07C28004.7 360.298 28013.4 351.566 28024.2 351.566L28204.4 351.566C28225.9 351.566 28243.4 334.101 28243.4 312.556V156.518L28832.6 156.518V234.537C28832.6 256.082 28850.1 273.547 28871.6 273.547H29140.6C29162.1 273.547 29179.6 256.082 29179.6 234.537V78.499L29491.2 78.4991V39.4896L29179.6 39.4895C29158.1 39.4895 29140.6 56.9547 29140.6 78.499V234.537H28871.6V156.518C28871.6 134.974 28854.1 117.509 28832.6 117.509L28243.4 117.509C28221.9 117.509 28204.4 134.974 28204.4 156.518V312.556L28024.2 312.556C27991.9 312.556 27965.7 338.754 27965.7 371.071C27965.7 403.387 27991.9 429.585 28024.2 429.585L28165.4 429.585V507.604Z" fill="#F28EC0"/>
<path d="M29803.8 507.604H29491.2V546.613H29803.8C29825.3 546.613 29842.8 529.148 29842.8 507.604V429.585C29842.8 408.04 29825.3 390.575 29803.8 390.575L29657.6 390.575C29646.8 390.575 29638.1 381.843 29638.1 371.07C29638.1 360.298 29646.8 351.566 29657.6 351.566L29842.8 351.566C29864.3 351.566 29881.8 334.101 29881.8 312.556V156.518L30476.5 156.518V234.537C30476.5 256.082 30493.9 273.547 30515.5 273.547H30779C30800.5 273.547 30818 256.082 30818 234.537V78.499L31129.6 78.4991V39.4896L30818 39.4895C30796.5 39.4895 30779 56.9547 30779 78.499V234.537H30515.5V156.518C30515.5 134.974 30498 117.509 30476.4 117.509L29881.8 117.509C29860.3 117.509 29842.8 134.974 29842.8 156.518V312.556L29657.6 312.556C29625.3 312.556 29599.1 338.754 29599.1 371.071C29599.1 403.387 29625.3 429.585 29657.6 429.585L29803.8 429.585V507.604Z" fill="#F28EC0"/>
<path d="M31442.2 507.604H31129.6V546.613H31442.2C31463.7 546.613 31481.2 529.148 31481.2 507.604V429.585C31481.2 408.04 31463.7 390.575 31442.2 390.575L31291 390.575C31280.2 390.575 31271.5 381.843 31271.5 371.07C31271.5 360.298 31280.2 351.566 31291 351.566L31481.2 351.566C31502.7 351.566 31520.2 334.101 31520.2 312.556V156.518L32119.7 156.518V234.537C32119.7 256.082 32137.2 273.547 32158.7 273.547H32417.4C32438.9 273.547 32456.4 256.082 32456.4 234.537V78.499L32768 78.4991V39.4896L32456.4 39.4895C32434.9 39.4895 32417.4 56.9547 32417.4 78.499V234.537H32158.7V156.518C32158.7 134.974 32141.3 117.509 32119.7 117.509L31520.2 117.509C31498.7 117.509 31481.2 134.974 31481.2 156.518V312.556L31291 312.556C31258.7 312.556 31232.5 338.754 31232.5 371.071C31232.5 403.387 31258.7 429.585 31291 429.585L31442.2 429.585V507.604Z" fill="#F28EC0"/>
</svg>
