<svg width="462" height="542" viewBox="0 0 462 542" fill="none" xmlns="http://www.w3.org/2000/svg">
<path d="M448.044 45.4901V265.558C448.044 284.888 432.374 300.558 413.044 300.558H243.396V450.566H415.937C440.932 450.566 461.194 470.829 461.194 495.824C461.194 520.819 440.932 541.081 415.937 541.081H-0.519104L-0.519043 511.985H414.883C423.62 511.985 430.703 504.902 430.703 496.164C430.703 487.427 423.62 480.344 414.883 480.344H247.678C228.348 480.344 212.678 464.674 212.678 445.344V306.246C212.678 286.916 228.348 271.246 247.678 271.246H418.031V50.5609C418.031 42.1653 411.225 35.3594 402.83 35.3594C394.434 35.3594 387.628 42.1653 387.628 50.5609V195.699C387.628 220.424 367.585 240.467 342.86 240.467C318.135 240.467 298.091 220.424 298.091 195.699V90.835H124.733V355.934C124.733 375.264 109.063 390.934 89.7332 390.934H-0.519043V360.998H94.4282V95.5859C94.4282 76.256 110.098 60.5859 129.428 60.5859H292.54C311.87 60.5859 327.54 76.256 327.54 95.5859V195.238C327.54 203.589 334.31 210.359 342.661 210.359C351.013 210.359 357.783 203.589 357.783 195.238V45.49C357.783 20.565 377.988 0.359375 402.913 0.359375C427.838 0.359375 448.044 20.5651 448.044 45.4901Z" fill="#F28EC0"/>
</svg>
