<svg width="120" height="300" viewBox="0 0 120 300" fill="none" xmlns="http://www.w3.org/2000/svg">
<path d="M120 140.706V30.251C120 13.6824 106.569 0.250977 90 0.250977C73.4314 0.250977 60 13.6824 60 30.251V100.251H-16.4103V120.251H60C71.0457 120.251 80 111.297 80 100.251V30.251C80 24.7281 84.4771 20.251 90 20.251C95.5228 20.251 100 24.7281 100 30.251V140.706H60C48.9543 140.706 40 149.66 40 160.706V239.75C40 250.796 48.9543 259.75 60 259.75H70C75.5228 259.75 80 264.228 80 269.75C80 275.273 75.5229 279.75 70 279.75H-16.4103V299.75H70C86.5685 299.75 100 286.319 100 269.75C100 253.182 86.5685 239.75 70 239.75H60V160.706H100C111.046 160.706 120 151.752 120 140.706Z" fill="#F28EC0"/>
</svg>
