<svg width="936" height="791" viewBox="0 0 936 791" fill="none" xmlns="http://www.w3.org/2000/svg">
<g filter="url(#filter0_f)">
<path d="M118.999 415.578H-4.19336V455.578H118.999C141.091 455.578 158.999 437.67 158.999 415.578V135.578H320.438V315.578C320.438 348.715 347.3 375.578 380.438 375.578C413.575 375.578 440.438 348.715 440.438 315.578V75.5781C440.438 64.5324 449.392 55.5781 460.438 55.5781C471.483 55.5781 480.438 64.5324 480.438 75.5781V415.578C480.438 437.67 498.346 455.578 520.438 455.578H680.437C702.529 455.578 720.437 437.669 720.437 415.578V215.578H880.437V635.578C880.437 646.624 871.483 655.578 860.437 655.578C849.392 655.578 840.437 646.624 840.437 635.578V595.578C840.437 562.441 813.574 535.578 780.437 535.578C747.3 535.578 720.437 562.441 720.437 595.578V735.578H360.438V655.578H580.437C613.574 655.578 640.437 628.715 640.437 595.578C640.437 562.441 613.574 535.578 580.437 535.578H-4.19336V575.578H580.437C591.483 575.578 600.437 584.532 600.437 595.578C600.437 606.624 591.483 615.578 580.437 615.578H360.438C338.346 615.578 320.438 633.487 320.438 655.578V735.578C320.438 757.669 338.346 775.578 360.438 775.578H720.437C742.529 775.578 760.437 757.669 760.437 735.578V595.578C760.437 584.532 769.392 575.578 780.437 575.578C791.483 575.578 800.437 584.532 800.437 595.578V635.578C800.437 668.715 827.3 695.578 860.437 695.578C893.574 695.578 920.437 668.715 920.437 635.578V215.578C920.437 193.487 902.529 175.578 880.437 175.578H720.437C698.346 175.578 680.437 193.487 680.437 215.578V415.578H520.437V75.578C520.437 42.441 493.574 15.5781 460.437 15.5781C427.3 15.5781 400.438 42.441 400.438 75.578V315.578C400.438 326.624 391.483 335.578 380.438 335.578C369.392 335.578 360.438 326.624 360.438 315.578V135.578C360.438 113.487 342.529 95.5781 320.438 95.5781H158.999C136.908 95.5781 118.999 113.487 118.999 135.578V415.578Z" fill="#F28EC0"/>
</g>
<defs>
<filter id="filter0_f" x="-19.1934" y="0.578125" width="954.631" height="790" filterUnits="userSpaceOnUse" color-interpolation-filters="sRGB">
<feFlood flood-opacity="0" result="BackgroundImageFix"/>
<feBlend mode="normal" in="SourceGraphic" in2="BackgroundImageFix" result="shape"/>
<feGaussianBlur stdDeviation="7.5" result="effect1_foregroundBlur"/>
</filter>
</defs>
</svg>
