<svg width="921" height="761" viewBox="0 0 921 761" fill="none" xmlns="http://www.w3.org/2000/svg">
<path d="M118.999 400.578H-4.19336V440.578H118.999C141.091 440.578 158.999 422.67 158.999 400.578V120.578H320.438V300.578C320.438 333.715 347.3 360.578 380.438 360.578C413.575 360.578 440.438 333.715 440.438 300.578V60.5781C440.438 49.5324 449.392 40.5781 460.438 40.5781C471.483 40.5781 480.438 49.5324 480.438 60.5781V400.578C480.438 422.67 498.346 440.578 520.438 440.578H680.437C702.529 440.578 720.437 422.669 720.437 400.578V200.578H880.437V620.578C880.437 631.624 871.483 640.578 860.437 640.578C849.392 640.578 840.437 631.624 840.437 620.578V580.578C840.437 547.441 813.574 520.578 780.437 520.578C747.3 520.578 720.437 547.441 720.437 580.578V720.578H360.438V640.578H580.437C613.574 640.578 640.437 613.715 640.437 580.578C640.437 547.441 613.574 520.578 580.437 520.578H-4.19336V560.578H580.437C591.483 560.578 600.437 569.532 600.437 580.578C600.437 591.624 591.483 600.578 580.437 600.578H360.438C338.346 600.578 320.438 618.487 320.438 640.578V720.578C320.438 742.669 338.346 760.578 360.438 760.578H720.437C742.529 760.578 760.437 742.669 760.437 720.578V580.578C760.437 569.532 769.392 560.578 780.437 560.578C791.483 560.578 800.437 569.532 800.437 580.578V620.578C800.437 653.715 827.3 680.578 860.437 680.578C893.574 680.578 920.437 653.715 920.437 620.578V200.578C920.437 178.487 902.529 160.578 880.437 160.578H720.437C698.346 160.578 680.437 178.487 680.437 200.578V400.578H520.437V60.578C520.437 27.441 493.574 0.578125 460.437 0.578125C427.3 0.578125 400.438 27.441 400.438 60.578V300.578C400.438 311.624 391.483 320.578 380.438 320.578C369.392 320.578 360.438 311.624 360.438 300.578V120.578C360.438 98.4867 342.529 80.5781 320.438 80.5781H158.999C136.908 80.5781 118.999 98.4867 118.999 120.578V400.578Z" fill="#F28EC0"/>
</svg>
