<svg width="801" height="761" viewBox="0 0 801 761" fill="none" xmlns="http://www.w3.org/2000/svg">
<path d="M80.7188 400.578H0.71875V440.578H80.7188C102.81 440.578 120.719 422.67 120.719 400.578V120.578H200.719V300.578C200.719 333.715 227.582 360.578 260.719 360.578C293.856 360.578 320.719 333.715 320.719 300.578V60.5781C320.719 49.5324 329.673 40.5781 340.719 40.5781C351.764 40.5781 360.719 49.5324 360.719 60.5781V400.578C360.719 422.67 378.627 440.578 400.719 440.578H560.719C582.81 440.578 600.719 422.669 600.719 400.578V200.578H760.719V620.578C760.719 631.624 751.764 640.578 740.719 640.578C729.673 640.578 720.719 631.624 720.719 620.578V580.578C720.719 547.441 693.856 520.578 660.719 520.578C627.582 520.578 600.719 547.441 600.719 580.578V720.578H240.719V640.578H460.719C493.856 640.578 520.719 613.715 520.719 580.578C520.719 547.441 493.856 520.578 460.719 520.578H0.71875V560.578H460.719C471.764 560.578 480.719 569.532 480.719 580.578C480.719 591.624 471.764 600.578 460.719 600.578H240.719C218.627 600.578 200.719 618.487 200.719 640.578V720.578C200.719 742.669 218.627 760.578 240.719 760.578H600.719C622.81 760.578 640.719 742.669 640.719 720.578V580.578C640.719 569.532 649.673 560.578 660.719 560.578C671.764 560.578 680.719 569.532 680.719 580.578V620.578C680.719 653.715 707.582 680.578 740.719 680.578C773.856 680.578 800.719 653.715 800.719 620.578V200.578C800.719 178.487 782.81 160.578 760.719 160.578H600.719C578.627 160.578 560.719 178.487 560.719 200.578V400.578H400.719V60.5781C400.719 27.441 373.856 0.578125 340.719 0.578125C307.582 0.578125 280.719 27.441 280.719 60.5781V300.578C280.719 311.624 271.764 320.578 260.719 320.578C249.673 320.578 240.719 311.624 240.719 300.578V120.578C240.719 98.4867 222.81 80.5781 200.719 80.5781H120.719C98.6274 80.5781 80.7188 98.4867 80.7188 120.578V400.578Z" fill="#F28EC0"/>
</svg>
