<svg width="371" height="541" viewBox="0 0 371 541" fill="none" xmlns="http://www.w3.org/2000/svg">
<path d="M370.601 45.2821V265.35C370.601 284.68 354.931 300.35 335.601 300.35H220.648V450.358H325.44C350.435 450.358 370.698 470.621 370.697 495.616C370.697 520.611 350.435 540.873 325.44 540.873H0.417408L0.417474 511.777H324.386C333.123 511.777 340.206 504.694 340.206 495.956C340.206 487.219 333.123 480.136 324.386 480.136H224.929C205.599 480.136 189.929 464.466 189.929 445.136V306.038C189.929 286.708 205.599 271.038 224.929 271.038H340.588V50.3529C340.588 41.9573 333.782 35.1514 325.387 35.1514C316.991 35.1514 310.185 41.9573 310.185 50.3529V195.491C310.185 220.216 290.142 240.259 265.417 240.259C240.691 240.259 220.648 220.216 220.648 195.491V90.627H131.277V355.726C131.277 375.056 115.607 390.726 96.2771 390.726H0.417474V360.79H100.972V95.3779C100.972 76.0479 116.642 60.3779 135.972 60.3779H215.097C234.427 60.3779 250.097 76.0479 250.097 95.3779V195.03C250.097 203.381 256.867 210.151 265.218 210.151C273.569 210.151 280.339 203.381 280.339 195.03V45.282C280.339 20.357 300.545 0.151367 325.47 0.151367C350.395 0.151367 370.601 20.3571 370.601 45.2821Z" fill="#F28EC0"/>
</svg>
